<?xml version="1.0" encoding="utf-8"?>
<!-- Generator: Adobe Illustrator 19.1.0, SVG Export Plug-In . SVG Version: 6.00 Build 0)  -->
<!DOCTYPE svg PUBLIC "-//W3C//DTD SVG 1.1//EN" "http://www.w3.org/Graphics/SVG/1.1/DTD/svg11.dtd">
<svg version="1.1" id="Ebene_1" xmlns="http://www.w3.org/2000/svg" xmlns:xlink="http://www.w3.org/1999/xlink" x="0px" y="0px"
	 viewBox="0 161 800 480" style="enable-background:new 0 161 800 480;" xml:space="preserve">
<style type="text/css">
	.st0{fill:#D3AE3B;}
	.st1{fill:#C40308;}
	.st2{fill:#B96B29;}
	.st3{fill:#D4AF3A;}
	.st4{fill:#1D5E91;}
	.st5{fill:#6D8C3E;}
	.st6{fill:#C52126;}
</style>
<g>
	<rect y="161" class="st0" width="800" height="18.9"/>
	<rect y="622.1" class="st0" width="800" height="18.9"/>
	<rect y="179.9" class="st1" width="800" height="442.2"/>
</g>
<g>
	<path class="st2" d="M508.1,396c2.9-0.8,12.9-3.7,19.9-9.5c7-5.7,8.4-10.3,9-12.8c0.6-2.5,0.8-4.4-1-3c-1.8,1.4-7.3,5.7-11,7.8
		c-3.7,2.1-7.2,3-9.2,3.6c-2,0.6-3.6,0.9-1.7,0.2c1.9-0.8,8.3-3,13.2-7.9c4.9-4.9,8.8-12.3,8.9-16.8c0.1-4.5-0.2-4.2-1.7-3.1
		c-1.5,1.1-6.6,7.5-9.5,9.9c-2.9,2.4-7.6,5.6-9.9,7c-2.3,1.4-5.6,2.9-1-0.2c4.6-3.1,13.3-10.6,16.9-20.2c3.5-9.6,2.9-15.2,2.8-16.2
		c-0.1-1-0.9-2.9-1.7-1.1c-0.8,1.8-6.6,13.4-11.3,18.4c-4.7,5-3.6,4-4.6,4.8c-1,0.8-2.8,2.3-0.6-0.6c2.3-2.8,6.9-9.4,9.4-15.8
		c2.4-6.5,3.1-12.9,3.1-16.6c0.1-3.7-1.5-8.9-2.3-10.4c-0.7-1.5-1.5-2.7-1.7-0.9c-0.2,1.8-4,13.2-6,18.8c-2,5.6-6,11.9-6.9,13.1
		c-0.8,1.2-2.9,3.7-0.6-0.5c2.3-4.2,6.6-16.5,7.2-28.2c0.6-11.7-1-18.1-2.7-21.4c-1.6-3.2-3-4.4-3-4.4s0.3,8-2.1,19.5
		c-2.4,11.5-5.9,17.5-5.9,17.5s-1.5,1.7-0.5-1.1c0.7-1.9,2.1-5.9,2.7-12.8c0.7-7.2,0.8-15.5-1.4-22.5c-2.3-7.6-6.3-11.6-6.3-11.6
		c-1.1,11-0.9,25.1-4.9,36.6c-0.8-0.7-1.7-1.9-2.1,0.6c-0.7,3.8-2.2,10.8-7.1,19.8c-5,9-7,10.2-7,10.2s-0.9-2.2-1.6-3.4
		c-0.6-1.2-1-1.8-1.8-0.2c-0.8,1.7-3.6,8-9.6,15c-6,7-9.4,10.4-9.3,15.6c0.2,5.2,2.9,7.9,6.6,10.3c3.7,2.4,4.3,3.7,3.8,6.5
		c-0.5,2.8-3.8,3.9-6.7,3.9c-2.8,0.1-6.4-0.2-7.7,0.5c-1.3,0.7-1.4,2.6-2.7,3.9c-1.3,1.3-1.8,2-3,2.2c-0.4,0.1-0.8,0.1-1,0.1
		c-0.3-13.8,5.1-19.9,5.1-19.9l-14.9-17.6c-0.8,0.4-1.5,0.7-2.3,1.1c-0.1-0.2-0.2-0.4-0.4-0.7c-2-2.5-2.6-4.7-2.6-7.9
		c0.7,0.1,2.2,0.6,3.6,0.3c1.4-0.3,0.3-1.6-0.1-2.9c-0.4-1.3-0.8-5.8-0.5-7.5c0.3-1.7,0.4-2.4,0.4-2.4s2.2,2.4,3.5,2.4
		c1.4,0,1.2-1.4,1.4-2.9c0.3-2.3,1.4-5.1,3.1-6.7c0,0,2.4,1.6,5.1,1.6c2.7,0,6.4-0.7,9.3-3.5c2.9-2.8,2.8-3.5,2.8-3.5
		s5.4,1.9,9.5,2.1c4.1,0.2,8.5-0.5,10.6-4.8c2.1-4.3-0.6-8.4-1.1-9c-0.5-0.7-1.8-1.2-1.8,0c0,1.2,0.1,4.5-2.4,6.1
		c-2.5,1.6-4.5,1.6-6.8,0.8c-2.4-0.7-5.7-1.7-9.5-1.2c-3.4,0.5-3.9,0.8-3.9,0.8c0.2-0.2,3.3-3.3,6.3-4.3c3.1-1,4.9,0.3,6,1.6
		c1,1.2,1.9,3.2,2.7,0.3c0.8-2.9,0.3-6.1-1-8.2c-1.4-2.1-4.3-3.5-7.3-3.1c-3,0.3-4.1,0.8-4.1,0.8s-1.6-4.4-5.5-5.2
		c-4.8-1-10.1,0.8-14.2,3.1c0,0-3.3,0.7-6.6-0.2c-2.2-0.6-4.3-1.9-5.6-2.8c0.4-1.3,1.1-3.6,1.1-3.6s0.9-0.3,1.9-0.7
		c1-0.4,0.8-0.7,0.9-1.5c0.1-0.8-1.9-2.3-1.9-2.3s-0.3-2.5,3-4.2c3.3-1.7,2.9-1.4,2.9-1.4s1.9,0.4,2.7-0.2c0.8-0.6,0.8-0.9,0.8-0.9
		s1.4-0.5,2-1.3c0.5-0.9,0.6-2.1,0.2-3.1c-0.4-1-0.9-1.2-0.3-1.7c0.5-0.5,1-1.6,1.1-2.5c0-0.8,0-1,0-1s1.1-0.4,1.1-2.1
		c0-1.7-1-2.4-1.5-2.5c-0.5-0.1-0.9-0.1-0.9-0.1s-0.1-1-1-2.4c-0.9-1.4-1.4-1.9-1.4-1.9s0.6-0.5,0.3-1.6c-0.3-1.1-1.1-1.8-1.9-2
		c-0.8-0.2-1.6,0-1.6,0s-2.6-1.5-3.8-2.2c-1.2-0.6-1.5-0.8-1.5-0.8s0-1.1-0.5-1.6c-0.4-0.6-1.4-0.8-2-0.8s-1.1,0.3-1.1,0.3
		s-4.3-1.1-6.1-1.4c-1.8-0.3-1.9-0.4-1.9-0.4s-3.9-1.8-5.4-2.1c-1.5-0.3-1.9-0.4-1.9-0.4s1.6-1.9,1.7-4.1c0.1-2.2-1.3-4.2-2.9-5.2
		c-0.9-0.5-1.3-0.6-1.6-0.8l0-1.5l2.9,0.3l0.2-4.7l-2.8,0.4l0.4-2.8l-5.9-0.1l0.4,2.8l-2.8-0.2l0.2,4.6l3-0.4l-0.3,1.7
		c0,0-1.1,0.2-2,0.9c-1.5,0.9-2.9,2.7-2.8,4.9c0.1,2.2,1.4,4.1,1.4,4.1s-0.4,0.1-1.9,0.4c-1.5,0.3-5.4,2.1-5.4,2.1s-0.1,0.1-1.9,0.4
		c-1.8,0.3-6.1,1.4-6.1,1.4s-0.6-0.3-1.1-0.3c-0.5,0-1.5,0.2-2,0.8c-0.4,0.6-0.5,1.6-0.5,1.6s-0.3,0.1-1.5,0.8
		c-1.2,0.6-3.8,2.2-3.8,2.2s-0.8-0.2-1.6,0c-0.8,0.2-1.5,0.9-1.9,2c-0.3,1.1,0.3,1.6,0.3,1.6s-0.6,0.6-1.4,1.9c-0.9,1.4-1,2.4-1,2.4
		s-0.3,0-0.9,0.1c-0.5,0.1-1.4,0.8-1.5,2.5c0,1.7,1.1,2.1,1.1,2.1s0,0.2,0,1c0,0.8,0.5,2,1.1,2.5c0.5,0.5,0,0.7-0.3,1.7
		c-0.4,1-0.3,2.3,0.2,3.1c0.5,0.9,2,1.3,2,1.3s0,0.4,0.8,0.9c0.8,0.6,2.7,0.2,2.7,0.2s-0.4-0.3,2.9,1.4c3.3,1.7,3,4.2,3,4.2
		s-2,1.4-1.9,2.3c0.1,0.8-0.1,1.2,0.9,1.5c1,0.4,1.9,0.7,1.9,0.7s0.7,2.3,1.1,3.6c-1.2,0.8-3.4,2.2-5.6,2.8c-3.3,1-6.6,0.2-6.6,0.2
		c-4.1-2.3-9.4-4.1-14.2-3.1c-3.9,0.8-5.5,5.2-5.5,5.2s-1.1-0.5-4.1-0.8c-3-0.3-6,1-7.3,3.1c-1.4,2.1-1.8,5.4-1,8.2
		c0.8,2.9,1.7,0.9,2.7-0.3c1-1.2,2.8-2.5,6-1.6c3,0.9,6.1,4.1,6.3,4.3c-0.1-0.1-0.5-0.3-3.9-0.8c-3.8-0.5-7.1,0.4-9.5,1.2
		c-2.4,0.7-4.3,0.8-6.8-0.8c-2.5-1.6-2.4-4.9-2.4-6.1s-1.4-0.7-1.8,0c-0.5,0.7-3.2,4.7-1.1,9c2.1,4.3,6.5,5,10.6,4.8
		c4.1-0.2,9.5-2.1,9.5-2.1s-0.1,0.7,2.8,3.5s6.6,3.5,9.3,3.5s5.1-1.6,5.1-1.6c1.7,1.6,2.8,4.4,3.1,6.7c0.2,1.5,0.1,2.9,1.4,2.9
		c1.4,0,3.5-2.4,3.5-2.4s0.1,0.7,0.4,2.4c0.3,1.7-0.1,6.2-0.5,7.5c-0.4,1.3-1.4,2.6-0.1,2.9c1.4,0.3,2.8-0.3,3.6-0.3
		c0,3.3-0.7,5.4-2.6,7.9c-0.2,0.2-0.3,0.4-0.4,0.6c-0.7-0.3-1.5-0.7-2.2-1l-14.9,17.6c0,0,5.4,6.2,5.1,20.1v-0.1
		c-0.3,0-0.6-0.1-1.1-0.1c-1.2-0.2-1.7-0.9-3-2.2c-1.3-1.3-1.4-3.1-2.7-3.9s-4.9-0.5-7.7-0.5c-2.8-0.1-6.1-1.1-6.7-3.9
		c-0.5-2.8,0.1-4.1,3.8-6.5c3.7-2.4,6.4-5,6.6-10.3c0.2-5.2-3.2-8.6-9.3-15.6c-6-7-8.8-13.3-9.6-15s-1.2-1-1.8,0.2
		c-0.6,1.2-1.6,3.4-1.6,3.4s-2-1.2-7-10.2c-4.9-9-6.4-16.1-7.1-19.8c-0.4-2.5-1.4-1.3-2.1-0.6c-4-11.5-3.8-25.6-4.9-36.6
		c0,0-4,3.9-6.3,11.6c-2.1,7-2,15.3-1.4,22.5c0.6,6.9,2,11,2.7,12.8c1,2.8-0.5,1.1-0.5,1.1s-3.5-6.1-5.9-17.5
		c-2.4-11.5-2.1-19.5-2.1-19.5s-1.4,1.1-3,4.4c-1.6,3.2-3.2,9.7-2.7,21.4c0.6,11.7,4.9,24,7.2,28.2c2.3,4.2,0.2,1.7-0.6,0.5
		c-0.8-1.2-4.8-7.5-6.9-13.1c-2-5.6-5.7-17-6-18.8c-0.2-1.8-1-0.6-1.7,0.9c-0.7,1.5-2.3,6.7-2.3,10.4c0.1,3.7,0.7,10.2,3.1,16.6
		c2.4,6.5,7.1,13,9.4,15.8c2.3,2.8,0.5,1.4-0.6,0.6c-1-0.8,0.1,0.2-4.6-4.8s-10.5-16.6-11.3-18.4c-0.8-1.8-1.6,0.2-1.7,1.1
		c-0.1,1-0.7,6.6,2.8,16.2c3.5,9.6,12.3,17,16.9,20.2c4.6,3.1,1.3,1.6-1,0.2c-2.3-1.4-7-4.6-9.9-7c-2.9-2.4-8.1-8.8-9.5-9.9
		c-1.5-1.1-1.8-1.5-1.7,3.1c0.1,4.5,4,11.9,8.9,16.8c4.9,4.9,11.3,7.1,13.2,7.9c1.9,0.8,0.3,0.4-1.7-0.2c-2-0.6-5.5-1.5-9.2-3.6
		c-3.7-2.1-9.2-6.4-11-7.8c-1.8-1.4-1.6,0.5-1,3c0.6,2.5,1.9,7.1,9,12.8c7,5.7,17.1,8.6,19.9,9.5c2.9,0.8,0.9,0.8,0.9,0.8
		s-1.1-0.2-7-1.5c-5.8-1.3-14.7-5.9-17.1-7.4c-2.4-1.5-2.8-2.1-2.4,1.1c0.3,3.2,3.7,9.9,9.1,13.1c5.4,3.2,15.1,4.8,17.6,4.9
		c2.5,0.1,1.9,0.5,0.7,0.6c-1.1,0.1-3.9,0.1-8.5-0.4c-3.8-0.4-9.3-2.3-11.2-2.9c-0.2-0.8-0.4-1.6-0.5-2.1c-0.2-1.2-0.8-1-1.2-0.8
		c-0.4,0.3-0.6,0.5-2,1.2c-1.3,0.7-1.4-0.1-1.4-0.5c0-0.4-0.3-2.1-0.4-3c0-0.9-0.5-0.9-1.2-0.7c-0.6,0.3-3.6,1.5-4.7,2
		c-1.1,0.5-0.1,1.4,0.5,2.5c0.6,1.1,1.5,2.6,1.5,2.6s-2.8,0.8-3.7,1c-0.9,0.2-0.6,0.9-0.4,1.5c0.2,0.6,1.6,3.8,2,4.6
		c0.4,0.9,1.2,0.4,1.2,0.4l2.8-1.7l1,3.8c0,0.1-1.3,0.3-2.7,1.3c-1.4,1-1.1,2.3,0.6,2.8c1.7,0.5,3.7,1.4,5.9,5.3
		c2.2,4,2.8,11.2,4.1,22.5c1.3,11.3,8.6,17.1,9.6,17.8c1,0.7,0.4,1.3,0.4,1.3s-1,1.4-0.6,3.6c0.4,2.2,2.3,3.5,3.3,3.8
		c1,0.4,0.7,1.4,0.7,1.4s-0.5,2.4,0,6.8c0.5,4.4,4.1,9.4,5.1,10.2c1,0.9,1.1,1.3,0.9,1.6c-0.1,0.4-0.8,0.1-2,1
		c-1.2,0.9-2.6,2.2-3.4,3.8c-0.9,1.6-0.6,2.5-0.3,4.6c0.3,2.1,3.4,4.1,3.4,4.1s-0.6,0.1-0.7,1.7c-0.1,1.6,1,3.3,2.4,4.5
		c1.4,1.1,4.1,1.7,4.1,1.7s0.2,1.4,0.4,2.3c0.1,0.9,1.9,1.8,3.1,2.5c1.1,0.6,3.3,0.3,4.3-0.1c0.9-0.4,1.6,0.1,2.1,1
		c0.6,0.9,0.4,4.5,0.4,5.9c0,1.4-0.9,2.9-0.4,3.6c0.5,0.7,1.8,0.2,3.2-0.6c1.3-0.8,1.7-0.2,2.9,0.6c1.2,0.8,3.1,1.5,3.6,1.4
		c0.5-0.1,0.3-1.4,0.3-2.4c0-1.1,0.2-3.5,0.7-3.8c0.2-0.2,2.3-0.3,3.9-1c0.7-0.3,1.7-0.6,1.8-1.4c0.1-0.7-1-0.7-3.3-1.9
		c-2.3-1.2-2.8-1.9-4.3-2.9c-1.5-1-0.8-1.4-0.8-1.8c0-0.4,0.7-0.9,1-1.5c0.3-0.6,0.1-1.8,0.1-1.8s1.2-1.2,1.8-1.9
		c0.6-0.6,1.3-1.6,2.1-2.3s2-3.7,2.8-4.7c0.8-1,2.6-2.1,3.6-3.4c1.1-1.4,3.9-3.6,5.5-4.6c1.6-1.1,6-3.1,6-3.1s-0.1,2.6,1.1,3.9
		c1.1,1.3,2.6-1,7.7-4.6c5-3.6,8.9-4.8,8.9-4.8s1.1,1.6,2.4,3.3c1.3,1.7,2.6-0.1,8.7-8.6c4.9-6.7,11.3-12.9,13.8-15.2
		c0.5,0.2,0.9,0.4,1.4,0.6c-0.1,0.3-0.2,0.7-0.4,1.1c-0.6,1.8-1.5,2.9-2.7,5.4c-1.2,2.5-3,3-5.2,6.4c-2.1,3.3-2.4,5.6-2.6,9
		c-0.2,3.4,1.7,4.1,1.7,4.1s-3.1,3-4,5.3c-0.9,2.3-1.4,6.9-1.4,6.9s-0.5,0.2-1.6,2.5c-1.1,2.3-3.2,2.7-6.2,5.7c-3,3-6.3,4.2-7.8,5.2
		c-1.6,0.9-1.1,1.8-0.7,3c0.4,1.2,2.5,2.4,5,3.3c2.5,0.9,3.3,0.6,5,0.5c1.7-0.1,0.4,1.3-0.4,2c-0.7,0.7-1.6,3.2-1.5,5.9
		c0.1,2.8,2.2,2.1,4.7,1.7c2.5-0.4,5.5-1.7,5.5-1.7s0,0-0.3,0.8c-0.3,0.8-0.4,1.3-0.4,3.5c0,2.2,0.4,3.3,1,3.8
		c0.6,0.6,1.9-0.6,2.8-0.9c0.9-0.3,2.5-1.2,4.7-1.7c2.3-0.5,3.1-1.5,3.1-1.5s-0.6,0.7-0.7,2.3c-0.1,1.6-0.1,3.9,0.3,5.2
		c0.4,1.3,1.3,3,2.9,4.4c1.6,1.4,1.9,0.8,3-1c1.1-1.8,3.5-4,3.5-4s0.1,0.6,1.7,5.6c1.6,5,6.6,9.2,6.6,9.2s5.1-4.2,6.6-9.2
		c1.6-5,1.7-5.6,1.7-5.6s2.3,2.3,3.5,4c1.1,1.8,1.5,2.4,3,1c1.6-1.4,2.5-3,2.9-4.4c0.4-1.3,0.4-3.7,0.3-5.2
		c-0.1-1.6-0.7-2.3-0.7-2.3s0.8,1,3.1,1.5c2.3,0.5,3.8,1.4,4.7,1.7c0.9,0.3,2.2,1.5,2.8,0.9c0.6-0.6,1-1.6,1-3.8
		c0-2.2-0.1-2.8-0.4-3.5c-0.3-0.8-0.3-0.8-0.3-0.8s3,1.3,5.5,1.7c2.5,0.4,4.6,1.1,4.7-1.7c0.1-2.8-0.8-5.2-1.5-5.9
		c-0.7-0.7-2-2-0.4-2c1.7,0.1,2.5,0.4,5-0.5c2.5-0.9,4.6-2.1,5-3.3c0.4-1.2,0.8-2.1-0.7-3c-1.6-0.9-4.9-2.2-7.8-5.2
		c-3-3-5-3.3-6.2-5.7c-1.1-2.3-1.6-2.5-1.6-2.5s-0.5-4.6-1.4-6.9c-0.9-2.3-4-5.3-4-5.3s1.9-0.7,1.7-4.1c-0.2-3.4-0.5-5.7-2.6-9
		c-2.1-3.3-4-3.9-5.2-6.4c-1.2-2.5-2.1-3.6-2.7-5.4c-0.1-0.4-0.2-0.7-0.4-1.1c0.6-0.3,1.2-0.5,1.8-0.8c2.5,2.3,8.9,8.5,13.8,15.2
		c6.2,8.5,7.4,10.3,8.7,8.6c1.3-1.7,2.4-3.3,2.4-3.3s3.8,1.3,8.9,4.8c5,3.6,6.5,5.8,7.7,4.6c0.6-0.7,0.7-1.8,0.8-2.7
		c0,0,2.9,0.8,6.2,2c2,0.7,4.2,1.6,5.8,2.3c4.4,1.8,4.8,2.8,8.3,5.5s8.4,2.5,13.1,1.1c4.7-1.4,17.1-5.5,22.1-7.7
		c5-2.2,8.6-4.1,9.1-5.1c0.5-1,1.1-3.8,1.1-4.8c0-1-1.1-2.5-1.5-2.7c-0.4-0.3-0.2-1.1-0.1-1.7c0.1-0.6-0.2-2.5-1-3.4
		c-0.8-0.8-0.7-1.2-0.6-3.6c0.2-5.1-3.5-11.6-8.7-13.7c0,0-0.1-0.6-0.6-1c-0.4-0.4-1.1-0.7-1.1-0.7s0.1-3,0.1-3.6
		c0-0.6,0.2-0.6,0.6-0.4c0.4,0.2,0.9,0.9,1.8,1.1c0.8,0.2,1.4-0.4,1.5-1.3c0.2-1,0.9-2.9,1.2-3.8c0.3-0.9-0.1-1.1-0.5-1.2
		c-0.4-0.1-1.6-0.2-2.2-0.4c-0.6-0.1-0.6-0.2-0.5-0.5c0.1-0.3,0.4-0.8,1.1-2c0.8-1.2,0.1-1.2-0.7-1.5c-0.7-0.2-4.1-1.3-5-1.4
		c-0.9-0.1-1.1,0.6-1.1,1c0,0.4,0,2.1,0.1,2.7c0,0.6-0.6,0.5-0.9,0.3c-0.4-0.2-1.2-0.7-1.8-1.2c-0.6-0.5-1.1,0-1.3,0.7
		c-0.2,0.7-1,3.6-1.3,4.4c-0.2,0.8-0.2,1.5,0.2,1.7c0.4,0.1,2,0,3,0c1,0,0.4,0.6,0.4,0.6s-1.1,1.7-1.4,2.4c-0.4,0.7-0.9,0.8-1.8,0.8
		c-0.8,0-2.2,0-2.2,0s-5.4,0.2-9.4,3.2c-4,3-5.1,5.4-5.7,6.8c-0.6,1.4-1.3,1.1-1.9,1.6c-0.6,0.5-2.3,2.3-2.3,3.5
		c0,1.1,0.4,1.7-1.3,2.8c-1.7,1.1-3.2,6-0.8,8.6c2.3,2.5,3.3,5.1,4,6.3c0.7,1.2,0,1.7-0.6,1.7c-0.6,0-1.9-1-3-1.8
		c-1.1-0.8-6.4-5-8.8-6.7c-2.3-1.7-0.6-1.5-0.6-1.5s0.6,0.1,1.9-0.5c1.3-0.6,1.6-1.3,0.2-1.7c-1.3-0.4-4-1.9-4.7-2.6
		c-0.7-0.7-1.1-1.5,0.3-2.2c1.3-0.7,4.3-2.6,2-3.3c-2.3-0.6-5.1-1.1-7.4-1.8c-2.3-0.6-2.5-1.3-2.5-1.3l1.5-2.1c0,0,1.2-1.7-0.2-1.9
		c-1.4-0.2-4.8-0.6-7.9-2c-6.2-2.7-10.1-7.3-11.6-12.9l0.1-0.1c1.2,2.3,3.9,6.6,8,6.7c5.6,0.2,6.2-1.6,4.9-3.4s-2.7-3.5-3.1-4
		c-0.4-0.6-0.5-1.3,1,0.1c1.5,1.4,4.3,6.1,12.7,5.5c8.4-0.5,8.4-2.2,8.4-2.7c0-1.6-1.7-1.9-2.7-2.9c-0.5-0.5-0.8-1.3,0.9-0.6
		c1.7,0.6,5.9,1.4,11.5,0.2c2.2-0.5,8.2-3.1,8.7-6.1c0,0-3.8-0.2-6.4-1.3c-2.6-1.1-4.2-2.1-1.4-1.5c2.8,0.6,8.2,1.7,13,0.1
		c2.8-0.9,6.4-3.2,6.4-7.3c0,0-5.2-1.1-7.1-1.8c-1.9-0.7-2.5-1.2-2.5-1.2s7.4,2.4,14.1-1.1c6.7-3.4,7-8.1,7-9.2s-0.2-1.4-0.2-1.4
		s-6.1,1.5-10.7,1.5c-4.6,0-6-0.4-6-0.4s12.8-0.4,19.2-4.3c6.4-3.9,6.8-11.7,6.8-11.7s-7.3,2.6-11.9,3.1c-4.6,0.5-7.4,0.5-8.5,0.4
		c-1.1-0.1-1.8-0.4,0.7-0.6c2.5-0.1,12.2-1.7,17.6-4.9c5.4-3.2,8.8-9.9,9.1-13.1c0.3-3.2,0-2.6-2.4-1.1c-2.4,1.5-11.2,6.1-17.1,7.4
		c-5.8,1.3-7,1.5-7,1.5s-2.2-0.1,0.6-0.9L508.1,396z M277.6,410.8c-0.6,0.4-2.6,1.5-2.6,1.5s-1-2.1-1.3-2.7
		c-0.3-0.6-0.1-0.9,0.2-0.9c0.4,0,1.4-0.3,2.3-0.4c0.1,0,0.2,0,0.3-0.1C276.8,409,277.2,409.8,277.6,410.8
		C277.6,410.7,277.6,410.8,277.6,410.8L277.6,410.8z M356.2,456.8c-1.6,2.9-5.8,6-8.9,7.3c-3.1,1.4-6.5,1.8-7.9,2
		c-1.4,0.2-0.2,1.9-0.2,1.9l1.5,2.1c0,0-0.2,0.6-2.5,1.3c-2.3,0.6-5,1.1-7.4,1.8c-2.3,0.6,0.6,2.6,2,3.3c1.3,0.7,1,1.5,0.3,2.2
		c-0.7,0.7-3.3,2.2-4.7,2.6c-1.3,0.4-1.1,1.1,0.2,1.7c1.3,0.6,5,1.3,5,1.3s-0.1,0.1-2.3,1.9c-2.3,1.7-6.2,2.8-8.9,3
		c-2.6,0.1-6.8,0.3-12,0.1c-5.3-0.2-5.9-0.4-5.9-0.4s-0.2-1.8-0.5-4.4c-0.4-2.6-1.9-6.3-3.1-8c-1.2-1.7-3.7-5.1-3.7-5.1
		s0.1-0.7,0.2-1.6c0.2-0.8,0.1-1.8-0.6-3.4c-0.6-1.6-3.7-3.9-3.7-3.9s-0.1-1.7-0.1-3.3c0-1.6-1.1-7.9-2.1-10.8c-1-3-5.8-10.7-8-14.4
		c-2.2-3.7-3.5-9.2-4.2-13.4c-0.7-4.2-0.4-5.6-0.2-6.8c0.1-0.5,0.3-0.9,0.5-1.3c0.9,1.2,2.1,2.3,3.6,3.2c6.4,3.9,19.2,4.3,19.2,4.3
		s-1.4,0.4-6,0.4c-4.6,0-10.7-1.5-10.7-1.5s-0.2,0.3-0.2,1.4s0.3,5.8,7,9.2c6.7,3.4,14.1,1.1,14.1,1.1s-0.6,0.5-2.5,1.2
		c-1.9,0.7-7.1,1.8-7.1,1.8c0,4.1,3.6,6.4,6.4,7.3c4.8,1.6,10.2,0.5,13-0.1c2.8-0.6,1.2,0.4-1.4,1.5c-2.6,1.1-6.4,1.3-6.4,1.3
		c0.6,3,6.5,5.6,8.8,6.1c5.7,1.2,9.8,0.4,11.5-0.2c1.7-0.6,1.4,0.1,0.9,0.6c-1,1-2.7,1.3-2.7,2.9c0,0.5,0,2.1,8.4,2.7
		c8.4,0.5,11.2-4.1,12.7-5.5c1.5-1.4,1.4-0.6,1-0.1c-0.4,0.5-1.8,2.2-3.1,4c-1.3,1.8-0.6,3.6,4.9,3.4c4.1-0.1,6.8-4.5,8-6.8l0.1,0.1
		c0.1,0.1,0.2,0.2,0.2,0.3C358.1,452.7,357.2,454.9,356.2,456.8L356.2,456.8z M424.2,274.4c-0.8-1.5-1.2-2.1-1.2-2.1
		s3.2,1.5,5.1,3.6c1.9,2.1,1.8,3.3,2.1,4.3c0.3,1,0,3-0.3,4.8c-0.3,1.8-0.3,2.9,0.1,3.5c0.4,0.6,0.7,1,0.7,1s-1.4,0.4-2.7,0.9
		c-1.3,0.5-3.1,1-4,0.2c-1-0.8-1.2-1.4-0.6-1.9c0.6-0.5,2.9-1.2,3.1-5C426.7,279.8,424.9,275.9,424.2,274.4L424.2,274.4z
		 M406.9,284.9c0.7-1.8,1-3.6,0.5-7.4c-0.5-3.2-1.1-5.9-1.2-9.3c0,0,2.3,0.5,5.7,3.6c3.4,3.1,4.1,6.2,4.1,7.8c0,1.5-0.8,3.4-0.9,4.9
		c-0.1,1.5,0.4,2.8,0.4,2.8s-1.2,0.5-2.3,1.3c-1.1,0.8-1.9,1.2-3.6,1.2c-1.7-0.1-2.7-0.9-3.7-1.4s-1.6-0.6-1.6-0.6
		S406.1,286.8,406.9,284.9L406.9,284.9z M390.4,271.9c3.4-3.1,5.7-3.6,5.7-3.6c-0.2,3.4-0.8,6.1-1.2,9.3c-0.6,3.8-0.3,5.5,0.5,7.4
		c0.7,1.8,2.7,3,2.7,3s-0.6,0.1-1.6,0.6c-1,0.5-2,1.3-3.7,1.4c-1.7,0.1-2.5-0.4-3.6-1.2c-1.1-0.8-2.3-1.3-2.3-1.3s0.6-1.3,0.4-2.8
		c-0.1-1.5-0.9-3.4-0.9-4.9C386.3,278.1,387.1,275,390.4,271.9L390.4,271.9z M378.3,290.6c-1,0.8-2.7,0.3-4-0.2
		c-1.3-0.5-2.7-0.9-2.7-0.9s0.3-0.3,0.7-1c0.4-0.6,0.4-1.7,0.1-3.5c-0.3-1.8-0.6-3.7-0.3-4.8c0.3-1.1,0.2-2.2,2.1-4.3
		c1.9-2.1,5.1-3.6,5.1-3.6s-0.4,0.7-1.2,2.1c-0.8,1.5-2.6,5.4-2.3,9.3c0.3,3.9,2.5,4.5,3.1,5C379.5,289.2,379.2,289.8,378.3,290.6
		L378.3,290.6z M423.2,323c-3.3,1.8-5.2,1.4-5.1,2.8c0.1,1.4,3.1,2.4,3.1,2.4s-3,3.3-5.4,4.8c-2.4,1.5-5.1,2.4-5.1,2.4
		s-0.9,0.1-0.4,1.6c0.5,1.5,1.5,2.5,2.2,2.9c0.7,0.4,1.2,0.5,1.2,0.5s-4.1,4.4-6,5.8c-1.8,1.4-2.8,1.9-4.3,2.5
		c-1.5,0.6-0.7,3.1-0.4,4.1c0.3,1.1,1.6,2.6,2.4,2.8c0.7,0.2,1,0.7,0.1,2.2c-0.7,1.1-3.1,4.1-4.2,5.7l-0.1,0
		c-1.1-1.6-3.5-4.6-4.2-5.8c-0.9-1.5-0.7-2,0.1-2.2c0.7-0.2,2-1.7,2.4-2.8c0.3-1.1,1.1-3.5-0.4-4.1c-1.5-0.6-2.5-1.1-4.3-2.5
		c-1.8-1.4-6-5.8-6-5.8s0.4-0.1,1.2-0.5c0.7-0.4,1.7-1.4,2.2-2.9c0.5-1.5-0.4-1.6-0.4-1.6s-2.8-1-5.1-2.4c-2.4-1.5-5.4-4.8-5.4-4.8
		s3-1,3.1-2.4c0.1-1.4-1.8-1-5.1-2.8c-3.3-1.8-4.4-4.1-4.4-4.1s3.9-1.3,5.8-5.2c0.7-1.4,0.8-2.6,0.8-3.7l0.1,0
		c6.2,2,13.4,2.8,19.8,2.8c6.4,0,13.6-0.8,19.8-2.8l0.1,0c-0.1,1,0.1,2.3,0.8,3.7c1.9,3.9,5.8,5.2,5.8,5.2S426.5,321.2,423.2,323
		L423.2,323z"/>
	<g>
		<path class="st3" d="M443.3,397.7c0-10.4,4.8-17,4.8-17l-13-14.9c-12.4,4.8-23.8,5.1-33.9-0.1c-10.1,5.2-21.5,4.9-33.9,0.1
			l-13,14.9c0,0,4.8,6.6,4.8,17c0,10.4-2,18.2-3.2,23.2c-1.2,5-2.2,14.5,0.5,21.2c2.7,6.7,5.5,12.6,17.1,17.5
			c11.6,4.9,17.6,7.4,21.7,10.8c4,3.4,6.1,6,6.1,6s2-2.7,6.1-6c4-3.4,10.1-5.9,21.7-10.8c11.6-4.9,14.5-10.8,17.1-17.5
			c2.7-6.7,1.7-16.1,0.5-21.2C445.3,415.9,443.3,408.2,443.3,397.7L443.3,397.7z"/>
		<path class="st2" d="M439.2,402c-1.6-10,4.1-18.7,4.1-18.7l-11.2-13.1c-8.6,4.8-20.6,4.2-31-0.6c-10.4,4.8-22.4,5.4-31,0.6
			L359,383.3c0,0,5.7,8.8,4.1,18.7c-1.6,10-5.2,25.7-4.3,32.1c0.9,6.4,5.4,13.9,10.1,17.8c4.7,3.9,11.6,7.2,16.5,8.9
			c4.9,1.8,9.7,5.2,12,6.9c2.3,1.8,3.8,3.3,3.8,3.3s1.5-1.5,3.8-3.3c2.3-1.8,7.1-5.2,12-6.9c4.9-1.8,11.8-5,16.5-8.9
			c4.7-3.9,9.2-11.3,10.1-17.8C444.4,427.7,440.8,412,439.2,402L439.2,402z"/>
		<path class="st4" d="M438.1,403.2c-1.6-10.7,3.2-19.4,3.2-19.4l-10.1-11.2c-8.5,4.4-18.9,3.2-30.1-0.7c-11.3,3.9-21.6,5-30.1,0.7
			l-10.1,11.2c0,0,4.9,8.7,3.2,19.4c-1.6,10.7-4.1,22.9-3.6,30.1c0,0.5,0.1,1,0.2,1.5h9.2c0,0,0.5-0.6,1.6-1.1
			c1-0.4,1.3-0.7,1.3-0.7s0.2-1.9,1.3-2.2c1.1-0.4,1.6-0.4,2-0.4s0.8-0.1,1.3-0.6c0.5-0.5,2-1.9,2.6-3.7c0.6-1.9,1-2.6,1-3.8
			c0-1.2,0.4-3.2,0.4-3.2s-0.2-0.6-1.2-0.2c-0.9,0.3-1.1-0.6-1.2-1.5c-0.1-0.9,0-2.8,0.5-3.7c0.5-0.9,0.7-1.2,0.7-1.2l-0.4-1.5
			c0,0-5.8,1.2-6.9-3.4c-1-4.5-1.2-6.7-1.4-7.2c-0.1-0.5-0.3-0.7-1.1-0.7c-0.8,0-2.4-0.5-3.6-2.8c-1.2-2.3-1.3-3.3-0.9-4.2
			c0.3-0.9,1-0.6,1.2-0.3c0.2,0.3,1.8,2.5,2.4,1.9c0.6-0.6,0.3-0.6-0.6-2.4c-0.9-1.8-0.6-2.3-0.5-3.2c0.1-0.9-0.3-2-0.3-2.5
			c0-0.5,0.5-0.9,1.1-0.6c0.5,0.2,1,0.6,1.3,0.9c0.2,0.3,0.3,0.7,0.8,0.4c0.5-0.3,0.2-1.9,0.2-2.4c0-0.5,0.6-0.9,1.4-0.5
			c0.8,0.4,1.2,1.3,1.2,1.9c0,0.6,0,1.1,0.3,1.1s0.6-0.9,0.7-1.5c0-0.6,0.4-1.5,0.9-0.7c0.5,0.7,0.7,1.8,0.5,2.9
			c-0.2,1.1,0.2,0.5-0.2,2.5c-0.4,2-0.6,2.8-0.5,4.3c0,1.5,0.1,2.3,0.8,4.1c0.7,1.8,1.3,3.9,2.7,3.9c1.4,0,1.8,0,1.8,0
			s1.5-2.9,2.7-3.6c1.2-0.7,2.8-0.8,4-0.9c1.2-0.1,1.7-0.5,1.7-0.8s-0.4-0.4-1.8-0.6c-1.4-0.2-2.6-0.5-2.6-1.6c0-1.1,0.2-2-0.7-2
			c-0.9,0-3.2-0.8-4-2.3c-0.8-1.5-0.6-1.9-0.5-2.7c0.1-0.8,1.2-2.5,1.8-0.9c0.7,1.6,1.1,1.8,1.7,2.1c0.6,0.3,1.4,0.4,1-0.6
			c-0.4-1.1-0.6-1.8-0.5-2.5c0.1-0.8,0.6-1.1,1.3-1.3c0.6-0.1,2.5-0.7,3.5-0.9c1-0.2,1-0.3,1-0.3s0.1-0.7,1.4-1.1s2.1-0.4,3-0.4
			c0.9,0,1.6,0.1,2.8-0.4c1.2-0.6,2.2-0.7,3-0.6c0.8,0,1.4,0.3,1.9,0.7c0.6,0.4,0.4,0.9,0.4,1.5c0,0.5,0.1,0.8,0.9,0.8
			c0.8,0,1.6,0,2.3,0.3c0.8,0.3,1.8,0.7,1.2,1.6c-0.7,0.8-0.7,1.8-1.2,1.7c-0.4,0-0.4,0.4-0.6,0.7c-0.2,0.3-0.3,0.5,0.1,0.8
			c0.5,0.3,0.5,0.6,1.2,1.2c0.7,0.6,1.7,1.3,0.7,2.3c-1,1-2.8,1.9-2.8,1.9s-1,0.5,0.1,1.2c1.2,0.7,1.7,2.1,2.1,2.3
			c0.4,0.2,0.9,0.6,1.2,0.8c0.3,0.1,0.2,1.1,0.2,1.1s-0.6,0.4-1.5,0.8c-0.9,0.3-1.8,0.7-2.6,0.7c-0.8,0-1.3,0-0.9,0.8
			c0.3,0.8,0.9,1.6,1.1,2c0.1,0.4,0.3,1.2,0.3,1.2s1.4,0.3,2.6,0.3c1.2,0,1.8,0,4.4-0.2c2.7-0.3,3.5-0.4,6-0.1
			c2.6,0.3,3,0.2,3.6,0.4c0.7,0.2,1.4,0.6,1.4,0.6s3.6-0.1,5.6-0.5c2-0.4,2.5-1.7,2.2-2.4c-0.3-0.7-0.2-1.7-3.7-2.2
			c-3.5-0.5-4.9-0.3-7.7-0.8c-2.8-0.5-7.1-2-7.9-5.4c-0.8-3.5,2-4.9,3.5-5.6c1.4-0.7,4.5-1.8,5.9-2.3c1.4-0.6,4-1.2,6.7-0.8
			c2.7,0.4,4.3,1.1,5.3,0.5c1.1-0.6,1.9-0.1,1.8,0.8c-0.2,1-1.3,3-4.3,3.9c-3.1,0.9-6.8,1-8.7,0.5c-2-0.5-3.5-1.3-4.7-0.9
			c-1.2,0.4-2.6,2-1.3,3.8c1.3,1.8,8,2.3,9.8,2.5c1.8,0.2,8.5-0.3,10.4,3c1.9,3.3,0.4,7-1.8,7.9c-2.2,0.8-4.1,1.4-5.8,1.6
			c-1.7,0.2-1.7,0.2-1.7,0.2s0.8,1.8,0.8,2.5c0,0.7-0.1,2.1,0.7,2.6c0.8,0.5,2,0.9,3.4,0.8c1.4-0.1,3.1,0.8,3.2,2.1
			c0.1,1.3,0.5,3,0.6,5.6c0.1,2.5,0,4.6,0,4.6s-0.1,1-0.4,1.9c-0.3,0.9-2.1,4.5-2.1,4.5h9.8c0.1-0.5,0.1-1,0.2-1.5
			C442.2,426,439.7,413.9,438.1,403.2L438.1,403.2z"/>
		<path class="st5" d="M361.9,439.5c1.9,5.5,5.9,11,11.9,14.7c8.4,5,12,4.4,19.9,9.5c7.9,5.1,7.4,6,7.5,6c0.1,0-0.4-0.9,7.5-6
			c7.9-5.1,11.5-4.5,19.9-9.5c6-3.6,10-9.2,11.9-14.7H361.9L361.9,439.5z"/>
		<path class="st3" d="M368.7,397.2c0.9,0.9,1.6,1.2,2.9,1.1c1.4-0.1,1.7,0.9,1.9,1.9c0.2,1.1,0.2,3.6,1.2,6c1,2.4,4.3,2.5,4.3,2.5
			c0.1-1.1,0.5-2.7,1-3.9c0.1-0.2,0.5-1.3-0.7-1.3s-1.1-0.5-1.8-1.6c-0.7-1.1-2.1-4.2-2.4-6.1c-0.3-1.9,0.3-4.8,0.6-5.9
			c0.3-1,0.4-1.8,0-1.9c-0.4-0.2-1.1,0-1.1,0s0.3,0.9,0,1c-0.3,0.1-0.6-0.5-0.8-1.1c-0.2-0.7-0.5-0.6-1-0.5c-0.5,0-0.5,0.5-0.1,0.9
			c0.3,0.5,0.1,1.3,0.1,1.3s-1-0.8-1.5-0.9c-0.4-0.2-1.4,0.2-1.5,0.8c-0.1,0.6,0.4,2,1.3,2.8c0.9,0.8,0.9,2.3,0.6,3
			c-0.3,0.7-1.6,0.6-1.9,0.3c-0.3-0.3-0.9-0.4-1.2,0C368.2,396,367.8,396.2,368.7,397.2L368.7,397.2z"/>
		<path class="st3" d="M368.2,394.7c0,0-0.5-0.4-0.7-0.7c-0.2-0.2-0.6-0.8-0.6-0.8s-0.1,0.2-0.1,0.8s0.6,1.2,0.6,1.2L368.2,394.7
			L368.2,394.7z"/>
		<path class="st3" d="M370.2,388.1c0.4-0.2,0.8-0.3,0.4-0.8c-0.3-0.5-0.6-1-0.9-1.1c-0.3-0.1-0.6,0-0.6,0s0.4,0.9,0.5,1.4
			C369.6,388.1,369.8,388.3,370.2,388.1L370.2,388.1z"/>
		<path class="st3" d="M372.6,386.1c0,0.4,0,0.6,0.4,0.4c0.4-0.2,0.5-0.7,0.3-1.1c-0.2-0.4-0.6-0.7-0.6-0.7l-0.3-0.2
			C372.5,384.6,372.7,385.7,372.6,386.1L372.6,386.1z"/>
		<path class="st3" d="M376.2,386.7c0-0.5-0.1-1-0.1-1s0,0.6-0.2,0.9c-0.2,0.3-0.2,0.2,0,0.5C376.1,387.4,376.1,387.1,376.2,386.7
			L376.2,386.7z"/>
		<path class="st3" d="M381.7,410.7c0.7,1.6,2.5-0.9,4.1-3c1.6-2,1.6-0.5,1.3,1.2c-0.2,1.7,0.4,3.4,1.1,4.6c0.6,1.1,1.2,0.5,1.4-0.3
			c0.3-0.8,0.5-2.5,1-3.3c0.5-0.8,1.1-0.1,1.1,0.6c0.1,0.7,0.9,2.3,1.7,3.2c0.8,0.9,1.2-0.3,1.4-1.4c0.3-1.1,0.6-2.8,0.8-3.5
			c0.2-0.7,1-0.1,1-0.1s0.5,0.5,1.6,1.6c1.1,1,1.2-0.6,1.3-1.4c0.1-0.8-0.2-2.6,0.2-2.9c0.3-0.3,1.2,0.4,2.6,1.1
			c1.4,0.7,1.3-0.6,1.2-1.4c-0.2-0.7-1-2.5-2.1-3.4c-1.1-1-1.3-2.1-0.9-2.6c0.4-0.5,1.7-0.1,2.6-0.2c0.9-0.1,1.3-0.2,1.9-0.3
			c0.6-0.1,0.6-0.8,0.6-0.8s-0.5-0.8-1.4-1.6c-0.9-0.8-1.4-1.4-2.6-1.7c-1.1-0.3-2.7,0-2.7,0s0,0-0.2-0.3c-0.2-0.3-0.5-0.3-0.7,0
			c-0.2,0.3-0.7,0.8-1.2,1.1c-0.4,0.4-0.7,0.6-1,0.4c-0.3-0.2,0.2-0.5,0.2-0.5s0.6-0.4,1.1-1.5c0.5-1.1,0.7-2.1,0.3-2.6
			c-0.4-0.5-1.6,0-2.2,0c-0.6,0-1,0.1-1.1-0.2c-0.1-0.3,0.6-0.2,1.4-0.3c0.8-0.1,1.3-1.1,1.6-1.9s0.5-0.7,1-0.2
			c0.5,0.5,0.9,0.4,1,0.1c0.1-0.3,0.5-1.1,1.1-1.9c0.5-0.8,0.9-1.9,0.3-2.7c-0.6-0.8-2-0.6-2.6-0.2c-0.6,0.5-1,1-1.1,2.1
			c-0.2,1.2-0.5,0.5-0.5,0.2c0-0.4-0.5-1-0.3-1.4c0.2-0.5,0-1,0-1s-0.1-1-1.2-1.2c-1.1-0.2-2.4,0.1-3.5,0.3
			c-1.1,0.3-0.9,1.2-0.9,1.2s-0.9,0.1-1.8,0.2c-0.9,0.1-2,0.5-2.8,0.7c-0.9,0.2-1.2,0.3-1.2,0.8c0,0.4,0.2,1.1,0.2,1.1
			s0.7,0,1.1,0.2c0.4,0.2,0.2,0.6-0.3,0.8c-0.4,0.2-0.6,0.2-0.6,0.8c0,0.5,0.2,0.6,0.6,0.6c0.4,0,1.3,0,2.4,0.5
			c1.1,0.5,1.3,1.4,1.2,2c-0.1,0.5-1.6,1.2-2.4,1.2s-1,0.2-1,0.6c0,0.5,0.9,0.4,0.9,0.4s0.9,0.1,2.7,0.3c1.8,0.2,2,0.6,2.8,1.3
			c0.8,0.7,0.2,0.9-0.2,1.1c-0.4,0.2-1,0.7-1.6,0.9c-0.6,0.2-1,0.6-1.5,0.7c-0.5,0.1-1.9,0.1-4.3,1c-2.5,1-3.3,4.2-3.3,4.2
			s0.3-0.1,1.4-0.7c1.1-0.6,2.5-1.2,3.8-2c1.3-0.8,1.3,0.4,0.6,1.5c-0.6,1.1,0.6,0.9,1,0.6c0.4-0.3,0.9-0.6,2.1-1.3
			c1.2-0.6,0.8,0.4,0.8,0.4s-0.4,0.8-0.5,2.5c-0.1,1.8,1.8,0.1,2.6-1c0.9-1.1,1.2,0,0.6,1.3c-0.6,1.3-1.9,2.3-2.6,2.3
			c-0.7,0-1.2-0.8-1.3-1.2c-0.1-0.4,0.2-1.7-0.2-2c-0.4-0.3-1.7,0.1-2.6,0.6c-0.9,0.5-1.1,0.1-1.3-0.4c-0.2-0.5,0.3-0.6,0.1-1
			c-0.2-0.3-0.7,0-1.1,0.2c-0.4,0.2-1.2,0.6-2.9,1.5c-1.7,0.9-1.6,1.3-1.6,2.6S381,409.2,381.7,410.7L381.7,410.7z"/>
		<path class="st3" d="M397.8,383.8c0.3-0.2,1-0.5,1-0.5s0.8-0.2,1.5-0.3c0.7-0.1,0.6-0.5,0.4-0.9c-0.2-0.4-0.4-0.5-1.4-0.5
			c-1,0-1.6,0.5-2.1,0.7c-0.5,0.2-1.2,0.4-1.2,0.4s0.1,0.2,0.5,0.7C396.9,384,397.4,384.1,397.8,383.8L397.8,383.8z"/>
		<path class="st3" d="M401.7,387.7c0.4,0,0.8-0.2,0.8-0.2s0.7-0.3,1.3-0.6c0.6-0.2,0.9-0.3,1.3-1.1c0.4-0.8-0.4-0.8-1.5-1
			c-1.1-0.3-1.6,0.1-1.8,0.5c-0.1,0.4-0.1,0.9-0.5,1.7C400.8,387.7,401.3,387.7,401.7,387.7L401.7,387.7z"/>
		<path class="st3" d="M401.3,388.6c-1.1,0-2.3,1.6-2.7,1.9c-0.4,0.3-0.2,0.6-0.2,0.6s0.3,0.7,0.4,1.3c0.1,0.6,0.2,1.7,0.2,1.7
			s0.2,0.1,0.8,0.1c0.6,0,1-0.3,1.6-0.8s1.1-0.6,1.9-0.8c0.9-0.2,1.3-0.3,2.2-0.8c1-0.5-0.5-1.4-1.5-2.2
			C403,388.8,402.4,388.7,401.3,388.6L401.3,388.6z"/>
		<path class="st3" d="M387,392.3c0.9-0.1,1.2-0.5,1.2-1c0-0.5-0.4-1-1.5-0.9c-2.7,0.2-5.2-0.7-5.7-3.4c0,0-0.9,1.7,0.8,3.5
			C383.4,392.4,386.2,392.4,387,392.3L387,392.3z"/>
		<path class="st3" d="M377.9,434.3c0.1,0.2,0.3,0.4,0.5,0.5h4.1c0.7-0.2,0.7-0.8,0.7-1.3c0-0.5,0.4-2,1-4.7
			c0.6-2.7,1.5-4.6,1.9-5.7s-0.4-1.5-0.7-2.1c-0.3-0.7-0.7-1.9-0.8-2.5c-0.1-0.6-1.1-0.5-1.6-0.5c-0.5,0-0.6,0.9-0.7,1.7
			c-0.1,0.8-0.4,3.2-0.8,5.3c-0.4,2.1-2.7,4.8-3.4,5.4c-0.6,0.6-1.2,0.9-1.6,0.9s-1.4,0-1.9,0.3c-0.5,0.3-1,1.1-1,1.7
			c0,0.6,0.9,0.9,0.9,0.9s0.8-0.4,1-0.8c0.3-0.4,0.9-0.4,1.6-0.6c0.6-0.1,0.7,0.1,0.5,0.4C377.4,433.3,377.4,433.4,377.9,434.3
			L377.9,434.3z"/>
		<path class="st3" d="M371.7,434.1c-0.3,0.1-0.5,0.4-0.7,0.7h2.7c0-0.2-0.1-0.5-0.3-0.7C373.1,433.7,372.2,433.9,371.7,434.1z"/>
		<path class="st3" d="M375.3,434c-0.3,0.2-0.7,0.5-0.9,0.8h2.9c0.1-0.3,0.1-0.6-0.2-0.9C376.4,433.3,375.8,433.7,375.3,434
			L375.3,434z"/>
		<path class="st3" d="M400.2,432.8c-0.3,0-0.6,0.3-1,0.6c-0.4,0.3-0.6,0.8-0.7,1.2c0,0.1,0,0.1,0,0.2h1.2c0,0,0.1-0.1,0.1-0.2
			c0-0.4,0.1-0.7,0.7-1.1C401,433,400.5,432.8,400.2,432.8L400.2,432.8z"/>
		<path class="st3" d="M402.6,434.1c0-0.4-0.1-0.7-0.4-0.7c-0.3,0-0.7,0.5-1.1,0.8c-0.2,0.2-0.4,0.4-0.5,0.5h1.8
			C402.5,434.5,402.6,434.3,402.6,434.1L402.6,434.1z"/>
		<path class="st3" d="M413.7,420.9c0.9-0.6,0.7-0.8,0.8-1.5c0-0.7,0-0.9-0.3-1.1c-0.3-0.2-1.6-0.8-2.8-0.8s-3.5,0.3-4.4,0.9
			c-0.9,0.6-1.3,2.7-1.3,3.8c0,1.1,0.2,1.3,0.5,1.3c0.3,0,0.8-0.8,0.8-0.8s1.1,1.5,1.8,2.5c0.7,1,0.4,1.5,0.1,2.3
			c-0.3,0.8-1.5,2.9-2.4,3.4c-0.9,0.5-1.6,0-2.7-0.1c-1.1-0.2-1.7,0.1-2.3,0.8c-0.6,0.6,0,1.1,0.3,1.1c0.4,0,0.9,0,1.3,0.5
			c0.3,0.4,0.1,1.2-0.1,1.7h5.3c0.9-0.4,1.5-1.6,1.8-2.3c0.3-0.8,1.4-1.8,2-2.3c0.6-0.5,0.6-0.9,0.6-2c0-1.1-0.3-1.8-0.7-2.6
			c-0.4-0.8-0.7-1.9-0.6-2.6C411.6,422.2,412.8,421.5,413.7,420.9L413.7,420.9z"/>
		<path class="st3" d="M405,407.6c0.5,0.9,0.3,1-0.5,1.2c-0.8,0.2-1.6,0.3-2.8,0.2c-1.2-0.1-1.2,0.1-1.2,0.7c0,0.6-0.1,1.9-0.8,2.8
			c-0.7,0.9-1.6,0.6-2.1,0.2c-0.5-0.4-0.8-0.3-1,0.4c-0.2,0.7-0.6,1.1-1.1,2.1c-0.6,1-0.9,1-1.3,0.9c-0.4-0.1-0.8-0.7-1.2-0.7
			c-0.4,0-1-0.8-1.6-1.8c-0.6-1-0.9,0.1-1.3,0.9c-0.4,0.8-0.8,1.4-1.6,1.3c-0.8-0.1-1.6-1.5-2.1-2.4c-0.4-0.9-0.7-1.7-1.4-1.7
			c-0.7,0-1.8,1.4-2.5,1.8c-0.7,0.4-0.9,0.2-1.3-0.2c-0.3-0.5-0.8,0.2-1.2,1.3c-0.4,1.1,0,2,0.6,2.3c0.6,0.3,1.8-0.6,2.6-1.1
			c0.8-0.5,1.2-0.4,2-0.4c0.8,0,0.8,1.4,1.1,3.3c0.4,2,1.5,2.3,1.5,2.3s0.4,0.3,1.3-1.2c0.9-1.5,1-3,1.9-3c0.9,0,0.9,0.2,1.8,1.4
			c0.9,1.2,1.6,2.1,2.1,1.2c0.5-0.9,0.9-2.2,1.5-2.7c0.6-0.5,1.1-0.6,0.5,0.3c-0.6,0.9-0.9,1.8,0.4,1.4c1.2-0.4,5.9-2.3,7.8-2.6
			c0,0,2.2-0.4,4.8-0.5c2.5-0.1,3.2-0.3,4.2-0.3c1,0,1-0.1,1.1-0.8c0.1-0.7-0.5-0.5-2.3-0.5c-1.9,0-3.1,0.2-4.4,0.4
			c-1.3,0.2-1.9,0.2-1.7-0.2c0.2-0.3,0.6-0.6,2.1-0.8c1.5-0.2,4.5-0.4,6.1-0.4c1.6,0,1.1,0.5,1,1.5c-0.1,1.1,0.1,2.6,0.2,3.6
			c0.1,1,0.1,1.3,1,2.7c0.9,1.4,3.8,2.3,4.7,2.7c0.9,0.5,0.7,0,0.7-0.8c0-0.8,0.7-0.8,1.4-0.4c0.8,0.4,2,0.8,2.9,1
			c0.9,0.2,1,0.4,1,0.9s0.1,1.5,0.2,2.5c0.1,1,0.1,1.3-0.3,1.9s-2.1,2.3-2.1,2.3s-0.8,0-2.4,0.4c-1.6,0.4-2.1,1.2-2.3,1.8
			c-0.2,0.7,0.3,0.9,0.4,1.1c0,0.1,0,0.5,0,0.8h0.4c0.1-0.2,0.3-0.5,0.6-0.9c0.6-0.7,2-0.9,2.9-0.5c0.6,0.3,0.6,0.9,0.6,1.3h3.7
			c0.5-1,1.7-3.3,2-4c0.4-0.9,0.6-1.5,0.7-2.7c0-1.2,0.2-6-0.1-6.2c-0.2-0.3,0.1-1.1,0-2.4c-0.1-1.3,0-2.3-2.5-2.5
			c-2.5-0.2-3.2-1.3-4-2.1c-0.8-0.8-0.6-2.7-1.3-5.1c-0.7-2.3-2.3-2.7-5.2-3.2c-2.9-0.6-5-0.6-7.2-0.4c-2.2,0.2-4.8,0.5-6.3,0.4
			C404.2,406.3,404.5,406.7,405,407.6L405,407.6z"/>
		<path class="st3" d="M418.9,434.2c-0.3,0.2-0.4,0.4-0.5,0.5h2.5c0-0.2,0-0.5-0.2-0.7C420.2,433.6,419.5,433.8,418.9,434.2
			L418.9,434.2z"/>
		<path class="st3" d="M423.4,434.1c-0.4,0.2-0.7,0.5-0.8,0.7h2.5c0-0.1,0-0.2,0-0.3C425,434.1,424.2,433.6,423.4,434.1L423.4,434.1
			z"/>
		<path class="st3" d="M360.8,435.6c0.1,0.8,0.3,1.6,0.6,2.4h79.5c0.2-0.8,0.4-1.6,0.6-2.4H360.8L360.8,435.6z"/>
		<path class="st3" d="M414.4,397.7c2.5,1.7,10.5,1.8,14.2,2.5c3.7,0.7,3.5,3.6,2.3,5.1c-1.1,1.5-6.4,1.7-7.4,1.8
			c0.5,0.4,1.3,1.5,1.3,1.5s0.6,0,2.2-0.2c1.6-0.1,4.4-0.5,6.3-2.1c1.9-1.6,1.8-4.1,0.1-5.9c-1.7-1.7-4.5-1.9-7.3-2.2
			c-2.8-0.3-5-0.5-8.2-1.1c-3.2-0.5-4.7-1.8-4.7-3.7c0-1.9,1.7-2.8,3-3.2c1.2-0.4,3.2-0.9,5-0.2c1.8,0.7,3.8,0.7,7.3,0.3
			c3.5-0.4,4.3-2.9,4.3-2.9s-0.4,0.2-2.2,0.3c-1.8,0-3-0.7-6.3-0.8c-3.2,0-4.4,1.1-5.9,1.6c-1.5,0.5-5.5,0.9-6.7,3.5
			C410.6,394.8,411.9,396,414.4,397.7L414.4,397.7z"/>
		<ellipse class="st2" cx="393.5" cy="385.7" rx="1.5" ry="1.5"/>
		<path class="st2" d="M425.7,388.2c-2-0.2-4.6,0.4-4.6,0.4s0.5,0.4,1.1,0.4c0.7,0,1.9-0.1,3.8,0.3c1.9,0.4,3.3-0.6,3.3-0.6
			S427.7,388.4,425.7,388.2L425.7,388.2z"/>
		<path class="st4" d="M406.9,425.2c-0.5-0.8-0.6-0.7-1.2-0.2c-0.6,0.5-1.1-1.2-1.2-2.2c-0.1-1,0.4-4.2,0.4-4.2s-2.7,0.6-4.2,1
			c-1.5,0.5-2.8,0.6-4,0.9c-1.2,0.3-1.8,0.6-2.4,0.4c-0.6-0.1-1.9-0.2-3-0.2c-1,0-1,0.2-2,1.2c-1,1-1.3,1.6-2.2,3.5
			c-0.8,1.9-1.1,3.7-1.4,6.1c-0.2,1.5-0.5,2.6-0.7,3.2h12.5c0.1-0.4,0.3-0.9,0.5-1.3c0.3-0.7,1-1.2,1.5-1.4c0.5-0.2,0.9-0.2,1.1-0.8
			c0.2-0.6,0.8-1,1.5-1.3c0.7-0.3,1.8-0.1,2.8,0.2c1,0.3,1.4-0.4,1.7-0.8c0.3-0.4,0.4-0.9,1-1.7c0.6-0.7,0.1-1.4,0.1-1.4
			S407.3,426,406.9,425.2L406.9,425.2z"/>
		<path class="st4" d="M426.9,425.5c-0.2-0.7-0.1-0.8-0.5-0.9c-0.4-0.1-1.1-0.2-1.8-0.5c-0.6-0.3-0.6,1.4-0.6,1.4s-1.5,0.2-3.1,0
			c-1.7-0.2-3.6-1.7-4.3-2.2c-0.7-0.5-1.4-1.6-1.4-1.6s-0.5,0.5-1,0.8c-0.5,0.3-0.8,1.3-0.9,2.4c-0.1,1,1.2,2.3,1.3,3.4
			c0.1,1-1.1,3.1-1.8,4c-0.4,0.6-1,1.8-1.3,2.5h6c0.1-0.3,0.3-0.7,0.6-1c0.6-0.6,1.7-0.8,1.7-0.8s0-0.3,0.2-0.8
			c0.2-0.6,0.8-1.2,2.3-1.8c1.5-0.6,3.3-0.7,3.3-0.7s0.7-0.6,1.2-1.4C427.4,427.5,427,426.3,426.9,425.5L426.9,425.5z"/>
	</g>
	<g>
		<path class="st3" d="M376.8,491.8c1.1,0.4,3.2-0.4,4.3-1.7c1-1.3,1.4-3.2,2.2-4.3c0.7-1.1,1.3-2,1.3-2s-0.2,1.8-1.2,4.3
			c-0.9,2.4-1.1,5.6-0.9,7c0.4,2.8,2.2,3.2,3.3,2.8c0.8-0.3,2-1.5,3.1-3.3c0.3-0.6,0.6-1.4,0.9-2c0.7-1.3,1.3-3.5,1.7-3.5
			c0.7,0.1,0.2,1.7,0,2.7c-0.5,2.1-1.6,5.2-1.6,7c-0.1,1.9,0.2,5.2,2,5.4c1.9,0.1,2.8-1.5,3.9-5.3c1-3.8,1.3-5,1.7-5
			c0.4,0,0.4,2.6,0.4,3.7c0,0.4,0,1.4,0.2,2.5c0.3,2,0.9,4.5,1.5,5c0.9,0.8,1.6,0.7,1.6,0.7s0.7,0.2,1.6-0.7
			c0.9-0.8,1.6-6.4,1.6-7.5c0-1.1,0-3.7,0.4-3.7c0.5,0,0.7,1.2,1.7,5c1,3.8,2,5.5,3.9,5.3c1.9-0.2,2.1-3.5,2-5.4
			c-0.1-1.9-1.1-4.9-1.6-7c-0.5-2.1,0.2-1.9,1.6,0.7c0.4,0.8,0.9,1.9,1.4,2.6c1,1.6,2,2.5,2.7,2.8c1,0.4,2.8-0.1,3.3-2.8
			c0.4-2.8-1.6-10.7-1.6-10.7s0.2,0.2,0.9,1.3c0.7,1.1,1.1,3.1,2.2,4.3c1,1.3,3.1,2.1,4.3,1.7c1.1-0.4,1.3-2.5,0.4-6.2
			c-0.8-3.7-4.2-5.8-6.6-8.8c-2.2-2.7-3.9-7.6-4.1-8.3c-3,1.5-5.6,3.2-8,5.7c-4.9,5.2-6,6.4-6,6.4s-1.1-1.3-6-6.4
			c-2.4-2.5-5.1-4.2-8.1-5.7c-0.3,0.6-2.3,5.3-4.6,8c-1.1,1.4-2.6,2.4-3.7,3.7c-1.3,1.5-2,3.4-2.5,5.4
			C375.6,489.3,375.7,491.4,376.8,491.8L376.8,491.8z"/>
		<path class="st3" d="M376.7,504.5c1.4-1.3,2.2-2,2.2-2s1.1-0.9,0.8,0.8c-0.3,1.7-0.8,5.1-0.5,6.6c0.4,1.5,0.5,2.8,2.4,1.7
			c1.8-1.1,2.3-1.8,3.2-2.7c0.9-0.9,1.8-1.3,1.6,0.1c-0.2,1.4-0.9,3.6-0.6,6.6c0.3,2.9,1.8,3.4,3.6,0.9c1.9-2.5,3-4.8,3.6-6
			c0.6-1.2,1.7-2.3,1.7,0c0,4.9,1.1,12,6.5,13.9c5.4-1.9,6.5-9,6.5-13.9c0-2.3,1.1-1.2,1.7,0c0.6,1.2,1.7,3.5,3.6,6
			c1.9,2.5,3.3,2.1,3.6-0.9c0.3-2.9-0.4-5.1-0.6-6.6s0.7-1.1,1.6-0.1c0.9,0.9,1.3,1.6,3.2,2.7c1.8,1.1,2-0.2,2.4-1.7
			c0.4-1.5-0.2-4.9-0.5-6.6c-0.3-1.7,0.8-0.8,0.8-0.8s0.7,0.7,2.2,2c1.4,1.3,3.4,1.3,3.4,1.3s0.9-5.1-1.2-8.2
			c-2.1-3.1-2.9-4.1-2.9-4.1s-1.2-0.1-2.1-0.4c-0.9-0.4-1.8-1-1.8-1s0,1.6,0,2.1v0.7c0,0,2.6,2.5,3.2,3.2c0.6,0.7,1.8,2,0,0.8
			c-1.8-1.2-3.3-2.5-3.3-2.5s-0.4,2.6-1.1,3.2c-0.7,0.7-1.8,0.7-2.2,0.6c-0.4-0.2-0.4-0.2-0.4-0.2l-0.1,1c0,0,1.6,3,1.8,4.3
			c0.2,1.2-0.1,1.1-0.9-0.5c-0.7-1.6-2.2-3.6-2.8-4.7s-1.6-1.8-1.5-0.4c0.1,1.4-0.5,3.9-1,4.9c-0.5,0.9-0.8,1.2-0.8,1.2
			s1,3.6,1.1,4.2c0.1,0.7,0,1.4-0.5,0.6c-0.6-0.8-2.2-4.3-2.2-4.3s-2.1-0.1-2.8-0.7c-0.6-0.6-1.6-3-1.6-3s-0.9,3-1.6,4
			c-0.7,1-2.4,1.9-2.4,1.9s-0.1,5.2-0.2,6.2c-0.1,0.9-0.2,1.3-0.6,1.3c-0.4,0-0.4-0.4-0.6-1.3c-0.1-0.9-0.2-6.2-0.2-6.2
			s-1.7-1-2.4-1.9c-0.7-1-1.6-4-1.6-4s-1,2.4-1.6,3c-0.6,0.6-2.8,0.7-2.8,0.7s-1.6,3.5-2.2,4.3c-0.6,0.8-0.7,0.1-0.5-0.6
			c0.1-0.7,1.1-4.2,1.1-4.2s-0.3-0.3-0.8-1.2c-0.5-0.9-1.1-3.5-1-4.9c0.1-1.4-0.9-0.7-1.5,0.4c-0.7,1.1-2.1,3.1-2.8,4.7
			c-0.7,1.6-1.1,1.7-0.9,0.5c0.2-1.2,1.8-4.3,1.8-4.3l-0.1-1l-0.4,0.2c-0.4,0.2-1.5,0.1-2.2-0.6c-0.7-0.7-1.1-3.2-1.1-3.2
			s-1.5,1.2-3.3,2.5c-1.8,1.2-0.6,0,0-0.8c0.6-0.7,3.2-3.2,3.2-3.2s0-0.2,0-0.7v-2.1c0,0-0.9,0.7-1.8,1c-0.9,0.4-2.1,0.4-2.1,0.4
			s-0.8,1-2.9,4.1c-2.1,3.1-1.2,8.2-1.2,8.2S375.2,505.8,376.7,504.5L376.7,504.5z"/>
		<path class="st3" d="M403,538.7c-1.4-1.6-1.8-2.4-1.8-2.4s-0.5,0.8-1.8,2.4c-1.4,1.6-4.6,4.2-4.6,4.2s0.3,4.3,1.8,6.6
			c1.3,2,2.6,3.7,4.6,5.1c2-1.4,3.3-3.1,4.6-5.1c1.6-2.3,1.8-6.6,1.8-6.6S404.4,540.3,403,538.7L403,538.7z"/>
		<path class="st2" d="M400.5,544c0.1,1,0,3.5,0.6,3.5c0.6,0,0.5-2.5,0.6-3.5c0.1-1,0.2-3.4,0.2-3.4h-1.6
			C400.3,540.6,400.4,543,400.5,544L400.5,544z"/>
		<path class="st3" d="M401.1,309.2c-5.8,0.1-12.6-0.7-16.3-2.1c-1.3,0.3-2.7,0.6-4,0.9c6.2,2.3,11.3,3.2,20.3,3.3
			c9-0.1,14.1-1,20.3-3.3c-1.3-0.3-2.7-0.6-4-0.9C413.7,308.5,406.9,309.3,401.1,309.2L401.1,309.2z"/>
		<path class="st3" d="M422.1,304.4c-0.5-0.4-3.1-2.3-3.8-2.6c-0.7-0.3-0.2-1.3,0-1.6c0.1-0.4,3.1-1.2,4.7-1.6
			c1.6-0.4,1.4-0.8,1.4-0.8s-1-1.1-6.9-1.8c-5.9-0.6-16.4-0.5-16.4-0.5s-10.5-0.2-16.4,0.5c-6,0.6-6.9,1.8-6.9,1.8s-0.3,0.3,1.4,0.8
			c1.6,0.4,4.6,1.3,4.7,1.6c0.1,0.4,0.6,1.3,0,1.6c-0.7,0.3-3.3,2.2-3.8,2.6c-0.5,0.4-0.5,1,0.2,1c0.7,0,0.7,0,2.8-0.4
			c6.1-1.2,11.9-1.6,18-1.6c6.1,0.1,11.9,0.4,18,1.6c2,0.4,2.1,0.4,2.8,0.4C422.6,305.4,422.6,304.8,422.1,304.4L422.1,304.4z"/>
		<path class="st3" d="M415.4,306.9c-4.1-0.5-6.7-1-14.2-0.9c-7.6,0.1-10.1,0.5-14.2,0.9c2.6,1,6.7,1.6,14.2,1.6
			C408.6,308.5,412.8,308,415.4,306.9L415.4,306.9z"/>
		<polygon class="st3" points="399.9,250.9 403,250.7 402.7,247.9 406.1,248.4 406.2,245.7 402.7,246 403.3,243.1 399.4,243.1 
			400.1,246 396.7,245.7 396.7,248.4 400.1,248 		"/>
		<path class="st3" d="M406.7,255.3h-4.2v-3.6c-0.4-0.1-0.8-0.1-1.2-0.1c-0.4,0-0.7,0-1.1,0.1v3.6h-4.3c-0.1,0.5-0.2,0.9-0.2,1.4
			c0,0.2,0,0.4,0,0.6h11.2c0-0.2,0-0.4,0-0.6C406.9,256.3,406.8,255.8,406.7,255.3L406.7,255.3z"/>
		<path class="st4" d="M401.3,261.9c2.5,0,4.6-1.5,5.4-3.5h-10.7C396.7,260.4,398.8,261.9,401.3,261.9L401.3,261.9z"/>
		<path class="st4" d="M403.6,252.1v2.5h2.8C405.8,253.4,404.8,252.6,403.6,252.1L403.6,252.1z"/>
		<path class="st4" d="M398.9,252.1c-1.2,0.5-2.2,1.4-2.8,2.5h2.8V252.1z"/>
		<path class="st2" d="M404.5,297.6c-1.1-0.5-3.4-1.5-3.4-1.5s-2.2,1.1-3.4,1.7c-1.2,0.6-1,0.4-1.4,1.3s0,1.2,0.6,1.4
			c0.5,0.2,4.3,2.2,4.3,2.2s3.7-1.7,4.6-2.2c0.9-0.4,0.7-0.8,0.5-1.5C406,298.4,405.5,298.1,404.5,297.6L404.5,297.6z"/>
		<polygon class="st3" points="397.5,298.7 401.2,300.6 404.8,298.7 401.1,297 		"/>
		<path class="st3" d="M401.1,284.3c0,0-0.3,1.3-0.7,1.9c-0.4,0.6-0.7,1-0.6,1.7c0.1,0.7,0.9,1.1,1.3,1.1c0.4,0,1.2-0.4,1.3-1.1
			c0.1-0.7-0.2-1.2-0.6-1.7C401.4,285.6,401.1,284.3,401.1,284.3L401.1,284.3z"/>
		<circle class="st3" cx="401.1" cy="290.3" r="0.7"/>
		<path class="st3" d="M398.7,286.8c0,0,1.2-1.3,1.6-2.2c0.4-0.8,0.8-1.6,0.8-1.6s0.4,0.8,0.8,1.6s1.6,2.2,1.6,2.2s1.7-0.9,2.7-4.1
			c1-3.2-0.2-6.6-0.7-10.3c-0.4-3.7-0.8-10-0.8-10c-1.3,0.7-2.5,1-3.6,1.1c-1.2,0-2.4-0.3-3.6-1.1c0,0-0.4,6.3-0.8,10
			c-0.4,3.7-1.6,7.1-0.7,10.3C397,285.9,398.7,286.8,398.7,286.8L398.7,286.8z"/>
		<ellipse class="st2" cx="401.1" cy="279.5" rx="2.9" ry="2.8"/>
		<ellipse class="st2" cx="401.1" cy="272.9" rx="2.8" ry="2.7"/>
		<ellipse class="st2" cx="401.1" cy="266.6" rx="2.7" ry="2.6"/>
		<ellipse class="st3" cx="401.1" cy="279" rx="1.5" ry="1.5"/>
		<ellipse class="st3" cx="401.1" cy="272.4" rx="1.5" ry="1.4"/>
		<ellipse class="st3" cx="401.1" cy="266.2" rx="1.3" ry="1.3"/>
		<path class="st2" d="M401,498.4c0.2,0,0.2-0.4,0.3-1.3c0-0.9,0.1-2.9,0.4-4.1c0.2-1.2-0.3-1.1-0.6-1.1c-0.3,0.1-0.5,1-0.5,1.5
			c0,0.5,0.1,3.6,0.1,4.2C400.6,498.3,400.9,498.3,401,498.4L401,498.4z"/>
	</g>
	<g id="g4017">
		<path class="st3" d="M370.9,522c1.3-0.8,2.4-1.7,5.3-3.7c2.9-1.9,4-4.1,4-4.1h-1c-0.6,0-1-0.8-1.1-1.6c0-0.8,0-2.4,0.2-4.2
			c0.2-1.9-0.3-3.4-0.3-3.4s-1.2,1.2-3.1,2.2c-1.9,1-2.7,0.5-2.7,0.5l-0.5-1.9c0,0-0.8,1.7-2,3.8c-1.2,2-4.3,4.3-6.5,6
			c-2.2,1.7-4.7,3.5-6.5,4.1c-1.9,0.6-0.8,1.5-0.8,1.5s1.9,1.9,6.6,2.7C367.3,524.7,369.6,522.8,370.9,522L370.9,522z"/>
		<path class="st3" d="M387.6,520.1c-1.7-0.2-2.7-0.8-3.1-2.7c-0.2-1.2,0.1-5.8,0.1-5.8s-0.6,0.5-1.2,1.3c-0.6,0.8-2.1,0.9-2.1,0.9
			s-0.2,0.6-0.9,1.7c-0.6,1-1.5,2.3-3.1,3.3c-1.6,1-3.5,2.2-4.8,3.3c-1.2,1-2.7,2.2-4.4,3.2c-1.6,0.9-3.1,2.4-3.7,4.8
			c-0.6,2.4-0.1,3.2,1.8,3.1c1.9-0.1,2.1,0,5.2-0.7c3.1-0.8,7.4-4.2,10.6-6.2C385.3,524.1,387.6,520.1,387.6,520.1L387.6,520.1z"/>
		<path class="st3" d="M396.1,522.9c0,0-1.3-1.6-1.8-3.5c-0.5-1.9-1.4-5.5-1.4-5.5s-0.4,1.2-1.5,3.4c-1,2.2-2.8,2.7-2.8,2.7
			s-0.1,0.9-1.6,2.8c-1.5,1.9-3.6,3.6-5.8,4.9c-2.2,1.3-5,3.1-6.6,5.3c-1.5,2.2-1.7,4.5-0.9,5.5c0.7,1,1.8-0.1,3.2-0.9
			s5.6-1.4,11.4-4.5C394.2,529.9,396.1,522.9,396.1,522.9L396.1,522.9z"/>
		<path class="st3" d="M398.6,535.8c1.6-2.4,1.9-8.2,1.9-8.2s-0.6-0.4-1.3-1c-0.8-0.6-2.3-2.9-2.3-2.9s-0.9,2-2,3.8
			c-1,1.9-1.6,2.5-3.7,4.5c-2.2,2-5.1,3.9-6.3,6c-1.2,2.1-0.6,6.3,0.3,7.8c0.8,1.4,2,0.9,3.2-0.2c1.2-1.2,1.6-1.5,3.7-3.3
			C394,540.5,397,538.2,398.6,535.8L398.6,535.8z"/>
		<path class="st2" d="M379.6,487.4c0.8-1.7,1.8-3.8,2.6-4.9c0.8-1.1,1.3-2.3,1.3-2.3s-2.1,1.9-2.9,3.2c-0.8,1.3-1.3,2.6-1.7,4.1
			C378.6,488.9,378.8,489.1,379.6,487.4z"/>
		<path class="st2" d="M387.8,488.9c0.3-1.1,0.5-1.9,0.5-1.9s0.3-1.1,0.1-1.2c-0.2-0.1-1,0.7-1.6,2.6c-0.6,1.9-1.5,4.6-1.3,4.7
			C385.7,493.2,387.5,490,387.8,488.9L387.8,488.9z"/>
		<path class="st2" d="M394.2,494.1c0.4-0.8,0.4-0.8,0.4-0.8s0.7-2.1,0.7-2.6c0-0.4-0.2-1-0.8,0.1c-0.6,1.1-0.6,2.2-0.7,2.7
			c-0.1,0.5-0.7,2.1-0.6,2.3C393.4,495.9,393.9,494.9,394.2,494.1L394.2,494.1z"/>
		<path class="st2" d="M374.2,513.7l-0.9-0.5c0,0-0.5,0.7-1.2,1.5c-0.7,0.8-1.6,1.1-2.1,1.8c-0.6,0.7-1.4,1.6-2.8,2.3
			c-1.3,0.7-1.9,0.9-1.6,1.1c0.3,0.2,1.2-0.3,1.2-0.3s0.4,0,2-1s2-1.5,3-2.4C372.8,515.4,374.2,513.7,374.2,513.7z"/>
		<path class="st2" d="M381.2,522c0.6-0.6,1.2-1.1,0.9-1.4c-0.3-0.3-0.8-0.3-1.3,0.2c-0.6,0.5-2.2,2-2.9,2.6c-0.7,0.6-1.3,1-2.1,1.6
			c-0.7,0.6-2.3,1.4-3.1,1.9c-0.8,0.4,0,0.5,0,0.5s0.6-0.3,1.2-0.5c0.6-0.2,2.5-1,2.5-1s0.7-0.3,1.7-1
			C379.1,524,380.6,522.6,381.2,522L381.2,522z"/>
		<path class="st2" d="M389.3,527.5c0.5-1,0-0.7-0.9-0.4c-0.9,0.3-2.8,2.5-3.9,3.2c-1.1,0.8-2.1,1.1-3,1.6c-0.9,0.5-0.9,0.7-0.9,0.9
			c0,0.2,0.4,0.2,0.8,0c0.4-0.2,1.7-1,1.7-1s0.6-0.2,1.1-0.2c0.5,0,1.2-0.6,2.4-1.6C387.7,529.2,388.7,528.6,389.3,527.5
			L389.3,527.5z"/>
		<path class="st2" d="M393,534.9c-1.4,0.9-3.9,2.8-4.5,4.1c-0.6,1.3-1.1,2.2-0.9,2.4c0.2,0.2,0.9-0.2,1.2-0.7
			c0.3-0.5,0.9-1.3,0.9-1.3s2.5-2.4,3.4-3c0.9-0.6,2.4-2.2,2.7-3.1c0.3-1,0.1-1.5,0.1-1.5S394.4,534.1,393,534.9L393,534.9z"/>
		<path class="st6" d="M355.1,328.3c-1.3-0.8-4.8-2.3-8.5-2.6c-3.7-0.3-6.6,0.2-9.7,1.1c-2.2,0.6-4,0.7-5.8,0.2
			c-2.7-0.7-4.7-3.1-5.4-6.1c0,0-2.5,3.2,0.1,6.6c1.2,1.6,2.8,2.7,4.4,3c5.2,1.1,10.3-2.1,14.7-2.4c4.2-0.3,7.5,2.4,7.5,2.4
			s1,0.8,2.4,0C356,329.7,356.4,329.1,355.1,328.3z"/>
		<path class="st3" d="M340,479.4c0,0-0.5-0.1-1.2-0.2c-0.7-0.1-2.3-0.6-2.7-0.8c-0.5-0.2-1.2-0.3-1.6,0.3c-0.5,0.5-4.2,2.7-4.2,2.7
			h6.2C338.6,481.4,340,479.4,340,479.4L340,479.4z"/>
		<path class="st3" d="M357.5,478.3v-0.6l-0.8-1.8c0,0-1,0.6-1.9,1.6c-1.2,1.3-2.5,3-3.1,3.8c-1,1.3-2.5,2.6-1.2,0.5
			c1.2-2.1,1.7-3,2.6-4.4c1-1.4,1.7-2,1.6-2.1c-0.1-0.1-0.9-0.2-3.5-0.5c-2.6-0.3-4.2-1.3-5.4-2c-1.2-0.7-3.4-1.9-3.4-1.9
			s-4.4,1.9-6.1,2.3c-1.7,0.4-2.6,0.7-1,1.5c1.6,0.8,3,1,3.8,1.5c0.8,0.5,3.2,1.3,4.7,1.3c1.5,0,4,0,3,1.1c-1,1-2.1,3-3.2,6.1
			c-1.1,3-1.1,5.7-1.1,7.1s0.2,2.7,0.2,2.7s1.8-2,6.7-5.1c4.9-3.1,6.7-4.1,7.6-4.5c0.9-0.4,1.4-0.4,1.2-1.6
			C358,481.7,357.5,478.9,357.5,478.3L357.5,478.3z"/>
		<path class="st3" d="M376.2,463.5c-0.3-0.1-0.6-0.3-0.9-0.4c-0.1,0-0.2,0-0.2,0.1c-0.6,0.3-3.6,2.3-4.8,4.2
			c-1.2,1.9-2.4,2.1-1.1,0c1.3-2.1,2.3-3.3,3.3-4.2c0.4-0.4,0.8-0.6,1-0.9c-2.4-1.2-5-2.6-7.5-4.3c-0.3,0.6-1,1.8-1.7,2.5
			c-1,1.1-3.3,2-3.3,2s1.8-1.9,2.5-3.3c0.4-0.9,0.7-1.9,0.8-2.5c-1.8-1.4-3.4-2.9-4.9-4.7c-0.3,1.2-1.3,4.3-4.2,7.5
			c-3.8,4.3-11.5,6.5-11.5,6.5s-2.7,0.3-0.5,0.9c2.2,0.6,3.7,1.5,8,0.8c4.2-0.7,4.5-0.9,5.1-1.1c0.6-0.2,2.1-0.1,0,0.7
			c-2.1,0.8-7,1.5-8.9,1.4c-1.9-0.2-4.5-0.6-1.8,0.9c2.7,1.4,3.8,2,5.5,2c1.7,0,2.3,0.5,4,0.5c1.6,0,2.1-0.3,3.2-0.5
			c1.1-0.2,1.9,0.2,1.9,0.6c0,0.5-1.5,1.7-1.5,4.9c0.1,3.1,0.3,5.2,0.6,6.1c0.3,0.9,1,2.4,1.4,3.3c0.5,0.9,0.6,1.7,1.1-0.1
			c0.5-1.8,1.5-4.5,1.9-6.2c0.4-1.8,0.6-1.8,0.8-2.7c0.2-0.9,1.1-1.6,0.7,0.1s-1,3.8-1.3,5.3c-0.3,1.5-1.1,4.2,0.2,2.1
			c1.4-2.2,6.5-8,7.4-9s1.5-2,2.2-2.9c0.6-0.9,2.4-2,3.3-3.3c0.8-1.1,3.1-3.4,4-4.2C379.3,464.8,377.8,464.2,376.2,463.5
			L376.2,463.5z"/>
		<path class="st3" d="M305,331.3c0.1,3.2,3.6,9.2,5.6,12.4c2,3.2,2.5,4.5,2.2,4.7c-0.3,0.2-1.2-1.4-2.3-2.9c-1.1-1.4-3.2-4.8-5-7.3
			s-4.4-8.6-4.7-9.1c-0.3-0.5-0.5-0.9-1.4-0.2c-0.9,0.7-2.6,7.3-0.5,11.9c2.1,4.5,5.1,7.8,6.4,9.4c1.3,1.6,3,4,2.7,4.3
			c-0.3,0.2-0.8-0.4-2.3-2.1c-1.6-1.6-4.2-4.5-5.9-6.5c-1.4-1.7-3.3-5.1-3.9-6.3c-0.2-0.5-0.6-0.3-0.8-0.1c-0.6,0.6-1.5,1.9-1.1,5.5
			c0.5,5,3.2,7.9,5.5,10.4c2.3,2.5,4.7,4.7,4.3,5s-2.7-1.8-4.4-3.4c-1.6-1.6-5.7-5.5-6.6-6.6c-0.9-1.1-2.2-0.5-2.1,3.8
			s4.9,8.7,6.8,11.1c2,2.4,4.5,3.8,4.2,4.3c-0.2,0.5-2.2-0.8-3.5-1.6c-1.3-0.9-6.2-4-7.1-4.7c-1-0.7-1.4,0.6-0.2,4.7
			c1.2,4.1,4.8,7.4,6.9,8.9c2.1,1.5,5.5,3.4,5.3,3.8c-0.2,0.5-1.6-0.1-3.6-1.1c-2-1-4.4-1.9-6.1-2.3c-1.7-0.5-1.7,0.8-1.7,0.8
			s-0.3,3.5,2.2,6.3c2.5,2.8,5.4,3.9,8.2,4.4c2.7,0.5,3.2,0.6,3.1,1c-0.1,0.4-0.3,0.5-1,0.5s-3.2,0.3-5.5,0.3s-3.6,0.5-3.6,1.6
			s-0.1,2.4,3.4,4.7c3.5,2.3,7.4,2.7,9,3c1.6,0.3,1.7,0.5,1.4,1c-0.3,0.5-1.1,0.4-3.7,0.7c-2.6,0.3-4.2,1.3-4.5,2
			c-0.3,0.7,0.2,2.7,2.3,4.2c2.1,1.4,4.9,1.9,9,1.6c4.1-0.3,5.1-0.3,5.3,0.3c0.1,0.7-1.2,0.9-3.3,1.2c-2.1,0.3-3.6,0.3-4.8,1.3
			c-1.2,1-0.3,2.9,1.7,4.4c2,1.4,6.9,1.4,9,1.3c2.1-0.1,5.2-0.9,5.4-0.3s-1.5,1.4-3.6,2.1c-2.1,0.8-2.7,1.2-3.2,2.1
			c-0.4,0.9-0.1,1.7,2.5,2.7c2.5,1,6.2,1,8.2,0.1c1.9-0.9,2.9-1.2,3.3-0.9c0.3,0.3,0,0.7-0.4,1.2c-0.4,0.5-2.1,1.8-4.2,2.3
			c-2.1,0.5-2.3,0.5-3.1,2.3c-0.8,1.7,1.2,3.1,5,3.2c3.8,0.1,9-1.4,10.6-2.3c1.6-1,2.3-1.2,2.5-0.8c0.3,0.3,0.2,0.5-0.6,1.2
			c-0.8,0.6-3.4,2.5-4.7,2.8c-1.3,0.3-1.4,1.3-1.4,2.2c0,0.9-0.3,2.7,3.1,3.5c3.4,0.8,7.5,0.2,11.2-2.4c1.2-0.8,1.9-1.5,2.3-2.1
			c-0.3-3.5-0.1-5.9,0.3-8.1c-0.7-0.1-2.1-0.3-3.5-0.9c-2.1-0.8-2.9-2.7-3.4-3.8c-0.5-1-1.2-1-2-0.8c-0.8,0.3-1.6,0.6-2.8,0.6
			c-1.2-0.1-3.6-0.7-5.4-2.8c-1.8-2.1-1.4-4.2-1.5-5.2c-0.1-1-1.7-0.3-2.5-0.3c-0.8,0-3.2-0.3-5.4-1.9c-2.2-1.5-2.2-3.6-2.4-4.4
			c-0.2-0.8-1.1-1.4-1.8-1.6c-0.7-0.3-1.8-0.5-3.3-1.8c-1.5-1.2-2.1-3.6-2.1-4.5c-0.1-0.8-1-0.9-4-2.5s-2.8-4.9-2.7-6.2
			c0.1-1.3,1.6-2.4,1.6-2.9c0-0.5-1-0.6-2.1-1.2c-1-0.6-3.6-1.6-3.7-5.5c-0.1-3.8,2.5-4.3,2.5-4.3s-0.5-0.2-1.5-0.8
			c-1-0.6-3.8-2.5-3.8-4.8c0-2.3,1-3.3,1.8-3.8c0.8-0.5,2.8-1.1,2.8-1.1s-1.3-0.8-1.9-2.6c-0.5-1.8-0.8-4,0.5-5.6
			c1.3-1.6,3.5-1.6,4.7-1.6s2.2,0.6,2.6,0.3c0.4-0.3,0.5-0.6,0.1-1.5c-0.4-0.9-0.5-3.1-0.1-3.8c0.3-0.8,0.4-2.3,3.4-3.2
			c2.9-1,6,1,7,1.6c1,0.5,0.5-0.8,0.5-1.7c0-1-2-3.4-4.2-6.8c-2.3-3.4-3.3-5.2-5.8-10.4c-2.5-5.2-4.2-11.9-4.5-13.7
			c-0.3-1.7-1-0.9-1-0.9s-0.7,0.3-2.3,4.3C305.1,324.5,304.8,328.1,305,331.3L305,331.3z"/>
		<path class="st3" d="M356.6,401.4c-1.8-0.1-4.1-1.1-5.8-3.6c-1.8-2.6-4.4-3.2-9-3.1c-4.6,0.1-6.7-2.1-7.9-5.3
			c-1.1-3.2,0.2-6.8,4.9-9.1c4.7-2.3,6.8-4.9,7-8.8c0.2-4-4.7-8.9-9.5-14.5c-4.9-5.6-8.6-13.4-8.6-13.4s-1.4,1.9-1.4,3.7
			s0.7,3.8,0,4.3c-0.7,0.5-1-0.8-3.8-2c-2.8-1.2-5.1-1.4-6.9,0.6c-1.8,2,0,5.6,1.6,7.2c1.6,1.7,2.9,2.9,2.5,3.5
			c-0.4,0.6-2.8-1-3.6-1.5s-2.6-2.6-5.4-2.3c-2.7,0.3-3.7,1.1-4,3.4c-0.3,2.3,2.5,4.3,4.2,5.2c1.8,0.9,2.5,1.7,2,2
			c-0.4,0.4-0.9,0-1.7-0.3c-0.8-0.3-3-0.5-4.4,0c-1.4,0.5-3.7,2.5-1.6,4.9c2.1,2.4,6.5,3.3,7.4,3.4c0.9,0.2,1.3-0.1,1.4,0.6
			c0.1,0.7-1.9,0.7-4.2,0.8c-2.4,0.1-3.1,2.4-2.7,4.2s4.3,3.7,6.5,4.1c2.2,0.4,3,0,3.2,0.6c0.2,0.6-0.3,0.9-1.5,1.2
			c-1.2,0.4-3.6,0.6-4.1,2.6c-0.4,1.9-0.5,2.8,1.3,4.5c1.9,1.7,4.9,1.4,5.7,1.2c0.9-0.2,1.9-1.2,2.8-0.3c0.9,0.9-0.8,1.6-2.3,2.7
			c-1.5,1.1-1.4,3.1,1.1,4.5c2.6,1.4,5.1,0.9,6.2,0.5c1.1-0.4,2.5-2,3.2-1c0.7,1.1-2.2,1.4-3.4,2.9c-1.2,1.5-0.8,4,1.7,5.5
			c2.5,1.5,6.5,0.4,7.2-0.2c0.7-0.6,1.6-0.9,2.1-0.4c0.5,0.5-0.3,1.9-0.8,3.2c-0.5,1.2-1.5,4.9,2.2,6.3c3.7,1.4,7.1-1.8,7.7-2.4
			c0.6-0.6,1.2-0.7,1.8-0.4c0.5,0.3,0.3,0.8-0.2,1.4c-0.4,0.6-1.4,3.3,1.2,5.1c1.8,1.3,3.8,1.2,4.8,1c0.6-2.1,1.3-4.3,2-7.4h-0.6
			c-0.4,0-0.4,0.5-0.4,0.7c0,0.2,0.1,0.4-0.2,0.4c-0.3,0-0.4,0.2-0.8,0.5c-0.5,0.3-0.9,0.7-1.1,0.5c-0.2-0.2,1-0.8,1.3-1.2
			c0.3-0.4,1-1,1-1.4c0-0.4,0.2-0.7,0.9-1.2c0.2-0.2,0.4-0.4,0.5-0.6c0.4-2.1,0.8-4.5,1.2-7.4c0.3-2,0.4-3.8,0.5-5.6L356.6,401.4
			L356.6,401.4z"/>
		<path class="st3" d="M281.2,346.4c3.9,8,9.5,12.5,9.5,12.5s-0.7-2-1.1-3.3c-0.3-1.4-0.1-2.9-0.1-2.9s-1.4-1.8-4-5.8
			s-3.9-9.9-3.9-9.9s2.4,5.9,4.3,9c1.9,3.1,4,5.7,4,5.7s0.8-2.8,1.3-2.9c0.5-0.1,0.9,0.3,1.4,0.9c0.5,0.6,0.9,0.6,0.9,0.6
			s-0.6-1.3-1.6-2.9c-0.4-0.7-1.1-1.5-1.6-2.2c-1.5-2.3-4.6-6.7-6.3-11.1c-1.6-4.4-5.2-15.5-5.8-18.7c-0.6-3.3-1.2-1.5-1.9,0.9
			c-0.6,2.4-1.5,5.8-0.9,10.9C276,332.1,277.3,338.4,281.2,346.4L281.2,346.4z"/>
		<path class="st3" d="M286.3,367.9c1.5,1.1,3.6,2.6,3.6,2.6s-0.3-0.8-0.6-1.8c-0.2-1-0.3-2.9-0.3-2.9s-1.7-1.5-2.9-2.6
			c-1.2-1.1-2.7-2.4-5.7-6.1c-3-3.7-0.6-1.5,1.9,1.2s7.1,6.5,7.1,6.5s0-0.1,0-0.9c0-0.8,0.3-1.4,0.7-1.9c0.4-0.6,0.2-0.6-2.4-2.6
			c-2.6-2-9.4-9.7-12.2-14.2c-2.8-4.6-5.8-10.8-5.8-10.8s-1.5,9.1,4.1,19.2C279.4,363.6,284.9,366.8,286.3,367.9z"/>
		<path class="st3" d="M315.5,425.5c3-1.2,2.2-4.2,2.2-4.2s-1.9,0.6-3.6,1.2c-1.7,0.6-6,1.9-7.6,1.9c-1.7,0-1.7-0.2-1.7-0.4
			c0-0.2,1.3,0,3.7-0.4c2.4-0.4,6.6-2.7,7.4-3.2c0.7-0.5,0.6-0.6-0.4-0.7c-1.1-0.1-2-0.6-2.4-0.9c-0.4-0.3-1.5,0.1-4.3,0.8
			c-2.8,0.6-8.5,1.6-12.8,1.6s-8.5-0.7-9.1-0.9c-0.7-0.1-1.4,0.2,0.7,3.8c2.1,3.5,9.5,5.5,14.7,5.4
			C307.3,429.5,312.5,426.7,315.5,425.5L315.5,425.5z"/>
		<path class="st3" d="M301.8,418.2c5.3,0,7.3-1.5,7.3-1.5s0-0.3-0.7-1.4c-0.7-1.1-0.6-2.9-0.6-2.9s-1.3,0.2-3.5,0.5
			c-2.2,0.3-4.8,0.6-7.6,0.1c-2.8-0.5-1.6-0.8,0.6-0.5c2.3,0.3,6.6-0.5,8-1c1.4-0.5,0.8-0.9-0.1-1.3c-0.9-0.3-3.5-1.9-3.5-1.9
			s-6.5,0.8-12.5,0.1c-6-0.7-9.8-2.2-11-2.4c-1.2-0.2-1.2,0.3-1.2,0.3s-0.3,0.5,1.8,3.8c2.1,3.3,6.1,5.4,9.6,6.4
			C291.8,417.5,296.5,418.2,301.8,418.2L301.8,418.2z"/>
		<path class="st3" d="M300.4,405.7c0,0-0.2-0.3-0.5-1.4c-0.3-1.1,0.6-1.9,0.6-1.9s-1.2-0.4-5.2-0.9c-4-0.5-4.2-0.8-6.6-1.4
			c-2.4-0.5-4.1-1.3-4-1.5c0-0.3,0.8,0.1,2.3,0.7c1.4,0.5,7.5,1.2,10.1,1.5c2.6,0.4,4,0.6,4.5,0.4c0.5-0.3,2-0.7,2-0.7
			s-1.1-0.3-2.4-0.5c-1.4-0.2-2.6-0.8-3.3-1.3c-0.7-0.5-0.9-0.6-4.2-1c-3.3-0.4-5.9-1.4-11.7-3.5c-5.8-2.1-10.2-4.7-11.4-5.6
			c-1.2-0.9-1.1-0.3-0.8,0.9c0.3,1.2,0.3,2.8,3.2,6.2c2.9,3.4,4.4,4.9,11.8,7.6C292.1,406.1,300.4,405.7,300.4,405.7L300.4,405.7z"
			/>
		<path class="st3" d="M278.5,387.7c6.5,4.6,14.2,6.3,15.8,6.5c0.4-0.4-0.4-2,0-2.9c0.4-1.1,1.1-1.1,2.7-1.2
			c1.6-0.1,0.5-0.4,0.2-0.4c-0.4,0-0.5,0-3.1-0.7c-2.6-0.7-5.3-1.1-8.9-2.4c-3.6-1.4-4.7-2.4-4.6-2.6c0.1-0.3,1.7,0.9,5,2.1
			c3.3,1.3,7.2,1.8,9.3,2.2c2.1,0.4,0.3-0.5-0.7-1c-1-0.6-2.4-2.8-2.4-2.8s-2.3-0.4-6.2-1.6c-3.8-1.2-7-2.5-10.2-4.3
			c-1.1-0.6-2.2-1.4-3.3-2.3c-2.2-1.6-4.4-3.2-5.3-3.8c-1.3-0.9-0.9-0.2-0.8,0.4s1,3.3,3.1,6.3C271.3,382.2,272,383.1,278.5,387.7z"
			/>
		<path class="st3" d="M277.5,374.7c6.5,5.1,12,6.7,13,7.1c0.9,0.4,0.9-0.1,0.7-0.7c-0.2-0.5-0.3-2.3-0.3-2.3s-2.3-1.3-4.9-2.8
			c-2.6-1.5-5.4-3.5-7.3-4.8c-1.9-1.3-0.8-1.2-0.2-0.7c0.6,0.5,3.2,2,5.8,3.7c2.6,1.6,6.6,4,6.6,4s0.1-0.9,0.6-1.4
			c0.5-0.5,1.9-0.4,1.9-0.4s-0.7-0.7-1.1-1.3c-0.4-0.6-2.5-1.3-4.9-2.4c-2.4-1.1-6.7-4.3-9.8-7c-3.2-2.7-9.3-9.4-9.7-9.9
			c-0.4-0.5-0.7-0.5-0.7,0.2c0,0.7-0.3,1.1,0.4,4.2C268.2,363.2,271,369.6,277.5,374.7z"/>
		<path class="st3" d="M300.3,326.4c0.7,1.5,1.5,2.7,2.1,3.7c0.9,1.5,1.4,2.5,1.4,2.5s0.2-0.5,0-1.4c-0.1-0.9-0.3-2.1,0-3.6
			c0.1-0.8,0.3-1.6,0.3-2.3c-0.1-0.8-0.3-1.5-0.4-2c-0.2-0.9-1.1-4.6-1.6-7.3c-0.4-2.7-0.9-6.5-0.9-9.8c0-3.4,0.5-1.7,0.5,0
			s0.2,4.1,0.7,7.9c0.5,3.8,2.1,9.7,2.1,9.7s0.1-0.9,0.6-2.2s1.3-2.7,1.9-4.3c0.6-1.6,0.4-1.9,0.4-1.9s-2.3-10.9-2.9-16
			c-0.6-5.1-1.6-18.6-1.6-18.6c-3.3,3.3-5.8,12.1-6.2,20.4c-0.3,6.3,0.7,12,1,14.4C298.3,320.2,299.1,323.8,300.3,326.4L300.3,326.4
			z"/>
		<path class="st3" d="M293,343.5c0.1-2.5,0.7-4.3,2.3-4.9c0,0-1.4-2.5-2.6-6c-0.8-2.4-1.5-5.5-1.9-7.8c-0.9-5.8-1.6-11.8,0.2-2
			c1.7,9.8,3.8,13.3,3.8,13.3l2.5,4.1c-0.4-1.8-0.4-3.1-0.3-5c0.1-2,0.3-4.6,0.9-6.7c0,0-3-6.1-4.9-13.4c-1.9-7.3-3-13.9-3-17.9
			c-0.2-3.8-0.3-5.3-0.3-5.3s-3.1,2.3-4.2,14.2c-1,11.9,2.1,23.3,3.6,27.6C290.6,338.1,293,343.5,293,343.5L293,343.5z"/>
		<path class="st3" d="M327,434.2c0,0-0.5-0.3-2-1.3c-1.5-0.9-1-3.7-1-3.7s-0.4,0.3-1.5,1c-1.1,0.7-2.3,1.6-3.8,2.2
			c-1.5,0.6-2.2,1-3.1,1.3c-0.9,0.3-0.7-0.1,0.1-0.5c0.8-0.4,1-0.7,3-1.5c2-0.8,5.9-4.2,5.9-4.2s-0.9-0.1-2.6-0.1s-3.7-0.9-3.7-0.9
			s-1.6,1.5-8.2,4.3c-6.5,2.8-12.1,3.5-12.1,3.5s0.7,3.4,3.8,4.5c2.6,1.1,6.2,1.8,13.2,0.1C322.2,437.1,327,434.2,327,434.2
			L327,434.2z"/>
		<path class="st3" d="M335.6,440.9c0.5-2.8-1-4.7-1-4.7s-0.3,0.2-1.3,1.1c-1,0.9-2.4,2.6-5.2,3.9c-2.8,1.4-3.7,1.3-1.1-0.1
			c2.7-1.4,6.5-5.5,6.5-5.5l-1-0.4c-1-0.4-2.8,0.3-10.2,4.7c-7.4,4.4-11.7,4.6-11.7,4.6s3.3,4,12.2,3.7
			C331.8,447.9,335.1,443.7,335.6,440.9L335.6,440.9z"/>
		<path class="st3" d="M352.5,437.7c0,0-1,1.4-2.3,2.3c-1.3,0.9-4.9,1.4-4.9,1.4s-0.1,0.4-0.8,1.3c-0.7,0.9-2.2,3-3.8,4.1
			c-1.6,1.1-4,1.9-4.2,1.6c-0.1-0.3,1.4-0.9,3-1.8c1.5-0.9,2.9-2.7,3.9-3.8c1-1.2-0.4-1-0.4-1s-1.9,0-3.6-0.1
			c-1.7-0.2-1.4,0-1.9,0.8c-0.5,0.8-1.2,1.6-2.5,3.1c-1.6,1.8-3,3.4-4.5,5.2c-1,1.2-0.2,1.5-0.2,1.5s0.4,0.7,4.4,1.2
			c2.5,0.3,5.1,0,7.9-1.7c1.7-1,3.5-2.6,5.4-4.6C352.8,442,352.5,437.7,352.5,437.7L352.5,437.7z"/>
		<path class="st3" d="M354.6,448.5c-1,1.3-1.5,1.8-1.5,1.8s0.7-2.1,1.3-3.1c0.3-0.5,0.7-1,0.9-1.4c-0.7-1.5-1.2-3.1-1.6-4.8
			c-0.4,1.4-1.8,5.6-3.5,8.3c-2.1,3.3-3.9,4.5-2.7,5.4c1.2,0.9,3.5,1.1,6.1-0.2c2.5-1.2,3.2-3.4,3.6-5.1c-0.4-0.7-0.9-1.4-1.2-2.1
			C355.6,447.4,355.2,447.8,354.6,448.5L354.6,448.5z"/>
		<ellipse class="st3" cx="354.1" cy="316.7" rx="1.8" ry="1.7"/>
		<path class="st3" d="M350.2,313.6c1.7,0,2.6-0.8,4.4-0.7c2.2,0.2,5.1,1.5,8.7,3.4c2.8,1.3,6.5,1.9,10.1,0.9c1-0.3,2-0.8,2.9-1.4
			c4.4-2.5,3.3-7.3,3.3-7.3c-3.2,2.3-7.2,3.6-10.9,3.3c0,0,0.3,0.2,0.9,0.8c0.6,0.6,1.8,1.4,1.4,1.7c-0.4,0.3-2-1.2-3.3-2.2
			c-1.3-1-3.3-2.3-6.7-3.3c-3.4-1-7.2-1.1-9.7,0.3c-2.5,1.4-2.7,3.2-2.4,3.9C349.2,313.5,349.7,313.6,350.2,313.6z"/>
		<path class="st3" d="M397.5,349.1c-0.8-0.2-2.1-0.4-3.9-2c-1.8-1.6-6-6.3-6.5-7.1c-0.5-0.8-0.3-1.6,0.9-2.1c1.2-0.5,2-2,2-2
			s-2.6-1-4.4-2.3c-1.8-1.3-5.8-4.9-6.4-5.8s-0.3-1.1,0.6-1.3c0.8-0.3,1.1-0.8,1.1-0.8s-1.9-1.2-3.7-2.6c-1.8-1.4-4.1-3.7-4.1-3.7
			c-2.6,1.1-6.8,0.6-9,0.2c-3.9-0.7-6.8-2.3-6.8-2.3s-0.1,0.6-0.6,1.8c-0.5,1.2-2.3,1.9-4.1,0.7c-1.8-1.2-1.4-3.8-1.4-3.8
			s-1.5-0.9-4.5-2c-3-1.1-5.5-1.3-7.9-0.1c-2.5,1.1-3.7,4.5-3.7,7c0,2.5,1.3,1.5,1.6,1.1c0.3-0.4,0.8-2.2,3.9-2.7
			c3.1-0.5,5.9,1,9.4,3.9c3.5,2.9,4.3,3.1,6,4.9c1.8,1.8,0.4,2.8-2.7,3.8c-3,1-6.9-1-7-0.9c-0.6,0.3,1.3,3,3.9,4
			c2.6,1,5.9,0.4,8.5-0.7c1.8-0.7,2.1,0,2.6,0.6c2.9,3,3.6,5.8,4.1,9.2c1.5-0.4,2.5-1.9,2.7-3.1c0.1-0.6,0.3-1.8,1.3-0.9
			c1,0.9,1.8,6,1.8,8.3s-0.7,5.4-0.7,5.4l0.7-0.1c0.4-0.1,1.3-0.6,2.4-1.2c1.1-0.6,1.2,0.1,1.2,1.3c0,1.3,0.4,3.7,2.1,8
			c1.7,4.3,4.1,5.7,4.1,5.7s0.5-0.8,1-2.5c0.5-1.7,0.8-5,0.8-7.9c0-2.9-0.8-9.1-0.8-9.1s3.5,4.3,7.2,5.4c3.7,1.1,7.3,0.4,8.8-1.3
			C399.7,350,398.3,349.3,397.5,349.1L397.5,349.1z"/>
		<path class="st3" d="M373.5,360.2c0,0-1.1,2.5-1.7,3.3c-0.6,0.9-0.9,1-0.9,1s1.1,0.9,2.7,1.4c1.6,0.5,3.1,0.8,3.1,0.8
			s-1.8-2.5-2.5-4.2C373.6,360.8,373.5,360.2,373.5,360.2L373.5,360.2z"/>
		<path class="st3" d="M395.4,358.7c-0.5-1.4-0.9-2.2-0.9-2.2c-2.2,0.4-6.5-0.6-8.3-1.7c0,0,1.7,3.4,3.4,4.6
			c1.7,1.2,1.9,1.2,1.9,1.2s-1.7,0.3-3.9-1.9c-2.3-2.2-3.3-4.8-3.3-4.8s0.5,5.9-0.4,9.5c-0.9,3.6-1.1,4.1-1.1,4.1s4.8,0.8,10.1-0.6
			c5.3-1.5,5.7-2,5.7-2s0.6-0.2-0.2-1.3C397.5,362.7,396,360.1,395.4,358.7L395.4,358.7z"/>
		<path class="st2" d="M385.8,345.7c-1.6-1.9-1.8-2.3-1.8-2.3s-0.6,0.6-0.1,1.4c0.5,0.8,2.8,2.9,4.4,3.8c1.6,0.9,3.2,1.2,3.2,1.2
			l-0.1-0.3C391.4,349.4,387.4,347.6,385.8,345.7z"/>
		<path class="st2" d="M379.3,358.1c0,0-0.4-7.4-0.4-8.5c0-1.1-0.7-0.8-0.7-0.8l-0.8,0.4c0,0,1.4,9.5,1.6,10.9c0.2,1.2,0.7,1.1,1,1
			C379.4,360.7,379.3,358.4,379.3,358.1L379.3,358.1z"/>
		<path class="st2" d="M369.3,325.9c-0.6-0.6-2-1.1-0.7,0.4c1.3,1.5,3,3.3,3.5,4.8c0.5,1.5,0.8,3.4,0,3c-0.9-0.4-1.5-0.4-2.4-1.2
			c-0.9-0.8-2.6-2-3.3-2.2c-0.7-0.2-2,0-1,1.1c1,1.1,2.1,2.2,4,3.6c1.9,1.4,3,2,4,2.7c1,0.7,2,1.3,2,1.3s-0.9-6.1-2.6-8.7
			C371.3,328,369.9,326.5,369.3,325.9z"/>
		<path class="st2" d="M336.5,427.5c-1.2,0.9-2.8,1.3-2.8,1.3s-0.8,0-0.8,0.3c0,0.3,0.9,0,1.8-0.2c0.9-0.2,2.2-1.1,2.7-1.4
			c0.5-0.3,1.1-0.8,0.9-1.4C338.1,425.5,337.7,426.5,336.5,427.5L336.5,427.5z"/>
		<path class="st2" d="M347.1,433.1c-0.3,0.3-2.3,1.8-2.3,1.8s-0.6,0.4-1.3,0.7c-0.7,0.3-0.8,0.6-0.8,0.6s0.1,0.2,0.8,0
			c0.7-0.2,2.8-1.7,3.5-2.3c0.7-0.6,1-0.8,0.7-1C347.5,432.7,347.3,432.8,347.1,433.1L347.1,433.1z"/>
		<path class="st2" d="M304.2,356.9c0.4,0.5,0.8,1.1,1.1,0.9c0.2-0.2,0-0.4-0.5-1c-0.5-0.6-0.8-0.9-0.8-0.9s-0.7-1.1-1.1-1.6
			c-0.4-0.4-1.1-0.6-0.3,0.3C303.3,355.7,303.8,356.5,304.2,356.9z"/>
		<path class="st2" d="M300.9,364.1c0.5,0.4,0.9,0.8,1.4,1.4c0.5,0.5,0.9,1.1,1.2,0.8c0.3-0.3-0.8-0.9-1.2-1.5
			c-0.5-0.6-0.8-1-1.4-1.4c-0.6-0.5-1.3-0.8-1.3-0.8S300.5,363.6,300.9,364.1L300.9,364.1z"/>
		<path class="st2" d="M302.2,375.6c0.8,0.8,2,1.1,2.2,0.8c0.2-0.3-0.1-0.6-0.8-1c-0.7-0.3-1.8-1.1-2.3-1.4
			c-0.5-0.4-1.1-0.8-1.5-1.2c-0.4-0.4-0.8-0.7-1-0.6c-0.1,0.1,1.1,1.5,1.5,1.7C300.7,374.1,301.4,374.8,302.2,375.6L302.2,375.6z"/>
		<path class="st2" d="M304.5,384.8c0-0.3,0.1-0.5-0.6-0.6c-0.7,0-1.6-0.2-1.6-0.2s-1.3-0.5-1.4-0.3c-0.1,0.3,1.1,0.8,1.6,0.9
			c0.5,0.1,1.1,0.3,1.4,0.4C304.2,385.3,304.5,385.2,304.5,384.8L304.5,384.8z"/>
		<path class="st2" d="M305.5,394.9c-1.4,0-2.7-0.3-2.8-0.1c-0.1,0.2,0.7,0.6,1.4,0.8c0.7,0.3,2.1,0.3,3,0.4s1.1-0.2,1.1-0.6
			C308.2,394.8,307,394.9,305.5,394.9z"/>
		<path class="st2" d="M316.8,405.8c-0.2-0.2-0.7,0-1.5,0.1c-0.8,0.2-2.1,0.4-2.9,0.4c-0.8,0-2.4-0.1-2.4-0.1l-0.9,0.2
			c0,0.2,1.2,0.2,3,0.4c1.8,0.2,3-0.2,3.8-0.3C316.7,406.4,317,406.1,316.8,405.8L316.8,405.8z"/>
		<path class="st2" d="M321.5,413.7c-0.9,0.3-1.5,0.4-2.2,0.4c-0.7,0-2.3,0.3-2.3,0.3s-0.8,0.1-0.6,0.4c0.1,0.3,0.4,0,1.1-0.1
			c0.7-0.1,1.2,0,2.4,0c1.2,0,1.9-0.3,2.6-0.5c0.7-0.1,1.5-0.5,1.1-1C323.1,412.7,322.4,413.3,321.5,413.7L321.5,413.7z"/>
		<path class="st2" d="M330.6,419.6c-0.5,0.5-2.5,1.8-2.5,1.8s-0.4,0.3-1.1,0.7c-0.8,0.4-0.7,0.6-0.6,0.8c0.1,0.2,0.6-0.3,1-0.5
			c0.4-0.2,1.8-1.1,2.5-1.7c0.7-0.6,1.7-1.1,1.5-1.5C331.2,418.8,331.1,419.1,330.6,419.6L330.6,419.6z"/>
		<path class="st2" d="M315.4,343c0,0,0.2,0.4,1.7,2.4c1.6,2,0.7,0.1,0.3-0.4c-0.4-0.5-2.7-3.8-3.5-4.7c-0.8-0.9-0.9-0.4-0.5,0.1
			C313.9,341,315.4,343,315.4,343z"/>
		<path class="st2" d="M312.1,353.1c0.2-0.2-0.3-0.4-1.2-1.6c-0.9-1.1-2.7-3.4-2.7-3.4s-0.5-1.1-0.7-1c-0.2,0.1,0.6,1.8,1.3,2.5
			c0.7,0.7,1.7,2.1,2.2,2.7S311.9,353.3,312.1,353.1L312.1,353.1z"/>
		<path class="st2" d="M316.5,372c0-0.5-1.8-0.5-2.6-0.6c-0.8-0.2-2.2-0.5-2.2-0.5s-1.7-0.3-1.7-0.1c0,0.2,0.3,0.4,1.3,0.6
			c0.9,0.2,2.3,0.6,3.4,0.8C315.6,372.3,316.5,372.5,316.5,372L316.5,372z"/>
		<path class="st2" d="M312.1,361.8c1.2,1,2,1.4,2.6,1.7c0.6,0.3,1.1,0.8,1.5,0.4c0.3-0.4-0.3-0.7-1.3-1.1c-1-0.4-1.5-0.8-1.5-0.8
			s-0.6-0.3-1.1-0.6C311.8,361.2,311,360.8,312.1,361.8L312.1,361.8z"/>
		<path class="st2" d="M322.3,355.1c-0.7-0.6-1.3-1-1.3-1s-0.9-0.8-1.1-0.6c-0.2,0.3,1,1.1,1.6,1.6c0.6,0.5,1.6,2,2.1,1.7
			C324,356.6,323,355.7,322.3,355.1z"/>
		<path class="st2" d="M315.7,381.4c0,0-1,0.3-1.6,0.4c-0.6,0.2-0.7,0.5,0.5,0.5s1.6-0.3,2.8-0.5c1.1-0.2,1.5-0.3,1.4-0.7
			c-0.2-0.4-0.8-0.3-1.2-0.1C316.9,381,315.7,381.4,315.7,381.4z"/>
		<path class="st2" d="M317.4,390.9c-0.1,0.2,0.8,0,1.4-0.2c0.6-0.2,1.8-0.8,2.5-1.1c0.7-0.2,0.7-0.3,0.7-0.8c0-0.4-0.8-0.1-1.7,0.2
			c-0.9,0.3-2.1,1.2-2.1,1.2S317.5,390.7,317.4,390.9L317.4,390.9z"/>
		<path class="st2" d="M329.7,396.7c0.9-0.5,1-0.9,0.7-1.2c-0.3-0.3-0.6-0.2-1.2,0.3c-0.7,0.6-2,1.5-2,1.5s-0.7,0.3-1.2,0.5
			c-0.5,0.3-1.1,0.7-1,0.9c0.2,0.3,1.2,0,1.8-0.5C327.4,397.9,328.9,397.2,329.7,396.7L329.7,396.7z"/>
		<path class="st2" d="M335.5,404.3c0.3-0.3,1.4-0.6,1.8-1c0.5-0.3,0.8-1.4,0.4-1.5s-0.6,0.4-1.4,1c-0.8,0.6-3.6,2.4-3.6,2.4
			l-0.7,0.3c-0.8,0.3-0.4,0.5,0.2,0.4c0.6-0.1,1.1-0.1,1.8-0.7C334.8,404.8,335.2,404.6,335.5,404.3z"/>
		<path class="st2" d="M344.1,411.6c0.7-0.3,1.8-1.2,2.3-1.7c0.5-0.5,1.1-1.1,0.8-1.4c-0.4-0.3-0.8,0.1-1.4,0.6
			c-0.6,0.6-2.2,2.2-2.2,2.2s-0.2,0-1.1,0.7c-0.8,0.7,0,0.6,0.3,0.3C343.1,412.1,343.3,411.9,344.1,411.6L344.1,411.6z"/>
		<polygon class="st3" points="379,302.7 382.5,300.2 378.4,299.2 375.8,301.2 		"/>
		<ellipse class="st2" cx="390.1" cy="299.8" rx="3.3" ry="3.2"/>
		<ellipse class="st3" cx="390.1" cy="299.1" rx="2" ry="1.9"/>
		<path class="st3" d="M383.2,288.9c0.8,0.3,2,0.2,2,0.2s0.3-1.5-0.5-2.2c-0.8-0.7-1.5-1.2-2-1.7c-0.5-0.5-0.6-0.6-0.6-0.6
			s0,1.3-0.1,2.1C381.9,287.4,382.3,288.6,383.2,288.9L383.2,288.9z"/>
		<ellipse class="st3" cx="384.9" cy="290.5" rx="0.6" ry="0.6"/>
		<path class="st3" d="M380.4,289.9c-0.3,0.4-0.8,0.9-0.8,0.9s0.7,0,1.2,0.4c0.6,0.4,1.3,0.7,1.9,0.7c0.6-0.1,0.9-0.7,0.8-1.1
			c-0.1-0.4-0.5-0.9-1.5-1.3C381,289,380.7,289.5,380.4,289.9z"/>
		<path class="st3" d="M382.7,293.7c-2.1,0.2-4.8-2.1-4.8-2.1c-0.3,1.8-1.4,2.8-3.1,3.1l0.2,0.1c0,0,1.6,0.8,3.5,1.1
			c0.9,0.1,1.6,0,2.6-0.2c1.1-0.2,2.4-0.5,3.1-1c1.2-0.8,0.9-2.8,0.9-2.8S384.8,293.5,382.7,293.7L382.7,293.7z"/>
		<path class="st3" d="M374.7,291.6c-0.8-0.3-2.1-0.9-2.7-1c-0.5,0-1.3-0.2-1.2,0.8c0.1,1,1.1,1.5,2.1,1.5c1,0,1.5-0.3,2.1-0.6
			C375.6,292.1,375.5,291.9,374.7,291.6z"/>
		<path class="st3" d="M368.2,288.1c-0.9-0.7-1.8-0.9-1.8-0.9s-0.6,1.6-0.3,2.6c0.3,1,1.1,1.2,1.9,1.2c0.9,0,2.2-0.5,1.8-1.1
			C369.5,289.3,369.1,288.8,368.2,288.1z"/>
		<ellipse class="st3" cx="369" cy="292.6" rx="0.7" ry="0.5"/>
		<path class="st3" d="M371,284.7c-0.6-2.7-0.5-5.7,2.1-9.5c2.6-3.8,7.1-5.3,7.1-5.3s0.1-0.3,1.6-1.8c1.4-1.5,4.4-3.4,4.4-3.4
			s-3.4,0.8-5.3,1.5c0,0,0,0.1,0,0.1c0,1.3-1,2.4-2.3,2.4c-0.5,0-0.9-0.2-1.3-0.4c-1,0.2-4.5,2.3-5.4,3c0.2,0.4,0.4,0.8,0.4,1.2
			c0,1.3-1,2.4-2.3,2.4c-0.4,0-0.7-0.1-1.1-0.3c-0.1,0.2-0.2,0.3-0.3,0.5c-0.7,1.3-1.3,2.6-1.7,3.8c0.6,0.4,1,1.2,1,2.1
			c0,1.3-0.9,2.4-2,2.4c-0.1,0.8-0.1,1.3,0,1.5c0.1,0.8,0.4,1.2,1.7,1.6c1.3,0.4,3.2,2.7,3.2,2.7C370.8,289.1,371.7,287.4,371,284.7
			L371,284.7z"/>
		<path class="st3" d="M379.2,267.2c0.5-0.4,0.6-1,0.2-1.3c-0.4-0.3-1.1-0.3-1.6,0.1c-0.5,0.4-0.6,1-0.2,1.4
			C378,267.7,378.8,267.6,379.2,267.2z"/>
		<path class="st3" d="M370.6,273.1c0.5-0.5,0.6-1.3,0.2-1.7c-0.4-0.4-1.2-0.4-1.8,0.1c-0.5,0.5-0.6,1.3-0.2,1.7
			C369.2,273.6,370,273.6,370.6,273.1z"/>
		<ellipse class="st3" cx="365.4" cy="280.4" rx="1.3" ry="1.3"/>
		<path class="st3" d="M394.3,261.9c-0.7,0.2-2,0.6-3.9,1.6h0c1.3,0,2.4,0.9,2.4,2c0,1.1-1.2,2.3-2.5,2.3c-1.3,0-2.2-1.2-2.2-2.3
			c0-0.3,0.1-0.5,0.2-0.7c-0.6,0.4-1.2,0.7-1.8,1.2c-4.3,2.9-5.3,4.3-7.4,8.2c-2.1,3.9-2.9,8.2-2,10.8c0.9,2.5,4.3,3.1,4.3,3.1
			s-0.4-0.4-0.4-0.9c0-0.5,0.1-0.7,0.2-1.7c0.1-1,0-2.1,0-2.1s0.8-0.1,1.2,0.4c0.4,0.5,1.1,1.1,1.5,1.7c0.4,0.5,1.6,1.5,1.6,1.5
			s0.7-1,0.7-2.1c0-1.1-0.8-2.4-0.9-4.4c-0.1-2,0.9-5.6,2.9-8.2c2-2.6,5.6-5,6.7-5.5c1.1-0.5,1.3-1.3,1.3-1.8c0-0.5,0.1-0.8,0.2-2
			C396.5,261.6,395.4,261.6,394.3,261.9L394.3,261.9z"/>
		<path class="st3" d="M390.1,266.4c0.8,0,1.4-0.7,1.4-1.3c0-0.6-0.6-1.1-1.3-1.1c-0.8,0-1.4,0.5-1.4,1.1
			C388.8,265.7,389.3,266.4,390.1,266.4z"/>
		<path class="st3" d="M396.4,291.4c1,0.4,2.2,0.2,2.7-0.2c0.5-0.4,0.7-1.3,0.1-1.8c-0.6-0.5-1.6-0.5-2.2-0.2
			c-0.6,0.3-1.9,1.3-1.9,1.3S395.4,291,396.4,291.4z"/>
		<path class="st3" d="M399.7,292.5c-0.4,0.6-0.6,0.9-1.8,1c-1.1,0-2.4,0-3.1-0.8c-0.7-0.7-1.3-1.8-1.3-1.8l-1.3,0
			c0,0-0.4,1.8-1,2.3c-0.6,0.5-2.6,0.6-3.4-0.1c-0.9-0.6-1.7-1.4-1.8-1.3c-0.1,0.1,0,0.7,0.9,1.5c0.9,0.8,1.5,1.2,2.9,1.2h8.2
			c0,0,1.7,0.1,2.1-0.9c0.5-1,0.5-1.6,0.3-1.9C400.2,291.5,400.1,292,399.7,292.5L399.7,292.5z"/>
		<path class="st3" d="M387.3,291.2c1.2,0.7,1.9,0.3,2.3-0.3c0.4-0.5,0.5-0.8,0.5-0.8s-1.2-0.4-1.7-0.7c-0.6-0.3-0.9-0.6-1.5-0.6
			c-0.6,0.1-0.6,0.2-0.6,0.2S386,290.5,387.3,291.2L387.3,291.2z"/>
		<ellipse class="st2" cx="381.3" cy="279.1" rx="2.7" ry="2.7"/>
		<path class="st2" d="M386.1,269.7c-1.1-0.7-2.7-0.4-3.6,0.7c-0.9,1.1-0.7,2.6,0.4,3.3c1.1,0.7,2.7,0.4,3.6-0.7
			C387.3,272,387.2,270.5,386.1,269.7z"/>
		<ellipse class="st3" cx="381.2" cy="278.7" rx="1.6" ry="1.5"/>
		<path class="st3" d="M384.9,270c-0.7-0.2-1.6,0.2-1.9,0.8c-0.4,0.6,0,1.3,1,1.5C385.7,272.6,386.5,270.5,384.9,270L384.9,270z"/>
	</g>
	<g>
		<path class="st3" d="M343.3,480.9c0,0-4.2,2-5.5,2.4c-1.3,0.4-1.6,0.4-1.6,0.4s-2.9,2.6-5,3.9c-2.2,1.3-4.7,2.2-7.3,2.5
			c-3.3,0.4-12.3,0.3-16.4,0.1s-6.6,0.8-8.3,2.8c-1.7,2-2.2,4.8,0.1,7c2.2,2.2,4.7,1.1,5.5-0.3c0.8-1.3,0.4-3,0.1-3.8
			c-0.4-0.8,0.7-1,1.8-1.1c1.1-0.1,3,0.1,4.8,0.4c1.7,0.3,4.8,1.3,6.2,2c1.3,0.7,0.6,0.8-0.4,0.7c-0.9-0.2-2-0.5-3.6-1.1
			c-1.6-0.6-3-0.9-4.1-1c-1-0.1-0.7,0.5-0.5,0.9c0.2,0.4,0.8,1.2,0.9,1.6c0.2,0.4-0.3,2-0.3,2l0.5,1c0,0,0.6-1,0.8-1.5
			c0.2-0.5-0.1-1.5,0.2-2c0.2-0.5,1.1-0.5,1.7,0.3c0.7,0.8,1.4,1.7,1.8,3.7c0.4,2-0.3,3.3-0.3,3.3s0.8,0.7,1,1.1
			c0.2,0.5-0.2,2.3-0.2,2.3s0.6,0.4,1.1-0.7c0.5-1.1,1.1-3,1.3-3.7c0.2-0.7,0.6-1.9,1.4-1s1.4,2.1,1.5,2.6c0.2,0.6,0.2,1,0.2,1
			s1.8-1.8,2.5-2.8c0.6-1,1.9-2.6,3.6-4c1.7-1.4,4.8-4.3,6.3-5.3c1.5-1,5.3-3,6.5-3.8c1.2-0.7,1.4-0.8,1.6-2.8
			c0.2-2,1.2-3.8,1.6-5.2C343.2,481.4,343.3,480.9,343.3,480.9L343.3,480.9z"/>
		<path class="st3" d="M276,405.4c0-0.3-0.7-1.5-0.9-2.2c-0.2-0.6-0.8-0.2-0.8-0.2s-1.3,0.8-2.3,1c-1,0.3-1.1-0.1-1.2-0.6
			c-0.1-0.5-0.3-2.1-0.5-3.3c-0.2-1.1-0.4-1.1-0.8-0.9c-0.4,0.2-1.6,0.6-2.5,1c-0.9,0.4-0.6,0.8-0.3,1.3c0.3,0.5,1.3,2.5,1.7,3.2
			c0.4,0.7,0,1-0.5,1.3c-0.5,0.2-1.3,0.3-2.3,0.7c-1,0.3-1,0.6-0.9,0.9c0.1,0.3,0.8,1.8,1.2,2.4c0.4,0.7,0.7,0.2,0.7,0.2
			s1.1-1,2-1.4c0.9-0.4,1-0.3,1.2,0.4c0.2,0.7,1.3,4.3,1.5,5c0.2,0.7,0.5,0.6,1,0.4c0.5-0.2,1.1-0.3,1.7-0.5
			c0.5-0.2,0.8-1.3,0.8-1.3s-2-3.6-2.6-4.6c-0.5-0.9,0-1.1,0.4-1.2c0.4-0.1,1.6-0.2,2.6-0.5C276.3,406.3,276,405.8,276,405.4
			L276,405.4z"/>
		<path class="st3" d="M298.8,504.3c-0.2-0.9,0-1.8-0.7-2.4c-0.7-0.7-1.5-2-1.8-3.1c-0.3-1.1,0.3-1.6,0.2-2.2
			c-0.1-0.6-0.9-0.6-1.7,0.1c-0.8,0.7-1.9,1.3-1.9,3.2c0,2,0.7,4.3,3.4,5.1C299,505.8,299,505.2,298.8,504.3L298.8,504.3z"/>
		<path class="st3" d="M301.6,503.4c0,0-0.6-0.4-0.8,0.2c-0.3,0.5-0.2,0.8,0.5,1.9c0.7,1.1,1.2,1.4,2,1.9c0.8,0.5,0.3-0.5,0.2-0.8
			c-0.1-0.3,0-0.7-0.2-1c-0.2-0.3-0.3-0.6-0.3-1.4C302.9,503.3,301.6,503.4,301.6,503.4L301.6,503.4z"/>
		<path class="st3" d="M304.9,512.6c0.5-0.8,1-1,2.2-1.5c1.2-0.6,3.5-0.9,4.3-0.9c0.8-0.1,2.5-1.5,2.3-3.1c-0.3-1.5-1.4-2.2-2.4-2.4
			c-1-0.2-1.8-0.2-2.2,0.3c-0.3,0.5-0.9,1.1-2,1.4c-1.1,0.4-1.2,0.7-1.9,0.9c-0.7,0.2-0.2,0.6-0.7,1.1c-0.6,0.5-1.3,0-2.2-0.3
			c-0.9-0.3-0.9-0.4-1.9-0.5c-1-0.1-3.5-0.2-3.5-0.2s-0.1-0.1-0.7-0.1c-0.6,0-0.6,0.1-0.9,0.7c-0.3,0.6,0.1,2.2,0.7,2.9
			c0.6,0.8,2.6,1.1,4,1.5c1.3,0.4,2,0.6,3.1,0.8C304.3,513.6,304.4,513.4,304.9,512.6L304.9,512.6z"/>
		<path class="st3" d="M317.4,513.9c1.1-0.7,0.5-2,0.2-2.7c-0.3-0.8-1.7-0.9-2.5-0.9s-1.2,0-1.6,0.4c-0.4,0.4-1,0.9-2.1,1.2
			c-1.1,0.4-2,0.8-3.5,1.4c-1.5,0.6-2,1.6-2.7,2.1c-0.7,0.4-2,0-2,0s-0.9-0.3-1.2,0c-0.3,0.3,0,0.8,0.6,1.4c0.6,0.7,1.8,0.6,3.1,1
			c1.3,0.4,1.6,0.1,2.1-0.3c0.5-0.4,0.9-1.1,1.8-1.7c0.9-0.6,2.9-0.7,3.9-0.8C314.6,514.9,316.3,514.6,317.4,513.9L317.4,513.9z"/>
		<path class="st3" d="M317.4,509.2c0.5,0.4,1,1,1.4,0.3c0.4-0.7,1.1-2.1,0.6-2.9c-0.5-0.8-1-1.5-1-1.5s-0.8,2.4-1.1,3
			C316.9,508.7,316.9,508.8,317.4,509.2L317.4,509.2z"/>
		<path class="st3" d="M313.2,502.1c0-1.3-0.9-3-0.9-3s-0.3,1.2-0.9,2.3c-0.6,1.1-1.1,1.6-1.1,1.6s1.3,0.4,1.8,0.4
			S313.2,503.4,313.2,502.1L313.2,502.1z"/>
		<path class="st3" d="M305.5,504.9c1.4-0.3,2.2-0.9,2.8-1.4s1-1.9,0.6-2.6c-0.4-0.7-1.4-1.5-1.8-1.5h-0.8c0,0-0.4,1.3-1,2
			c-0.6,0.7-1.2,1.1-1.2,2C304.2,504.3,304.1,505.2,305.5,504.9L305.5,504.9z"/>
		<path class="st3" d="M308.4,498.4c0.1-0.7-0.2-1.4-0.7-1.9c-0.5-0.5-0.8-0.8-0.8-0.8s-0.1,1-0.2,1.6c-0.1,0.6-0.2,0.7-0.2,0.7
			s0.4,0.4,0.8,0.6C307.8,498.7,308.4,499,308.4,498.4L308.4,498.4z"/>
		<path class="st3" d="M290.7,461.8l1-6.1c-0.7-6.1-3.9-11.8-6.4-15.8c-2.5-4-5.1-10.2-6.2-13.5c-1.1-3.3-1.9-7.9-1.9-10.2
			c0-2.4,1-3.6,1-3.6s0.4-0.6,0-1.1c-0.4-0.4-1,0-1.7,0.6c-0.6,0.6-1.3,1.8-1.6,2.7c-0.3,0.9-0.3,1.2-0.3,1.2s-1.3-0.3-3.4-0.1
			c-2.1,0.2-3,0.3-3.1,0.8c-0.1,0.4,0.3,0.8,1.8,1.4c1.5,0.6,2.4,0.9,3.2,1.8c0.7,0.9,2.7,5.3,3.2,7.5c0.6,2.1,1.8,8,2.3,12.5
			s2,10.1,4.2,14.7C283.6,456.1,287.4,463.3,290.7,461.8L290.7,461.8z"/>
		<path class="st3" d="M294.5,472.5c-1.4,0.8-1.4,6.5-0.7,9.5c0.6,3,3.5,6.7,4.4,7.7c0.9,1,1.1,1,1.6,0.7c0.5-0.3,0.7-0.3,0.7-0.3
			s1.2-0.4,2.2-1.1c0.9-0.7,0.6-2.6,0.4-4.2c-0.2-1.6-1.4-4.9-3.7-8.6C297,472.5,295.9,471.7,294.5,472.5L294.5,472.5z"/>
		<path class="st3" d="M296,467.9c0-1.9-1.6-3.3-3.5-3.3c-0.9,0-1.7,0.2-2.1,0.7c-1.9,1.7-0.8,6,2,6c1,0,2.2-0.2,2.9-0.9
			C295.9,469.8,296,468.8,296,467.9L296,467.9z"/>
		<path class="st3" d="M323.1,521.8c-0.7-0.1-1.2-0.4-2.3-1.2c-1.1-0.7-2.9-2.3-3.2-3c-0.3-0.7-0.3-0.8-1.4-0.4
			c-1.1,0.4-2.6,0.3-3.7,0.4c-1.1,0,0.1,1.3,0.9,2.5c0.8,1.2,0.5,5.2,0.5,5.2s0,0.4-0.2,0.9c-0.2,0.6,0,1,0.3,1.1
			c0.3,0.1,0.5-0.1,1.3-1.1c0.8-0.9,2.2-3.3,2.2-3.3s0.2,0,1.5,0.4c1.2,0.3,3.2,0.1,4.2-0.2C324.4,522.7,323.9,522,323.1,521.8
			L323.1,521.8z"/>
		<path class="st3" d="M318.4,524.9c-0.5-0.1-0.7-0.1-1,0.2c-0.3,0.4-0.5,1-0.6,1.4c-0.1,0.4-0.1,0.7,0.2,0.9
			c0.3,0.3,0.7,0.6,0.7,0.6s0.4,0.5,0.9,0.7c0.4,0.2,0.5-0.4,0.5-0.9c0-0.5,0.3-1.4,0.3-1.9S319,525,318.4,524.9L318.4,524.9z"/>
		<path class="st4" d="M518.8,486.2c-1.3-0.3-1.8-0.8-1.8-0.8s-0.6-0.1-1,0.7c-0.4,0.8-2.1,1.8-2.1,1.8s-2.3,0.6-2.6,2.2
			c-0.3,1.6,0.8,2.1,1.9,2c1.1-0.2,3.8-0.7,5-2.1c1.2-1.4,1.3-2.2,1.6-2.8C519.9,486.7,520.1,486.5,518.8,486.2L518.8,486.2z"/>
		<path class="st4" d="M522.4,473.5c-0.8-3.5-3.1-7.9-7.5-10.1c0,0-1.7,5.8-2.1,7.7c-0.5,1.8-0.5,1.8,0.9,2.1
			c1.4,0.4,5.9,1.3,6.9,1.6S523,475.8,522.4,473.5L522.4,473.5z"/>
		<path class="st4" d="M501.4,470.2c1,0.2,0.9-0.2,1.3-1.7c0.4-1.4,2.2-8.4,2.2-8.4s-4.7-0.2-8.7,1.8c-4,2-5.8,5.6-5.8,5.6
			s1,0.4,3.8,1C496.9,469.2,500.4,470,501.4,470.2L501.4,470.2z"/>
		<path class="st4" d="M490.6,479.8c-1.7-0.3-2.3-0.5-2.3-0.5s1,4,2.8,6.2c1.7,2.2,3.6,3.3,7.2,3.4c3.6,0.1,6.2-1.9,6.7-3.4
			c0.4-1.5,1.2-2.7,1.2-2.7s-6.4-0.9-9.1-1.5C494.4,480.7,492.2,480.1,490.6,479.8L490.6,479.8z"/>
		<path class="st3" d="M489.5,477.3c1.6,0.4,14.7,2.9,15.8,3.1c1.1,0.2,2,0.5,2.3,0.2c0.3-0.3,0.5-0.5,1.7-0.9
			c1.2-0.4,1.1-1.6,1.1-1.6s0.3-1.1,0.4-2.2c0.1-1.1,0.7-1.5,2-0.1c1.3,1.3,1.5,3.3,1.8,5.2c0.2,1.9,3.2,2.4,4.4,2.6
			c1.2,0.2,1.7-0.2,2.4-1.3c0.7-1.1,1-3.3,1.2-4.7c0.2-1.4,0.1-1.3-1.4-1.7c-1.5-0.4-8.3-1.9-9.5-2.2c-1.2-0.3-1-1.1-0.8-2
			s2.9-9.5,2.9-9.5c-1.9-1.2-4.6-1.9-7.8-2.3c0,0-2,8.8-2.3,10.2c-0.4,1.3-1.2,1.3-2.6,1.1c-1.4-0.2-11.6-2.6-11.6-2.6s0,0-0.8,1.9
			c-0.8,1.9-1.2,4.2-1.2,5.3S487.9,477,489.5,477.3L489.5,477.3z"/>
		<path class="st3" d="M524.3,485.3c-1.4-0.9-2.3-1.1-3,0.5c-0.7,1.6-0.8,4.1-2.5,5.8c-1.8,1.7-4.2,3.5-6.7,3.3
			c-2.5-0.2-3.9-0.8-3.3-3.6c0.6-2.8,4.3-3.7,5.2-5.2c0.9-1.5,0.6-3.2-0.6-4.3c-1.3-1.1-3.2-1.4-3.7-1c-0.5,0.4-2.1,1.6-2.8,3.8
			c-0.8,2.1-1.2,3.8-2.9,5.2c-1.6,1.3-5.9,2.7-9.1,1.9c-3.3-0.8-4.5-1.8-5.7-5c-1.2-3.2-2.7-8.6-3.3-9.2c-0.6-0.6-1.5-1.1-2.9-0.1
			c-1.4,1-1.5,2.5-1.7,3.6c-0.2,1.2,0,2.5,1.4,4.2c1.4,1.7,2.9,3.4,3.4,5.2c0.5,1.8,2.1,4.5-0.1,4.6c-2.2,0.1-3.2,0.2-4.9-1.5
			c-1.7-1.6-8.3-6.2-10.1-7.6c-1.8-1.5-2.6-1.9-2.6-1.9c-3.1-0.1-6.1-1.3-9.2-3.4c0,0,1.8,4.5,2.1,6.2c0.4,1.7,0.3,2.6,0.3,2.6
			s6.7,3.4,9.3,4.7c2.6,1.3,8,4.3,10.6,5.9c2.6,1.6,4.8,4.1,9.3,3.1c4.6-0.9,13.8-3.8,16.8-4.6c3-0.9,11.3-2.9,14.3-5
			c3-2.1,3.3-2,3.9-4.1C526.2,487.4,525.6,486.2,524.3,485.3L524.3,485.3z"/>
		<path class="st3" d="M506.6,453.7c0.5-0.1,0.7-0.1,2.3-0.3c1.6-0.2,1,1.3,0.7,1.9c-0.3,0.6-0.7,1.7-1.4,2.8
			c-0.6,1.1,0.2,1.3,0.6,1.4c0.4,0.2,1.1,0.2,2.3,0.6c1.3,0.3,1-0.6,1.1-1.1c0-0.5,0.1-3,0.2-3.8c0.1-0.9,0.9-0.6,1.3-0.5
			s1.1,0.6,1.7,0.9c0.6,0.3,0.9,0,1.1-0.4c0.1-0.4,0.4-1.1,0.7-2c0.3-1-0.3-0.8-1-0.8c-0.6,0-1.5,0-2.5,0c-1,0-0.4-1-0.4-1
			s0.7-1.2,1.3-2.1c0.6-0.9,0.4-1.1-0.2-1.2c-0.6-0.2-2.4-0.6-2.9-0.7c-0.5-0.1-0.7-0.1-0.7,0.3c0,0.3-0.1,2.1-0.1,2.8
			c0,0.7-0.1,1.1-0.9,1.1c-0.9,0-1.4-0.5-2.1-1.3c-0.7-0.8-1-0.5-1.1-0.2c-0.1,0.3-0.6,2.5-0.8,3.2
			C505.8,453.7,506.1,453.7,506.6,453.7L506.6,453.7z"/>
		<path class="st3" d="M511.6,475.9c0,0-0.1,1.8-0.2,2.4c-0.2,0.6-0.6,1.5,0.1,1.8c0.7,0.2,1.4,0.5,1.8,0.4c0.4-0.1,0.2-1,0-1.7
			c-0.2-0.7-0.6-1.7-1.2-2.3C511.6,475.9,511.6,475.9,511.6,475.9L511.6,475.9z"/>
		<path class="st3" d="M522.3,483c0.2,0.5,0.7,0.7,1.1,0.8c0.4,0.1,0.9,0.1,0.9-0.6c0-0.7,0.1-1.5-0.4-2.3c-0.6-0.7-0.8-1.3-1.2-0.2
			C522.4,481.9,522.1,482.5,522.3,483L522.3,483z"/>
		<path class="st3" d="M484.8,475.8c0.3,0.1,1.5,0.4,1.5,0.4s0-1.7,0.2-2.9c0.2-1.2,0.7-2,0.3-2s-0.7,0.4-1,0.9
			c-0.3,0.5-1.2,0.6-1.5,2C484.1,475.7,484.5,475.8,484.8,475.8L484.8,475.8z"/>
		<circle class="st2" cx="492.2" cy="472.9" r="2.4"/>
		<circle class="st2" cx="498.9" cy="474.6" r="2.4"/>
		<circle class="st2" cx="518.5" cy="478.7" r="2.5"/>
		<circle class="st2" cx="505.6" cy="476.2" r="2.5"/>
		<circle class="st2" cx="507.4" cy="470.3" r="2.5"/>
		<circle class="st2" cx="509.1" cy="464.4" r="2.5"/>
		<circle class="st3" cx="492.3" cy="472.7" r="1.2"/>
		<circle class="st3" cx="499.1" cy="474.3" r="1.2"/>
		<circle class="st3" cx="518.7" cy="478.5" r="1.2"/>
		<circle class="st3" cx="505.8" cy="475.9" r="1.2"/>
		<circle class="st3" cx="507.6" cy="470" r="1.2"/>
		<circle class="st3" cx="509.3" cy="464.1" r="1.2"/>
	</g>
	<g transform="matrix(-1,0,0,1,639.96566,0)">
		<g id="g4017_1_">
			<path class="st3" d="M431.4,522c-1.3-0.8-2.4-1.7-5.3-3.7c-2.9-1.9-4-4.1-4-4.1h1c0.6,0,1-0.8,1.1-1.6c0-0.8,0-2.4-0.2-4.2
				c-0.2-1.9,0.3-3.4,0.3-3.4s1.2,1.2,3.1,2.2c1.9,1,2.7,0.5,2.7,0.5l0.5-1.9c0,0,0.8,1.7,2,3.8c1.2,2,4.3,4.3,6.5,6
				c2.2,1.7,4.7,3.5,6.5,4.1c1.9,0.6,0.8,1.5,0.8,1.5s-1.9,1.9-6.6,2.7C434.9,524.7,432.7,522.8,431.4,522L431.4,522z"/>
			<path class="st3" d="M414.6,520.1c1.7-0.2,2.7-0.8,3.1-2.7c0.2-1.2-0.1-5.8-0.1-5.8s0.6,0.5,1.2,1.3c0.6,0.8,2.1,0.9,2.1,0.9
				s0.2,0.6,0.9,1.7c0.6,1,1.5,2.3,3.1,3.3c1.6,1,3.5,2.2,4.8,3.3c1.2,1,2.7,2.2,4.4,3.2c1.6,0.9,3.1,2.4,3.7,4.8
				c0.6,2.4,0.1,3.2-1.8,3.1c-1.9-0.1-2.1,0-5.2-0.7c-3.1-0.8-7.4-4.2-10.6-6.2C417,524.1,414.6,520.1,414.6,520.1L414.6,520.1z"/>
			<path class="st3" d="M406.2,522.9c0,0,1.3-1.6,1.8-3.5c0.5-1.9,1.4-5.5,1.4-5.5s0.4,1.2,1.5,3.4c1,2.2,2.8,2.7,2.8,2.7
				s0.1,0.9,1.6,2.8c1.5,1.9,3.6,3.6,5.8,4.9c2.2,1.3,5,3.1,6.6,5.3c1.5,2.2,1.7,4.5,0.9,5.5c-0.7,1-1.8-0.1-3.2-0.9
				s-5.6-1.4-11.4-4.5C408.1,529.9,406.2,522.9,406.2,522.9L406.2,522.9z"/>
			<path class="st3" d="M403.7,535.8c-1.6-2.4-1.9-8.2-1.9-8.2s0.6-0.4,1.3-1c0.8-0.6,2.3-2.9,2.3-2.9s0.9,2,2,3.8
				c1,1.9,1.6,2.5,3.7,4.5c2.2,2,5.1,3.9,6.3,6c1.2,2.1,0.6,6.3-0.3,7.8c-0.8,1.4-2,0.9-3.2-0.2c-1.2-1.2-1.6-1.5-3.7-3.3
				C408.2,540.5,405.3,538.2,403.7,535.8L403.7,535.8z"/>
			<path class="st2" d="M422.6,487.4c-0.8-1.7-1.8-3.8-2.6-4.9c-0.8-1.1-1.3-2.3-1.3-2.3s2.1,1.9,2.9,3.2c0.8,1.3,1.3,2.6,1.7,4.1
				C423.6,488.9,423.5,489.1,422.6,487.4z"/>
			<path class="st2" d="M414.4,488.9c-0.3-1.1-0.5-1.9-0.5-1.9s-0.3-1.1-0.1-1.2c0.2-0.1,1,0.7,1.6,2.6c0.6,1.9,1.5,4.6,1.3,4.7
				C416.5,493.2,414.8,490,414.4,488.9L414.4,488.9z"/>
			<path class="st2" d="M408,494.1c-0.4-0.8-0.4-0.8-0.4-0.8s-0.7-2.1-0.7-2.6c0-0.4,0.2-1,0.8,0.1c0.6,1.1,0.6,2.2,0.7,2.7
				c0.1,0.5,0.7,2.1,0.6,2.3C408.8,495.9,408.4,494.9,408,494.1L408,494.1z"/>
			<path class="st2" d="M428,513.7l0.9-0.5c0,0,0.5,0.7,1.2,1.5c0.7,0.8,1.6,1.1,2.1,1.8c0.6,0.7,1.4,1.6,2.8,2.3
				c1.3,0.7,1.9,0.9,1.6,1.1c-0.3,0.2-1.2-0.3-1.2-0.3s-0.4,0-2-1s-2-1.5-3-2.4C429.4,515.4,428,513.7,428,513.7z"/>
			<path class="st2" d="M421,522c-0.6-0.6-1.2-1.1-0.9-1.4c0.3-0.3,0.8-0.3,1.3,0.2c0.6,0.5,2.2,2,2.9,2.6c0.7,0.6,1.3,1,2.1,1.6
				c0.7,0.6,2.3,1.4,3.1,1.9c0.8,0.4,0,0.5,0,0.5s-0.6-0.3-1.2-0.5c-0.6-0.2-2.5-1-2.5-1s-0.7-0.3-1.7-1
				C423.1,524,421.6,522.6,421,522L421,522z"/>
			<path class="st2" d="M413,527.5c-0.5-1,0-0.7,0.9-0.4c0.9,0.3,2.8,2.5,3.9,3.2c1.1,0.8,2.1,1.1,3,1.6c0.9,0.5,0.9,0.7,0.9,0.9
				c0,0.2-0.4,0.2-0.8,0c-0.4-0.2-1.7-1-1.7-1s-0.6-0.2-1.1-0.2c-0.5,0-1.2-0.6-2.4-1.6C414.5,529.2,413.5,528.6,413,527.5
				L413,527.5z"/>
			<path class="st2" d="M409.2,534.9c1.4,0.9,3.9,2.8,4.5,4.1c0.6,1.3,1.1,2.2,0.9,2.4c-0.2,0.2-0.9-0.2-1.2-0.7
				c-0.3-0.5-0.9-1.3-0.9-1.3s-2.5-2.4-3.4-3s-2.4-2.2-2.7-3.1c-0.3-1-0.1-1.5-0.1-1.5S407.8,534.1,409.2,534.9L409.2,534.9z"/>
			<path class="st6" d="M447.2,328.3c1.3-0.8,4.8-2.3,8.5-2.6c3.7-0.3,6.6,0.2,9.7,1.1c2.2,0.6,4,0.7,5.8,0.2
				c2.7-0.7,4.7-3.1,5.4-6.1c0,0,2.5,3.2-0.1,6.6c-1.2,1.6-2.8,2.7-4.4,3c-5.2,1.1-10.3-2.1-14.7-2.4c-4.2-0.3-7.5,2.4-7.5,2.4
				s-1,0.8-2.4,0C446.3,329.7,445.9,329.1,447.2,328.3z"/>
			<path class="st3" d="M462.2,479.4c0,0,0.5-0.1,1.2-0.2c0.7-0.1,2.3-0.6,2.7-0.8c0.5-0.2,1.2-0.3,1.6,0.3c0.5,0.5,4.2,2.7,4.2,2.7
				h-6.2C463.6,481.4,462.2,479.4,462.2,479.4L462.2,479.4z"/>
			<path class="st3" d="M444.7,478.3v-0.6l0.8-1.8c0,0,1,0.6,1.9,1.6c1.2,1.3,2.5,3,3.1,3.8c1,1.3,2.5,2.6,1.2,0.5
				c-1.2-2.1-1.7-3-2.6-4.4c-1-1.4-1.7-2-1.6-2.1c0.1-0.1,0.9-0.2,3.5-0.5c2.6-0.3,4.2-1.3,5.4-2c1.2-0.7,3.4-1.9,3.4-1.9
				s4.4,1.9,6.1,2.3c1.7,0.4,2.6,0.7,1,1.5c-1.6,0.8-3,1-3.8,1.5c-0.8,0.5-3.2,1.3-4.7,1.3c-1.5,0-4,0-3,1.1c1,1,2.1,3,3.2,6.1
				c1.1,3,1.1,5.7,1.1,7.1s-0.2,2.7-0.2,2.7s-1.8-2-6.7-5.1c-4.9-3.1-6.7-4.1-7.6-4.5c-0.9-0.4-1.4-0.4-1.2-1.6
				C444.2,481.7,444.7,478.9,444.7,478.3L444.7,478.3z"/>
			<path class="st3" d="M426.1,463.5c0.3-0.1,0.6-0.3,0.9-0.4c0.1,0,0.2,0,0.2,0.1c0.6,0.3,3.6,2.3,4.8,4.2c1.2,1.9,2.4,2.1,1.1,0
				c-1.3-2.1-2.3-3.3-3.3-4.2c-0.4-0.4-0.8-0.6-1-0.9c2.4-1.2,5-2.6,7.5-4.3c0.3,0.6,1,1.8,1.7,2.5c1,1.1,3.3,2,3.3,2
				s-1.8-1.9-2.5-3.3c-0.4-0.9-0.7-1.9-0.8-2.5c1.8-1.4,3.4-2.9,4.9-4.7c0.3,1.2,1.3,4.3,4.2,7.5c3.8,4.3,11.5,6.5,11.5,6.5
				s2.7,0.3,0.5,0.9c-2.2,0.6-3.7,1.5-8,0.8c-4.2-0.7-4.5-0.9-5.1-1.1c-0.6-0.2-2.1-0.1,0,0.7c2.1,0.8,7,1.5,8.9,1.4
				c1.9-0.2,4.5-0.6,1.8,0.9c-2.7,1.4-3.8,2-5.5,2c-1.7,0-2.3,0.5-4,0.5c-1.6,0-2.1-0.3-3.2-0.5c-1.1-0.2-1.9,0.2-1.9,0.6
				c0,0.5,1.5,1.7,1.5,4.9c-0.1,3.1-0.3,5.2-0.6,6.1c-0.3,0.9-1,2.4-1.4,3.3c-0.5,0.9-0.6,1.7-1.1-0.1c-0.5-1.8-1.5-4.5-1.9-6.2
				c-0.4-1.8-0.6-1.8-0.8-2.7c-0.2-0.9-1.1-1.6-0.7,0.1c0.5,1.7,1,3.8,1.3,5.3c0.3,1.5,1.1,4.2-0.2,2.1c-1.4-2.2-6.5-8-7.4-9
				c-0.9-1-1.5-2-2.2-2.9c-0.6-0.9-2.4-2-3.3-3.3c-0.8-1.1-3.1-3.4-4-4.2C422.9,464.8,424.4,464.2,426.1,463.5L426.1,463.5z"/>
			<path class="st3" d="M497.3,331.3c-0.1,3.2-3.6,9.2-5.6,12.4c-2,3.2-2.5,4.5-2.2,4.7c0.3,0.2,1.2-1.4,2.3-2.9
				c1.1-1.4,3.2-4.8,5-7.3s4.4-8.6,4.7-9.1c0.3-0.5,0.5-0.9,1.4-0.2c0.9,0.7,2.6,7.3,0.5,11.9c-2.1,4.5-5.1,7.8-6.4,9.4
				c-1.3,1.6-3,4-2.7,4.3c0.3,0.2,0.8-0.4,2.3-2.1c1.6-1.6,4.2-4.5,5.9-6.5c1.4-1.7,3.3-5.1,3.9-6.3c0.2-0.5,0.6-0.3,0.8-0.1
				c0.6,0.6,1.5,1.9,1.1,5.5c-0.5,5-3.2,7.9-5.5,10.4c-2.3,2.5-4.7,4.7-4.3,5c0.3,0.3,2.7-1.8,4.4-3.4c1.6-1.6,5.7-5.5,6.6-6.6
				c0.9-1.1,2.2-0.5,2.1,3.8c-0.1,4.3-4.9,8.7-6.8,11.1c-2,2.4-4.5,3.8-4.2,4.3c0.2,0.5,2.2-0.8,3.5-1.6c1.3-0.9,6.2-4,7.1-4.7
				c1-0.7,1.4,0.6,0.2,4.7c-1.2,4.1-4.8,7.4-6.9,8.9c-2.1,1.5-5.5,3.4-5.3,3.8c0.2,0.5,1.6-0.1,3.6-1.1c2-1,4.4-1.9,6.1-2.3
				c1.7-0.5,1.7,0.8,1.7,0.8s0.3,3.5-2.2,6.3c-2.5,2.8-5.4,3.9-8.2,4.4c-2.7,0.5-3.2,0.6-3.1,1c0.1,0.4,0.3,0.5,1,0.5
				c0.6,0,3.2,0.3,5.5,0.3s3.6,0.5,3.6,1.6s0.1,2.4-3.4,4.7c-3.5,2.3-7.4,2.7-9,3c-1.6,0.3-1.7,0.5-1.4,1c0.3,0.5,1.1,0.4,3.7,0.7
				c2.6,0.3,4.2,1.3,4.5,2c0.3,0.7-0.2,2.7-2.3,4.2c-2.1,1.4-4.9,1.9-9,1.6c-4.1-0.3-5.1-0.3-5.3,0.3c-0.1,0.7,1.2,0.9,3.3,1.2
				c2.1,0.3,3.6,0.3,4.8,1.3c1.2,1,0.3,2.9-1.7,4.4c-2,1.4-6.9,1.4-9,1.3c-2.1-0.1-5.2-0.9-5.4-0.3s1.5,1.4,3.6,2.1
				c2.1,0.8,2.7,1.2,3.2,2.1c0.4,0.9,0.1,1.7-2.5,2.7c-2.5,1-6.2,1-8.2,0.1c-1.9-0.9-2.9-1.2-3.3-0.9c-0.3,0.3,0,0.7,0.4,1.2
				c0.4,0.5,2.1,1.8,4.2,2.3c2.1,0.5,2.3,0.5,3.1,2.3c0.8,1.7-1.2,3.1-5,3.2c-3.8,0.1-9-1.4-10.6-2.3c-1.6-1-2.3-1.2-2.5-0.8
				c-0.3,0.3-0.2,0.5,0.6,1.2c0.8,0.6,3.4,2.5,4.7,2.8c1.3,0.3,1.4,1.3,1.4,2.2c0,0.9,0.3,2.7-3.1,3.5c-3.4,0.8-7.5,0.2-11.2-2.4
				c-1.2-0.8-1.9-1.5-2.3-2.1c0.3-3.5,0.1-5.9-0.3-8.1c0.7-0.1,2.1-0.3,3.5-0.9c2.1-0.8,2.9-2.7,3.4-3.8c0.5-1,1.2-1,2-0.8
				c0.8,0.3,1.6,0.6,2.8,0.6c1.2-0.1,3.6-0.7,5.4-2.8c1.8-2.1,1.4-4.2,1.5-5.2c0.1-1,1.7-0.3,2.5-0.3c0.8,0,3.2-0.3,5.4-1.9
				c2.2-1.5,2.2-3.6,2.4-4.4c0.2-0.8,1.1-1.4,1.8-1.6c0.7-0.3,1.8-0.5,3.3-1.8c1.5-1.2,2.1-3.6,2.1-4.5c0.1-0.8,1-0.9,4-2.5
				s2.8-4.9,2.7-6.2c-0.1-1.3-1.6-2.4-1.6-2.9c0-0.5,1-0.6,2.1-1.2c1-0.6,3.6-1.6,3.7-5.5c0.1-3.8-2.5-4.3-2.5-4.3s0.5-0.2,1.5-0.8
				c1-0.6,3.8-2.5,3.8-4.8c0-2.3-1-3.3-1.8-3.8c-0.8-0.5-2.8-1.1-2.8-1.1s1.3-0.8,1.9-2.6c0.5-1.8,0.8-4-0.5-5.6
				c-1.3-1.6-3.5-1.6-4.7-1.6c-1.2,0-2.2,0.6-2.6,0.3c-0.4-0.3-0.5-0.6-0.1-1.5c0.4-0.9,0.5-3.1,0.1-3.8c-0.3-0.8-0.4-2.3-3.4-3.2
				c-2.9-1-6,1-7,1.6c-1,0.5-0.5-0.8-0.5-1.7c0-1,2-3.4,4.2-6.8c2.3-3.4,3.3-5.2,5.8-10.4c2.5-5.2,4.2-11.9,4.5-13.7
				c0.3-1.7,1-0.9,1-0.9s0.7,0.3,2.3,4.3C497.1,324.5,497.4,328.1,497.3,331.3L497.3,331.3z"/>
			<path class="st3" d="M445.6,401.4c1.8-0.1,4.1-1.1,5.8-3.6c1.8-2.6,4.4-3.2,9-3.1c4.6,0.1,6.7-2.1,7.9-5.3
				c1.1-3.2-0.2-6.8-4.9-9.1c-4.7-2.3-6.8-4.9-7-8.8c-0.2-4,4.7-8.9,9.5-14.5c4.9-5.6,8.6-13.4,8.6-13.4s1.4,1.9,1.4,3.7
				s-0.7,3.8,0,4.3c0.7,0.5,1-0.8,3.8-2c2.8-1.2,5.1-1.4,6.9,0.6c1.8,2,0,5.6-1.6,7.2c-1.6,1.7-2.9,2.9-2.5,3.5s2.8-1,3.6-1.5
				c0.8-0.5,2.6-2.6,5.4-2.3c2.7,0.3,3.7,1.1,4,3.4c0.3,2.3-2.5,4.3-4.2,5.2c-1.8,0.9-2.5,1.7-2,2c0.4,0.4,0.9,0,1.7-0.3
				c0.8-0.3,3-0.5,4.4,0c1.4,0.5,3.7,2.5,1.6,4.9c-2.1,2.4-6.5,3.3-7.4,3.4c-0.9,0.2-1.3-0.1-1.4,0.6c-0.1,0.7,1.9,0.7,4.2,0.8
				c2.4,0.1,3.1,2.4,2.7,4.2s-4.3,3.7-6.5,4.1c-2.2,0.4-3,0-3.2,0.6c-0.2,0.6,0.3,0.9,1.5,1.2c1.2,0.4,3.6,0.6,4.1,2.6
				c0.4,1.9,0.5,2.8-1.3,4.5c-1.9,1.7-4.9,1.4-5.7,1.2c-0.9-0.2-1.9-1.2-2.8-0.3c-0.9,0.9,0.8,1.6,2.3,2.7c1.5,1.1,1.4,3.1-1.1,4.5
				c-2.6,1.4-5.1,0.9-6.2,0.5s-2.5-2-3.2-1c-0.7,1.1,2.2,1.4,3.4,2.9c1.2,1.5,0.8,4-1.7,5.5c-2.5,1.5-6.5,0.4-7.2-0.2
				c-0.7-0.6-1.6-0.9-2.1-0.4c-0.5,0.5,0.3,1.9,0.8,3.2c0.5,1.2,1.5,4.9-2.2,6.3c-3.7,1.4-7.1-1.8-7.7-2.4c-0.6-0.6-1.2-0.7-1.8-0.4
				c-0.5,0.3-0.3,0.8,0.2,1.4c0.4,0.6,1.4,3.3-1.2,5.1c-1.8,1.3-3.8,1.2-4.8,1c-0.6-2.1-1.3-4.3-2-7.4h0.6c0.4,0,0.4,0.5,0.4,0.7
				c0,0.2-0.1,0.4,0.2,0.4c0.3,0,0.4,0.2,0.8,0.5c0.5,0.3,0.9,0.7,1.1,0.5c0.2-0.2-1-0.8-1.3-1.2c-0.3-0.4-1-1-1-1.4
				c0-0.4-0.2-0.7-0.9-1.2c-0.2-0.2-0.4-0.4-0.5-0.6c-0.4-2.1-0.8-4.5-1.2-7.4c-0.3-2-0.4-3.8-0.5-5.6L445.6,401.4L445.6,401.4z"/>
			<path class="st3" d="M521,346.4c-3.9,8-9.5,12.5-9.5,12.5s0.7-2,1.1-3.3c0.3-1.4,0.1-2.9,0.1-2.9s1.4-1.8,4-5.8
				c2.6-4,3.9-9.9,3.9-9.9s-2.4,5.9-4.3,9c-1.9,3.1-4,5.7-4,5.7s-0.8-2.8-1.3-2.9c-0.5-0.1-0.9,0.3-1.4,0.9
				c-0.5,0.6-0.9,0.6-0.9,0.6s0.6-1.3,1.6-2.9c0.4-0.7,1.1-1.5,1.6-2.2c1.5-2.3,4.6-6.7,6.3-11.1c1.6-4.4,5.2-15.5,5.8-18.7
				c0.6-3.3,1.2-1.5,1.9,0.9c0.6,2.4,1.5,5.8,0.9,10.9C526.2,332.1,524.9,338.4,521,346.4L521,346.4z"/>
			<path class="st3" d="M515.9,367.9c-1.5,1.1-3.6,2.6-3.6,2.6s0.3-0.8,0.6-1.8c0.2-1,0.3-2.9,0.3-2.9s1.7-1.5,2.9-2.6
				c1.2-1.1,2.7-2.4,5.7-6.1c3-3.7,0.6-1.5-1.9,1.2c-2.4,2.7-7.1,6.5-7.1,6.5s0-0.1,0-0.9c0-0.8-0.3-1.4-0.7-1.9
				c-0.4-0.6-0.2-0.6,2.4-2.6c2.6-2,9.4-9.7,12.2-14.2c2.8-4.6,5.8-10.8,5.8-10.8s1.5,9.1-4.1,19.2
				C522.9,363.6,517.4,366.8,515.9,367.9z"/>
			<path class="st3" d="M486.7,425.5c-3-1.2-2.2-4.2-2.2-4.2s1.9,0.6,3.6,1.2c1.7,0.6,6,1.9,7.6,1.9c1.7,0,1.7-0.2,1.7-0.4
				c0-0.2-1.3,0-3.7-0.4c-2.4-0.4-6.6-2.7-7.4-3.2c-0.7-0.5-0.6-0.6,0.4-0.7c1.1-0.1,2-0.6,2.4-0.9c0.4-0.3,1.5,0.1,4.3,0.8
				c2.8,0.6,8.5,1.6,12.8,1.6s8.5-0.7,9.1-0.9c0.7-0.1,1.4,0.2-0.7,3.8c-2.1,3.5-9.5,5.5-14.7,5.4
				C494.9,429.5,489.7,426.7,486.7,425.5L486.7,425.5z"/>
			<path class="st3" d="M500.4,418.2c-5.3,0-7.3-1.5-7.3-1.5s0-0.3,0.7-1.4c0.7-1.1,0.6-2.9,0.6-2.9s1.3,0.2,3.5,0.5
				c2.2,0.3,4.8,0.6,7.6,0.1c2.8-0.5,1.6-0.8-0.6-0.5c-2.3,0.3-6.6-0.5-8-1c-1.4-0.5-0.8-0.9,0.1-1.3c0.9-0.3,3.5-1.9,3.5-1.9
				s6.5,0.8,12.5,0.1c6-0.7,9.8-2.2,11-2.4s1.2,0.3,1.2,0.3s0.3,0.5-1.8,3.8c-2.1,3.3-6.1,5.4-9.6,6.4
				C510.4,417.5,505.8,418.2,500.4,418.2L500.4,418.2z"/>
			<path class="st3" d="M501.8,405.7c0,0,0.2-0.3,0.5-1.4c0.3-1.1-0.6-1.9-0.6-1.9s1.2-0.4,5.2-0.9c4-0.5,4.2-0.8,6.6-1.4
				c2.4-0.5,4.1-1.3,4-1.5c0-0.3-0.8,0.1-2.3,0.7c-1.4,0.5-7.5,1.2-10.1,1.5c-2.6,0.4-4,0.6-4.5,0.4c-0.5-0.3-2-0.7-2-0.7
				s1.1-0.3,2.4-0.5c1.4-0.2,2.6-0.8,3.3-1.3c0.7-0.5,0.9-0.6,4.2-1c3.3-0.4,5.9-1.4,11.7-3.5c5.8-2.1,10.2-4.7,11.4-5.6
				c1.2-0.9,1.1-0.3,0.8,0.9c-0.3,1.2-0.3,2.8-3.2,6.2c-2.9,3.4-4.4,4.9-11.8,7.6C510.1,406.1,501.8,405.7,501.8,405.7L501.8,405.7z
				"/>
			<path class="st3" d="M523.7,387.7c-6.5,4.6-14.2,6.3-15.8,6.5c-0.4-0.4,0.4-2,0-2.9c-0.4-1.1-1.1-1.1-2.7-1.2
				c-1.6-0.1-0.5-0.4-0.2-0.4c0.4,0,0.5,0,3.1-0.7c2.6-0.7,5.3-1.1,8.9-2.4c3.6-1.4,4.7-2.4,4.6-2.6c-0.1-0.3-1.7,0.9-5,2.1
				c-3.3,1.3-7.2,1.8-9.3,2.2c-2.1,0.4-0.3-0.5,0.7-1c1-0.6,2.4-2.8,2.4-2.8s2.3-0.4,6.2-1.6c3.8-1.2,7-2.5,10.2-4.3
				c1.1-0.6,2.2-1.4,3.3-2.3c2.2-1.6,4.4-3.2,5.3-3.8c1.3-0.9,0.9-0.2,0.8,0.4s-1,3.3-3.1,6.3C530.9,382.2,530.2,383.1,523.7,387.7z
				"/>
			<path class="st3" d="M524.8,374.7c-6.5,5.1-12,6.7-13,7.1c-0.9,0.4-0.9-0.1-0.7-0.7c0.2-0.5,0.3-2.3,0.3-2.3s2.3-1.3,4.9-2.8
				c2.6-1.5,5.4-3.5,7.3-4.8c1.9-1.3,0.8-1.2,0.2-0.7c-0.6,0.5-3.2,2-5.8,3.7c-2.6,1.6-6.6,4-6.6,4s-0.1-0.9-0.6-1.4
				c-0.5-0.5-1.9-0.4-1.9-0.4s0.7-0.7,1.1-1.3c0.4-0.6,2.5-1.3,4.9-2.4c2.4-1.1,6.7-4.3,9.8-7c3.2-2.7,9.3-9.4,9.7-9.9
				c0.4-0.5,0.7-0.5,0.7,0.2c0,0.7,0.3,1.1-0.4,4.2C534.1,363.2,531.2,369.6,524.8,374.7z"/>
			<path class="st3" d="M501.9,326.4c-0.7,1.5-1.5,2.7-2.1,3.7c-0.9,1.5-1.4,2.5-1.4,2.5s-0.2-0.5,0-1.4c0.1-0.9,0.3-2.1,0-3.6
				c-0.1-0.8-0.3-1.6-0.3-2.3c0.1-0.8,0.3-1.5,0.4-2c0.2-0.9,1.1-4.6,1.6-7.3c0.4-2.7,0.9-6.5,0.9-9.8c0-3.4-0.5-1.7-0.5,0
				s-0.2,4.1-0.7,7.9c-0.5,3.8-2.1,9.7-2.1,9.7s-0.1-0.9-0.6-2.2s-1.3-2.7-1.9-4.3c-0.6-1.6-0.4-1.9-0.4-1.9s2.3-10.9,2.9-16
				c0.6-5.1,1.6-18.6,1.6-18.6c3.3,3.3,5.8,12.1,6.2,20.4c0.3,6.3-0.7,12-1,14.4C503.9,320.2,503.1,323.8,501.9,326.4L501.9,326.4z"
				/>
			<path class="st3" d="M509.3,343.5c-0.1-2.5-0.7-4.3-2.3-4.9c0,0,1.4-2.5,2.6-6c0.8-2.4,1.5-5.5,1.9-7.8c0.9-5.8,1.6-11.8-0.2-2
				c-1.7,9.8-3.8,13.3-3.8,13.3l-2.5,4.1c0.4-1.8,0.4-3.1,0.3-5c-0.1-2-0.3-4.6-0.9-6.7c0,0,3-6.1,4.9-13.4s3-13.9,3-17.9
				c0.2-3.8,0.3-5.3,0.3-5.3s3.1,2.3,4.2,14.2c1,11.9-2.1,23.3-3.6,27.6C511.6,338.1,509.3,343.5,509.3,343.5L509.3,343.5z"/>
			<path class="st3" d="M475.2,434.2c0,0,0.5-0.3,2-1.3c1.5-0.9,1-3.7,1-3.7s0.4,0.3,1.5,1c1.1,0.7,2.3,1.6,3.8,2.2
				c1.5,0.6,2.2,1,3.1,1.3c0.9,0.3,0.7-0.1-0.1-0.5c-0.8-0.4-1-0.7-3-1.5c-2-0.8-5.9-4.2-5.9-4.2s0.9-0.1,2.6-0.1s3.7-0.9,3.7-0.9
				s1.6,1.5,8.2,4.3c6.5,2.8,12.1,3.5,12.1,3.5s-0.7,3.4-3.8,4.5c-2.6,1.1-6.2,1.8-13.2,0.1C480.1,437.1,475.2,434.2,475.2,434.2
				L475.2,434.2z"/>
			<path class="st3" d="M466.6,440.9c-0.5-2.8,1-4.7,1-4.7s0.3,0.2,1.3,1.1c1,0.9,2.4,2.6,5.2,3.9c2.8,1.4,3.7,1.3,1.1-0.1
				c-2.7-1.4-6.5-5.5-6.5-5.5l1-0.4c1-0.4,2.8,0.3,10.2,4.7c7.4,4.4,11.7,4.6,11.7,4.6s-3.3,4-12.2,3.7
				C470.4,447.9,467.2,443.7,466.6,440.9L466.6,440.9z"/>
			<path class="st3" d="M449.7,437.7c0,0,1,1.4,2.3,2.3c1.3,0.9,4.9,1.4,4.9,1.4s0.1,0.4,0.8,1.3c0.7,0.9,2.2,3,3.8,4.1
				c1.6,1.1,4,1.9,4.2,1.6c0.1-0.3-1.4-0.9-3-1.8c-1.5-0.9-2.9-2.7-3.9-3.8c-1-1.2,0.4-1,0.4-1s1.9,0,3.6-0.1c1.7-0.2,1.4,0,1.9,0.8
				c0.5,0.8,1.2,1.6,2.5,3.1c1.6,1.8,3,3.4,4.5,5.2c1,1.2,0.2,1.5,0.2,1.5s-0.4,0.7-4.4,1.2c-2.5,0.3-5.1,0-7.9-1.7
				c-1.7-1-3.5-2.6-5.4-4.6C449.5,442,449.7,437.7,449.7,437.7L449.7,437.7z"/>
			<path class="st3" d="M447.6,448.5c1,1.3,1.5,1.8,1.5,1.8s-0.7-2.1-1.3-3.1c-0.3-0.5-0.7-1-0.9-1.4c0.7-1.5,1.2-3.1,1.6-4.8
				c0.4,1.4,1.8,5.6,3.5,8.3c2.1,3.3,3.9,4.5,2.7,5.4c-1.2,0.9-3.5,1.1-6.1-0.2c-2.5-1.2-3.2-3.4-3.6-5.1c0.4-0.7,0.9-1.4,1.2-2.1
				C446.6,447.4,447.1,447.8,447.6,448.5L447.6,448.5z"/>
			<ellipse class="st3" cx="448.2" cy="316.7" rx="1.8" ry="1.7"/>
			<path class="st3" d="M452,313.6c-1.7,0-2.6-0.8-4.4-0.7c-2.2,0.2-5.1,1.5-8.7,3.4c-2.8,1.3-6.5,1.9-10.1,0.9
				c-1-0.3-2-0.8-2.9-1.4c-4.4-2.5-3.3-7.3-3.3-7.3c3.2,2.3,7.2,3.6,10.9,3.3c0,0-0.3,0.2-0.9,0.8c-0.6,0.6-1.8,1.4-1.4,1.7
				c0.4,0.3,2-1.2,3.3-2.2c1.3-1,3.3-2.3,6.7-3.3c3.4-1,7.2-1.1,9.7,0.3c2.5,1.4,2.7,3.2,2.4,3.9C453,313.5,452.6,313.6,452,313.6z"
				/>
			<path class="st3" d="M404.7,349.1c0.8-0.2,2.1-0.4,3.9-2c1.8-1.6,6-6.3,6.5-7.1c0.5-0.8,0.3-1.6-0.9-2.1c-1.2-0.5-2-2-2-2
				s2.6-1,4.4-2.3c1.8-1.3,5.8-4.9,6.4-5.8s0.3-1.1-0.6-1.3c-0.8-0.3-1.1-0.8-1.1-0.8s1.9-1.2,3.7-2.6c1.8-1.4,4.1-3.7,4.1-3.7
				c2.6,1.1,6.8,0.6,9,0.2c3.9-0.7,6.8-2.3,6.8-2.3s0.1,0.6,0.6,1.8c0.5,1.2,2.3,1.9,4.1,0.7c1.8-1.2,1.4-3.8,1.4-3.8s1.5-0.9,4.5-2
				s5.5-1.3,7.9-0.1c2.5,1.1,3.7,4.5,3.7,7c0,2.5-1.3,1.5-1.6,1.1c-0.3-0.4-0.8-2.2-3.9-2.7c-3.1-0.5-5.9,1-9.4,3.9
				c-3.5,2.9-4.3,3.1-6,4.9c-1.8,1.8-0.4,2.8,2.7,3.8c3,1,6.9-1,7-0.9c0.6,0.3-1.3,3-3.9,4c-2.6,1-5.9,0.4-8.5-0.7
				c-1.8-0.7-2.1,0-2.6,0.6c-2.9,3-3.6,5.8-4.1,9.2c-1.5-0.4-2.5-1.9-2.7-3.1c-0.1-0.6-0.3-1.8-1.3-0.9c-1,0.9-1.8,6-1.8,8.3
				s0.7,5.4,0.7,5.4l-0.7-0.1c-0.4-0.1-1.3-0.6-2.4-1.2c-1.1-0.6-1.2,0.1-1.2,1.3c0,1.3-0.4,3.7-2.1,8c-1.7,4.3-4.1,5.7-4.1,5.7
				s-0.5-0.8-1-2.5c-0.5-1.7-0.8-5-0.8-7.9c0-2.9,0.8-9.1,0.8-9.1s-3.5,4.3-7.2,5.4c-3.7,1.1-7.3,0.4-8.8-1.3
				C402.5,350,403.9,349.3,404.7,349.1L404.7,349.1z"/>
			<path class="st3" d="M428.7,360.2c0,0,1.1,2.5,1.7,3.3c0.6,0.9,0.9,1,0.9,1s-1.1,0.9-2.7,1.4c-1.6,0.5-3.1,0.8-3.1,0.8
				s1.8-2.5,2.5-4.2C428.6,360.8,428.7,360.2,428.7,360.2L428.7,360.2z"/>
			<path class="st3" d="M406.8,358.7c0.5-1.4,0.9-2.2,0.9-2.2c2.2,0.4,6.5-0.6,8.3-1.7c0,0-1.7,3.4-3.4,4.6
				c-1.7,1.2-1.9,1.2-1.9,1.2s1.7,0.3,3.9-1.9c2.3-2.2,3.3-4.8,3.3-4.8s-0.5,5.9,0.4,9.5c0.9,3.6,1.1,4.1,1.1,4.1s-4.8,0.8-10.1-0.6
				c-5.3-1.5-5.7-2-5.7-2s-0.6-0.2,0.2-1.3C404.7,362.7,406.3,360.1,406.8,358.7L406.8,358.7z"/>
			<path class="st2" d="M416.4,345.7c1.6-1.9,1.8-2.3,1.8-2.3s0.6,0.6,0.1,1.4c-0.5,0.8-2.8,2.9-4.4,3.8c-1.6,0.9-3.2,1.2-3.2,1.2
				l0.1-0.3C410.8,349.4,414.8,347.6,416.4,345.7z"/>
			<path class="st2" d="M422.9,358.1c0,0,0.4-7.4,0.4-8.5c0-1.1,0.7-0.8,0.7-0.8l0.8,0.4c0,0-1.4,9.5-1.6,10.9c-0.2,1.2-0.7,1.1-1,1
				C422.8,360.7,422.9,358.4,422.9,358.1L422.9,358.1z"/>
			<path class="st2" d="M433,325.9c0.6-0.6,2-1.1,0.7,0.4c-1.3,1.5-3,3.3-3.5,4.8c-0.5,1.5-0.8,3.4,0,3c0.9-0.4,1.5-0.4,2.4-1.2
				c0.9-0.8,2.6-2,3.3-2.2c0.7-0.2,2,0,1,1.1c-1,1.1-2.1,2.2-4,3.6c-1.9,1.4-3,2-4,2.7c-1,0.7-2,1.3-2,1.3s0.9-6.1,2.6-8.7
				C430.9,328,432.3,326.5,433,325.9z"/>
			<path class="st2" d="M465.7,427.5c1.2,0.9,2.8,1.3,2.8,1.3s0.8,0,0.8,0.3c0,0.3-0.9,0-1.8-0.2c-0.9-0.2-2.2-1.1-2.7-1.4
				c-0.5-0.3-1.1-0.8-0.9-1.4C464.1,425.5,464.5,426.5,465.7,427.5L465.7,427.5z"/>
			<path class="st2" d="M455.1,433.1c0.3,0.3,2.3,1.8,2.3,1.8s0.6,0.4,1.3,0.7c0.7,0.3,0.8,0.6,0.8,0.6s-0.1,0.2-0.8,0
				c-0.7-0.2-2.8-1.7-3.5-2.3c-0.7-0.6-1-0.8-0.7-1C454.8,432.7,454.9,432.8,455.1,433.1L455.1,433.1z"/>
			<path class="st2" d="M498,356.9c-0.4,0.5-0.8,1.1-1.1,0.9c-0.2-0.2,0-0.4,0.5-1c0.5-0.6,0.8-0.9,0.8-0.9s0.7-1.1,1.1-1.6
				c0.4-0.4,1.1-0.6,0.3,0.3C498.9,355.7,498.4,356.5,498,356.9z"/>
			<path class="st2" d="M501.3,364.1c-0.5,0.4-0.9,0.8-1.4,1.4c-0.5,0.5-0.9,1.1-1.2,0.8c-0.3-0.3,0.8-0.9,1.2-1.5
				c0.5-0.6,0.8-1,1.4-1.4c0.6-0.5,1.3-0.8,1.3-0.8S501.7,363.6,501.3,364.1L501.3,364.1z"/>
			<path class="st2" d="M500.1,375.6c-0.8,0.8-2,1.1-2.2,0.8c-0.2-0.3,0.1-0.6,0.8-1c0.7-0.3,1.8-1.1,2.3-1.4
				c0.5-0.4,1.1-0.8,1.5-1.2c0.4-0.4,0.8-0.7,1-0.6c0.1,0.1-1.1,1.5-1.5,1.7C501.6,374.1,500.9,374.8,500.1,375.6L500.1,375.6z"/>
			<path class="st2" d="M497.7,384.8c0-0.3-0.1-0.5,0.6-0.6c0.7,0,1.6-0.2,1.6-0.2s1.3-0.5,1.4-0.3c0.1,0.3-1.1,0.8-1.6,0.9
				c-0.5,0.1-1.1,0.3-1.4,0.4C498,385.3,497.7,385.2,497.7,384.8L497.7,384.8z"/>
			<path class="st2" d="M496.7,394.9c1.4,0,2.7-0.3,2.8-0.1c0.1,0.2-0.7,0.6-1.4,0.8c-0.7,0.3-2.1,0.3-3,0.4s-1.1-0.2-1.1-0.6
				C494,394.8,495.3,394.9,496.7,394.9z"/>
			<path class="st2" d="M485.4,405.8c0.2-0.2,0.7,0,1.5,0.1c0.8,0.2,2.1,0.4,2.9,0.4c0.8,0,2.4-0.1,2.4-0.1l0.9,0.2
				c0,0.2-1.2,0.2-3,0.4c-1.8,0.2-3-0.2-3.8-0.3C485.5,406.4,485.2,406.1,485.4,405.8L485.4,405.8z"/>
			<path class="st2" d="M480.8,413.7c0.9,0.3,1.5,0.4,2.2,0.4c0.7,0,2.3,0.3,2.3,0.3s0.8,0.1,0.6,0.4c-0.1,0.3-0.4,0-1.1-0.1
				c-0.7-0.1-1.2,0-2.4,0c-1.2,0-1.9-0.3-2.6-0.5c-0.7-0.1-1.5-0.5-1.1-1C479.1,412.7,479.9,413.3,480.8,413.7L480.8,413.7z"/>
			<path class="st2" d="M471.7,419.6c0.5,0.5,2.5,1.8,2.5,1.8s0.4,0.3,1.1,0.7c0.8,0.4,0.7,0.6,0.6,0.8c-0.1,0.2-0.6-0.3-1-0.5
				c-0.4-0.2-1.8-1.1-2.5-1.7c-0.7-0.6-1.7-1.1-1.5-1.5C471,418.8,471.2,419.1,471.7,419.6L471.7,419.6z"/>
			<path class="st2" d="M486.8,343c0,0-0.2,0.4-1.7,2.4c-1.6,2-0.7,0.1-0.3-0.4c0.4-0.5,2.7-3.8,3.5-4.7c0.8-0.9,0.9-0.4,0.5,0.1
				C488.3,341,486.8,343,486.8,343z"/>
			<path class="st2" d="M490.1,353.1c-0.2-0.2,0.3-0.4,1.2-1.6c0.9-1.1,2.7-3.4,2.7-3.4s0.5-1.1,0.7-1c0.2,0.1-0.6,1.8-1.3,2.5
				c-0.7,0.7-1.7,2.1-2.2,2.7S490.3,353.3,490.1,353.1L490.1,353.1z"/>
			<path class="st2" d="M485.7,372c0-0.5,1.8-0.5,2.6-0.6c0.8-0.2,2.2-0.5,2.2-0.5s1.7-0.3,1.7-0.1c0,0.2-0.3,0.4-1.3,0.6
				c-0.9,0.2-2.3,0.6-3.4,0.8C486.6,372.3,485.7,372.5,485.7,372L485.7,372z"/>
			<path class="st2" d="M490.1,361.8c-1.2,1-2,1.4-2.6,1.7c-0.6,0.3-1.1,0.8-1.5,0.4c-0.3-0.4,0.3-0.7,1.3-1.1
				c1-0.4,1.5-0.8,1.5-0.8s0.6-0.3,1.1-0.6C490.4,361.2,491.3,360.8,490.1,361.8L490.1,361.8z"/>
			<path class="st2" d="M480,355.1c0.7-0.6,1.3-1,1.3-1s0.9-0.8,1.1-0.6c0.2,0.3-1,1.1-1.6,1.6c-0.6,0.5-1.6,2-2.1,1.7
				C478.2,356.6,479.2,355.7,480,355.1z"/>
			<path class="st2" d="M486.6,381.4c0,0,1,0.3,1.6,0.4c0.6,0.2,0.7,0.5-0.5,0.5c-1.1,0-1.6-0.3-2.8-0.5c-1.1-0.2-1.5-0.3-1.4-0.7
				c0.2-0.4,0.8-0.3,1.2-0.1C485.3,381,486.6,381.4,486.6,381.4z"/>
			<path class="st2" d="M484.8,390.9c0.1,0.2-0.8,0-1.4-0.2c-0.6-0.2-1.8-0.8-2.5-1.1c-0.7-0.2-0.7-0.3-0.7-0.8
				c0-0.4,0.8-0.1,1.7,0.2c0.9,0.3,2.1,1.2,2.1,1.2S484.7,390.7,484.8,390.9L484.8,390.9z"/>
			<path class="st2" d="M472.5,396.7c-0.9-0.5-1-0.9-0.7-1.2c0.3-0.3,0.6-0.2,1.2,0.3c0.7,0.6,2,1.5,2,1.5s0.7,0.3,1.2,0.5
				s1.1,0.7,1,0.9c-0.2,0.3-1.2,0-1.8-0.5C474.9,397.9,473.4,397.2,472.5,396.7L472.5,396.7z"/>
			<path class="st2" d="M466.7,404.3c-0.3-0.3-1.4-0.6-1.8-1c-0.5-0.3-0.8-1.4-0.4-1.5c0.4-0.1,0.6,0.4,1.4,1
				c0.8,0.6,3.6,2.4,3.6,2.4l0.7,0.3c0.8,0.3,0.4,0.5-0.2,0.4c-0.6-0.1-1.1-0.1-1.8-0.7C467.4,404.8,467.1,404.6,466.7,404.3z"/>
			<path class="st2" d="M458.2,411.6c-0.7-0.3-1.8-1.2-2.3-1.7c-0.5-0.5-1.1-1.1-0.8-1.4c0.4-0.3,0.8,0.1,1.4,0.6
				c0.6,0.6,2.2,2.2,2.2,2.2s0.2,0,1.1,0.7c0.8,0.7,0,0.6-0.3,0.3C459.1,412.1,458.9,411.9,458.2,411.6L458.2,411.6z"/>
			<polygon class="st3" points="423.2,302.7 419.8,300.2 423.8,299.2 426.5,301.2 			"/>
			<ellipse class="st2" cx="412.2" cy="299.8" rx="3.3" ry="3.2"/>
			<ellipse class="st3" cx="412.2" cy="299.1" rx="2" ry="1.9"/>
			<path class="st3" d="M419.1,288.9c-0.8,0.3-2,0.2-2,0.2s-0.3-1.5,0.5-2.2c0.8-0.7,1.5-1.2,2-1.7c0.5-0.5,0.6-0.6,0.6-0.6
				s0,1.3,0.1,2.1C420.3,287.4,419.9,288.6,419.1,288.9L419.1,288.9z"/>
			<ellipse class="st3" cx="417.3" cy="290.5" rx="0.6" ry="0.6"/>
			<path class="st3" d="M421.8,289.9c0.3,0.4,0.8,0.9,0.8,0.9s-0.7,0-1.2,0.4c-0.6,0.4-1.3,0.7-1.9,0.7c-0.6-0.1-0.9-0.7-0.8-1.1
				c0.1-0.4,0.5-0.9,1.5-1.3C421.3,289,421.5,289.5,421.8,289.9z"/>
			<path class="st3" d="M419.5,293.7c2.1,0.2,4.8-2.1,4.8-2.1c0.3,1.8,1.4,2.8,3.1,3.1l-0.2,0.1c0,0-1.6,0.8-3.5,1.1
				c-0.9,0.1-1.6,0-2.6-0.2c-1.1-0.2-2.4-0.5-3.1-1c-1.2-0.8-0.9-2.8-0.9-2.8S417.4,293.5,419.5,293.7L419.5,293.7z"/>
			<path class="st3" d="M427.6,291.6c0.8-0.3,2.1-0.9,2.7-1c0.5,0,1.3-0.2,1.2,0.8c-0.1,1-1.1,1.5-2.1,1.5c-1,0-1.5-0.3-2.1-0.6
				C426.6,292.1,426.7,291.9,427.6,291.6z"/>
			<path class="st3" d="M434,288.1c0.9-0.7,1.8-0.9,1.8-0.9s0.6,1.6,0.3,2.6c-0.3,1-1.1,1.2-1.9,1.2c-0.9,0-2.2-0.5-1.8-1.1
				C432.7,289.3,433.1,288.8,434,288.1z"/>
			<ellipse class="st3" cx="433.2" cy="292.6" rx="0.7" ry="0.5"/>
			<path class="st3" d="M431.2,284.7c0.6-2.7,0.5-5.7-2.1-9.5c-2.6-3.8-7.1-5.3-7.1-5.3s-0.1-0.3-1.6-1.8c-1.4-1.5-4.4-3.4-4.4-3.4
				s3.4,0.8,5.3,1.5c0,0,0,0.1,0,0.1c0,1.3,1,2.4,2.3,2.4c0.5,0,0.9-0.2,1.3-0.4c1,0.2,4.5,2.3,5.4,3c-0.2,0.4-0.4,0.8-0.4,1.2
				c0,1.3,1,2.4,2.3,2.4c0.4,0,0.7-0.1,1.1-0.3c0.1,0.2,0.2,0.3,0.3,0.5c0.7,1.3,1.3,2.6,1.7,3.8c-0.6,0.4-1,1.2-1,2.1
				c0,1.3,0.9,2.4,2,2.4c0.1,0.8,0.1,1.3,0,1.5c-0.1,0.8-0.4,1.2-1.7,1.6c-1.3,0.4-3.2,2.7-3.2,2.7
				C431.5,289.1,430.5,287.4,431.2,284.7L431.2,284.7z"/>
			<path class="st3" d="M423,267.2c-0.5-0.4-0.6-1-0.2-1.3c0.4-0.3,1.1-0.3,1.6,0.1c0.5,0.4,0.6,1,0.2,1.4
				C424.2,267.7,423.5,267.6,423,267.2z"/>
			<path class="st3" d="M431.6,273.1c-0.5-0.5-0.6-1.3-0.2-1.7c0.4-0.4,1.2-0.4,1.8,0.1c0.5,0.5,0.6,1.3,0.2,1.7
				C433,273.6,432.2,273.6,431.6,273.1z"/>
			<ellipse class="st3" cx="436.8" cy="280.4" rx="1.3" ry="1.3"/>
			<path class="st3" d="M407.9,261.9c0.7,0.2,2,0.6,3.9,1.6h0c-1.3,0-2.4,0.9-2.4,2c0,1.1,1.2,2.3,2.5,2.3c1.3,0,2.2-1.2,2.2-2.3
				c0-0.3-0.1-0.5-0.2-0.7c0.6,0.4,1.2,0.7,1.8,1.2c4.3,2.9,5.3,4.3,7.4,8.2c2.1,3.9,2.9,8.2,2,10.8c-0.9,2.5-4.3,3.1-4.3,3.1
				s0.4-0.4,0.4-0.9c0-0.5-0.1-0.7-0.2-1.7c-0.1-1,0-2.1,0-2.1s-0.8-0.1-1.2,0.4c-0.4,0.5-1.1,1.1-1.5,1.7c-0.4,0.5-1.6,1.5-1.6,1.5
				s-0.7-1-0.7-2.1c0-1.1,0.8-2.4,0.9-4.4c0.1-2-0.9-5.6-2.9-8.2c-2-2.6-5.6-5-6.7-5.5c-1.1-0.5-1.3-1.3-1.3-1.8
				c0-0.5-0.1-0.8-0.2-2C405.7,261.6,406.8,261.6,407.9,261.9L407.9,261.9z"/>
			<path class="st3" d="M412.2,266.4c-0.8,0-1.4-0.7-1.4-1.3c0-0.6,0.6-1.1,1.3-1.1c0.8,0,1.4,0.5,1.4,1.1
				C413.4,265.7,412.9,266.4,412.2,266.4z"/>
			<path class="st3" d="M405.8,291.4c-1,0.4-2.2,0.2-2.7-0.2c-0.5-0.4-0.7-1.3-0.1-1.8c0.6-0.5,1.6-0.5,2.2-0.2
				c0.6,0.3,1.9,1.3,1.9,1.3S406.9,291,405.8,291.4z"/>
			<path class="st3" d="M402.5,292.5c0.4,0.6,0.6,0.9,1.8,1c1.1,0,2.4,0,3.1-0.8c0.7-0.7,1.3-1.8,1.3-1.8l1.3,0c0,0,0.4,1.8,1,2.3
				c0.6,0.5,2.6,0.6,3.4-0.1c0.9-0.6,1.7-1.4,1.8-1.3c0.1,0.1,0,0.7-0.9,1.5c-0.9,0.8-1.5,1.2-2.9,1.2h-8.2c0,0-1.7,0.1-2.1-0.9
				c-0.5-1-0.5-1.6-0.3-1.9C402,291.5,402.2,292,402.5,292.5L402.5,292.5z"/>
			<path class="st3" d="M415,291.2c-1.2,0.7-1.9,0.3-2.3-0.3c-0.4-0.5-0.5-0.8-0.5-0.8s1.2-0.4,1.7-0.7c0.6-0.3,0.9-0.6,1.5-0.6
				c0.6,0.1,0.6,0.2,0.6,0.2S416.2,290.5,415,291.2L415,291.2z"/>
			<ellipse class="st2" cx="420.9" cy="279.1" rx="2.7" ry="2.7"/>
			<path class="st2" d="M416.2,269.7c1.1-0.7,2.7-0.4,3.6,0.7c0.9,1.1,0.7,2.6-0.4,3.3c-1.1,0.7-2.7,0.4-3.6-0.7
				C414.9,272,415.1,270.5,416.2,269.7z"/>
			<ellipse class="st3" cx="421" cy="278.7" rx="1.6" ry="1.5"/>
			<path class="st3" d="M417.3,270c0.7-0.2,1.6,0.2,1.9,0.8c0.4,0.6,0,1.3-1,1.5C416.5,272.6,415.7,270.5,417.3,270L417.3,270z"/>
		</g>
	</g>
</g>
</svg>
