<?xml version="1.0" encoding="utf-8"?>
<!-- Generator: Adobe Illustrator 19.1.0, SVG Export Plug-In . SVG Version: 6.00 Build 0)  -->
<!DOCTYPE svg PUBLIC "-//W3C//DTD SVG 1.1//EN" "http://www.w3.org/Graphics/SVG/1.1/DTD/svg11.dtd">
<svg version="1.1" id="Ebene_1" xmlns="http://www.w3.org/2000/svg" xmlns:xlink="http://www.w3.org/1999/xlink" x="0px" y="0px"
	 viewBox="0 161 800 480" style="enable-background:new 0 161 800 480;" xml:space="preserve">
<style type="text/css">
	.st0{fill:#FFFFFF;}
	.st1{fill:#CC0000;}
	.st2{fill:#EBEAE3;stroke:#000000;stroke-width:0.326;}
	.st3{fill:#FFFFFF;stroke:#161111;stroke-width:1.1578;}
	.st4{fill:#B02320;stroke:#000000;stroke-width:0.8149;}
	.st5{fill:none;stroke:#000000;stroke-width:0.7171;}
	.st6{fill:#FFCC00;fill-opacity:0.9412;stroke:#000000;stroke-width:0.7497;}
	.st7{fill:#121116;stroke:#121116;stroke-width:0.7312;stroke-linejoin:round;}
	.st8{fill:#F6CA1F;stroke:#000000;stroke-width:0.6193;}
	.st9{fill:#EEEEEE;stroke:#1E1E1E;stroke-width:2.243;stroke-linejoin:round;}
	.st10{fill:#A3AFB8;}
	.st11{fill:#EEEEEE;stroke:#1E1E1E;stroke-width:2.6822;stroke-linejoin:round;}
	.st12{fill:#EEEEEE;stroke:#1E1E1E;stroke-width:2.4802;stroke-linejoin:round;}
	.st13{fill:#EEEEEE;stroke:#1E1E1E;stroke-width:2.3883;stroke-linejoin:round;}
	.st14{fill:#EEEEEE;stroke:#1E1E1E;stroke-width:2.8322;stroke-linejoin:round;}
	.st15{fill:#B3A192;stroke:#000000;stroke-width:0.7312;}
	.st16{fill:#F0DDCB;stroke:#121116;stroke-width:0.3726;stroke-linejoin:round;}
	.st17{fill:#916C68;stroke:#4D3126;stroke-width:0.3726;stroke-linejoin:round;}
	.st18{fill:#EEEEEE;stroke:#1E1E1E;stroke-width:3.0307;stroke-linejoin:round;}
	.st19{fill:#FFCC00;stroke:#000000;stroke-width:0.326;}
	.st20{fill:#FFCC00;stroke:#000000;stroke-width:0.7312;}
	.st21{fill:#FFCC00;stroke:#121116;stroke-width:0.7312;}
	.st22{fill:#FFCC00;stroke:#000000;stroke-width:0.7497;}
	.st23{fill:#FFCC00;stroke:#121116;stroke-width:0.7312;stroke-linejoin:round;}
	.st24{fill:#FFCC00;stroke:#000000;stroke-width:0.6193;}
	.st25{fill:#F6CA1F;stroke:#000000;stroke-width:0.5867;}
	.st26{fill:#FFCC00;stroke:#000000;stroke-width:2.2;}
	.st27{fill:#FFCC00;stroke:#000000;stroke-width:2.2;stroke-linejoin:round;}
	.st28{fill:#CCA715;stroke:#000000;stroke-width:0.326;}
	.st29{fill:#0F6545;stroke:#000000;stroke-width:0.4353;stroke-linejoin:round;}
	.st30{fill:#CECFC1;}
	.st31{fill:#1F2D86;stroke:#000000;stroke-width:0.6193;stroke-linejoin:round;}
	.st32{fill:#707C8B;}
	.st33{fill:#9F1209;stroke:#000000;stroke-width:0.326;}
	.st34{fill:#8F322F;}
	.st35{fill:#E2A494;}
	.st36{fill:#AA675D;}
	.st37{fill:#F5D8BC;}
	.st38{fill:none;stroke:#000000;stroke-width:0.7497;}
	.st39{fill:none;stroke:#000000;stroke-width:0.6845;}
	.st40{fill:none;stroke:#000000;stroke-width:0.6519;}
	.st41{fill:#CC0000;stroke:#161111;stroke-width:1;}
	.st42{fill:#CC0000;stroke:#161111;}
	.st43{fill:none;stroke:#161111;}
</style>
<g>
	<rect y="448.9" class="st0" width="800" height="191.6"/>
	<rect y="161.5" class="st0" width="800" height="191.6"/>
	<rect y="353.1" class="st1" width="800" height="95.8"/>
</g>
<g id="use6771" transform="matrix(0,0.5,-1,0,450,-5e-6)">
	<polygon id="use3168_1_" class="st1" points="447.9,161.5 447.9,640.5 447.9,640.5 352.1,640.5 352.1,640.5 352.1,161.5 
		352.1,161.5 447.9,161.5 	"/>
</g>
<path id="path5103" sodipodi:nodetypes="ccsccssc" class="st2" d="M435.1,307.8c3.1-4.8,1.2-7.9-3.4-8.9c0,0-14.8,4.8-30.9,5.3
	c-16,0.5-35.1-4-35.1-4c-3.4,2.1-2.6,7.2-0.9,10.4c0,0,16.8,5.6,35.9,5c12.1-0.3,23.6-3.4,30.1-5.5
	C434.6,308.9,435.1,307.9,435.1,307.8z"/>
<path id="path3244" sodipodi:arg2="2.0943951" sodipodi:cy="-15.151515" sodipodi:sides="6" sodipodi:type="star" sodipodi:arg1="1.5707963" sodipodi:cx="-236.36365" sodipodi:r2="44.658947" sodipodi:r1="85.064659" inkscape:randomized="0" inkscape:rounded="0" inkscape:flatsided="false" class="st3" d="
	M400,518.3l-30.8-64l-70.8,5.3l40-58.7l-40-58.7l70.8,5.3l30.8-64l30.8,64l70.8-5.3l-40,58.7l40,58.7l-70.8-5.3L400,518.3z"/>
<path id="path34974" class="st4" d="M399.5,283.5c38.7,6.4,37.3,8.2,37.3,8.2l10.1-30.2c0,0,1.1-6-1.7-9.6
	c-2.8-3.6-10.5-1.6-10.5-1.6s-1.1-4.9-4.5-6.1c-3.4-1.2-16,4.6-20,5.8c-3.9,1.3-6,2.6-11.5,2.4c-5.5-0.1-15.4-5-17.2-6
	c-1.8-1-4.5-1.9-6.9-1.8c-2.4,0.1-5,0.7-6.3,2.4c-1.3,1.7-1.3,3.8-1.3,3.8s-2-1.3-5.2-1.3c-3.2,0-5,0.4-6.5,2.1
	c-1.5,1.7-3.4,6.5-3.4,6.5l3.6,8.2l0.2,11.3l7.5,11.9L399.5,283.5z"/>
<path id="path30012" class="st2" d="M435.6,300.5c0,0,1.9,2.3,1.9,3.1c-0.1,0.8-0.9,1.6-0.9,1.6s0.6,0.6,0.4,1.5
	c-0.1,0.9-1.3,1-1.3,1s0.2,0.8-0.5,1.2c-0.7,0.4-3.8,1-3.8,1s-15-4.3-31-4.3s-34.9,5.2-34.9,5.2s-1.9-0.7-2-1.9
	c-0.1-1.3,0.2-2.2,0.2-2.2s-1.1,0.1-1.3-0.8c-0.4-1.3,0.1-2.3,0.1-2.3s-0.7,0.2,0.1-1.5c0.6-1.3,1.5-1.7,1.5-1.7s16.8-6,35.9-6.1
	C419,294.2,435.6,300.4,435.6,300.5z"/>
<path id="path41763" class="st5" d="M372.6,314.4c0,0-0.4-1.4,0.5-2.6c0.9-1.2,2.5-1.1,3-0.9c0.5,0.2,0.4,0.8,1,1
	c0.6,0.2,1.1-0.3,1.1-0.3"/>
<path id="path17396" class="st6" d="M431.1,317.6l-3.6,7.5l-1.4,0.3c0,0-0.9-0.5-3.4-0.4c-1.8,0.1-2.3,0.6-2.3,0.6l3.2-7.5
	c0,0,0.3,1.6,0.6,2.6c0.5,1.2,2.3,2.3,2.3,2.3s0.3-1.4-0.2-3.2c-0.5-1.9-1.8-4.5-1.8-4.5L431.1,317.6z"/>
<rect id="rect5511" x="397.8" y="294.2" class="st7" width="4.1" height="17.3"/>
<path id="path24185" class="st8" d="M372.8,326.1l2.6,5.6c0,0,11.1-4.3,24.3-4.3c19.7,0.1,25.3,4.1,25.3,4.1l2.9-6.9l-2.2,1.3
	l-2.3,1.4l-2.6,1l-3.1-0.2l-2.7-2l-1.4-2.9l-2.3,2.1l-4.1,0.9l-4-1l-3.5-4.4c0,0-2.6,4.9-6,5.2c-4.8,0.4-7.6-2.3-7.6-2.3
	s-1.8,4-4.7,4.7C376.8,329.5,372.9,326.1,372.8,326.1z"/>
<g id="g5431" transform="matrix(0.3259716,0,0,0.3259716,177.52929,-39.537736)">
	<g id="g3168" transform="translate(-0.375,-0.25)">
		<path id="path2193" class="st9" d="M737.4,1017.4c0,3.6-2.9,6.5-6.4,6.5c-3.6,0-6.5-2.9-6.5-6.5s2.9-6.5,6.4-6.6
			C734.5,1010.9,737.4,1013.8,737.4,1017.4"/>
		<path id="path2195" class="st10" d="M727.9,1020.8c0,0,5.2-0.1,5.7-2.2c0.5-2.1-0.4-4.9-0.4-4.9s2.5,2.7,1.8,4.9
			c-0.7,2.1-1.4,2.7-3.2,3.1C730.7,1021.9,728.9,1021.5,727.9,1020.8z"/>
	</g>
	<g id="g3172" transform="translate(-16.050688,7.0776797)">
		<path id="path3174" class="st9" d="M737.4,1017.4c0,3.6-2.9,6.5-6.4,6.5c-3.6,0-6.5-2.9-6.5-6.5s2.9-6.5,6.4-6.6
			C734.5,1010.9,737.4,1013.8,737.4,1017.4"/>
		<path id="path3176" class="st10" d="M727.9,1020.8c0,0,5.2-0.1,5.7-2.2c0.5-2.1-0.4-4.9-0.4-4.9s2.5,2.7,1.8,4.9
			c-0.7,2.1-1.4,2.7-3.2,3.1C730.7,1021.9,728.9,1021.5,727.9,1020.8z"/>
	</g>
	<g id="g3178" transform="translate(17.824312,-4.5473203)">
		<path id="path3180" class="st9" d="M737.4,1017.4c0,3.6-2.9,6.5-6.4,6.5c-3.6,0-6.5-2.9-6.5-6.5s2.9-6.5,6.4-6.6
			C734.5,1010.9,737.4,1013.8,737.4,1017.4"/>
		<path id="path3182" class="st10" d="M727.9,1020.8c0,0,5.2-0.1,5.7-2.2c0.5-2.1-0.4-4.9-0.4-4.9s2.5,2.7,1.8,4.9
			c-0.7,2.1-1.4,2.7-3.2,3.1C730.7,1021.9,728.9,1021.5,727.9,1020.8z"/>
	</g>
	<g id="g3184" transform="translate(38.324312,-0.4223203)">
		<path id="path3186" class="st9" d="M737.4,1017.4c0,3.6-2.9,6.5-6.4,6.5c-3.6,0-6.5-2.9-6.5-6.5s2.9-6.5,6.4-6.6
			C734.5,1010.9,737.4,1013.8,737.4,1017.4"/>
		<path id="path3188" class="st10" d="M727.9,1020.8c0,0,5.2-0.1,5.7-2.2c0.5-2.1-0.4-4.9-0.4-4.9s2.5,2.7,1.8,4.9
			c-0.7,2.1-1.4,2.7-3.2,3.1C730.7,1021.9,728.9,1021.5,727.9,1020.8z"/>
	</g>
	<g id="g3190" transform="translate(53.949312,12.45268)">
		<path id="path3192" class="st9" d="M737.4,1017.4c0,3.6-2.9,6.5-6.4,6.5c-3.6,0-6.5-2.9-6.5-6.5s2.9-6.5,6.4-6.6
			C734.5,1010.9,737.4,1013.8,737.4,1017.4"/>
		<path id="path3194" class="st10" d="M727.9,1020.8c0,0,5.2-0.1,5.7-2.2c0.5-2.1-0.4-4.9-0.4-4.9s2.5,2.7,1.8,4.9
			c-0.7,2.1-1.4,2.7-3.2,3.1C730.7,1021.9,728.9,1021.5,727.9,1020.8z"/>
	</g>
	<g id="g3196" transform="translate(60.699312,33.57768)">
		<path id="path3199" class="st9" d="M737.4,1017.4c0,3.6-2.9,6.5-6.4,6.5c-3.6,0-6.5-2.9-6.5-6.5c0-3.6,2.9-6.5,6.4-6.6
			S737.4,1013.8,737.4,1017.4"/>
		<path id="path3201" class="st10" d="M727.9,1020.8c0,0,5.2-0.1,5.7-2.2c0.5-2.1-0.4-4.9-0.4-4.9s2.5,2.7,1.8,4.9
			c-0.7,2.1-1.4,2.7-3.2,3.1C730.7,1021.9,728.9,1021.5,727.9,1020.8z"/>
	</g>
	<g id="g3203" transform="translate(58.199312,54.95268)">
		<path id="path3205" class="st9" d="M737.4,1017.4c0,3.6-2.9,6.5-6.4,6.5c-3.6,0-6.5-2.9-6.5-6.5s2.9-6.5,6.4-6.6
			C734.5,1010.9,737.4,1013.8,737.4,1017.4"/>
		<path id="path3207" class="st10" d="M727.9,1020.8c0,0,5.2-0.1,5.7-2.2c0.5-2.1-0.4-4.9-0.4-4.9s2.5,2.7,1.8,4.9
			c-0.7,2.1-1.4,2.7-3.2,3.1C730.7,1021.9,728.9,1021.5,727.9,1020.8z"/>
	</g>
	<g id="g3209" transform="translate(48.699312,73.70268)">
		<path id="path3211" class="st9" d="M737.4,1017.4c0,3.6-2.9,6.5-6.4,6.5c-3.6,0-6.5-2.9-6.5-6.5s2.9-6.5,6.4-6.6
			C734.5,1010.9,737.4,1013.8,737.4,1017.4"/>
		<path id="path3213" class="st10" d="M727.9,1020.8c0,0,5.2-0.1,5.7-2.2c0.5-2.1-0.4-4.9-0.4-4.9s2.5,2.7,1.8,4.9
			c-0.7,2.1-1.4,2.7-3.2,3.1C730.7,1021.9,728.9,1021.5,727.9,1020.8z"/>
	</g>
	<g id="g3215" transform="translate(-31.300688,12.70268)">
		<path id="path3217" class="st9" d="M737.4,1017.4c0,3.6-2.9,6.5-6.4,6.5s-6.5-2.9-6.5-6.5s2.9-6.5,6.4-6.6
			C734.5,1010.9,737.4,1013.8,737.4,1017.4"/>
		<path id="path3219" class="st10" d="M727.9,1020.8c0,0,5.2-0.1,5.7-2.2c0.5-2.1-0.4-4.9-0.4-4.9s2.5,2.7,1.8,4.9
			c-0.7,2.1-1.4,2.7-3.2,3.1C730.7,1021.9,728.9,1021.5,727.9,1020.8z"/>
	</g>
	<g id="g3221" transform="matrix(0.83626,0,0,0.83626,19.71636,51.540496)">
		<path id="path3223" class="st11" d="M797.5,1168.2c0,3.6-2.9,6.5-6.4,6.5c-3.6,0-6.5-2.9-6.5-6.5c0-3.6,2.9-6.5,6.4-6.6
			C794.5,1161.6,797.4,1164.5,797.5,1168.2"/>
		<path id="path3225" class="st10" d="M788,1171.5c0,0,5.2-0.1,5.7-2.2c0.5-2.1-0.4-4.9-0.4-4.9s2.5,2.7,1.8,4.9s-1.4,2.7-3.2,3.1
			C790.8,1172.7,789,1172.2,788,1171.5z"/>
	</g>
	<g id="g3227" transform="matrix(0.83626,0,0,0.83626,19.778839,58.338511)">
		<path id="path3229" class="st11" d="M797.5,1168.2c0,3.6-2.9,6.5-6.4,6.5c-3.6,0-6.5-2.9-6.5-6.5c0-3.6,2.9-6.5,6.4-6.6
			S797.4,1164.5,797.5,1168.2"/>
		<path id="path3231" class="st10" d="M788,1171.5c0,0,5.2-0.1,5.7-2.2c0.5-2.1-0.4-4.9-0.4-4.9s2.5,2.7,1.8,4.9s-1.4,2.7-3.2,3.1
			C790.8,1172.7,789,1172.2,788,1171.5z"/>
	</g>
	<g id="g3233" transform="matrix(0.83626,0,0,0.83626,20.153839,68.338511)">
		<path id="path3235" class="st11" d="M797.5,1168.2c0,3.6-2.9,6.5-6.4,6.5c-3.6,0-6.5-2.9-6.5-6.5s2.9-6.5,6.4-6.6
			S797.4,1164.5,797.5,1168.2"/>
		<path id="path3237" class="st10" d="M788,1171.5c0,0,5.2-0.1,5.7-2.2c0.5-2.1-0.4-4.9-0.4-4.9s2.5,2.7,1.8,4.9
			c-0.7,2.1-1.4,2.7-3.2,3.1C790.8,1172.7,789,1172.2,788,1171.5z"/>
	</g>
	<g id="g3239" transform="matrix(0.904373,0,0,0.904373,-8.6190797,62.111696)">
		<path id="path3241" class="st12" d="M769.8,1098.8c0,3.6-2.9,6.5-6.4,6.5c-3.6,0-6.5-2.9-6.5-6.5s2.9-6.5,6.4-6.6
			C766.9,1092.3,769.8,1095.2,769.8,1098.8"/>
		<path id="path3243" class="st10" d="M760.4,1102.2c0,0,5.2-0.1,5.7-2.2s-0.4-4.9-0.4-4.9s2.5,2.7,1.8,4.9
			c-0.7,2.1-1.4,2.7-3.2,3.1C763.2,1103.4,761.4,1102.9,760.4,1102.2z"/>
	</g>
	<g id="g3245" transform="translate(-49.175688,52.70268)">
		<path id="path3247" class="st9" d="M737.4,1017.4c0,3.6-2.9,6.5-6.4,6.5c-3.6,0-6.5-2.9-6.5-6.5s2.9-6.5,6.4-6.6
			C734.5,1010.9,737.4,1013.8,737.4,1017.4"/>
		<path id="path3249" class="st10" d="M727.9,1020.8c0,0,5.2-0.1,5.7-2.2c0.5-2.1-0.4-4.9-0.4-4.9s2.5,2.7,1.8,4.9
			c-0.7,2.1-1.4,2.7-3.2,3.1C730.7,1021.9,728.9,1021.5,727.9,1020.8z"/>
	</g>
	<g id="g3251" transform="matrix(0.939156,0,0,0.939156,-23.620878,97.000746)">
		<path id="path3253" class="st13" d="M757.3,1067.3c0,3.6-2.9,6.5-6.4,6.5c-3.6,0-6.5-2.9-6.5-6.5s2.9-6.5,6.4-6.6
			C754.3,1060.7,757.2,1063.6,757.3,1067.3"/>
		<path id="path3255" class="st10" d="M747.8,1070.7c0,0,5.2-0.1,5.7-2.2c0.5-2.1-0.4-4.9-0.4-4.9s2.5,2.7,1.8,4.9
			c-0.7,2.1-1.4,2.7-3.2,3.1C750.6,1071.8,748.8,1071.4,747.8,1070.7z"/>
	</g>
	<g id="g3257" transform="translate(-67.280909,12.529107)">
		<path id="path3259" class="st9" d="M737.4,1017.4c0,3.6-2.9,6.5-6.4,6.5c-3.6,0-6.5-2.9-6.5-6.5s2.9-6.5,6.4-6.6
			C734.5,1010.9,737.4,1013.8,737.4,1017.4"/>
		<path id="path3261" class="st10" d="M727.9,1020.8c0,0,5.2-0.1,5.7-2.2c0.5-2.1-0.4-4.9-0.4-4.9s2.5,2.7,1.8,4.9
			c-0.7,2.1-1.4,2.7-3.2,3.1C730.7,1021.9,728.9,1021.5,727.9,1020.8z"/>
	</g>
	<g id="g3263" transform="translate(-83.278087,6.220361)">
		<path id="path3265" class="st9" d="M737.4,1017.4c0,3.6-2.9,6.5-6.4,6.5s-6.5-2.9-6.5-6.5s2.9-6.5,6.4-6.6
			C734.5,1010.9,737.4,1013.8,737.4,1017.4"/>
		<path id="path3267" class="st10" d="M727.9,1020.8c0,0,5.2-0.1,5.7-2.2c0.5-2.1-0.4-4.9-0.4-4.9s2.5,2.7,1.8,4.9
			c-0.7,2.1-1.4,2.7-3.2,3.1C730.7,1021.9,728.9,1021.5,727.9,1020.8z"/>
	</g>
	<g id="g3269" transform="translate(-98.599328,-0.9896346)">
		<path id="path3271" class="st9" d="M737.4,1017.4c0,3.6-2.9,6.5-6.4,6.5c-3.6,0-6.5-2.9-6.5-6.5s2.9-6.5,6.4-6.6
			C734.5,1010.9,737.4,1013.8,737.4,1017.4"/>
		<path id="path3273" class="st10" d="M727.9,1020.8c0,0,5.2-0.1,5.7-2.2c0.5-2.1-0.4-4.9-0.4-4.9s2.5,2.7,1.8,4.9
			c-0.7,2.1-1.4,2.7-3.2,3.1C730.7,1021.9,728.9,1021.5,727.9,1020.8z"/>
	</g>
	<g id="g3275" transform="translate(-116.17369,-4.8199447)">
		<path id="path3277" class="st9" d="M737.4,1017.4c0,3.6-2.9,6.5-6.4,6.5c-3.6,0-6.5-2.9-6.5-6.5c0-3.6,2.9-6.5,6.4-6.6
			C734.5,1010.9,737.4,1013.8,737.4,1017.4"/>
		<path id="path3279" class="st10" d="M727.9,1020.8c0,0,5.2-0.1,5.7-2.2c0.5-2.1-0.4-4.9-0.4-4.9s2.5,2.7,1.8,4.9s-1.4,2.7-3.2,3.1
			C730.7,1021.9,728.9,1021.5,727.9,1020.8z"/>
	</g>
	<g id="g3281" transform="translate(-136.90243,0.1369272)">
		<path id="path3283" class="st9" d="M737.4,1017.4c0,3.6-2.9,6.5-6.4,6.5c-3.6,0-6.5-2.9-6.5-6.5s2.9-6.5,6.4-6.6
			C734.5,1010.9,737.4,1013.8,737.4,1017.4"/>
		<path id="path3285" class="st10" d="M727.9,1020.8c0,0,5.2-0.1,5.7-2.2c0.5-2.1-0.4-4.9-0.4-4.9s2.5,2.7,1.8,4.9
			c-0.7,2.1-1.4,2.7-3.2,3.1C730.7,1021.9,728.9,1021.5,727.9,1020.8z"/>
	</g>
	<g id="g3287" transform="translate(-151.54773,14.78223)">
		<path id="path3289" class="st9" d="M737.4,1017.4c0,3.6-2.9,6.5-6.4,6.5c-3.6,0-6.5-2.9-6.5-6.5s2.9-6.5,6.4-6.6
			C734.5,1010.9,737.4,1013.8,737.4,1017.4"/>
		<path id="path3291" class="st10" d="M727.9,1020.8c0,0,5.2-0.1,5.7-2.2c0.5-2.1-0.4-4.9-0.4-4.9s2.5,2.7,1.8,4.9
			c-0.7,2.1-1.4,2.7-3.2,3.1C730.7,1021.9,728.9,1021.5,727.9,1020.8z"/>
	</g>
	<g id="g3293" transform="translate(-157.63117,35.285656)">
		<path id="path3295" class="st9" d="M737.4,1017.4c0,3.6-2.9,6.5-6.4,6.5c-3.6,0-6.5-2.9-6.5-6.5c0-3.6,2.9-6.5,6.4-6.6
			S737.4,1013.8,737.4,1017.4"/>
		<path id="path3297" class="st10" d="M727.9,1020.8c0,0,5.2-0.1,5.7-2.2c0.5-2.1-0.4-4.9-0.4-4.9s2.5,2.7,1.8,4.9s-1.4,2.7-3.2,3.1
			C730.7,1021.9,728.9,1021.5,727.9,1020.8z"/>
	</g>
	<g id="g3299" transform="translate(-154.92742,56.69033)">
		<path id="path3301" class="st9" d="M737.4,1017.4c0,3.6-2.9,6.5-6.4,6.5c-3.6,0-6.5-2.9-6.5-6.5s2.9-6.5,6.4-6.6
			C734.5,1010.9,737.4,1013.8,737.4,1017.4"/>
		<path id="path3303" class="st10" d="M727.9,1020.8c0,0,5.2-0.1,5.7-2.2c0.5-2.1-0.4-4.9-0.4-4.9s2.5,2.7,1.8,4.9
			c-0.7,2.1-1.4,2.7-3.2,3.1C730.7,1021.9,728.9,1021.5,727.9,1020.8z"/>
	</g>
	<g id="g3305" transform="translate(-145.01367,76.067193)">
		<path id="path3307" class="st9" d="M737.4,1017.4c0,3.6-2.9,6.5-6.4,6.5c-3.6,0-6.5-2.9-6.5-6.5s2.9-6.5,6.4-6.6
			C734.5,1010.9,737.4,1013.8,737.4,1017.4"/>
		<path id="path3309" class="st10" d="M727.9,1020.8c0,0,5.2-0.1,5.7-2.2s-0.4-4.9-0.4-4.9s2.5,2.7,1.8,4.9
			c-0.7,2.1-1.4,2.7-3.2,3.1C730.7,1021.9,728.9,1021.5,727.9,1020.8z"/>
	</g>
	<g id="g3313" transform="matrix(0.605819,-0.1623287,0.2588191,0.9659259,-28.101915,178.81366)">
		<path id="path3315" class="st14" d="M585.3,1070.6c0,3.6-2.9,6.5-6.4,6.5c-3.6,0-6.5-2.9-6.5-6.5s2.9-6.5,6.4-6.6
			C582.4,1064,585.3,1066.9,585.3,1070.6"/>
		<path id="path3317" class="st10" d="M575.9,1073.9c0,0,5.2-0.1,5.7-2.2s-0.4-4.9-0.4-4.9s2.5,2.7,1.8,4.9s-1.4,2.7-3.2,3.1
			C578.6,1075.1,576.8,1074.6,575.9,1073.9z"/>
	</g>
	<g id="g3319" transform="matrix(0.6089124,0.1503097,-0.2396557,0.970858,260.54037,44.207964)">
		<path id="path3321" class="st14" d="M1199.7,921.5c0,3.6-2.9,6.5-6.4,6.5c-3.6,0-6.5-2.9-6.5-6.5c0-3.6,2.9-6.5,6.4-6.6
			C1196.8,914.9,1199.7,917.8,1199.7,921.5"/>
		<path id="path3323" class="st10" d="M1190.3,924.8c0,0,5.2-0.1,5.7-2.2c0.5-2.1-0.4-4.9-0.4-4.9s2.5,2.7,1.8,4.9
			c-0.7,2.1-1.4,2.7-3.2,3.1C1193,926,1191.2,925.5,1190.3,924.8z"/>
	</g>
</g>
<path id="path5515" class="st15" d="M398,284.6l0.2,3.6c0,0-4.2,0.4-4.4,0.8c-0.8,1.8,1,4.3,1,4.3s1.4-1.1,5-1.1
	c3.4,0,5.2,0.8,5.2,0.8s0.9-1.4,0.9-2.5c0-1.1-0.4-2.1-0.4-2.1s-1.7-0.2-2.3-0.2c-0.5,0-1.5,0-1.5,0l-0.2-3.6L398,284.6z"/>
<path id="path5517" class="st16" d="M404,290.2c0,0.4-0.3,0.7-0.8,0.7c-0.4,0-0.8-0.3-0.8-0.7c0-0.4,0.3-0.7,0.8-0.7
	C403.6,289.4,404,289.8,404,290.2"/>
<path id="path5519" class="st16" d="M405.7,290.5c0,0.4-0.4,0.8-0.8,0.8s-0.8-0.3-0.8-0.8c0-0.4,0.3-0.8,0.8-0.8
	S405.7,290.1,405.7,290.5"/>
<path id="path5521" class="st16" d="M402.2,290.1c0,0.4-0.3,0.7-0.8,0.7s-0.8-0.3-0.8-0.7c0-0.4,0.3-0.7,0.8-0.7
	C401.9,289.4,402.2,289.7,402.2,290.1"/>
<path id="path5523" class="st16" d="M398.7,290.2c0,0.4-0.4,0.8-0.8,0.8c-0.4,0-0.8-0.3-0.8-0.8c0-0.4,0.3-0.8,0.8-0.8
	C398.4,289.4,398.7,289.7,398.7,290.2"/>
<path id="path5525" class="st16" d="M396.8,290.3c0,0.4-0.4,0.8-0.8,0.8c-0.4,0-0.8-0.3-0.8-0.8c0-0.4,0.3-0.8,0.8-0.8
	C396.4,289.5,396.8,289.9,396.8,290.3"/>
<path id="path5527" class="st16" d="M400.4,288.1c0,0.4-0.3,0.6-0.7,0.6c-0.4,0-0.7-0.3-0.7-0.6c0-0.4,0.3-0.6,0.7-0.6
	C400.1,287.5,400.4,287.8,400.4,288.1"/>
<path id="path5529" class="st16" d="M400.4,285.2c0,0.4-0.3,0.6-0.7,0.6c-0.4,0-0.7-0.3-0.7-0.6c0-0.4,0.3-0.6,0.7-0.6
	S400.4,284.8,400.4,285.2"/>
<path id="path5531" class="st16" d="M400.4,286.8c0,0.4-0.3,0.6-0.7,0.6c-0.4,0-0.7-0.3-0.7-0.6c0-0.4,0.3-0.6,0.7-0.6
	S400.4,286.4,400.4,286.8"/>
<path id="path5533" class="st16" d="M394.8,290.8c0,0.4-0.3,0.7-0.8,0.7c-0.4,0-0.8-0.3-0.8-0.7c0-0.4,0.3-0.7,0.8-0.7
	S394.8,290.4,394.8,290.8"/>
<path id="path5535" class="st17" d="M400.5,290c0,0.4-0.4,0.8-0.8,0.8c-0.5,0-0.8-0.4-0.8-0.8c0-0.4,0.4-0.8,0.8-0.8
	C400.1,289.2,400.5,289.5,400.5,290"/>
<g id="g5545" transform="matrix(0.2884843,0,0,0.2884843,191.61641,-31.520442)">
	<path id="path5541" class="st18" d="M726.8,1077.8c0,3-2.4,5.5-5.4,5.5s-5.4-2.4-5.4-5.4c0-3,2.4-5.5,5.4-5.5
		C724.4,1072.3,726.8,1074.7,726.8,1077.8"/>
	<path id="path5543" class="st10" d="M718.9,1080.6c0,0,4.4-0.1,4.8-1.8c0.4-1.8-0.3-4.1-0.3-4.1s2.1,2.3,1.5,4.1
		c-0.6,1.8-1.2,2.2-2.7,2.6C721.2,1081.6,719.7,1081.2,718.9,1080.6z"/>
</g>
<path id="path34972" class="st19" d="M360.1,291.4c0,0,2.2,2.1,2.8,3.9s1.5,6.8,1.5,6.8s23.2-6.4,34.6-5.9
	c11.4,0.5,37.6,6.3,37.6,6.3s0.4-2.8,1-5.8c0.5-3,2.7-6.2,2.7-6.2s-25.1-7.8-40.9-7.1c-15.8,0.7-23.7,2.4-27.3,3.5
	C368.5,288,359.8,291.4,360.1,291.4z"/>
<path id="path5537" class="st20" d="M396.7,273.5h6.3c0,0-1.5,1.1-1.9,2.1c-0.3,0.9-0.2,2.3-0.2,2.3s1.7,0,2.5-0.6
	c0.8-0.6,2.3-1.8,2.3-1.8v8c0,0-1.5-1.5-2.5-2c-1.1-0.6-2.2-0.8-2.2-0.8s0,1.3,0.5,2c0.5,0.8,2.7,3.6,2.7,3.6l-8.9,0.3
	c0,0,2.1-2.2,3-3.9c0.6-1.1,0.3-2.2,0.3-2.2s-1.5,0-2.3,0.5c-0.8,0.5-2.1,2.1-2.1,2.1l0-7.7c0,0,0.6,1.5,1.8,2s2.4,0.3,2.4,0.3
	s0.2-1.5-0.3-2.5C397.7,274.6,396.5,273.5,396.7,273.5z"/>
<path id="path3325" class="st21" d="M396.2,298.8c0,0-4.4-0.1-8.3-2.3c-3.8-2.3-7.6-4.6-13.3-3.3c-1.2,0.3-5.4,2.1-7.3,8.2
	c-1.3,4.2,0.2,9.4,1.6,11.7s3.5,4.6,3.5,4.6l2.3-1.6c0,0-5.9-5-5.2-11.4c0.7-6.4,3.9-7.9,3.9-7.9s4-3.1,9.3-0.2
	c5.3,2.9,10.5,4.3,10.5,4.3s4.9,1.2,5.3,1.1S396.1,298.7,396.2,298.8z"/>
<path id="path16425" class="st22" d="M371.6,322.9l-2.4-4.6l7.1-2.8c0,0-1.7,2.3-2.1,3.9c-0.5,2-0.3,3.7-0.3,3.7s0.7-0.5,1.5-1.8
	c0.6-1,1.6-4.6,1.6-4.6l3.2,10.2c0,0-1.6-1.6-2.8-1.8c-1.3-0.2-2.9,0.2-2.9,0.2l-1.9,0.6L371.6,322.9z"/>
<path id="path4296" class="st21" d="M404.2,298.7c0,0,4.4-0.1,8.3-2.3c3.8-2.3,7.6-4.6,13.3-3.3c1.2,0.3,5.4,2.1,7.3,8.2
	c1.3,4.2-0.2,9.4-1.6,11.7c-1.3,2.3-2.3,3.7-2.3,3.7l-2.8-1c0,0,5.1-4.5,4.4-11c-0.7-6.4-3.9-7.9-3.9-7.9s-4-3.1-9.3-0.2
	c-5.3,2.9-10.5,4.3-10.5,4.3s-4.9,1.2-5.3,1.1S404.3,298.6,404.2,298.7z"/>
<rect id="rect5267" x="401.9" y="294.3" class="st23" width="1.9" height="17.3"/>
<rect id="rect5269" x="395.6" y="294.2" class="st23" width="2.2" height="17.3"/>
<path id="path5513" class="st23" d="M405.8,290.2c0,3.1-2.7,5.6-6.1,5.6c-3.3,0-6.1-2.5-6.1-5.5c0-3.1,2.7-5.6,6-5.6
	S405.7,287.1,405.8,290.2"/>
<path id="path19336" class="st24" d="M394.3,311.5l10.4-0.1c0,0-1.2,0.7-2.3,2.6c-1.1,1.9-0.9,3-0.9,3s1.6,0,2.7-0.8
	c1.1-0.8,2.4-2.3,2.4-2.3l0,9.6c0,0-0.8-1.2-2-2c-1.2-0.7-3-0.7-3-0.7H398c0,0-1.6,0.1-2.4,0.6c-1,0.7-2.3,2-2.3,2l-0.2-9.1
	c0,0,0.5,1.6,2.2,2.2c1.7,0.6,2.6,0.6,2.6,0.6s0-2-0.9-3.1C396.3,312.9,394.3,311.5,394.3,311.5z"/>
<path id="path21276" class="st25" d="M400.1,319c0,0,1.5,3.6,3.3,5.1c1,0.9,4.1,1.6,5.5,1.2c3.2-0.8,5.3-3.3,5.3-3.3
	s-0.1,2.8,1.9,4.3s3.6,1.9,5.2,1.5c1.6-0.5,6.3-3.9,6.3-3.9l1,0.8c0,0-2.7,2.6-5.4,3.9c-1.4,0.7-5.8,0.3-7.2-0.8s-2.2-3.9-2.2-3.9
	s-0.9,1.8-2.7,2.4c-1.9,0.6-4.4,0.6-6.8-0.1c-1.6-0.5-3.7-2.7-4.1-3.4c-0.4-0.7-0.3-1.1-0.3-1.1s-1.2,3.4-3.6,4.3
	c-2.3,0.9-4.9,0.9-7.2,0.2c-2.3-0.6-2.4-1.9-2.4-1.9s-0.2,3.6-5.1,4.6c-4.9,1-8.8-2.6-8.8-2.6l0.7-1c0,0,2.8,3.1,7,2.8
	c4.2-0.3,5.6-5.7,5.6-5.7s1.9,2.8,6.8,2.9c5,0.1,6.4-6.4,6.4-6.4L400.1,319z"/>
<g id="g13496" transform="matrix(0.3259716,0,0,0.3259716,177.52929,-39.537736)">
	<path id="path11548" class="st26" d="M645.3,1106.3c0,0,0.1-5.3,1.3-6.9c1.6-2.3,3.8-2.4,4.9-2c1.4,0.4,2.8,1.6,2.6,5.3
		c-0.2,3.7-1.3,5.5-0.2,6.9c1.1,1.4,1.3,2.3,3.4,2c2.1-0.3,3.1-1,2.6-3c-0.5-2-1.1,0.2-1.5-1.5s2-8.8,1.6-13.2
		c-0.4-4.3-2-7.8-5.3-8.6c-3.1-0.8-5.7-0.8-8.6,1.3c-2.8,2-6.3,8.7-6.3,8.7l-0.1,14.3l5.8-0.3L645.3,1106.3z"/>
	<path id="path12519" class="st26" d="M634.5,1110.1c0,0-2.2-4.8-3.9-5.8c-2.4-1.4-4.4-0.6-5.3,0.1c-1.1,0.9-1.9,2.6-0.2,5.9
		c1.7,3.3,3.3,4.5,2.9,6.3c-0.4,1.7-0.2,2.7-2.3,3.2c-2.1,0.6-3.2,0.3-3.6-1.7c-0.3-2,1.1-0.3,0.8-2c-0.3-1.7-5.4-7.2-6.8-11.4
		c-1.4-4.1-1.2-7.9,1.5-10c2.5-2,4.9-3,8.4-2.2c3.4,0.8,9.3,5.4,9.3,5.4l5.8,13l-5.4,2L634.5,1110.1z"/>
	<path id="path11546" class="st26" d="M633.4,1067.9c0,0-5.6,9.5-4.4,16.8c1.3,7.3,8.8,23,8.8,23l0.1,2.1l4.1-0.4l-0.9-2.1
		c0,0,2-18.8,0.8-24.7C640.9,1078.1,633.5,1068,633.4,1067.9z"/>
	<path id="path12521" class="st26" d="M642.4,1111.3c0,0,2.8,3.4,6.2,5c3.7,1.8,5.2,1.8,6.7,0.7c1.1-0.8,0.7-4.2-0.5-5.2
		c-1.3-0.9-2.7-0.5-2.9,0.5c-0.4,1.6-0.9,1.5-2,0.9c-1.7-0.9-5.6-3.3-5.6-3.3L642.4,1111.3z"/>
	<path id="path13492" class="st26" d="M638.1,1112.1c0,0-1.2,4.2-3.6,7.1c-2.6,3.1-4,3.8-5.8,3.4c-1.3-0.3-2.4-3.6-1.6-4.9
		c0.8-1.4,2.2-1.5,2.8-0.8c1,1.3,1.4,1,2.2,0c1.2-1.5,3.7-5.3,3.7-5.3L638.1,1112.1z"/>
	<path id="path13494" class="st27" d="M648.8,1108.7c0.2,1.2-3.5,2.9-8.3,3.7c-4.8,0.8-8.9,0.5-9.1-0.8c-0.2-1.2,3.5-2.9,8.3-3.7
		C644.5,1107.1,648.6,1107.4,648.8,1108.7"/>
</g>
<g id="g13504" transform="matrix(0.3052707,0.1143121,-0.1143121,0.3052707,251.10949,-70.586457)">
	<path id="path13506" class="st26" d="M895.9,949.8c0,0,0.1-5.3,1.3-6.9c1.6-2.3,3.8-2.4,4.9-2c1.4,0.4,2.8,1.6,2.6,5.3
		c-0.2,3.7-1.3,5.5-0.2,6.9c1.1,1.4,1.3,2.4,3.4,2c2.1-0.3,3.1-1,2.6-3c-0.5-2-1.1,0.2-1.5-1.5c-0.4-1.6,2-8.8,1.6-13.2
		c-0.4-4.3-2-7.8-5.3-8.6c-3.1-0.8-5.7-0.8-8.6,1.3c-2.8,2-6.3,8.7-6.3,8.7l-0.1,14.3l5.8-0.3L895.9,949.8z"/>
	<path id="path13508" class="st26" d="M885.1,953.7c0,0-2.2-4.8-3.9-5.8c-2.4-1.4-4.4-0.6-5.3,0.1c-1.1,0.9-1.9,2.6-0.2,5.9
		c1.7,3.3,3.3,4.5,2.9,6.3c-0.4,1.7-0.2,2.7-2.3,3.2c-2.1,0.6-3.2,0.3-3.6-1.7c-0.3-2,1.1-0.3,0.8-2s-5.4-7.2-6.8-11.4
		c-1.4-4.1-1.2-7.9,1.5-10c2.5-2,4.9-3,8.4-2.2c3.4,0.8,9.3,5.4,9.3,5.4l5.8,13l-5.4,2L885.1,953.7z"/>
	<path id="path13510" class="st26" d="M884,911.4c0,0-5.6,9.5-4.4,16.8c1.3,7.3,8.8,23,8.8,23l0.1,2.1l4.1-0.4l-0.9-2.1
		c0,0,2-18.8,0.8-24.7C891.4,921.6,884.1,911.5,884,911.4z"/>
	<path id="path13512" class="st26" d="M893,954.8c0,0,2.8,3.4,6.2,5c3.7,1.8,5.2,1.8,6.7,0.7c1.1-0.8,0.7-4.2-0.5-5.2
		c-1.3-0.9-2.7-0.5-2.9,0.5c-0.4,1.6-0.9,1.5-2,0.9c-1.7-0.9-5.6-3.3-5.6-3.3L893,954.8z"/>
	<path id="path13514" class="st26" d="M888.6,955.6c0,0-1.2,4.2-3.6,7.1c-2.6,3.1-4,3.8-5.8,3.4c-1.3-0.3-2.4-3.6-1.6-4.9
		c0.8-1.4,2.2-1.5,2.8-0.8c1,1.3,1.4,1,2.2,0c1.2-1.5,3.7-5.3,3.7-5.3L888.6,955.6z"/>
	<path id="path13516" class="st27" d="M899.4,952.2c0.2,1.2-3.5,2.9-8.3,3.7s-8.9,0.5-9.1-0.8s3.5-2.9,8.3-3.7
		S899.1,950.9,899.4,952.2"/>
</g>
<path id="path27095" class="st28" d="M359.2,291.1c0,0,0.5,2,1.7,1c1.2-1.1,17.2-7.4,39.8-7.4c22.6,0,37.5,6.2,38.4,6.6
	c0.9,0.4,1.3,0.9,2,0c0.8-0.9-0.8-2.2-0.8-2.2s-15.7-6.7-40.3-6.6c-24.6,0.1-40.5,7.1-40.5,7.1S358.4,290.3,359.2,291.1z"/>
<path id="path27097" d="M387.9,300.5c0,0,0.7-2,2-2.4c1-0.3,2.6,0.7,2.6,0.7s-1.9-0.2-2.5,0.2c-0.5,0.3-0.7,1.2-0.7,1.2
	s0.4-0.7,1.9-0.7c1.5,0.1,1.6,0.1,1.6,0.1s-2.5,0.2-3.1,0.9c-0.6,0.7,2.3,1,2.3,1s-4.5,0-5.1-0.2c-0.6-0.3-1-1.2-2-0.9
	c-1,0.3-2,1.2-2,1.2s1.1-1.9,1.9-1.9c0.7,0,1.1,0,1.8,0.2C387.3,300.2,387.9,300.5,387.9,300.5z"/>
<path id="path30014" d="M371.2,304.1c0,0,0.3-2.1,1.5-2.7c0.9-0.5,2.7,0.2,2.7,0.2s-1.9,0.2-2.4,0.6c-0.5,0.4-0.5,1.3-0.5,1.3
	s0.3-0.8,1.7-1c1.5-0.2,1.6-0.2,1.6-0.2s-2.4,0.6-2.8,1.5c-0.4,0.8,2.5,0.6,2.5,0.6s-4.4,0.8-5,0.7c-0.6-0.2-1.2-1-2.1-0.5
	c-0.9,0.5-1.8,1.5-1.8,1.5s0.8-2.1,1.5-2.2c0.7-0.1,1.1-0.3,1.8-0.1C370.5,303.9,371.2,304.1,371.2,304.1z"/>
<path id="path30016" d="M402,299.8c0,0,0.8-2,2.1-2.3c1-0.2,2.5,0.8,2.5,0.8s-1.9-0.3-2.5,0c-0.6,0.3-0.8,1.2-0.8,1.2
	s0.5-0.7,1.9-0.5c1.5,0.2,1.6,0.2,1.6,0.2s-2.5,0-3.1,0.7c-0.6,0.7,2.3,1.2,2.3,1.2s-4.5-0.2-5-0.5c-0.6-0.3-0.9-1.2-1.9-1
	c-1,0.2-2.1,1.1-2.1,1.1s1.2-1.8,2-1.8c0.7,0,1.1,0,1.8,0.3C401.4,299.4,402,299.8,402,299.8z"/>
<path id="path30018" d="M416.1,301.4c0,0,1.1-1.9,2.4-2c1-0.1,2.4,1.1,2.4,1.1s-1.9-0.5-2.5-0.3c-0.6,0.2-0.9,1.1-0.9,1.1
	s0.5-0.6,2-0.3c1.4,0.3,1.6,0.4,1.6,0.4s-2.5-0.2-3.2,0.4s2.1,1.4,2.1,1.4s-4.4-0.8-4.9-1.1c-0.5-0.4-0.7-1.3-1.8-1.2
	c-1,0.1-2.2,0.8-2.2,0.8s1.5-1.7,2.2-1.6c0.7,0.1,1.1,0.2,1.7,0.6C415.6,300.9,416.1,301.4,416.1,301.4z"/>
<path id="path30020" d="M430.1,303.9c0,0,1-1.4,2.1-1.4c0.8,0,1.9,1.1,1.9,1.1s-1.5-0.5-2-0.4c-0.5,0.1-0.8,0.8-0.8,0.8
	s0.5-0.5,1.6-0.1c1.1,0.4,1.3,0.4,1.3,0.4s-2-0.4-2.6,0.1c-0.6,0.4,1.6,1.3,1.6,1.3s-3.5-0.9-3.9-1.3s-0.5-1.1-1.3-1.1
	c-0.8,0-1.8,0.5-1.8,0.5s1.3-1.2,1.9-1.1s0.9,0.2,1.3,0.6C429.7,303.5,430.1,303.9,430.1,303.9z"/>
<path id="path30022" class="st29" d="M385.1,291c0.3,1.7-1.6,3.5-4.4,4c-2.8,0.6-5.3-0.4-5.6-2c-0.3-1.7,1.6-3.5,4.4-4
	C382.2,288.4,384.7,289.3,385.1,291z"/>
<path id="path30993" class="st30" d="M378.8,290.7c0.1,0.4-0.3,0.8-1,1c-0.6,0.1-1.2-0.1-1.2-0.5s0.3-0.8,1-1
	C378.2,290,378.7,290.3,378.8,290.7z"/>
<path id="path32945" class="st29" d="M424.1,293c-0.5,1.6-3.1,2.3-5.8,1.4c-2.7-0.8-4.5-2.8-3.9-4.5c0.5-1.6,3.1-2.3,5.8-1.4
	C422.8,289.3,424.6,291.3,424.1,293z"/>
<path id="path32947" class="st30" d="M411.7,331.3c-0.1,0.2-0.4,0.4-0.8,0.2c-0.4-0.1-0.6-0.4-0.5-0.7c0.1-0.2,0.4-0.4,0.8-0.2
	C411.6,330.8,411.8,331.1,411.7,331.3z"/>
<rect id="rect32949" x="394.6" y="287.2" class="st31" width="10.1" height="5.1"/>
<path id="path32951" class="st32" d="M399.3,330.4c0,0.1-0.3,0.3-0.6,0.3s-0.6-0.1-0.6-0.3s0.3-0.3,0.6-0.3S399.3,330.3,399.3,330.4
	z"/>
<path id="path33926" class="st33" d="M366,292.3l1.7,4.9l-3.1,1.7c0,0-1.4,1-2.8,0.3c-1.4-0.8-2.3-3-1.5-3.9
	C361.7,293.4,366,292.2,366,292.3z"/>
<path id="path34899" class="st34" d="M363.4,295.8c0,0.8-0.6,1.5-1.4,1.5s-1.4-0.7-1.4-1.5c0-0.8,0.6-1.5,1.4-1.5
	S363.4,295,363.4,295.8z"/>
<path id="path33928" class="st35" d="M362.1,295.2c0,0.3,0,0.5-0.2,0.7c-0.1,0.2-0.3,0.2-0.5,0.1c-0.2-0.1-0.3-0.3-0.4-0.6
	c0-0.3,0-0.5,0.2-0.7c0.1-0.2,0.3-0.2,0.5-0.1C361.9,294.7,362,294.9,362.1,295.2z"/>
<path id="path34906" class="st33" d="M433.8,292.9l-1.7,4.4l3.9,2.1c0,0,1.7,0.8,2.8-0.2c0.9-0.8,1.2-2.7,0.4-3.7
	C438.6,294.6,433.8,292.9,433.8,292.9z"/>
<path id="path34910" class="st36" d="M438.5,296.4c0,0.5-0.6,1-1.3,1c-0.7,0-1.3-0.4-1.3-1s0.6-1,1.3-1
	C438,295.5,438.5,295.9,438.5,296.4L438.5,296.4z"/>
<path id="path34908" class="st35" d="M437.3,296.3c0,0.3-0.1,0.5-0.3,0.6c-0.2,0.1-0.4,0.1-0.6,0c-0.2-0.1-0.3-0.4-0.3-0.6
	c0-0.3,0.1-0.5,0.3-0.6c0.2-0.1,0.4-0.1,0.6,0C437.2,295.8,437.3,296,437.3,296.3z"/>
<g id="g34927" transform="matrix(0.3259716,0,0,0.3259716,177.52929,-39.537736)">
	<path id="path34917" class="st37" d="M708.7,1003.6c0,1.2-1,2.1-2.2,2.1c-1.2,0-2.2-0.9-2.2-2.1c0-1.2,1-2.1,2.2-2.1
		C707.7,1001.5,708.7,1002.5,708.7,1003.6z"/>
	<path id="path34919" class="st37" d="M721.9,1004.4c0,1.2-1,2.1-2.2,2.1c-1.2,0-2.2-0.9-2.2-2.1c0-1.2,1-2.1,2.2-2.1
		C720.9,1002.3,721.9,1003.2,721.9,1004.4z"/>
	<path id="path34921" class="st37" d="M715.2,1009.5c0,1.4-1.2,2.6-2.7,2.6c-1.5,0-2.7-1.2-2.7-2.6c0-1.4,1.2-2.6,2.7-2.6
		C713.9,1006.9,715.2,1008.1,715.2,1009.5z"/>
	<path id="path34923" class="st37" d="M721.5,1018.1c0,1.2-1,2.1-2.2,2.1c-1.2,0-2.2-0.9-2.2-2.1c0-1.2,1-2.1,2.2-2.1
		C720.6,1016.1,721.5,1017,721.5,1018.1z"/>
	<path id="path34925" class="st37" d="M708.8,1016.5c0,1.2-1,2.1-2.2,2.1c-1.2,0-2.2-0.9-2.2-2.1c0-1.2,1-2.1,2.2-2.1
		C707.8,1014.4,708.8,1015.3,708.8,1016.5z"/>
</g>
<g id="g34936" transform="matrix(0.3175682,-7.3538389e-2,7.3538389e-2,0.3175682,141.0716,-7.1884386)">
	<path id="path34938" class="st37" d="M532.7,1054c0,1.2-1,2.1-2.2,2.1c-1.2,0-2.2-0.9-2.2-2.1c0-1.2,1-2.1,2.2-2.1
		C531.7,1051.9,532.7,1052.8,532.7,1054z"/>
	<path id="path34940" class="st37" d="M545.9,1054.8c0,1.2-1,2.1-2.2,2.1c-1.2,0-2.2-0.9-2.2-2.1c0-1.2,1-2.1,2.2-2.1
		C544.9,1052.7,545.9,1053.6,545.9,1054.8z"/>
	<path id="path34942" class="st37" d="M539.2,1059.9c0,1.4-1.2,2.6-2.7,2.6s-2.7-1.2-2.7-2.6c0-1.4,1.2-2.6,2.7-2.6
		S539.2,1058.4,539.2,1059.9z"/>
	<path id="path34944" class="st37" d="M545.6,1068.5c0,1.2-1,2.1-2.2,2.1c-1.2,0-2.2-0.9-2.2-2.1c0-1.2,1-2.1,2.2-2.1
		C544.6,1066.4,545.6,1067.4,545.6,1068.5z"/>
	<path id="path34946" class="st37" d="M532.9,1066.9c0,1.2-1,2.1-2.2,2.1c-1.2,0-2.2-0.9-2.2-2.1c0-1.2,1-2.1,2.2-2.1
		C531.9,1064.8,532.9,1065.7,532.9,1066.9z"/>
</g>
<g id="g34948" transform="matrix(0.3038704,-0.1179841,0.1179841,0.3038704,118.91443,17.673176)">
	<path id="path34950" class="st37" d="M412,1063.6c0,1.2-1,2.1-2.2,2.1c-1.2,0-2.2-0.9-2.2-2.1c0-1.2,1-2.1,2.2-2.1
		C411,1061.5,412,1062.5,412,1063.6z"/>
	<path id="path34952" class="st37" d="M425.2,1064.4c0,1.2-1,2.1-2.2,2.1c-1.2,0-2.2-0.9-2.2-2.1c0-1.2,1-2.1,2.2-2.1
		C424.2,1062.3,425.2,1063.2,425.2,1064.4z"/>
	<path id="path34954" class="st37" d="M418.5,1069.5c0,1.4-1.2,2.6-2.7,2.6c-1.5,0-2.7-1.2-2.7-2.6c0-1.4,1.2-2.6,2.7-2.6
		C417.3,1066.9,418.5,1068.1,418.5,1069.5z"/>
	<path id="path34956" class="st37" d="M424.9,1078.1c0,1.2-1,2.1-2.2,2.1c-1.2,0-2.2-0.9-2.2-2.1c0-1.2,1-2.1,2.2-2.1
		C423.9,1076.1,424.9,1077,424.9,1078.1z"/>
	<path id="path34958" class="st37" d="M412.2,1076.5c0,1.2-1,2.1-2.2,2.1s-2.2-0.9-2.2-2.1c0-1.2,1-2.1,2.2-2.1
		C411.2,1074.4,412.2,1075.3,412.2,1076.5z"/>
</g>
<g id="g34960" transform="matrix(0.3411174,8.3559122e-2,-8.3559122e-2,0.3411174,213.6815,-76.132325)">
	<path id="path34962" class="st37" d="M838.8,868.7c0,1.2-1,2.1-2.2,2.1c-1.2,0-2.2-0.9-2.2-2.1c0-1.2,1-2.1,2.2-2.1
		C837.8,866.6,838.8,867.6,838.8,868.7z"/>
	<path id="path34964" class="st37" d="M852,869.5c0,1.2-1,2.1-2.2,2.1c-1.2,0-2.2-0.9-2.2-2.1c0-1.2,1-2.1,2.2-2.1
		C851,867.4,852,868.3,852,869.5z"/>
	<path id="path34966" class="st37" d="M845.3,874.6c0,1.4-1.2,2.6-2.7,2.6s-2.7-1.2-2.7-2.6c0-1.4,1.2-2.6,2.7-2.6
		C844.1,872,845.3,873.2,845.3,874.6z"/>
	<path id="path34968" class="st37" d="M851.7,883.2c0,1.2-1,2.1-2.2,2.1c-1.2,0-2.2-0.9-2.2-2.1c0-1.2,1-2.1,2.2-2.1
		C850.7,881.1,851.7,882.1,851.7,883.2z"/>
	<path id="path34970" class="st37" d="M839,881.6c0,1.2-1,2.1-2.2,2.1c-1.2,0-2.2-0.9-2.2-2.1c0-1.2,1-2.1,2.2-2.1
		C838,879.5,839,880.4,839,881.6z"/>
</g>
<path id="path40792" class="st38" d="M422.5,306.6c0,0-1.3,1.2-2.8,1.2s-2.4-0.6-2.9-1s0.2-1.3,0.2-1.3"/>
<path id="path42739" class="st39" d="M395.6,309c0,0-2.3-0.4-3.3-0.7c-1-0.3-0.7-1-1.8-0.9c-1.1,0.1-2.2,0.9-2,2
	c0.2,1.1,1,1.3,1.8,1c0.8-0.2,0.6-1.6-0.5-1.5c-1,0.1-0.2,1-0.2,1"/>
<path id="path43710" class="st40" d="M379.5,307.2c0,0,0.6,1,2.3,0.8c1.7-0.2,2.3-1,2.4-1.4c0.1-0.4,0-1.1-0.3-1.4
	c-0.3-0.3-1.4-0.5-1.4-0.5"/>
<g id="redhand">
	
		<path id="path3484" inkscape:connector-curvature="0" sodipodi:nodetypes="cccsccscsccssscssssssscssccssscscsssccscsscccc" class="st41" d="
		M419.1,431.3c2.5-2.4,6.5-5.1,8.7-11c2.1-5.5,3.1-15.6,5-20.7c2.5-8.8,7.5-17.3,1.5-16.7c-5.6,0.6-7.5,6-9.6,10
		c-1,1.5-3.3,4.7-3.7,6.5c-0.1-3-1.6-11.9-1.9-20.8c-0.3-8.3-0.1-17-0.3-20.2c-0.3-4.3-0.2-8.3-1.2-11.4c-0.5-1.5-2.6-2.9-3.7-2.8
		c-2.3,0-3.7,2-4,3.9c-0.2,1.5-0.2,0.9-0.3,2.8c-0.2,2.4,0,5.5-0.1,8.2c-0.2,2.9,0.2,6.2,0,8.9c-0.3,5.5-0.7,10.5-0.9,11.6
		c0-2-0.9-11.7-1.2-20.8c-0.1-3.5-0.2-6.9-0.3-10.1c0-2.6,0.1-5.3-0.2-7.3c-0.5-3.4-1.6-5-4.1-5c-1.7,0-4.1,1.2-4.8,5
		c-0.4,2-0.4,4.6-0.4,7.3c0.1,2.5,0.2,5.3,0.2,8c-0.2,10.4-0.3,21.5-0.8,24.7c-0.1-1.1-1.1-6.5-1.4-13.8c-0.1-2.9-0.3-6.3-0.4-9.7
		c-0.2-4-0.2-6.9-0.3-9.6c0-1.6-0.7-6.2-3.7-5.9c-1.6-0.2-3.3,0.9-4,5.3c-0.4,2.4-0.4,6.6-0.4,9.8c-0.1,6.1-0.4,11.5-0.1,16.9
		c0.2,3.4,0.2,6,0.2,7.7c0,0.4-0.9-2.9-1.3-7.3c-0.4-4.4-0.8-10-0.8-8.7c0-2.3-0.1-5.6-0.3-8.4c-0.2-2.2-0.1-4.6-2.4-4.4
		c-2.4,0.2-3.9,1-4.3,5.1c-0.3,2.6-0.4,8.4-0.5,10.5c0.3,5.3-1.2,17.6-1.8,21.1c-0.2,2.5-1.2,5.7-1.6,9.2c-0.9,7.4,0,16.2,0.9,20.6
		c2,7,7.1,10.2,6.8,15c-0.3,4.8,0,13.2,0,17c0,3.8,3.3,4,10.1,2.5c11.1-2.4,17.2,2.4,26.3-1.1c-1.2-10.4,1.1-16.7,1-20.5
		L419.1,431.3z"/>
	<path id="path3488" inkscape:connector-curvature="0" class="st42" d="M412.7,406.7c2.3-6.3,5.2-8.8,8-10.2"/>
	<path id="path3953" inkscape:connector-curvature="0" class="st43" d="M387.5,400.1c3.5-1.4,7-2.4,10.6-3.6
		c4.3-1.2,8.5-2.9,12.9-3.6c2.1-0.4,4.3-0.9,6.5-1"/>
	<path id="path3960" inkscape:connector-curvature="0" sodipodi:nodetypes="ccccc" class="st43" d="M381.3,433.9
		c0.5-0.3,0.9,0.2,1.4,0.3c0.7,0.2,1.3,0.4,2,0.3c1.3,0,2.7,0,4,0c1.6-0.1,2.9-0.1,4.2-1"/>
	<path id="path3962" inkscape:connector-curvature="0" sodipodi:nodetypes="cccc" class="st43" d="M403,434.1c0.5,0.4,1,0.7,1.5,0.9
		c0.9,0.4,1.8,0.4,7.4,0c3.4,0.2,6.5-2.8,7.4-3.6"/>
</g>
</svg>
