<?xml version="1.0" encoding="utf-8"?>
<!-- Generator: Adobe Illustrator 19.1.0, SVG Export Plug-In . SVG Version: 6.00 Build 0)  -->
<!DOCTYPE svg PUBLIC "-//W3C//DTD SVG 1.1//EN" "http://www.w3.org/Graphics/SVG/1.1/DTD/svg11.dtd">
<svg version="1.1" id="Ebene_1" xmlns="http://www.w3.org/2000/svg" xmlns:xlink="http://www.w3.org/1999/xlink" x="0px" y="0px"
	 viewBox="0 161 800 480" style="enable-background:new 0 161 800 480;" xml:space="preserve">
<style type="text/css">
	.st0{fill:#CE1126;}
	.st1{fill:#FFFFFF;}
	.st2{clip-path:url(#SVGID_1_);}
	.st3{fill:#FF9C10;}
	.st4{fill:#083D9C;stroke:#083D9C;stroke-width:2.057;}
	.st5{fill:#083D9C;stroke:#083D9C;stroke-width:1.932;}
	.st6{fill:#CE1126;stroke:#630810;stroke-width:1.9319;stroke-linejoin:round;}
	.st7{fill:#630810;stroke:#630810;stroke-width:2.7916;stroke-linecap:round;}
</style>
<g>
	<rect y="161" class="st0" width="801.5" height="480"/>
</g>
<rect x="0" y="267.4" class="st1" width="801.5" height="267.2"/>
<g>
	<defs>
		<ellipse id="SVGID_3_" cx="400.8" cy="402.3" rx="114.7" ry="117.8"/>
	</defs>
	<clipPath id="SVGID_1_">
		<use xlink:href="#SVGID_3_"  style="overflow:visible;"/>
	</clipPath>
	<g class="st2">
		<g>
			<path class="st3" d="M370.4,389l-19.5-0.6v-7.7L370.4,389L370.4,389z"/>
			<path class="st3" d="M370.3,386.8l-19.4-9.9v-12.8c0,0-2.3,0.3-1.9-2.2c0.1-5.3,14.2,9.8,21.5,14.7L370.3,386.8L370.3,386.8z"/>
			<path class="st3" d="M286.4,420.2l40.9,0.3v-25.3l-46.7-2.2L286.4,420.2L286.4,420.2z"/>
			<path class="st3" d="M284.4,385.2l43.5,4.2l-0.3-18l-42.5-16.7L284.4,385.2L284.4,385.2z"/>
			<path class="st3" d="M293.2,349.3l33.4,16l4.8-4.9c0,0-3.1-2.1-2.9-4c0.1-1.9,3.1-2.2,3.1-4.4c0.1-1.9-3.4-2.2-3.5-4.1
				c-0.2-2.1,2.7-4.4,2.7-4.4l-30.2-26L293.2,349.3L293.2,349.3z"/>
			<path class="st3" d="M512.5,420.5h-43.2l-0.3-24.7l47.4-3.5L512.5,420.5L512.5,420.5z"/>
			<path class="st3" d="M513.6,384.8c-0.5-4-1.1-8-2-11.9c-1.2-5.3-2.8-10.4-4.8-15.5c-0.1-0.4-0.4-0.7-0.5-1.1l-36.9,15.4l0.3,18.3
				L513.6,384.8L513.6,384.8z"/>
			<path class="st3" d="M488.4,325.5c-7.4,5.6-14.7,11.1-22.1,16.7c0,1.6,1.6,2.8,2.1,4.4c1,2.1-1,4-2.3,5.6c-1,1.4,1.2,2.1,1.9,2.9
				c1.6,1.6,0.2,4.2-1.5,5.2c2.1,1.2,3.1,3.5,3.5,5.8c11-5.7,22-11.5,33.1-17.2C499.1,340.5,494.2,332.6,488.4,325.5L488.4,325.5z"
				/>
			<path class="st3" d="M426.9,389.6l18.5-0.8l0.3-7.4L426.9,389.6L426.9,389.6z"/>
			<path class="st3" d="M426.9,385.6l-0.1-8.3c0,0,17.5-15.6,21.3-18.5c0,3.2-2,5.7-2,5.7v12.2L426.9,385.6L426.9,385.6z"/>
			<path class="st3" d="M313.3,315.3c0.3,0.3,19.7,21.6,19.7,21.6c0.5-2,5-2.3,9.5-2c4.5,0.3,8.2-0.3,8.2,2.9c0,3.2-2.3,2.8-2.3,5
				s3.5,2.1,3.5,4.9c0,2.9-2.5,2.3-2.5,4.5c0,1.8,2.6,1.9,2.6,1.9l18.4,17.6l0.1-18.8l-38-58.8L313.3,315.3L313.3,315.3z"/>
			<path class="st3" d="M343.7,293.1c0.3,0.9,25.7,52,25.7,52s0.3-48,4.6-50.5l-7.2-13.1L343.7,293.1L343.7,293.1z"/>
			<path class="st3" d="M426.7,287.5c-3.2,11.1-6.4,22.1-9.6,33.2c3,0.4,6,0.5,9,0.3c2.7,0.2,0.6,2.8,0.7,4.3c0,6.8,0,13.6,0,20.4
				c9-16,18.1-31.9,27.1-47.9c-6.2-3.3-12.9-5.7-19.5-7.9C431.9,289,429.3,288.2,426.7,287.5L426.7,287.5z"/>
			<path class="st3" d="M460.4,301.4c-11.2,17.2-22.4,34.4-33.6,51.6c0,6.6,0,13.2,0,19.9c7.5-7.1,15-14.2,22.4-21.3
				c1.4-2-4.5-3-1.5-5.4c2.7-0.8,3.1-5.2,0.3-6c-2.3-3.4,2.1-5.2,4.9-4.8c3.9,0.2,7.9-0.8,11.7,0.2c2.1,2,4-3,6.1-4.1
				c4-4.1,8.1-8.1,12.1-12.3C476.1,312.3,468.6,306.3,460.4,301.4L460.4,301.4z"/>
		</g>
		<g>
			<path class="st4" d="M373.9,501.7c-8.3,0.5-16.5,6-20.3,9c6.9,3,14.3,5.4,22.2,7c12.5,2.1,25,2.1,37.6,2.1c2-0.3,4.1-0.5,6.1-0.9
				l26.4-8.9c0,0-12.7-8.4-22.8-8c-10.1,0.4-16.9,10.2-25,9.5c-8.1-0.7-11.4-9.8-23-9.8C374.6,501.7,374.2,501.7,373.9,501.7
				L373.9,501.7z"/>
			<path class="st5" d="M326,494.9l149.9,0.6c0,0-13-13.8-28.2-14.1c-15.3-0.3-11,6.4-22.7,7.4c-11.7,1-14.6-7.1-25.3-6.7
				c-10.7,0.3-16.9,6.7-25,7.1c-8.1,0.3-18.5-8-24.7-7.7c-6.2,0.3-28.2,9.6-28.2,9.6L326,494.9L326,494.9z"/>
			<path class="st5" d="M306.8,477.3l185,0.6c2.9-4.2-9.1-14.1-20.1-15.1c-9.1,0.3-15.6,9.3-23,9.6c-7.5,0.3-15.9-9.3-24.3-9
				c-8.4,0.3-17.2,9-25.6,9c-8.4,0-14.6-9.3-25.3-9.3c-10.7,0-15.6,10.3-23.7,9.6c-8.1-0.6-15.3-10.3-23-10.3
				c-7.8,0-20.8,11.5-23.4,10.9C300.7,472.8,306.5,478.2,306.8,477.3L306.8,477.3z"/>
			<path class="st5" d="M378.3,459.6l41.3,0c0.3-0.3-9.2-14.1-20.6-13.1C386.3,446.8,377.7,459.6,378.3,459.6L378.3,459.6z"/>
			<path class="st5" d="M510,458.6h-56.5c0,0,7.3-4.3,9.3-8.2c3.7,2,2.7,3.9,10,4.3c7.3,0.3,14.3-8.2,21.3-7.9
				C501,447.1,510,458.9,510,458.6L510,458.6z"/>
			<path class="st5" d="M287.3,458.6h56.5c0,0-7.3-4.3-9.3-8.2c-3.7,2-2.7,3.9-10,4.3c-7.3,0.3-14.3-8.2-21.3-7.9
				C296.3,447.1,287.3,458.9,287.3,458.6L287.3,458.6z"/>
			<path class="st5" d="M291.6,441l40.2,0.3c0,0-2.6-5.5-2.9-12.2c-10.4-3.5-18.8,7.7-26.3,8c-7.5,0.3-15.2-8-15.2-8L291.6,441
				L291.6,441z"/>
			<path class="st5" d="M506.4,441l-40.2,0.3c0,0,2.6-5.5,2.9-12.2c10.4-3.5,18.8,7.7,26.3,8c7.5,0.3,15.2-8,15.2-8L506.4,441
				L506.4,441z"/>
			<path class="st5" d="M388.6,441.4l20.4-0.6c0,0,0.3-6.1-10.4-6.1C387.9,434.6,388.9,441.7,388.6,441.4L388.6,441.4z"/>
		</g>
		<g>
			<path class="st6" d="M377.9,375.6l42.5,11.2v-60c-19.5,1-35.7-36.6-1.3-39.1c-33.7-4.8-37.6,3.8-41.5,13.1L377.9,375.6
				L377.9,375.6z"/>
			<path class="st6" d="M387.3,429.8c-9.2,15.1-34,10.6-39.7,0.1c-1.7-0.5-0.7-65.2-0.7-65.2s-2.8-1.2-2.9-3.2
				c-0.1-2,3.8-2.2,3.8-4.8c0-2.6-4-1.6-4-4.1c0-2.5,4.2-2.1,4-4.4c-0.2-2.6-4.7-2.2-4.9-4.6c-0.1-1.9,3.2-3.5,4.2-4.4
				c-0.6,0-3.1,0-3.1,0c-2.4,0-4.7,0.1-7.1,0.1c-5,0,0.1,1.1,0,4c0,1.9-2.6,3.1-2.8,4.7c-0.1,1.7,3.6,2.8,3.6,4.9
				c0,1.8-3.6,1.9-3.5,3.6c0.2,2.8,3.2,3.4,3.2,5.1c0,1.7-4,2.4-4,3.7c0.1,2.6,0.6,66.5,0.6,66.5
				C340.2,464.4,376.9,472.7,387.3,429.8L387.3,429.8z"/>
			<path class="st6" d="M411.5,429.8c9.2,15.1,34,10.6,39.7,0.1c1.7-0.5,0.7-65.2,0.7-65.2s2.8-1.2,2.9-3.2c0.1-2-3.5-2.2-3.5-4.8
				c0-2.6,3.7-1.6,3.8-4.1c0-2.5-3.9-2.3-3.7-4.6c0.2-2.6,3.3-2.3,3.5-4.6c0.1-2-1.9-3.3-2.9-4.1c0.6,0,3,0,3,0
				c2.4,0,4.7,0.1,7.1,0.1c5,0-0.1,1.1,0,4c0,1.9,2.5,3.1,2.8,4.7c0.1,1.7-3.6,2.8-3.6,4.9c0,1.8,3.6,1.9,3.5,3.6
				c-0.2,2.8-3.2,3.4-3.2,5.1c0,1.7,4,2.4,4,3.7c-0.1,2.6-0.6,66.5-0.6,66.5C458.6,464.4,421.9,472.7,411.5,429.8L411.5,429.8z"/>
		</g>
		<g>
			<path class="st7" d="M376.3,432.7c3.6-1.9,6.8-3.8,9.1-8.3l-14,0.3c0,0-6.5,3.9-9.7,8L376.3,432.7L376.3,432.7z"/>
			<path class="st7" d="M421.3,432.7c-3.6-1.9-6.8-3.8-9.1-8.3l14,0.3c0,0,6.5,3.9,9.7,8L421.3,432.7L421.3,432.7z"/>
			<path class="st7" d="M350.9,419.2l96.1,0.3"/>
			<g id="x">
				<path class="st7" d="M355.5,396.5l11.4,15.1"/>
				<path class="st7" d="M355.5,411.5l12.3-14.8"/>
				<path class="st7" d="M362,395.5l-0.3,9.3"/>
			</g>
			<g>
				<g id="x_1_">
					<path class="st7" d="M373.7,396.5l11.4,15.1"/>
					<path class="st7" d="M373.7,411.5l12.3-14.8"/>
					<path class="st7" d="M380.1,395.5l-0.3,9.3"/>
				</g>
			</g>
			<g>
				<g id="x_2_">
					<path class="st7" d="M392.1,396.5l11.4,15.1"/>
					<path class="st7" d="M392.1,411.5l12.3-14.8"/>
					<path class="st7" d="M398.6,395.5l-0.3,9.3"/>
				</g>
			</g>
			<g>
				<g id="x_3_">
					<path class="st7" d="M411.3,396.5l11.4,15.1"/>
					<path class="st7" d="M411.3,411.5l12.3-14.8"/>
					<path class="st7" d="M417.8,395.5l-0.3,9.3"/>
				</g>
			</g>
			<g>
				<g id="x_4_">
					<path class="st7" d="M429.8,396.5l11.4,15.1"/>
					<path class="st7" d="M429.8,411.5l12.3-14.8"/>
					<path class="st7" d="M436.3,395.5l-0.3,9.3"/>
				</g>
			</g>
		</g>
	</g>
</g>
</svg>
