<?xml version="1.0" encoding="utf-8"?>
<!-- Generator: Adobe Illustrator 19.1.0, SVG Export Plug-In . SVG Version: 6.00 Build 0)  -->
<!DOCTYPE svg PUBLIC "-//W3C//DTD SVG 1.1//EN" "http://www.w3.org/Graphics/SVG/1.1/DTD/svg11.dtd">
<svg version="1.1"
	 id="svg19402" xmlns:inkscape="http://www.inkscape.org/namespaces/inkscape" xmlns:sodipodi="http://sodipodi.sourceforge.net/DTD/sodipodi-0.dtd" xmlns:svg="http://www.w3.org/2000/svg" xmlns:rdf="http://www.w3.org/1999/02/22-rdf-syntax-ns#" xmlns:cc="http://creativecommons.org/ns#" xmlns:dc="http://purl.org/dc/elements/1.1/" sodipodi:docname="Flag_of_Northern_Ireland_creased_hand.svg" inkscape:version="0.91 r13725" sodipodi:version="0.32" inkscape:output_extension="org.inkscape.output.svg.inkscape"
	 xmlns="http://www.w3.org/2000/svg" xmlns:xlink="http://www.w3.org/1999/xlink" x="0px" y="0px" viewBox="-99 251 600 300"
	 style="enable-background:new -99 251 600 300;" xml:space="preserve">
<style type="text/css">
	.st0{fill:#DC241F;}
	.st1{fill:#FFC726;}
	.st2{fill:#FFFFFF;}
</style>
<path class="st0" d="M501,551V251H-99v300H501z"/>
<path class="st1" d="M-99,251v300l300-150L-99,251z"/>
<path d="M-99,251v300l200-150L-99,251z"/>
<g>
	<g>
		<g id="t">
			<path id="o" class="st2" d="M-200.8,295.4l-16.2,49.9l23.8,7.7L-200.8,295.4z"/>
			<g transform="scale(-1,1)">
				<path id="o_1_" class="st2" d="M-200.8,295.4l16.2,49.9l-23.8,7.7L-200.8,295.4z"/>
			</g>
		</g>
		<g id="f">
			<g id="t_1_">
				<path id="o_2_" class="st2" d="M-150.9,331.7l-52.5,0v25L-150.9,331.7z"/>
				<g transform="rotate(72)">
					<path id="o_3_" class="st2" d="M-150.9,331.7l-42.5,30.9l-14.7-20.2L-150.9,331.7z"/>
				</g>
			</g>
		</g>
		<g>
			<g id="t_2_">
				<path id="o_4_" class="st2" d="M-250.7,331.7l42.5,30.9l14.7-20.2L-250.7,331.7z"/>
				<g transform="rotate(-72)">
					<path id="o_5_" class="st2" d="M-250.7,331.7h52.5v25L-250.7,331.7z"/>
				</g>
			</g>
			<g>
				<g transform="rotate(-26.565051)">
					<g id="t_3_">
						<path id="o_6_" class="st2" d="M-169.9,390.4l-16.2-49.9l-23.8,7.7L-169.9,390.4z"/>
						<g transform="scale(-1,1)">
							<path id="o_7_" class="st2" d="M-169.9,390.4l-42.5-30.9l14.7-20.2L-169.9,390.4z"/>
						</g>
					</g>
					<g id="f_1_">
						<g id="t_4_">
							<path id="o_8_" class="st2" d="M-231.7,390.4l42.5-30.9l-14.7-20.2L-231.7,390.4z"/>
							<g transform="rotate(144)">
								<path id="o_9_" class="st2" d="M-231.7,390.4l16.2-49.9l23.8,7.7L-231.7,390.4z"/>
							</g>
						</g>
					</g>
				</g>
			</g>
		</g>
	</g>
</g>
</svg>
