<?xml version="1.0" encoding="utf-8"?>
<!-- Generator: Adobe Illustrator 19.1.0, SVG Export Plug-In . SVG Version: 6.00 Build 0)  -->
<!DOCTYPE svg PUBLIC "-//W3C//DTD SVG 1.1//EN" "http://www.w3.org/Graphics/SVG/1.1/DTD/svg11.dtd">
<svg version="1.1" id="Ebene_1" xmlns="http://www.w3.org/2000/svg" xmlns:xlink="http://www.w3.org/1999/xlink" x="0px" y="0px"
	 viewBox="0 161 800 480" style="enable-background:new 0 161 800 480;" xml:space="preserve">
<style type="text/css">
	.st0{fill:#00AB39;}
	.st1{fill:#FFFFFF;}
	.st2{fill:#D21034;stroke:#000000;stroke-width:1.8;}
	.st3{fill:none;stroke:#000000;stroke-width:1.8;stroke-linejoin:round;}
	.st4{stroke:#000000;stroke-width:1.8;stroke-linejoin:round;}
</style>
<g>
	<rect y="163.1" class="st0" width="800" height="477.9"/>
</g>
<rect y="163.1" class="st1" width="800" height="240"/>
<g transform="translate(1.72,0.97)">
	<path class="st2" d="M521.9,190.6C521.9,190.6,521.9,190.6,521.9,190.6C521.9,190.6,522,190.6,521.9,190.6L521.9,190.6z
		 M521.9,190.7c-50.4,27.8-95.4,56.8-139.7,93.7c-21.3,18.6-15.3,33.4-16.1,50.1c0.7,11.2-2.4,21.6-9.3,27.9
		c-15.8,3.2-31.5,6.4-47.3,9.6c-1.5-4.4-3-8.7-4.5-13.1c1.4-6.7,7-10,18.6-5.8c0.9-8.6-6-12.1-14.1-15.1c-2.8-2.2-6.2-3.8-5.8-11.3
		c-1.4-16.8,25.7,1.2,25.9,1.2c0.3,0-0.9-17-13.3-20.4c-6.8-2.4-9.6-9.5-7-14.8c5.4-10.8,15.6,0.8,23.4,1.3
		c-0.3-7.1-2.3-12.1-8.4-17.8c-3.3-2-11.3-3.5-11.5-6.9c-0.2-4.6,7.5-6.5,18.1-5.3c-2.2-6.4-9.3-10.6-19.1-13.6
		c-1.9-3.4-3.9-6.7-5.8-10.1c-2.7-5.1-4-5.2,2.4-14.8c5.7-3.7,13.3-8.9,19-12.6c-2.1-0.3-4.2-0.5-6.3-0.8c0.8-6.9,0.9-9.2,2.5-20.6
		c-6.1,8.4-13.8,6.9-20.6,10.3c0,0-19.6,3.5-25.9,11.8c-0.3,0-49.3-2.5-49.3-2.5c-10.4,1.5-19.4,4.4-21.1,14.6
		c-23.9,2.4-48.9,0.3-67.1,23.1c12.4-0.6,23.3-3.5,37.2-1.7c0,0,11.9,0.2,14.3,12.8c0.3,0.5,4,0.5,4,0.5c1.5,1.2,3,2.4,4.5,3.5
		c0.6-1.6,1.2-3.2,1.7-4.8c1.3,0.9,2.7,1.8,4,2.8c0.4-1.8,0.8-3.5,1.3-5.3c1.3,0.9,2.7,1.8,4,2.8c0.1-2.1,0.2-4.2,0.3-6.3
		c1.8,1.3,3.5,2.5,5.3,3.8v-8.3c0,0,19.5,0,25.4,12.3c0.3,0.3-54.6,10.1-107.6,5.5c5.1-2.5,10.2-5,15.3-7.6
		c-19.3-3.9-37.5-7.5-54.5-20.9c6.4,24.2,39.7,52.7,46.5,52.6c0,0.3-6.5-11.8-6.5-11.8c19.2,0.8,38.4,1.7,57.6,2.5
		c2.1,6.4,1.2,13.5,6.3,19.1c0,0-3.2,10.5,3.9,14.8c0.3,0.5,8.4-21.4,8.4-21.4s2.5,5.9,5,9.8c3.7-18.8,24.1-21.9,24.1-21.9
		s4.3,9.8,4.3,10.1c-6.4,0.9-14.4,14-10.1,21.1c-4.3,0.1-11.9,12.7-9.5,19.6c-3.6,3.6-12.6,8.4-10.3,23.4
		c-7.1,1.5-11.3,14.4-9.1,28.2c-10.9,10.2-8.3,28.9,1.5,36.4c-4.1,3.6-6.5,6.4-6.5,10.8c-3.9-1.4-7.4-0.2-9.1,2.3
		c-4.7-4.8-11.5-9.1-16.3-4.5c-1.2-5.7-8.7-12-16.9-11.3c0.5-6-2.7-13.5-11.3-16.1c0,0-1.7-28.3-10.3-37.5
		c-0.8-5.1,0.5-8.6,7.6-12.8c7.1-3.8,8.6-6.7,8-17.3c2.8-7.1,4.9-14.4-3.8-19.3c0.3,8.5-2.3,12.6-5.8,16.3c-4.1-0.6-5.5,4.2-8.3,6.3
		c-3.9-5.2,8.2-13.3-0.8-24.9c-0.5-0.5-6.2-15.2-20.4-14.8c6.7,3.9,9.6,10.6,9.5,17.3c-4.5,12.6-6.7,22.3-2.3,36.7
		c-5.9-8.8-9.2-25.5-14.1-28.4c-4.3-0.8-6.3-10.9-22.9-8c7.1,1.9,9.4,7.4,11.3,12.3c-4.4,2.3-2.2,8.2,1,12.3
		c-0.6,9.7,5.2,15.3,13.8,18.9c-1.4,13.2-2.9,26.3-4.3,39.5c-3.4-0.4-8.7,12.9-10.8,13.3c-3.4,2.1-9.2,7.7-2.5,9.3
		c-2,7.2-3.9,11.6-14.6,13.1c0,0,11.4,6.7,20.8-4.8c10.1-0.3,6.8-12.3,11.7-17.6c0-0.3,2.8-2,6.8-12.6c1.8,9.5,11.5,38.4,33.4,52.8
		c19.1,20.5,34.9,39.8,34.7,67.1c7.5-6.9,11.9-18,15.4-28.4c10.4-3.6,25.2-5,38.5-4.4c-2.3,4.8-4.8,9.4-1.5,12.5
		c-9.2,3.2-11.3,9.9-7.6,16.6c-9.7,6.6-10.4,10.9-10.5,21.9c-18,23.1-29.2,22.3-47,16.4c-5.9-3.4-14.9-8.4-19.1-5.8
		c-7.7-5.1-18.8-5.9-20.6,5.8c5.8-4.8,9.2-3.9,13.9,0.8c-0.9,2.3-1.7,4.7,1.7,6c-1.5,1.7-3,3.4-4.5,5c-8.3-1.3-19.5-1.2-22.4,10.8
		c4.3-3.5,13.7-4.4,21.4-1c1.4,0.5,2.9,1,4.3,1.5c0.2,1.9,0.3,3.9,0.5,5.8c0,0-11.3-1.7-14.3,16.6c10.6-11.3,18.1-8.3,18.1-8.3
		c4.1,6,19.1,5.1,29.9-4.8c15.2-8.5,19.6,3.7,29.4-4.3c8.1-6.1,17.8-2,24.4,5c7.6,2.9,15.6,5.2,21.9,0c0,0,7.7-4.9,15.3,3
		c0.1-8.9-6.2-13.7-14.8-13.8l-2.5-2.5c-8-1.7-17.1-1-24.1-5c3.3-12.6,8.2-24,17.6-33.7c11.7-12.5,20.2-18.2,34.9-37.3
		c-0.6,10.8,7.7,22.8,12.1,33.8c0,0,8.8-14,10.1-25.4c0.3,0,11-5.6,15.6-10.4c9.7,6,25.5-4.8,35.7-13.8c6.3,2.4,11.1,2.2,18.4,0
		c-5.9,11.9,3.4,23,18.1,27.7c1.4,10.5,12,12.8,28.2,12.8c0.7,6.2,10.3,7,10.3,7c-6.1,2.8-9.2,5.7-9,12.1c-6.2,0-10.9,1.6-12.6,8.8
		c-8.6,0.1-17.3,0.8-24.6,5c-7.9-1.2-17.5-4.5-23.6-10.8c-3.2-2.7-4-6.6-9.5-8c-3.5-4.2-7.7-3.2-9.1,0.8c-3.6-2.8-17.3-4.2-19.6,8.8
		c6.4-4.7,12.1-6.5,16.1-0.8c-2.2,4,5.3,6.2,11.8,7.8c4.6,0.3,12.8,4.5,15.3,11.6c-5.9,1.8-14.9,1.2-20.9-3.3
		c-5.3-4.4-12.4-3.9-16.3-1c-5.4-3.5-18.4,3.1-18.9,13.6c5.5-5,10.4-7.4,15.4-4.2c-2.5,0.6-1.5,0.8-1.3,2.3
		c4.2,2.4,8.4,4.9,12.6,7.3c-6.2,1.6-12,4.1-9.3,15.6c0,0,5-9.9,16.3-6.3c0.3-0.3,1.6,3.5,4.8,1c4.9-5.6,16.1-8.1,25.9-9
		c7.9-0.9,15.8-3.3,22.6,1.2c6.1-3.1,12.9-5.3,19.9-0.2c8.2,2.6,14.2,12.2,24.6,7.8c5.2-3.6,11.6-3.8,18.1,3.5
		c0.1-9.2-6.8-12.3-16.6-14.3c-2.3-1.3-4.5-2.7-6.8-4c-6.3-0.9-12.6,0.2-18.9-2.8c32.9-8.5,56-26.9,72.2-53
		c5.2,1.8,10.4,3.7,15.6,5.5c3.7,0.2,4,1.5,11.6,3.8c0.3-11.2-4.5-22.7-24.6-23.9l-26.4-10.1c-5.6-5.9-8.1-18.5-1-25.9
		c7-6.2,8.2-5.5,12.8-13.1c5.6-0.5,10.9,5.3,16.1,5.3c2.5,7.3,16.6,13.8,25.7,11.6c5.6,5,16.4,7.8,28.2,3.8
		c6.7,5.8,15.4,8.3,25.6,3.8c2.7,2.7,8.5,4.9,15.1,3.5c0.5,0,3.3,7.3,10.6,9.8c-3.1,3.1-1.2,16.4,2,21.1c-2.2,5.1-2.9,10.6-1,15.8
		c-7.3,4.7-8.8,8.2-5.5,16.1c-9.5,15.3-21,17.1-31.7,12.3c-3.9-2.4-7.7-4.9-11.6-7.3c-4.1-4-8.2-8-12.3-12c-2.1-2-6.4-2.6-7.3,1.7
		c0,0-15.8-3.5-17.1,9.8c6.6-6.4,15.8-0.8,15.8-0.5c0,0.3-2.2,1.8-0.5,4.3c0.4-0.3,11.5,4.2,21.5,8.4c5.4,2,6.6,2.7,8.9,3.9
		c-2.6-1.2-5.6-2.5-8.9-3.9c-6-2.3-11.9-4.1-13.7-3.7c-5.6-0.5-11.6-1.2-14.3,3c-6.1,2.6-15.5,4.6-15.1,15.8
		c4.1-6.7,9.7-6.4,16.8-5.8c-0.2,0.5-0.3,1-0.5,1.5c7.8,3.5,6.3-1,13.5-1.6c6.1-0.6,14.6,1.6,19.2,3.1c-5.7,1.7-13.4,1-17.1,5
		c-0.7,1.3-3,0.8-2,4c0,0-11.1-0.3-14.1,15.1c11.3-7.2,19.9-7,20.1-7c0.3,0,3.5,0.8,3.5,0.8s13.6-9.1,13.8-9.1
		c0.3,0,13.1-5.7,19.1,0.8c5.2,2.6,10.7,2.7,16.1-0.5c10.6-4.6,20.5-4.9,30.2,1.5l8.8,5.3c1.3-0.8,2.5-1.7,3.8-2.5
		c0,0,10-2.8,17.3,6.1c-3-15.3-14-15.8-14-15.8c-0.8-0.8-1.7-1.5-2.5-2.3c-5.2-2-10.4-4-15.6-6.1c-2.3-5.6-8-10.1-2.3-16.8
		c5.8-28.8,12.7-50.5,1.5-79.7c10.5,4.5,18.3,18.5,31.4,13.6c0-11.7-43.2-34-76.2-51.9c54.1-2.8,119-42.7,94.1-93.4
		c3.9-12.2,7.9-24.5,11.8-36.7c5.6,11.2,16.8,19.7,26.9,23.4c-8.3-15.9-13.1-64.5-8.3-98.1c-21.8,26.9-45.8,50.8-71.4,75.1
		c12.6,2.9,23.6,0.9,35.7-0.6c-3.4,7-6.8,14.1-10.2,21.1c-33.2-19.5-72.2-4.9-72.5,21.1c1.1,30.3,38.6,34.6,60.2,24
		c-4.3,27.6-67.7,17.4-67.7,17.4c-22.5-7.8-44-6.4-67.7-6.3c4.9-15.1,32.3-28.6,53.1-22.7c-29.1-32.7,4.1-73.3,44.2-85.8
		c-43.7-14.4-6.1-47.8,26.7-71.7c0,0-94.1,39.6-102.7,39.5C504.4,239.4,511.7,207.7,521.9,190.7L521.9,190.7z M226.4,228.7
		c2.2,0,4.8,0.2,6.8,0.7c4.2,1,9.4,1.6,9.3,2.9c-2,3.3-6.8,7.3-11.5,7c-4.7-0.2-7.5-3.1-9.1-10.2
		C222.5,228.9,224.3,228.7,226.4,228.7z M622.7,340.4c6.2-0.1,13.6,2.5,20.8,10.2c-3.5,10-33.6,15.1-35.6,0.3
		C607.2,346.4,613.7,340.5,622.7,340.4L622.7,340.4z"/>
	<path class="st3" d="M257.5,316.1l4.6,6.6 M261.9,322.9c0,0,0,8.9,1.9,9.1 M259.6,336.8c0.2,0.2,4.8,7.9,4.8,7.9 M251.3,346.8
		c0.2,0,5.8,6.4,5.8,6.4 M262,348.2c0,0.2,5.3,10.2,5.7,10.2 M255,355.1c0,0,1.9,12,3.5,11.6 M247.2,377.2l5.4,8 M257.1,368.6
		c0,0,2.9,11.4,5.2,10.4 M264.6,361.7c0.2,0.2,5.4,7.7,6.9,6.6 M270.2,371.3l5,10 M261.9,379c0.2,0.4,4.2,11.8,4.2,11.8 M252.3,385
		c0,0,3.7,12.7,7.1,10.6 M250.9,401.8c0,0,0.2,6.6,3.5,7.1 M256.7,398.5c0,0.2,3.3,4.8,3.3,4.8 M266.2,390.6l2.8,4.4 M275,382.5
		l4.2,5.2 M255.7,323c0.2,5.6,9.1-2,12.6-6.7 M251.9,342.4c0,0,9.8-6.9,17.2-17.2 M248.8,358.8c6.9-1.9,19.5-17.1,21.9-25.2
		 M247.4,374c1.9,0.8,25.4-16.1,26-28.6 M246.7,387.1c0-0.2,21.5-5.5,30.4-29.2 M245.6,405c0,0,34.4-20.6,36.2-35.8 M513.9,439.6
		c0,0-2.2,17.8-20.1,20.5 M519.5,471.3c0.2-0.2,17-18.7,12.7-24.3 M558.5,453.5c0,0-0.2,12.9-10.8,21.8 M579.5,457.2
		c0,0,0.4,15.6-6.2,21.8 M598.8,466.6c0,0-7.4,14.6-10.1,16 M598.5,492.4c0,0,9.8,2.4,12.9-4 M601,513.5c0,0,9.1,1.6,13.2-7.1
		 M600,529.9c0,0,7.3,6.2,12.3-1.9 M494.8,409.9c0,0-0.8,31.6,43.6,38c49.6,13.7,73.1,6.4,76,62.1c-1.9,21.2-4.5,45.1-19.9,36
		 M447.7,439c0,0,7.1,12.7,15.6,11.8c11.2-3.3,15.4,3.5,15.4,3.5 M417.4,451.6c0,0,18.7,9.1,34.7-5.6 M419.5,438.6
		c1.7,21.8-25.1,34.3-35.7,32.2 M420.7,522.1c0.2,0,14.5-8.6,11.6-14.6 M392.3,509.4c0.4-0.4,24.1-2.7,28.4-11.2 M381.3,474.5
		c0-0.2,33.6,0.1,35.9,6.3 M425.9,454.6c0,0-32.8,56,27.8,56 M391.2,453.7c0,0-7.1,21-17,28 M356.4,446.5c0,0,12.2,23.6-0.1,35.2
		 M324.6,453.1c0.2,0.4,3.9,33.4-4.4,42.8 M308.8,454.1c0,0,1.2,21-5,28.4c-6.2,7.5,1.5,23,1.5,23 M229.6,515.7
		c0,0,4.5,7.8,10.7,5.1 M237.2,498.6c0,0,10,4.4,13.3,2.7 M248,463.3c0,0-14.7,4.2-9.1,21.6c8.5,6.9,16.8,5.8,16.8,5.8 M218.9,537.4
		c-0.2,0,1.7,13.7,11.2,3.3c6.6-13.9,27.6-53.1,32.4-66.6 M272.3,467.6c0,0-10.2-7.9-9.8,3.1c-0.2,6.8,3.1,8.5,3.1,8.5
		c0.4,5,4.8,12,8.3,5.6c1.5-6.2-1-8.9-1-8.9 M278.7,464.7c-9.1-0.6-14.1,19.5,3.5,6.9 M288.3,457.9c0,0-2.3,3.1-5.8-0.2
		c-1.9-3.3-8.5,14.9,3.1,15.6c2.1-5.4,8.5-6.9,8.5-6.9 M299.5,449.2c0,0-5.2,2.5-7.1,2.1c-6.2,1.5-5,16,2.9,15.2
		c2.7-3.1,5.6-7.5,5.6-7.5 M250.5,430.2c-0.2,0-20.6,32.1,11.4,40.6 M509.3,381.9c0,0-12.5,10.6-0.8,27.6
		c-38.6-0.6-59.4,17.2-61,29.3c-49.2-3.5-40.3,11-56.3,15.8c-21.4-17.9-52.7-7.9-50.6,10c-14.3-20.1-36.3-10.4-39-5.4
		c-2.7,5-1.7-24.7-1.7-24.7s-14.3,6.4-24.3,18.3c0.2-7.9,0-20.8,0-24.9c-12,2.4-23.5,2.6-35.9,2.3 M207.3,420.9
		c0,0,17.9,10,39.9-3.5 M205.9,385c0,0,13.9,12.5,40.1,8.5 M214.6,356.4c0,0,3.1,10.2,33,10.8 M224.7,332.8c0,0,11.3,13.8,26.4,11.7
		 M234.3,313.2c0,0,4.4,7.5,21,8.7 M244.1,291.4c0,0,8.7,9.5,18.7,7.9 M295.9,213.8c0,0,3.9-3.9,10.3-1.9 M293.1,234.2
		c0,0-12-0.4-11.2-5.1c0.9-5.4,12.7-9.2,12.7-9.2s15.7-10.1,18-13.5 M241.9,261.2l15.2,29.2l7.3-10.9l3.9,7.5l6.2-10.9l10.7,6.9
		l-4.1-13.3l9-0.6c0,0-2.4-6.4-10.5-7.7c2.1-1.7,9.7-6.6,9.7-6.6s-4.3-4.9-10.9-5.1c2.1-2.4,5.1-8.2,4.9-8.2s-6.6-1.5-6.6-1.5
		s15.2,4.9,27-1.9 M274.5,214.2c0.2,0.2-0.9,6-4.1,9.4 M215.7,230.3c0,0,9.4-2.6,16.5-1.1c7,1.4,16.3,3.9,16.3,3.9
		s11.2-1.5,14.8-4.1 M192.3,236.5c0,0-1.3,4.5-1.7,7.5c0,2.1-6.9,4.9-6.9,4.9 M196.6,227.3c0,0,6,7.5,6.2,11.8
		c0.2,4.3-4.5,7.5-4.5,7.5 M134.7,278.6l-6.2-10.1l5.6-1.9 M247,417.6c-5-6.4,3.7-105.2,22.2-131c-6.4,46.5,14.9,94,20.3,93.8
		 M190.8,259c0,0,8.4,3.2,25.8-10.6 M240.2,281.9l12.5,0.2 M628.1,204.4c0,0-208.4,97.4-211.4,102.5
		c35.2-10.6,184.4-35.5,188.1-33.4c-8.8,2.1-189.9,43.7-198.4,53.7c45.2-1.5,139.8,14.6,154.7,30c-32.2-7.3-128.3-21.5-157.7-15.2
		c21.5,5.2,104,58.5,104,67c-12.4-11.8-111.6-52.8-115.6-48.8c22.7,13.6,54.9,64.3,54.9,76.7c-6.7-10.6-64-72.2-67.3-68.2
		c6.1,8.5,18.1,81.2,11.9,84.5c0-8.8-22.3-72.4-24.1-74.2c-4.6,1.2-32.9,77.6-27.3,84.7c-3.6-25.5,0.6-78.7,7.6-76.5
		c-12.4,1.8-52.1,54.1-47.9,62.3c1.2-13,3-21.7,25.4-65.1c-24.9,1.5-76.4,34-85.2,45.5c7-20.6,50.7-55.5,69.8-57.9 M399.6,296.3
		c22-12.2,90.1-37.2,135.5-55.5 M356.9,362c0,0,15-0.2,30-41c14.8-55.8,132.1-118,134.5-129.5 M158.3,418.1c0,0-3.5,7.4-7.8,9.6
		 M175.1,429.3c0,0-4.7,9-5.7,13.3 M191.2,433.8c0,0,3.9,12.3,0.7,18.1 M146.4,401.7c-11.8,6.6,6.7,48.7,62.7,52.7 M200.1,431.7
		c0,0-1.5,7.5,9,22.5c-3,16.7,12.7,29.9,18.9,32 M195.6,281c0-0.2,1.7-4.5,1.7-4.5l1.9,5l3.1-0.1l2-5l1.7,5h3.1l1.9-5.5l2.9,5.2
		l2.4,0.1l1.9-6.4l3.9,4.6l1.4-0.6l1.2-6.4l3.9,4.5l1.1-0.7l1.8-6.3l3.2,4.7l1.6-0.5l1.5-5.3l3,4.9 M192.1,281.5l23.4-0.3
		c7.4-0.1,19.7-10.4,33.4-7.2 M142.8,331.6c0,0,3.9,8.4,9.2,3.6 M133.8,337.2c0,0-7.5,20.2,1.5,24.9 M123.1,314.9c0,0,0,4.7,9.9-2.6
		 M92.4,420.8c0,0,7.9,2.4,6.6,8.4 M95.4,328.1c0,0,4.9,2.4,9.7-4.9 M147.7,560.2c7.7-0.4,9.4,3.1,16.4,3.1c8.1,0.2,16-3.1,26.3-5.8
		 M256.7,576.1c-0.2,0-3.6,7.3-0.6,10.9 M146.6,576.7c0,0,12.2-10.1,18.7-3.9c6.2,2.1,9.7,1.7,9.7,1.7 M153.1,548c0,0,3,7.7-7.1,6.6
		 M143,565.8c0,0,6.4,4.1-0.9,9.4 M146.9,582.5c0,0,8.8,1.3,3.6,8.4 M430.9,529.1c0,0,23.9,2.5,25,4.3c2.7-2.9,24.1-20.2-2.1-22.6
		C449.3,528.7,431.3,529.4,430.9,529.1L430.9,529.1z M422.4,541c8.9,7.1,5.3,11.4,33.3-7.4 M409.6,549.9c0,0,13.2,14.1,22.8-3
		 M384.5,555l-17.8,9.3 M334.6,577.5c0,0,10.8-9.3,15.9-4.4c5.1,4.9,26.6-4.3,26.6-4.3 M342.6,537c0,0,3.7,7.4-3.4,8.4 M328.5,560.2
		c0,0,3.8,7-3.5,8.9 M336.9,579.2c0,0,11.3,0.5,7.3,9.1 M442.2,577.7c0,0-6.2,5.2-1.6,11.1 M531.8,540.2c0,0,7.1,3.4-1.4,9.3
		 M523.3,561.9c0,0,5.4,5.6,1.8,10.3 M538.2,583.4c0,0,7.4,2.1,6.6,8.2 M642,577.9c0,0-6.2,4.5-2.9,10.4 M532,397.6
		c14.8-1.8,36.1,31.2,46.9,37.6 M643.8,350.9c0,0,7.5,6.6,0.9,22.4 M657.7,325.7c2.1,1.6,10.2,5.9,15.5,15.9 M678.3,276.4
		c0,0.1-10.4,28.1-10.4,28.1 M689.9,275c0,0-2.1,25-5.1,30.1 M643.5,350.6c-3.5,10-33.6,15.1-35.6,0.3
		C606.8,343.4,625.7,331.7,643.5,350.6z"/>
	<path class="st4" d="M226.2,228.8l11.6,2.1C237.8,230.9,229.6,241.9,226.2,228.8z"/>
</g>
</svg>
