<?xml version="1.0" encoding="utf-8"?>
<!-- Generator: Adobe Illustrator 18.1.1, SVG Export Plug-In . SVG Version: 6.00 Build 0)  -->
<svg version="1.1" id="Ebene_1" xmlns="http://www.w3.org/2000/svg" xmlns:xlink="http://www.w3.org/1999/xlink" width="54" height="54">
<g>
	<g>
		<rect x="-1.1" y="-1.2" fill="#212121" width="54.7" height="54.8"/>
		<rect x="26.2" y="-1.2" fill="#3E94C6" width="27.3" height="54.8"/>
		<polygon fill="#FFFFFF" points="46,14 47.6,18.2 51.7,18.2 48.5,20.5 49.7,24.5 46,22.1 42.4,24.5 43.6,20.4 40.3,18.2 44.5,18.2 
					"/>
		<polygon fill="#FFFFFF" points="33.3,14 34.8,18.2 38.9,18.2 35.7,20.5 36.9,24.5 33.3,22.1 29.6,24.5 30.9,20.4 27.6,18.2 
			31.7,18.2 		"/>
		<polygon fill="#FFFFFF" points="39.7,25.2 41.2,29.4 45.3,29.4 42.1,31.6 43.3,35.6 39.7,33.3 36,35.6 37.2,31.6 34,29.4 
			38.1,29.4 		"/>
		<path fill="#FFFFFF" d="M25.9,23.8c-1.3-0.2-1.5-1.1-3.6-1.1c-2.4,0-2,1.3-4.8,1.3s-2.5-1.3-4.9-1.3c-2.4,0-2.2,1.3-4.9,1.3
			c-2.7,0-2.5-1.3-4.8-1.3c-2.2,0-2.3,1-3.9,1.2v-4c1.6-0.1,1.7-1.2,3.9-1.2c2.4,0,2.1,1.3,4.8,1.3c2.7,0,2.5-1.3,4.9-1.3
			c2.4,0,2.1,1.3,4.9,1.3s2.5-1.3,4.8-1.3c2,0,2.3,0.9,3.6,1.2V23.8z"/>
		<path fill="#FFFFFF" d="M25.9,29.1c-1.3-0.2-1.5-1.1-3.6-1.1c-2.4,0-2,1.3-4.8,1.3s-2.5-1.3-4.9-1.3c-2.4,0-2.2,1.3-4.9,1.3
			c-2.7,0-2.5-1.3-4.8-1.3c-2.2,0-2.3,1-3.9,1.2v-4C0.6,25,0.7,24,2.9,24c2.4,0,2.1,1.3,4.8,1.3c2.7,0,2.5-1.3,4.9-1.3
			c2.4,0,2.1,1.3,4.9,1.3s2.5-1.3,4.8-1.3c2,0,2.3,0.9,3.6,1.1V29.1L25.9,29.1z"/>
		<path fill="#FFFFFF" d="M25.9,34.4c-1.3-0.3-1.5-1.1-3.6-1.1c-2.4,0-2,1.2-4.8,1.2s-2.5-1.2-4.9-1.2c-2.4,0-2.2,1.2-4.9,1.2
			c-2.7,0-2.5-1.2-4.8-1.2c-2.2,0-2.3,1-3.9,1.2v-4c1.6-0.1,1.7-1.2,3.9-1.2c2.4,0,2.1,1.2,4.8,1.2c2.7,0,2.5-1.2,4.9-1.2
			c2.4,0,2.1,1.2,4.9,1.2s2.5-1.2,4.8-1.2c2,0,2.3,0.9,3.6,1.1V34.4L25.9,34.4z"/>
	</g>
</g>
</svg>
