<?xml version="1.0" encoding="utf-8"?>
<!-- Generator: Adobe Illustrator 18.1.1, SVG Export Plug-In . SVG Version: 6.00 Build 0)  -->
<svg version="1.1" id="Ebene_1" xmlns="http://www.w3.org/2000/svg" xmlns:xlink="http://www.w3.org/1999/xlink" width="54" height="54">
<g>
	<g>
		<rect x="-1" y="-1.1" fill="#FFFFFF" width="54.4" height="54.6"/>
		<rect x="-1" y="-1.1" fill="#FFFFFF" width="54.4" height="54.6"/>
		<path fill="#212121" d="M21.4,12.7c1.8,0.5,4.6,1.6,5.1,1.9c-0.2,0.3-1.1,1.5-1.4,4.2c-0.9,0.5-1.2,0-1.2,0s-0.3,0-0.4,0.2
			c-0.7-0.4-0.6-1.1-1-0.6c-0.1,0.1-0.7-0.9-0.8-0.4c-0.5-0.1-0.5-0.7-0.6-0.8c-0.1,0-0.4,0.2-0.5,0.1c-0.1-0.3-0.3-0.6-0.4-0.7
			c-0.1,0-0.2,0.1-0.4,0c-0.2-0.1-0.4-0.6-0.5-0.7c-0.3,0.2-0.6-0.5-0.6-0.6c0,0.2-0.5,0.3-0.5,0c0.2-1.1-1.3-0.9-1.2-2
			c-1.9-0.2-1.7-4.2-2.1-4.2c-0.7-0.1-1.1,0-1.1,0s0-0.6,1-0.7C14.2,8,13.6,8,13.6,8s0.2-0.5,1.4-0.3c-0.3-0.7-0.9-1-0.9-1
			s0.7-0.3,1.5,0.4c-0.1-0.9-0.7-1.5-0.7-1.5s0.7-0.2,1.4,1.1c0.1-0.8-0.2-1.7-0.2-1.7s0.8,0.1,1.1,1.7c0.7,1,0.4,2.5,1.1,4.2
			C18.7,12,19.9,12.2,21.4,12.7"/>
		<path fill="#212121" d="M24.7,35.7c0.6-2.2,2.5-3.7,4.5-3.5c0.1-0.5,0.2-0.9,0.2-0.9c-1.2-2.8-1.8-3.1-1.8-3.1s-2.5-0.6-4.1,0.2
			c-0.3,0.2-2.6,1.8-2.2,1.9c0.7,0.2-0.3,0.7-0.5,1.2c-0.2,0.5,0.2,0.3,0.3,0.4c0,0.1-1,1.3-0.8,1.4c1,0.2-0.4,1.3-0.1,1.4
			c0.9,0.2-0.2,1.2,0.1,1.3c0.1,0,0.3,0.1,0.5,0.1c-0.1,0.2-0.3,0.7-0.3,1.3c0,0.3,0.3-0.2,0.4,0.1c-0.7,0.6,0.6,2.5,0.7,3.6
			c-0.5,0.1-0.4-0.6-0.8-0.8c-0.2,0.5-0.7,0.5-1.2,0.3c-0.5-0.1-1.2-0.4-1.8-0.5c-1.3-0.4-1.8,0.1-1.9,0.3c0,0,0.5,0.1,1.1,0.4
			c-1.1,0.1-1.3,0.8-1.3,0.8s0.6,0,1.2,0.1c-1.1,0.6-1,1.3-1,1.3s0.6-0.4,1.3-0.5c-0.3,0.3-0.6,0.9-0.4,1.4c0.3-0.3,0.7-0.5,0.9-0.6
			c-0.2,0.6-0.2,1.1,0.1,1.4c0.7-1.1,0.9-1,1.2-1c0.1,0,0.4,0.1,0.9,0.2c0.4,0,0.8,0,1.4,0.1c1.3,0.1,2.8,0.1,3.8-1
			C24.7,40.6,24.2,37.8,24.7,35.7"/>
		<path fill="#212121" d="M17.3,22.6c0.5-0.1,1.2,0.7,1.7,0.1c-1-0.5-2.1-2-3.1-2.2c-1.2-1.7-1.9-1.4-1.9-1.4s0.9,1.4,0.9,1.8
			c-1.6-0.9-2.1-0.3-2.1-0.3l1.5,1.1c0,0-1.4-0.2-1.8,0.5c0.8,0,1.6,0.3,1.6,0.5c-0.1,0-1.1,0.3-1.1,1c0.4-0.1,1.2-0.1,1.4,0.1
			c-0.3,0.3-1,0.9-0.6,1.6c0.5-0.3,0.8-0.7,1.2-0.8c0.5-0.4,2.1,0.7,2.2,0.8c0.1,0.1,2.9,1.6,3.4,0.4c0-0.1,1,0.4,1,0.2
			c0.2-0.7,0.2-0.5,0.5-0.3c0.2,0.1,0.4-0.2,0.7,0c0.1-0.8,1-0.1,1.3-0.7c0.5,0.1,0.8,0.2,0.7-0.4c0.6,0.4,0.7-0.1,1,0.1
			c0-0.6,0.7-0.4,0.9-0.4c2.1-0.1,2.4-1.6,2.5-1.9c0.2-0.4,0.4-0.4,0.3-0.2c-0.4,1.4-1.1,2.6-3.2,2.5c-0.1,0-0.2,0-0.2,0.1
			c0,0.1,0,0.1,0,0.4c0,0.6,1.4,2.3,2.2,3.6c1,1.7,1.4,2.5,1.2,2.9c-0.2,0.7-0.7,4.1-0.7,4.3c0,0.1,0.2,0.2,0.4,0.1
			c0.2,0.2-0.2,1.1,0.1,1.2c0.2-0.1,0.4-0.3,0.4-0.3s-0.4,1,0.2,1.5c0.1-0.3,0.3-0.5,0.3-0.5s-0.1,1,0.4,1.3c0-0.1,0-0.1,0.1-0.4
			c0.3,1.2,0.5,1.3,0.6,1.2c0.1-0.1-0.2-0.5,0.1-0.4c0.1,1,0.4,1,0.4,1s0,0,0.2-0.3c0.3,0.9,2.2,1.8,1.8,4c-0.1,0-0.2,0-0.3-0.1
			c0-0.2-0.2-0.7-0.2-0.7c-0.1-0.1-0.2-0.3-1.4-0.4c-1.2-0.1-1.8,0.5-1.8,0.5s-1.3-0.5-2.1,0.5c0.4-0.1,1.5,0.5,1.5,0.5
			s-1.1,0.3-1.2,1.4c0.8-0.4,1.5-0.3,1.5-0.3s-1,0.7-0.8,1.8c0.7-0.7,1.4-0.9,1.4-0.9s-0.6,1.1-0.1,1.8c0.3-0.4,0.7-1.2,1.1-1.1
			c0.1,1.1,0.8,1.5,0.8,1.4c0.1-0.1-0.2-1,0.5-1.6c1.1-0.3,3.7-0.8,4.7-3.2c-0.1-0.8-2.2-4.3-2.2-6.9c0-0.7,0.1-3.6,0.1-3.6
			s0.1-1.7-0.5-2.8c0.4,0,0.5,0.8,0.7,0.9c0.2,0.1,0.4-0.2,0.4-0.2l-0.1-0.6l0.4,0.5c0,0,0.4-0.8,0.1-1.8c-0.3-1-1.7-2.9-1.9-3.6
			c-0.1-0.5-0.4-2.2-0.5-2.9c-0.1-0.7-0.1-2.8-0.1-2.8s0.3,0,0.5,0.2c0.2-0.2-0.1-0.8,0-0.9c0.1,0.1,0.3,0.1,0.5,0.3
			c0.3-0.5,0-1,0-1.1c0.4,0.2,0.8,0.1,0.9,0c-0.2-0.2-0.4-1.2-0.4-1.3c0.2-0.1,0.6,0.3,0.7,0.2c-0.3-0.4-0.1-1-0.5-1.7
			c0.1-0.1,0.3,0.1,0.5-0.2c-0.8-1.3,0.2-2.5,0.1-3.4c-0.1-1.5-0.9-1.7-0.9-1.7s2.1,0,1.7-1.7c-0.4-1.7-1.5-0.6-2.3-1.1
			c-0.7-0.4-0.7-1.6-1.8-1.7c-1.6-0.1-3.7,1.1-4.9,1.1c-0.4,0-0.3,0.1-1.2-0.2c-0.2,1.3,0.2,1.4,0.1,1.7C26.5,8.9,26.6,9,26.6,9
			l0.1,0c0,0.2-0.1,0.6,0.2,1c0.3-0.5,0.4-0.8,0.5-1l0.1,0c0,0.2,0,0.7,0.2,1c0.3-0.3,0.5-0.8,0.5-1l0,0c0,0,0.8-0.1,1.3,0.2
			C30,9.6,30,10.6,30,10.6l-0.1,0.5c0,0-0.1,0.4-0.6,0.4c-0.2,0-2.4,0-2.4,0s-0.1,0.7,0.4,0.8c0.2,0,0.7,0,1.5,0.1
			c1.6,0.2,3.3,0.9,4.6-0.6c1.1-1.2,0.2-3.1,1.2-3.8c0.8-0.6,1.7-0.1,1.8,0.2c-1.2-0.5-1.5-0.1-1.6,0c-1,0.8,0.5,4.6-3.3,4.7
			c-1.3,0-2.7,0.1-3.3,0.8c-0.3,0.4-0.7,0.3-1.2,0.8c-1.3,1.4-1.4,3.2-1.5,4c-0.1,0.3,0.1,0.2,0.1,0.2s0.7-0.3,1.2-0.3
			c0.1,0,0.1,0.1,0.1,0.1s0,0.1-0.1,0.1C22.3,19.7,19.7,24.8,17.3,22.6"/>
		<path fill="#212121" d="M33.3,5.6c0.6-0.8,2.9-0.3,1.8,1.7C34.2,7.5,34.1,5.8,33.3,5.6"/>
		<path fill="#FFFFFF" d="M28.4,11.9L28.4,11.9L28.4,11.9z"/>
		<path fill="#EB5650" d="M23.7,9.9c0,0.1,0,0.3,0.1,0.4c0.2,0.4,0.7,0.7,1.5,0.9c0.5,0.1,1,0.1,1.6,0c0,0,1.3-0.3,1.6-0.3
			c0.2,0,1,0.1,1.3,0.1c0,0,0.1,0,0.1,0c0-0.1,0-0.2,0.1-0.3c0,0-0.1,0-0.1,0c-0.3-0.1-1.3-0.4-1.7-0.4c-0.3,0-0.6,0.1-1,0.1
			c-0.7,0.1-1.4,0.2-1.9,0.1c-0.6-0.1-1.1-0.8-1.4-1.1C23.7,9.5,23.7,9.7,23.7,9.9"/>
		<path fill="#EB5650" d="M26.9,29.3c0,0,0.7-0.2,1.6,0.2c0.1,0.2,0.4,0.7,0.6,1.1C28.7,30.2,26.9,29.3,26.9,29.3"/>
		<path fill="#EB5650" d="M12.8,22.1c0.4,0.1,1,0.2,1.3,0.4c0-0.2,0.1-0.5,0.1-0.6C14,21.8,13.2,21.7,12.8,22.1"/>
		<path fill="#EB5650" d="M13.3,23.5c0.3,0,0.8-0.1,1.1,0.1c0-0.1-0.1-0.1-0.1-0.2c-0.1-0.2-0.1-0.3-0.1-0.5
			C14.1,22.9,13.4,23.1,13.3,23.5"/>
		<path fill="#EB5650" d="M13.1,20.6c0.1,0.1,1.3,0.9,1.3,1c0.1-0.2,0.4-0.5,0.4-0.6C13.9,20.5,13.3,20.5,13.1,20.6"/>
		<path fill="#EB5650" d="M13.9,25.1c0.1-0.1,0.2-0.2,0.3-0.3c0.2-0.2,0.4-0.4,0.7-0.5c-0.1-0.2-0.3-0.3-0.4-0.5
			C14.4,24,13.7,24.7,13.9,25.1"/>
		<path fill="#EB5650" d="M15,20.5c0,0.1,0,0.2,0.1,0.2c0.1-0.1,0.5-0.3,0.7-0.3c-0.7-0.9-1.3-1.2-1.6-1.3
			C14.4,19.5,14.8,20.1,15,20.5"/>
		<path fill="#EB5650" d="M28.4,43.7c0.5,0.1,1.1,0.4,1.2,0.5c0,0,0.1,0,0.1,0.1c0,0,0,0,0,0c0-0.3,0.1-0.5,0.2-0.7
			C29.6,43.4,28.9,43.4,28.4,43.7"/>
		<path fill="#EB5650" d="M29.9,45.6L29.9,45.6c0,0-0.7,0.6-0.7,1.3c0.5-0.5,1-0.7,1.2-0.7c-0.1-0.1-0.2-0.2-0.2-0.3
			c0,0,0,0-0.1-0.2C30.1,45.6,30,45.5,29.9,45.6C30,45.5,30,45.5,29.9,45.6"/>
		<path fill="#EB5650" d="M29.6,44.5L29.6,44.5c0,0-0.8,0.2-1,1c0.7-0.3,1.3-0.2,1.3-0.2c0,0,0,0,0.1,0c-0.1-0.3-0.2-0.6-0.2-0.8
			C29.7,44.5,29.7,44.5,29.6,44.5"/>
		<path fill="#EB5650" d="M31.6,47C31.6,47,31.6,47,31.6,47c0.1,0.7,0.4,1.1,0.6,1.2c0-0.1,0-0.2,0-0.2c0-0.3,0-0.7,0.3-1.1
			C32.2,47.1,31.9,47.1,31.6,47"/>
		<path fill="#EB5650" d="M30.6,46.4c0,0-0.3,0.5-0.3,1c0,0.2,0,0.3,0.1,0.4c0.2-0.4,0.6-0.9,0.9-1C31,46.8,30.8,46.6,30.6,46.4
			L30.6,46.4L30.6,46.4z"/>
		<path fill="#EB5650" d="M17,6.7C17,6.7,17,6.7,17,6.7c-0.2-0.9-0.5-1.3-0.8-1.4c0.1,0.2,0.1,0.4,0.1,0.7c0,0.2,0,0.5,0,0.8l0,0.1
			C16.6,6.7,16.8,6.7,17,6.7"/>
		<path fill="#EB5650" d="M16.1,6.8c-0.4-0.7-0.8-0.9-1-1C15.3,6,15.6,6.5,15.7,7l0,0.1C15.8,7,16,6.9,16.2,6.9L16.1,6.8z"/>
		<path fill="#EB5650" d="M14.9,7.8c-0.6-0.1-0.9,0-1.1,0.1c0.3,0,0.6,0.1,0.9,0.4l0.1,0C14.9,8.1,15,8,15.1,7.8L14.9,7.8z"/>
		<path fill="#EB5650" d="M14.7,8.5C14.3,8.6,14,8.8,14,9c0.1,0,0.4,0,0.8,0C14.7,8.8,14.7,8.7,14.7,8.5L14.7,8.5z"/>
		<path fill="#EB5650" d="M15.5,7.3l-0.1-0.1c-0.4-0.3-0.7-0.4-1-0.4c0.5,0.3,0.7,0.9,0.8,0.9C15.2,7.6,15.4,7.4,15.5,7.3
			C15.5,7.3,15.5,7.3,15.5,7.3"/>
		<path fill="#EB5650" d="M17.6,42.6l-0.2,0.2C17.2,43,17,43.3,17,43.7c0,0,0,0.1,0,0.1c0.3-0.2,0.7-0.4,0.8-0.5l0.2-0.1
			C17.9,43,17.7,42.8,17.6,42.6"/>
		<path fill="#EB5650" d="M17.3,41.8l-0.2,0.1c-0.6,0.4-0.8,0.7-0.9,0.9c0.2-0.1,0.7-0.3,1.1-0.4l0.2,0c0,0,0,0,0-0.1
			C17.4,42.2,17.4,42,17.3,41.8"/>
		<path fill="#EB5650" d="M17.4,41l-0.3,0c-0.6,0-0.9,0.3-1,0.5c0.2,0,0.6,0,1,0.1l0.3,0.1C17.3,41.4,17.3,41.2,17.4,41"/>
		<path fill="#EB5650" d="M18,43.5c-0.1,0.3-0.1,0.5-0.1,0.7c0,0.1,0,0.3,0.1,0.4c0.4-0.6,0.7-0.8,0.9-0.9c-0.2-0.1-0.5-0.3-0.7-0.5
			L18,43.5z"/>
		<path fill="#EB5650" d="M16.2,40.3c0.2,0.1,0.5,0.2,0.9,0.4l0.3,0.1c0.1-0.2,0.1-0.5,0.3-0.6C16.9,40,16.5,40.2,16.2,40.3"/>
		<path fill="#EB5650" d="M34.9,9.5c0,0-0.1,0-0.1,0.1c0,0.1,0.1,0.1,0.1,0.1s0.6,0.2,0.7-0.6C35.5,9.5,34.9,9.5,34.9,9.5"/>
		<path fill="#EB5650" d="M35,9c0,0-0.2,0.1-0.2,0.2c0,0.1,0.1,0.1,0.1,0.1c0.2,0,0.8-0.4,0.5-0.5C35.3,8.6,35.3,9,35,9"/>
		<path fill="#EB5650" d="M32.3,6.6c-0.1-0.1-1.9,0.7-1.9,1.1c0,0,0,0.1,0.1,0.1c0.1,0,1-0.1,1.7-0.1c0.3,0,0.5,0.1,0.7,0.1
			c0.2,0.1,0.5,0.1,0.5,0c0-0.1-0.7-0.3-1-0.3c-0.5-0.1-1.6,0.1-1.6,0.1S32.3,6.7,32.3,6.6"/>
		<path fill="#FFFFFF" d="M17.4,11.7c0.2-1.6-0.8-3-0.9-4.3c-0.2,0.9,0.3,1.9,0.5,2.9c0.3,1.1,0.3,2-0.3,2c-0.1,0-0.1,0.1,0,0.1
			C17.2,12.4,17.3,12.1,17.4,11.7"/>
		<path fill="#FFFFFF" d="M32.1,8c0.1,0.1,0.1,0.1,0.1,0.2c0,0.2-0.1,0.3-0.3,0.3c-0.2,0-0.3-0.1-0.3-0.3c0-0.1,0.1-0.2,0.1-0.3
			c-0.3,0.1-0.5,0.3-0.5,0.4c0,0.1,0.3,0.4,0.6,0.4c0.3,0,0.6-0.3,0.6-0.4C32.5,8.2,32.3,8,32.1,8"/>
		<path fill="#100B0E" d="M27.1,10.9c-0.1,0.1-0.1,0.3-0.1,0.5c0,0.2,0.1,0.4,0.2,0.6l0,0h0.6l-0.1-0.2c-0.1-0.1-0.1-0.3-0.2-0.5
			c-0.1-0.2-0.1-0.4-0.3-0.5l-0.1-0.1L27.1,10.9z"/>
		<path fill="#100B0E" d="M27.9,10.9c-0.1,0.1-0.1,0.4-0.1,0.7c0,0.1,0,0.2,0,0.4l0,0.1l0.3,0c0,0,0.3,0,0.3,0l0.2,0l-0.1-0.2
			c-0.1-0.1-0.1-0.3-0.2-0.4c-0.1-0.2-0.2-0.4-0.3-0.5L28,10.7L27.9,10.9z"/>
		<path fill="#FFFFFF" d="M26.8,9.3c0,0.1,0,0.3,0.1,0.5c0.2-0.3,0.3-0.6,0.3-0.7c-0.1,0-0.3,0-0.4,0C26.9,9.1,26.8,9.2,26.8,9.3"/>
		<path fill="#FFFFFF" d="M27.7,9.2c0,0.2,0,0.4,0.1,0.6C28,9.5,28,9.2,28.1,9.1c-0.1,0-0.3,0-0.4,0C27.7,9.1,27.7,9.1,27.7,9.2"/>
		<path fill="#FFFFFF" d="M27.4,11.5c-0.1-0.2-0.1-0.4-0.2-0.5c-0.1,0.1-0.1,0.3-0.1,0.5c0,0,0,0,0,0.1
			C27.1,11.5,27.3,11.5,27.4,11.5C27.4,11.5,27.4,11.5,27.4,11.5"/>
		<path fill="#FFFFFF" d="M28.2,11.5c-0.1-0.2-0.1-0.4-0.2-0.5c0,0.1-0.1,0.3-0.1,0.6C28,11.5,28.1,11.5,28.2,11.5
			C28.2,11.5,28.2,11.5,28.2,11.5"/>
	</g>
</g>
</svg>
