<?xml version="1.0" encoding="utf-8"?>
<!-- Generator: Adobe Illustrator 18.1.1, SVG Export Plug-In . SVG Version: 6.00 Build 0)  -->
<svg version="1.1" id="Ebene_1" xmlns="http://www.w3.org/2000/svg" xmlns:xlink="http://www.w3.org/1999/xlink" width="54" height="54">
<g>
	<g>
		<rect x="-1" y="-1.1" fill="#FFFFFF" width="54.4" height="54.6"/>
		<rect x="-1" y="-1.1" fill="#FFFFFF" width="54.4" height="54.6"/>
		<path fill="#212121" d="M19.3,13c1.7,0.5,4.5,1.5,5,1.8c-0.2,0.3-1.1,1.5-1.3,4.1c-0.8,0.5-1.1,0-1.1,0s-0.3,0-0.4,0.2
			c-0.7-0.4-0.6-1-1-0.6c-0.1,0.1-0.6-0.9-0.8-0.4c-0.5-0.1-0.5-0.7-0.6-0.7c-0.1,0-0.4,0.2-0.5,0.1c-0.1-0.3-0.3-0.6-0.3-0.6
			c0,0-0.2,0.1-0.4,0c-0.2-0.1-0.4-0.6-0.5-0.7c-0.3,0.2-0.6-0.5-0.6-0.5c0,0.2-0.5,0.3-0.5,0c0.2-1.1-1.3-0.9-1.2-1.9
			c-1.8-0.2-1.7-4.1-2-4.1c-0.7-0.1-1.1,0-1.1,0s0-0.6,0.9-0.7c-0.5-0.3-1.1-0.4-1.1-0.4S12,8,13.1,8.1c-0.3-0.6-0.9-0.9-0.9-0.9
			s0.7-0.2,1.4,0.4C13.6,6.8,13,6.2,13,6.2s0.7-0.2,1.4,1.1c0.1-0.8-0.2-1.6-0.2-1.6s0.7,0.1,1.1,1.7c0.7,0.9,0.3,2.4,1.1,4.1
			C16.7,12.3,17.9,12.6,19.3,13"/>
		<path fill="#212121" d="M22.6,35.5c0.6-2.1,2.4-3.6,4.4-3.4c0.1-0.4,0.2-0.8,0.2-0.9c-1.1-2.7-1.8-3-1.8-3s-2.5-0.6-4,0.2
			c-0.3,0.2-2.5,1.8-2.1,1.9c0.7,0.2-0.3,0.7-0.4,1.1c-0.2,0.4,0.2,0.3,0.3,0.4c0,0.1-1,1.3-0.7,1.3c1,0.2-0.4,1.3-0.1,1.4
			c0.8,0.2-0.2,1.2,0.1,1.2c0.1,0,0.3,0.1,0.5,0.1c-0.1,0.2-0.3,0.7-0.3,1.3c0,0.3,0.3-0.2,0.4,0.1c-0.7,0.6,0.6,2.4,0.7,3.5
			c-0.5,0.1-0.4-0.6-0.8-0.8c-0.2,0.4-0.7,0.4-1.2,0.3c-0.5-0.1-1.1-0.4-1.7-0.4c-1.2-0.4-1.8,0.1-1.9,0.3c0,0,0.5,0.1,1.1,0.4
			c-1.1,0.1-1.2,0.8-1.2,0.8s0.5,0,1.2,0.1c-1.1,0.6-0.9,1.3-0.9,1.3s0.6-0.4,1.2-0.5c-0.3,0.3-0.6,0.9-0.4,1.4
			c0.2-0.3,0.7-0.5,0.9-0.6c-0.2,0.6-0.2,1,0.1,1.3c0.7-1.1,0.9-1,1.1-1c0.1,0,0.4,0.1,0.8,0.2c0.4,0,0.8,0,1.3,0.1
			c1.3,0.1,2.7,0.1,3.7-1C22.6,40.2,22.1,37.5,22.6,35.5"/>
		<path fill="#212121" d="M15.4,22.7c0.5-0.1,1.2,0.7,1.7,0.1c-1-0.4-2-2-3-2.2c-1.2-1.6-1.9-1.4-1.9-1.4s0.9,1.4,0.9,1.7
			c-1.5-0.8-2-0.3-2-0.3l1.5,1.1c0,0-1.3-0.2-1.7,0.5c0.8,0,1.5,0.3,1.6,0.5c-0.1,0-1.1,0.3-1.1,0.9c0.4-0.1,1.1-0.1,1.3,0.1
			c-0.3,0.3-1,0.9-0.6,1.5c0.5-0.3,0.7-0.7,1.2-0.8c0.5-0.4,2,0.7,2.1,0.8c0.1,0.1,2.8,1.6,3.3,0.4c0-0.1,0.9,0.4,1,0.2
			c0.2-0.7,0.2-0.5,0.5-0.3c0.2,0.1,0.4-0.2,0.7,0c0.1-0.7,1-0.1,1.2-0.7c0.5,0.1,0.8,0.2,0.7-0.4c0.6,0.4,0.7-0.1,1,0.1
			c0-0.6,0.6-0.4,0.9-0.4c2-0.1,2.3-1.6,2.4-1.8c0.2-0.4,0.4-0.4,0.3-0.1c-0.3,1.4-1.1,2.5-3.1,2.4c-0.1,0-0.2,0-0.2,0.1
			c0,0.1,0,0.1,0,0.4c0,0.6,1.4,2.2,2.1,3.5c1,1.6,1.3,2.5,1.2,2.9c-0.2,0.6-0.7,4-0.7,4.1c0,0.1,0.2,0.2,0.3,0.1
			c0.2,0.2-0.2,1.1,0.1,1.1c0.2-0.1,0.4-0.2,0.4-0.2s-0.4,1,0.2,1.5c0.1-0.3,0.3-0.5,0.3-0.5s-0.1,1,0.4,1.2c0-0.1,0-0.1,0.1-0.4
			c0.3,1.2,0.5,1.3,0.6,1.2c0.1-0.1-0.2-0.5,0.1-0.4c0.1,1,0.4,1,0.4,1s0,0,0.2-0.3c0.3,0.9,2.1,1.8,1.8,3.9c-0.1,0-0.2,0-0.3-0.1
			c0-0.2-0.2-0.6-0.2-0.7c-0.1-0.1-0.2-0.3-1.4-0.4c-1.2-0.1-1.8,0.5-1.8,0.5s-1.3-0.4-2,0.5c0.4-0.1,1.4,0.5,1.4,0.5
			s-1,0.3-1.2,1.3c0.7-0.4,1.5-0.3,1.5-0.3s-0.9,0.7-0.7,1.7c0.7-0.7,1.3-0.9,1.3-0.9s-0.6,1.1-0.1,1.8c0.3-0.4,0.7-1.2,1.1-1.1
			c0.1,1.1,0.7,1.4,0.8,1.4c0.1-0.1-0.2-1,0.4-1.5c1-0.2,3.6-0.7,4.5-3.1c-0.1-0.7-2.2-4.2-2.1-6.7c0-0.7,0.1-3.5,0.1-3.5
			s0.1-1.6-0.5-2.7c0.4,0,0.5,0.7,0.7,0.9c0.2,0.1,0.4-0.2,0.4-0.2l-0.1-0.6l0.4,0.5c0,0,0.3-0.8,0.1-1.7c-0.3-1-1.7-2.8-1.8-3.5
			c-0.1-0.4-0.4-2.1-0.5-2.8c-0.1-0.7-0.1-2.8-0.1-2.8s0.3,0,0.5,0.2c0.1-0.2-0.1-0.8,0-0.9c0.1,0.1,0.3,0.1,0.5,0.3
			c0.2-0.5,0-1,0-1.1c0.4,0.2,0.8,0.1,0.9,0c-0.2-0.2-0.4-1.1-0.4-1.3c0.2-0.1,0.6,0.3,0.7,0.2c-0.2-0.4-0.1-1-0.5-1.7
			c0.1-0.1,0.3,0.1,0.5-0.2c-0.8-1.2,0.2-2.5,0.1-3.4c-0.1-1.5-0.9-1.7-0.9-1.7s2.1,0,1.6-1.7c-0.4-1.7-1.5-0.6-2.2-1
			c-0.7-0.4-0.7-1.6-1.8-1.7c-1.5-0.1-3.6,1.1-4.8,1.1c-0.4,0-0.3,0.1-1.2-0.2c-0.2,1.3,0.2,1.4,0.1,1.7c-0.2,0.6-0.2,0.7-0.2,0.7
			l0.1,0c0,0.2-0.1,0.6,0.2,1c0.3-0.5,0.4-0.8,0.5-1l0.1,0c0,0.2,0,0.7,0.2,1c0.3-0.3,0.4-0.8,0.5-1l0,0c0,0,0.7-0.1,1.2,0.2
			c0.5,0.3,0.5,1.3,0.5,1.3l-0.1,0.5c0,0-0.1,0.4-0.6,0.4c-0.2,0-2.3,0-2.3,0s-0.1,0.7,0.4,0.8c0.2,0,0.7,0,1.4,0.1
			c1.5,0.2,3.2,0.8,4.5-0.5c1.1-1.2,0.2-3,1.2-3.7C33,7.8,33.9,8.4,34,8.6c-1.2-0.5-1.4-0.1-1.6,0c-1,0.7,0.5,4.5-3.2,4.6
			c-1.3,0-2.6,0.1-3.2,0.8c-0.3,0.4-0.7,0.3-1.1,0.8c-1.3,1.3-1.3,3.1-1.5,3.9c-0.1,0.3,0.1,0.2,0.1,0.2s0.7-0.2,1.2-0.3
			c0.1,0,0.1,0,0.1,0s0,0.1-0.1,0.1C20.3,19.9,17.7,24.8,15.4,22.7"/>
		<path fill="#212121" d="M31,6.2c0.6-0.8,2.8-0.3,1.8,1.6C31.9,8,31.8,6.3,31,6.2"/>
		<path fill="#FFFFFF" d="M26.2,12.3L26.2,12.3L26.2,12.3z"/>
		<path fill="#EB5650" d="M21.6,10.3c0,0.1,0,0.3,0.1,0.4c0.2,0.4,0.7,0.7,1.5,0.9c0.5,0.1,1,0.1,1.6,0c0,0,1.2-0.3,1.5-0.3
			c0.2,0,1,0.1,1.3,0.1c0,0,0.1,0,0.1,0c0-0.1,0-0.2,0.1-0.3c0,0-0.1,0-0.1,0c-0.3-0.1-1.3-0.4-1.7-0.4c-0.3,0-0.6,0.1-1,0.1
			c-0.6,0.1-1.3,0.2-1.8,0.1c-0.6-0.1-1.1-0.8-1.4-1.1C21.7,9.9,21.6,10.1,21.6,10.3"/>
		<path fill="#EB5650" d="M24.7,29.3c0,0,0.6-0.2,1.6,0.2c0.1,0.2,0.4,0.6,0.5,1.1C26.5,30.1,24.7,29.3,24.7,29.3"/>
		<path fill="#EB5650" d="M11,22.2c0.4,0.1,1,0.2,1.3,0.4c0-0.2,0.1-0.5,0.1-0.6C12.1,21.9,11.4,21.9,11,22.2"/>
		<path fill="#EB5650" d="M11.5,23.6c0.3,0,0.8-0.1,1.1,0.1c0-0.1-0.1-0.1-0.1-0.2c-0.1-0.2-0.1-0.3-0.1-0.5
			C12.2,23,11.6,23.2,11.5,23.6"/>
		<path fill="#EB5650" d="M11.2,20.7c0.1,0.1,1.2,0.9,1.3,0.9c0.1-0.2,0.3-0.5,0.4-0.6C12,20.6,11.5,20.6,11.2,20.7"/>
		<path fill="#EB5650" d="M12,25.2c0.1-0.1,0.2-0.2,0.3-0.3c0.2-0.2,0.4-0.4,0.7-0.5c-0.1-0.1-0.2-0.3-0.4-0.5
			C12.5,24.1,11.9,24.7,12,25.2"/>
		<path fill="#EB5650" d="M13.1,20.7c0,0.1,0,0.2,0.1,0.2c0.1-0.1,0.5-0.2,0.7-0.3c-0.7-0.9-1.2-1.2-1.5-1.2
			C12.6,19.7,12.9,20.3,13.1,20.7"/>
		<path fill="#EB5650" d="M26.2,43.3c0.5,0.1,1.1,0.4,1.1,0.5c0,0,0.1,0,0.1,0.1c0,0,0,0,0,0c0-0.3,0.1-0.5,0.2-0.7
			C27.3,43,26.7,42.9,26.2,43.3"/>
		<path fill="#EB5650" d="M27.7,45.1L27.7,45.1c0,0-0.7,0.5-0.7,1.3c0.5-0.5,1-0.7,1.1-0.7c-0.1-0.1-0.1-0.2-0.2-0.3
			c0,0,0,0-0.1-0.2C27.8,45.1,27.8,45.1,27.7,45.1C27.7,45,27.7,45.1,27.7,45.1"/>
		<path fill="#EB5650" d="M27.3,44L27.3,44c0,0-0.8,0.2-1,0.9c0.7-0.3,1.3-0.2,1.3-0.2c0,0,0,0,0.1,0c-0.1-0.3-0.2-0.5-0.2-0.8
			C27.5,44,27.4,44,27.3,44"/>
		<path fill="#EB5650" d="M29.3,46.5C29.3,46.5,29.3,46.5,29.3,46.5c0.1,0.7,0.4,1.1,0.6,1.2c0-0.1,0-0.2,0-0.2c0-0.3,0-0.7,0.3-1.1
			C29.9,46.5,29.6,46.6,29.3,46.5"/>
		<path fill="#EB5650" d="M28.3,45.9c0,0-0.3,0.5-0.3,1c0,0.2,0,0.3,0.1,0.4c0.2-0.4,0.6-0.9,0.9-1C28.8,46.3,28.5,46.1,28.3,45.9
			L28.3,45.9L28.3,45.9z"/>
		<path fill="#EB5650" d="M15.1,7.2C15.1,7.2,15.1,7.2,15.1,7.2c-0.2-0.9-0.5-1.2-0.8-1.4c0.1,0.2,0.1,0.4,0.1,0.7
			c0,0.2,0,0.5,0,0.8l0,0.1C14.7,7.2,14.9,7.2,15.1,7.2"/>
		<path fill="#EB5650" d="M14.2,7.3c-0.4-0.7-0.8-0.9-1-1c0.2,0.3,0.5,0.7,0.5,1.3l0,0.1c0.2-0.1,0.3-0.2,0.5-0.3L14.2,7.3z"/>
		<path fill="#EB5650" d="M13.1,8.2c-0.6-0.1-0.9,0-1.1,0.1c0.3,0,0.6,0.1,0.9,0.3l0.1,0c0.1-0.2,0.1-0.3,0.2-0.5L13.1,8.2z"/>
		<path fill="#EB5650" d="M12.9,9c-0.5,0.1-0.7,0.3-0.8,0.4c0.1,0,0.4,0,0.7,0C12.8,9.3,12.9,9.1,12.9,9L12.9,9z"/>
		<path fill="#EB5650" d="M13.7,7.8l-0.1-0.1c-0.4-0.3-0.7-0.4-1-0.4c0.5,0.3,0.7,0.8,0.7,0.9C13.3,8.1,13.5,7.9,13.7,7.8
			C13.6,7.8,13.6,7.8,13.7,7.8"/>
		<path fill="#EB5650" d="M15.7,42.2l-0.2,0.2c-0.2,0.2-0.4,0.6-0.4,0.9c0,0,0,0.1,0,0.1c0.3-0.2,0.7-0.4,0.8-0.5l0.2-0.1
			C15.9,42.6,15.8,42.4,15.7,42.2"/>
		<path fill="#EB5650" d="M15.4,41.4l-0.2,0.1c-0.6,0.3-0.8,0.7-0.8,0.9c0.2-0.1,0.6-0.3,1.1-0.3l0.2,0c0,0,0,0,0-0.1
			C15.5,41.8,15.4,41.6,15.4,41.4"/>
		<path fill="#EB5650" d="M15.4,40.6l-0.3,0c-0.6,0-0.9,0.3-1,0.5c0.2,0,0.6,0,1,0.1l0.3,0.1C15.4,41.1,15.4,40.8,15.4,40.6"/>
		<path fill="#EB5650" d="M16,43.1c-0.1,0.2-0.1,0.5-0.1,0.6c0,0.1,0,0.3,0.1,0.4c0.4-0.6,0.6-0.8,0.8-0.8c-0.2-0.1-0.5-0.3-0.7-0.4
			L16,43.1z"/>
		<path fill="#EB5650" d="M14.3,40c0.2,0.1,0.5,0.2,0.9,0.4l0.3,0.1c0.1-0.2,0.1-0.4,0.2-0.6C15,39.7,14.5,39.8,14.3,40"/>
		<path fill="#EB5650" d="M32.5,9.9c0,0-0.1,0-0.1,0.1c0,0.1,0.1,0.1,0.1,0.1s0.6,0.2,0.7-0.5C33.1,10,32.5,9.9,32.5,9.9"/>
		<path fill="#EB5650" d="M32.6,9.4c0,0-0.2,0.1-0.2,0.2c0,0.1,0.1,0.1,0.1,0.1c0.2,0,0.7-0.4,0.5-0.5C32.9,9.1,32.9,9.4,32.6,9.4"
			/>
		<path fill="#EB5650" d="M29.9,7.1c-0.1-0.1-1.9,0.7-1.9,1c0,0,0,0.1,0.1,0.1c0.1,0,1-0.1,1.6-0.1c0.3,0,0.5,0.1,0.6,0.1
			c0.2,0.1,0.4,0,0.5,0C30.9,8.2,30.3,8,30,8c-0.5-0.1-1.6,0.1-1.6,0.1S30,7.2,29.9,7.1"/>
		<path fill="#FFFFFF" d="M15.4,12.1c0.2-1.6-0.8-3-0.9-4.2c-0.2,0.9,0.3,1.9,0.5,2.8c0.3,1,0.3,1.9-0.3,1.9c-0.1,0-0.1,0.1,0,0.1
			C15.3,12.8,15.4,12.5,15.4,12.1"/>
		<path fill="#FFFFFF" d="M29.8,8.4c0.1,0.1,0.1,0.1,0.1,0.2c0,0.2-0.1,0.3-0.3,0.3c-0.2,0-0.3-0.1-0.3-0.3c0-0.1,0.1-0.2,0.1-0.3
			C29.2,8.5,29,8.7,29,8.8c0,0.1,0.3,0.4,0.6,0.4c0.3,0,0.6-0.3,0.6-0.4C30.2,8.7,30,8.5,29.8,8.4"/>
		<path fill="#100B0E" d="M24.9,11.3c-0.1,0.1-0.1,0.3-0.1,0.5c0,0.2,0.1,0.4,0.2,0.6l0,0h0.6l-0.1-0.2c-0.1-0.1-0.1-0.3-0.2-0.4
			c-0.1-0.2-0.1-0.4-0.2-0.5L25,11.2L24.9,11.3z"/>
		<path fill="#100B0E" d="M25.7,11.3c-0.1,0.1-0.1,0.3-0.1,0.6c0,0.1,0,0.2,0,0.4l0,0.1l0.3,0c0,0,0.3,0,0.3,0l0.2,0l-0.1-0.2
			c-0.1-0.1-0.1-0.2-0.2-0.4c-0.1-0.2-0.1-0.4-0.2-0.5l-0.1-0.2L25.7,11.3z"/>
		<path fill="#FFFFFF" d="M24.7,9.7c0,0.1,0,0.3,0.1,0.5c0.2-0.3,0.3-0.5,0.3-0.7c-0.1,0-0.3,0-0.4,0C24.7,9.6,24.7,9.6,24.7,9.7"/>
		<path fill="#FFFFFF" d="M25.5,9.6c0,0.2,0,0.4,0.1,0.6c0.2-0.2,0.3-0.5,0.3-0.7c-0.1,0-0.3,0-0.4,0C25.5,9.5,25.5,9.6,25.5,9.6"/>
		<path fill="#FFFFFF" d="M25.2,11.8c-0.1-0.2-0.1-0.4-0.2-0.5c-0.1,0.1-0.1,0.3-0.1,0.5c0,0,0,0,0,0.1C25,11.9,25.1,11.9,25.2,11.8
			C25.2,11.9,25.2,11.9,25.2,11.8"/>
		<path fill="#FFFFFF" d="M26,11.8c-0.1-0.2-0.1-0.4-0.2-0.5c0,0.1-0.1,0.3-0.1,0.6C25.8,11.9,25.9,11.9,26,11.8
			C26,11.9,26,11.9,26,11.8"/>
		<path fill="#212121" d="M4,27.2v0.1c0,0,1.4,0.2,2,1.1s5.4,11.7,5.3,12.1c0.1,0,0.1,0,0.1,0l5.3-11.8c0,0,0.5-1.2,1.8-1.2
			c0.3,0,0.5,0,0.5,0v-0.1l-4.8,0v0.1h0.5c0,0,1.4,0,0.9,1.5c-0.5,1.5-3.4,8.9-3.4,8.9s-3.7-8.4-3.9-9.4c-0.1-1,1.3-1,1.3-1H10v-0.1
			L4,27.2z"/>
		<path fill="#212121" d="M40.1,39.9c0,0-1.1-0.2-1.2-0.8c-0.1-0.6-0.1-5.4-0.1-5.4s0.1-0.1,0.2-0.1c0.1,0,0.2,0.2,0.2,0.2
			s3.8,5.9,7,6.2c0.3,0,0.8-0.1,1.1-0.2c-3.4-2.3-5.4-5.2-5.7-5.7c-0.3-0.4,0.1-0.5,0.2-0.5c3.5-0.1,3.8-2.8,3.8-3.1
			c0.1-1.5-1.2-2.3-2-2.5c-0.8-0.3-2.7-0.3-2.7-0.3l-2.5,0.1h-0.7l-1.8-0.2c0,0-0.1,0-0.1,0c0,0,0,0.1,0,0.1
			c0.1,0.2,1.2,0.4,1.2,0.7c0.2,0.6,0,10.6,0,10.6s-0.2,1-1.5,1.1c0,0,0,0.1,0,0.1h4.7L40.1,39.9L40.1,39.9z"/>
		<path fill="#FFFFFF" d="M43.4,30.4c0,0,0.2,0.5-0.2,1.4c-0.4,1-2,1.3-2,1.3s-1.7,0.2-2.2,0.1c-0.3-0.6-0.1-4.9-0.1-4.9
			s0.5-0.3,1.8-0.4C43,27.8,43.4,30.4,43.4,30.4"/>
	</g>
</g>
</svg>
