<?xml version="1.0" encoding="utf-8"?>
<!-- Generator: Adobe Illustrator 18.1.1, SVG Export Plug-In . SVG Version: 6.00 Build 0)  -->
<svg version="1.1" id="Ebene_1" xmlns="http://www.w3.org/2000/svg" xmlns:xlink="http://www.w3.org/1999/xlink" width="54" height="54">
<g>
	<g>
		<rect x="-0.7" y="-0.7" fill="#EB5650" width="53.7" height="53.9"/>
		<polygon fill="#FCCF3E" points="-6,19.8 45.6,55 61.6,31.9 10,-3.3 		"/>
		<path fill="#212121" d="M44.4,24.7c-0.3-0.7-2.9-3.6-6.1-5.6c-1.4-0.9-5.9-3.6-9.6-4.5c-0.4-0.1-0.7-0.3-1.2-0.2
			c-0.2,0-0.4-0.2-0.1-0.4c0.2-0.1,0.3-0.2,1.2-0.1c-0.7-0.5-0.9-0.5-2-0.5c0.3-0.5,1.6-0.4,1.6-0.4s-0.6-0.4-2.4-0.3
			c0.4-0.3,1.1-0.4,1.1-0.4s-1-0.5-2.1,0c-0.1,0-0.2,0.1-0.4,0.1c-0.2,0-0.8-0.1-0.8-0.1c-0.1,0-0.4-0.1-0.4-0.4
			c0-0.3,0.3-0.3,0.4-0.3c0.1,0,0.9,0.1,1.1-0.3C24.7,11,25,10,24.3,9.6c-1-0.5-1.6-0.1-1.7-0.1c-0.2,0-0.4-0.1-0.4-0.1
			s-0.8-0.9-1-1.1c-0.3-0.2-1-0.6-1.6-0.7c-0.1,0-0.3-0.1-0.4-0.1c-0.1-0.1-0.5-0.2-0.7-0.2c-0.2,0-0.6-0.1-0.8,0.3
			c-0.1,0.2-0.3,0.2-0.5,0.3c-0.3,0-1,0-1,0s-1,0-1.3-0.3c-0.1-0.1-0.6-0.5-0.7-0.7c-0.1-0.2-0.3-0.1-0.3,0c0.1,0.3,0,0.8-0.3,1.1
			c-0.3,0.4-0.7,0.7-0.8,0.8c-0.1,0.1-0.2,0.5,0,0.6c0.2,0.2,0.4,0.3,0.4,0.3s-0.2,1-0.2,1.3c-0.2-0.1-0.6-0.3-0.8-0.5
			c-1.4-1.3-1.5-2.7-1.8-2.7c-0.3-0.1-0.8,1.5,0,2.7c0.9,1.3,2.8,1.7,2.8,1.7s-0.3,0.4-0.3,0.9c-0.3,0.2-0.4,0.3-0.4,0.3
			s0,0.2,0.2,0.4c5.8,0.1,9.8,6,8.5,12.5c-0.2,0.9-0.9,2.5-1.2,3.2c-0.3,0.7-0.4,1.8-0.4,1.8s-0.1,0.3-0.3,0.3
			c-0.2,0-0.2-0.2-0.2-0.3c0-0.1-0.1-0.6,0-1c0.1-0.3-0.1-0.6-0.1-0.6s0.5-1-0.6-1.9c0.2,1.2-0.2,1.4-0.2,1.4s-0.4-1.6-1.9-1.6
			c0.6,0.6,0.7,1.4,0.7,1.5c-0.2-0.4-1.6-1.5-2.5-0.1c1.5,0.2,1.7,0.7,1.7,0.7s-1.7-0.7-2.5,1c0.8-0.2,1.7,0,1.7,0s-1.1,0.2-1.1,1.1
			c0.6-0.3,1.5,0,1.5,0s0,0,0,0.1c0.1,0.1,0.7,1.1,1.3,1.4c0.5,0.3,3.7,0.4,5-0.2c0.3-0.1,0.4-0.1,0.5-0.5c0.5-1.4,2-4.4,3.2-6.7
			c0.8-1.5,1.6-2.7,1.6-2.8c0-0.2-0.7-1.2-0.8-1.3c-0.1-0.1,0.1-0.2,0.1-0.2s0.8,0.5,1.1,0.9c0.3,0.4,0.2,0.6,0.1,0.8
			c-0.1,0.2-0.7,1.8-0.7,1.8s6.4,0.3,7.9,1c-1.6,0.1-2.3,0.2-3,0.3c-1.2,0.2-2.3,1.5-2.2,1.9c0.4,1.7,0.4,5.7,0.4,6
			c0,0.3,0.4,0.5,0.6,0.5c0.2,0,1,0.1,1.1,0.2c0.1,0.1,0,0.2,0,0.2s-0.2,0.1-0.5,0.1c-0.3,0-2-0.6-2.3-1c-0.3-0.4-0.5-0.6-0.5-0.6
			s0.3-1.6-1.3-1.5c0.5,0.8,0.1,1.2,0.1,1.2s-0.6-1.2-2.5-0.7c1.3,0.6,1.3,0.9,1.3,0.9s-1-0.5-2.2,0.5c1.4,0.1,1.6,0.7,1.6,0.7
			s-1.7-0.3-2.1,1.4c1.2-0.7,1.9-0.3,1.9-0.3s-1.8,0.5-1.4,2.1c0.7-0.7,1.6-0.8,1.6-0.8l0,0.1c0,0,0.4,0.2,0.8,0.2
			c0.4,0,0.5,0,0.4-0.3c0-0.2,0-0.5,0.1-0.5c0-0.1,0.1-0.1,0.1-0.1s0.1,0,0.1,0.1c0.1,0.3-0.2,0.5,0.1,0.8c0.3,0.3,0.7,0.3,0.8,0.3
			c0.1,0.1,0.9,0.2,0.9,0.2s1.9,0.3,2.5,0c0.5-0.2,1.8-1,2.2-1.6c0.2-0.3,0.3-0.7,0.3-1.1c0.2-1.6,0.8-3.4,1.9-4.3
			c0.1-0.1,0.3-0.1,0.4-0.2c0.1-0.1,0.2-0.1,0.3-0.2c0-0.3-0.4-2.9-0.4-3.8c0-1.7-1.2-3.3-1.2-3.3s0-0.1,0.1-0.1
			c0.1,0,0.3,0.1,0.3,0.1s0.7,0.3,1.1,3.4c0.4,3.1,0.2,5.7,0.8,6.9c0.2,0.4,0.9,1.8,1.6,3.2c0.5,1.1,0.9,2.3,1.1,2.7
			c0.5,1,0,2.3-0.2,2.5c-0.2,0.1-0.2,0-0.3,0c-0.1,0,0-0.5,0-0.5s0.2-0.2,0-0.7c-0.2-0.4-1.4-0.8-1.4-0.8s-0.2-0.1-0.3-0.2
			c0.2-1.2-1.7-1.5-1.7-1.5s0.5,0.9,0.4,1.7c-1.4-1.2-2.6-0.1-2.6-0.1s1.1,0.2,1.5,1.2c-1.9-0.6-2.2,0.9-2.2,0.9s0.8-0.3,1.6,0.4
			c-1.8,0.1-1.6,1.5-1.6,1.5s0.5-0.6,1.9-0.1c0,0-1.2,0.9-0.5,2.3c0.2-0.4,0.6-0.9,1.1-1.1c0,0.1,0.1,0.1,0.1,0.1
			c0,0,1.1-0.4,1.7-0.4c0.6,0,1,0,1.8-0.1c0.7,0,1.2-0.4,1.5-0.6c0.4-0.2,1.9-1.6,2.2-1.9c0.4-0.3,0.5-0.8,0.5-0.8s0.3-1,0.5-2.7
			c0.2-1.7,0.5-4.5,0.5-6c0-2.1-1.1-6.9-1.1-6.9s0-0.2,0.1-0.2c0.1,0,0.1,0,0.2,0.3c0.1,0.2,0.3,1.5,0.5,1.7
			c0.1,0.1,0.2,0.3,0.6,0.2c0.4-0.1,0.4-0.6,0.5-1C45.2,26.1,44.7,25.4,44.4,24.7 M14.2,10C14.2,10,14.3,10,14.2,10
			c0.1,0,0,0.9,0.1,1.3c-0.5-0.2-0.9-0.4-0.9-0.4S13.8,10.1,14.2,10 M14.1,12.9c0,0-0.1,0-0.2,0c-0.4-0.3-0.4-0.9-0.4-0.9
			s0.9,0.3,1,0.3C14.4,12.5,14.1,12.7,14.1,12.9 M15.1,13.1c-0.1,0-0.3-0.3-0.3-0.4c0-0.2,0-0.3,0-0.3s1.2,0.4,1.6,1.1
			C15.8,13.3,15.2,13.2,15.1,13.1 M14.4,11.3c0,0,0.4-0.7,0.8-0.8c1.2,0.7,1.7,1.8,1.9,2.6C16.4,12.2,14.4,11.3,14.4,11.3"/>
		<path fill="#212121" d="M14,22.1c1.5-0.4,3.2-2,4.3-3c0.7-0.6,1.1-0.9,1.2-1c0.2,0.2,0.9,1.5,1.3,2.8c0.3,1,0.2,2,0.2,2.3
			c-0.1,0.9-0.7,1-0.7,1s-3.6,1-4.3,1c-0.3,0-2.5,0.4-3.1,0.3c-1.7-0.2-2-1-2-1L10.1,23c0,0-0.1-0.3,0.2-0.2
			c0.3,0.1,0.3,0.1,0.6,0.2c0.3,0.1,0.1-0.2,0.1-0.2s-0.3-0.2-0.5-0.3c-0.8-0.4-0.8-1.5-0.8-1.5s0-0.9,0.1-1.6
			c0.1-0.7-1.5-0.7-1.5-0.7s0.7-1.2,2.5-0.4c0-0.7-1.6-1.2-1.6-1.2s1-1,2.8,0.5c0.1-1.1-0.8-2-0.8-2s1.5-0.2,2,1.9
			c0.7-0.5,0.3-1.9,0.3-1.9s1.4,0.8,0.9,2.3c0.8-0.1,1.1-1.1,1.1-1.1s0.5,1-0.4,2c-0.4,0.4-0.4,0.2-0.4,0.2s-1.6,1.9-0.7,4.3
			c0.1,0.3,0.3,0.1,0.4,0C14.3,23.3,14.3,22.7,14,22.1"/>
		<path fill="#030405" d="M21.3,8c0,0,1.1,1.1,1.2,1.2c0.1,0.1,0.8-0.2,1.1-0.1c0.2,0.1-0.1-0.6-0.2-0.8c-0.1-0.2-0.5-0.7-1.1-0.6
			C21.8,7.7,21.3,8,21.3,8"/>
		<path fill="#EB5650" d="M16.4,13.1c-0.5-0.7-1.7-1.1-3.1-1.5c-1-0.3-2.1-0.8-2.6-1.6c-0.3-0.4-0.4-0.9-0.4-1.3
			c0-0.3,0.1-0.6,0.1-0.8c0,0.1,0,0.1,0.1,0.2c0.2,0.5,0.6,1.5,1.6,2.3c0.5,0.4,1.3,0.7,2.2,1.1c0.9,0.4,1.8,0.9,2.4,1.5
			c0,0,0.4,0.4,0.4,0.6c-0.1,0-0.2-0.1-0.4-0.1C16.6,13.4,16.4,13.1,16.4,13.1"/>
		<path fill="#FFFFFF" d="M13.1,12.8c0.1,0,0.3,0,0.5,0c-0.2-0.2-0.3-0.7-0.3-0.7S13.1,12.4,13.1,12.8"/>
		<path fill="#FFFFFF" d="M14.3,13c0.1,0,0.2,0,0.5,0.1c-0.2-0.2-0.1-0.4-0.2-0.5C14.4,12.8,14.3,12.8,14.3,13"/>
		<path fill="#FFFFFF" d="M14.4,11c0.2-0.4,0.5-0.6,0.6-0.6c-0.1-0.1-0.5-0.3-0.5-0.3S14.4,10.9,14.4,11"/>
		<path fill="#FFFFFF" d="M13.3,10.6c0,0,0.5-0.6,0.7-0.7c-0.3-0.1-0.4-0.2-0.6-0.3C13.3,10.1,13.3,10.6,13.3,10.6"/>
		<path fill="#EB5650" d="M34.1,27c0,0,1.3-0.1,2,0.5c0-0.1-0.1-0.8-0.1-0.8S34.8,26.2,34.1,27"/>
		<path fill="#FFFFFF" d="M18.7,7.9c0,0,0.3,0,0.5,0.4c0.1,0.3,0.1,0.8-0.1,1.9c0,0.1-0.2,0.1-0.2-0.1c0-0.1,0.1-0.6,0.2-0.9
			c0-0.3,0-0.7-0.1-0.8c-0.1-0.1-0.2-0.1-0.3-0.2c0,0-0.2-0.1-0.2-0.2C18.5,7.9,18.7,7.9,18.7,7.9"/>
		<path fill="#FFFFFF" d="M18.7,8.9c0.2,0,0.1-0.2-0.1-0.3c-0.2-0.1-0.7,0-0.9,0.5c-0.2,0.4,0.5,0.8,0.6,0.8c0.2,0,0.3-0.3,0.2-0.4
			c-0.1-0.1-0.4-0.1-0.3-0.3C18.2,9,18.5,9,18.7,8.9"/>
		<path fill="#EB5650" d="M14.5,18.2c0,0,0.4,0,0.8-0.5c-0.1,0.5-0.5,1-0.5,1L14.5,18.2z"/>
		<path fill="#EB5650" d="M8.9,18.5c0.6-0.4,1.7,0.1,1.7,0.1L10,19.1C10,19.1,9.8,18.6,8.9,18.5"/>
		<path fill="#EB5650" d="M9.9,17.1c0.9-0.2,2,0.8,2,0.8s-0.6,0.3-0.8,0.4C11.1,18.2,11,17.5,9.9,17.1"/>
		<path fill="#EB5650" d="M11.8,16c0.8,0.3,1.1,1.7,1.1,1.7l-0.7,0.1C12.3,17.8,12.5,17,11.8,16"/>
		<path fill="#EB5650" d="M13.5,17.7c0.3-0.3,0.5-0.8,0.4-1.4c0.2,0.2,0.5,1,0.2,1.6C14,17.9,13.9,17.8,13.5,17.7"/>
		<path fill="#EB5650" d="M18.8,29.3c-0.1-0.1-0.3-0.1-0.4-0.1c0.4-0.3,0.3-0.8,0.3-0.8S19,28.9,18.8,29.3"/>
		<path fill="#EB5650" d="M17.9,29.1c-0.3,0-0.6,0.1-0.6,0.1c0-1-0.3-1.4-0.3-1.4S17.7,28.3,17.9,29.1"/>
		<path fill="#EB5650" d="M17,29.4c-0.2,0.1-0.1,0.1-0.4,0.3c-0.3-0.5-0.6-1-1.7-1.1C15.8,28,16.8,28.8,17,29.4"/>
		<path fill="#EB5650" d="M14.2,30.1c0.3-0.6,1.6-0.6,2.2-0.2c-0.2,0.2-0.2,0.3-0.3,0.6C15.5,30.1,14.5,30.1,14.2,30.1"/>
		<path fill="#EB5650" d="M14.6,31.2c0.4-0.5,1.3-0.5,1.3-0.5c0,0-0.2,0.5-0.2,0.6C15.7,31.2,15.2,31.1,14.6,31.2"/>
		<path fill="#EB5650" d="M28.1,33.5c-0.2,0-0.4-0.1-0.6-0.1c0.1-0.1,0.3-0.6,0.1-1C27.7,32.4,28.1,32.6,28.1,33.5"/>
		<path fill="#EB5650" d="M26.3,33.5c0.2-0.1,0.4-0.2,0.6-0.1c-0.2-0.5-1.2-0.8-1.4-0.7C25.6,32.7,26.3,33.1,26.3,33.5"/>
		<path fill="#EB5650" d="M24.5,33.7c0.7-0.3,1.3,0,1.4,0c-0.1,0.1-0.3,0.3-0.4,0.5C25.4,33.9,24.5,33.7,24.5,33.7"/>
		<path fill="#EB5650" d="M23.8,35.4c0.1-0.1,0.7-0.8,1.5-0.5c-0.1,0.2-0.1,0.3-0.1,0.5C24.5,35.1,23.8,35.4,23.8,35.4"/>
		<path fill="#EB5650" d="M24,37.3c0.2-0.9,0.8-1.1,1.2-1.2c0,0.1,0,0.5,0.1,0.6C25.2,36.7,24.4,36.9,24,37.3"/>
		<path fill="#EB5650" d="M37.3,39.9c-0.2,0.1-0.5,0.2-0.7,0.2c0.1-0.5-0.1-1.1-0.2-1.3C36.7,38.8,37.4,39.2,37.3,39.9"/>
		<path fill="#EB5650" d="M35.6,41c-0.1-0.2-0.7-1-1.2-1.1c0.4-0.2,1.2-0.2,1.9,0.5C36,40.5,35.7,40.9,35.6,41"/>
		<path fill="#EB5650" d="M33.6,41.6c0.4-0.7,1.5-0.3,1.8-0.2c-0.1,0.2-0.3,0.4-0.3,0.8C34.8,41.7,33.9,41.5,33.6,41.6"/>
		<path fill="#EB5650" d="M33.5,43.3c0,0.1,0.2-0.8,1.6-0.7c-0.1,0.3-0.1,0.5,0,0.8C34.1,43,33.5,43.3,33.5,43.3"/>
		<path fill="#EB5650" d="M34.6,45.4c0,0-0.1-0.7,0.5-1.3c0,0.3,0.1,0.5,0.2,0.6C35,44.9,34.6,45.4,34.6,45.4"/>
	</g>
</g>
</svg>
