<?xml version="1.0" encoding="utf-8"?>
<!-- Generator: Adobe Illustrator 18.1.1, SVG Export Plug-In . SVG Version: 6.00 Build 0)  -->
<svg version="1.1" id="Ebene_1" xmlns="http://www.w3.org/2000/svg" xmlns:xlink="http://www.w3.org/1999/xlink" width="54" height="54">
<g>
	<g>
		<rect x="-1.1" y="-1.2" fill="#FFFFFF" width="54.7" height="54.8"/>
		<path fill="#EB5650" d="M41.9,13.4c0-0.2,0-0.5-0.1-0.7c-0.1-0.7-0.3-1.4-0.6-2.1c0.5-0.2,0.8-0.7,0.8-1.3c0-0.8-0.7-1.5-1.5-1.5
			c-0.4,0-0.7,0.1-1,0.4c-0.7-0.8-1.7-1.5-2.7-2.1C36.9,5.8,37,5.6,37,5.3c0-0.8-0.7-1.5-1.5-1.5c-0.7,0-1.3,0.5-1.5,1.2
			c-1.1-0.2-2.2-0.2-3.5,0C30.4,4.5,29.8,4,29.1,4c-0.8,0-1.5,0.7-1.5,1.5c0,0.2,0,0.3,0.1,0.5c-0.1,0-0.2,0.1-0.3,0.1
			c-0.9,0.4-1.8,0.9-2.7,1.6c-0.3-0.3-0.7-0.5-1.1-0.5c-0.8,0-1.5,0.7-1.5,1.5c0,0.4,0.2,0.8,0.5,1.1c-0.7,0.9-1.4,1.9-1.9,3.1
			c-0.2-0.1-0.4-0.1-0.6-0.1c-0.8,0-1.5,0.7-1.5,1.5c0,0.7,0.5,1.3,1.2,1.5c-0.3,1.1-0.4,2.4-0.4,3.7h8.2c0-3.4,0.7-5.9,2.1-7.3
			c1.5-1.6,3.8-1.8,5.6-1c1.9,0.8,2.7,2.8,2,4.3c-0.6,1.2-2.2,2.1-4.5,1.9c1.4,1.8,2.9,2.5,4.3,2.4c0.1,0.7,0.7,1.3,1.5,1.3
			c0.8,0,1.5-0.7,1.5-1.5c0-0.3-0.1-0.6-0.3-0.9c0.7-0.6,1.3-1.5,1.7-2.4c0.1,0,0.2,0,0.3,0c0.8,0,1.5-0.7,1.5-1.5
			C43.2,14.1,42.6,13.5,41.9,13.4"/>
		<path fill="#EB5650" d="M16.2,46.6c0.7-1.3,4.5-8.1,4.5-8.1s2.3,9.3,2.7,10.6c0.3-1.2,2.6-10.6,2.6-10.6s3.8,6.8,4.5,8.1
			c-0.2-1.7-2.6-20.8-2.6-20.8h-9.1C18.8,25.9,16.4,45,16.2,46.6z"/>
		<rect x="16.4" y="19.9" fill="#EB5650" width="14.4" height="1.3"/>
		<rect x="16.4" y="24" fill="#EB5650" width="14.4" height="1.3"/>
		<rect x="14.6" y="21.7" fill="#EB5650" width="18" height="1.8"/>
	</g>
</g>
</svg>
