<?xml version="1.0" encoding="utf-8"?>
<!-- Generator: Adobe Illustrator 18.1.1, SVG Export Plug-In . SVG Version: 6.00 Build 0)  -->
<svg version="1.1" id="Ebene_1" xmlns="http://www.w3.org/2000/svg" xmlns:xlink="http://www.w3.org/1999/xlink" width="54" height="54">
<g>
	<g>
		<rect x="-1.1" y="-1.1" fill="#FFFFFF" width="54.5" height="54.7"/>
		<polygon fill="#212121" points="21.1,28.2 17.7,49.2 23.4,44.9 27.4,49.3 27.4,49.3 27.4,49.3 31.4,44.9 37,49.2 33.7,28.2 		"/>
		<path fill="#212121" d="M35,26.9c0-0.4-0.4-0.8-0.8-0.8c0,0,0,0,0,0H20.5c0,0,0,0,0,0c-0.4,0-0.8,0.4-0.8,0.8
			c0,0.4,0.4,0.8,0.8,0.8h0v0h13.7v0C34.7,27.7,35,27.3,35,26.9"/>
		<path fill="#212121" d="M34.3,21.6c0-0.4-0.3-0.8-0.7-0.8c0,0,0,0,0,0H21.2c0,0,0,0,0,0c-0.4,0-0.7,0.4-0.7,0.8
			c0,0.4,0.3,0.8,0.7,0.8l0,0v0h12.4v0C34,22.5,34.3,22.1,34.3,21.6"/>
		<path fill="#212121" d="M35,23L35,23H19.8c-0.7,0-1.3,0.6-1.3,1.3c0,0.7,0.6,1.3,1.3,1.3c0,0,0,0,0,0H35c0,0,0,0,0,0
			c0.7,0,1.3-0.6,1.3-1.3C36.3,23.5,35.7,23,35,23"/>
		<path fill="#212121" d="M16.7,13.8c0.3-1.5,2.4-2.1,3.7,0c0.5,0.8,0.8,5.5-4.6,5.3c-3.3-0.1-5.6-4.1-4.7-8.3
			c0.9-4.3,5.2-6.8,9-6.7c6.5,0.2,9.8,5.2,10.8,8c0.9,2.6,1.4,6,1.4,8.2h-9.7c0.7-4,0.3-5.6,0.3-5.6s-0.9-4-3.8-4
			c-2.8,0-3.4,2.5-3.4,2.5s-0.3,2,1.1,2.3c0.4,0.1,1.1,0,1.1-0.9C17.8,14.2,17.4,13.7,16.7,13.8"/>
	</g>
</g>
</svg>
