<?xml version="1.0" encoding="utf-8"?>
<!-- Generator: Adobe Illustrator 18.1.1, SVG Export Plug-In . SVG Version: 6.00 Build 0)  -->
<svg version="1.1" id="Ebene_1" xmlns="http://www.w3.org/2000/svg" xmlns:xlink="http://www.w3.org/1999/xlink" width="54" height="54">
<g>
	<g>
		<polygon fill="#FFFFFF" points="-0.9,-1 -0.9,53.4 53.3,53.4 53.3,-1 -0.9,-1 		"/>
		<rect x="-1" y="-1" fill="#FCCF3E" width="27.3" height="54.2"/>
		<rect x="26.3" y="-1" fill="#EB5650" width="27.1" height="54.2"/>
		<g>
			<polygon fill="#FCCF3E" points="35.4,20.2 36.7,20.2 36.7,24 39.5,24 39.5,22.5 41.8,22.5 41.8,24 44.5,24 44.5,21.8 42.8,21.8 
				42.8,20.2 44.5,20.2 44.5,19.4 44.5,14.6 44.5,13.8 42.8,13.8 42.8,12.2 44.5,12.2 44.5,10 41.8,10 41.8,11.5 39.5,11.5 39.5,10 
				36.7,10 36.7,13.8 35.3,13.8 			"/>
		</g>
		<polygon fill="#EB5650" points="42.3,17.7 40.6,17.7 40.6,20 39,20 39,17.7 37.3,17.7 37.3,16.3 39,16.3 39,14 40.6,14 40.6,16.3 
			42.3,16.3 42.3,17.7 		"/>
		<polygon fill="#FCCF3E" points="33.1,33.2 33.1,10 33.1,9.9 33.1,9.8 33.2,9.7 33.2,9.6 33.2,9.5 33.3,9.4 33.3,9.4 33.4,9.3 
			33.5,9.2 33.5,9.2 33.5,9 33.6,8.9 33.6,8.8 33.7,8.7 33.8,8.6 33.9,8.5 34,8.4 34.2,8.4 34.3,8.3 34.4,8.3 34.6,8.3 34.7,8.4 
			34.9,8.4 35,8.5 35.1,8.6 35.2,8.7 35.3,8.8 35.3,8.9 35.3,9 35.4,9.2 35.4,9.2 35.5,9.3 35.5,9.4 35.6,9.4 35.6,9.5 35.7,9.6 
			35.7,9.7 35.7,9.8 35.7,9.9 35.7,10 35.7,33.2 		"/>
		<polygon fill="#FCCF3E" points="39.2,39.5 38.6,39.8 38,40 37.5,40.3 37,40.6 36.6,40.9 36.2,41.3 35.9,41.8 35.7,42.4 35.5,43 
			35.5,43.9 33.3,43.9 33.3,43 33.1,42.4 32.9,41.8 32.6,41.3 32.2,40.9 31.8,40.6 31.3,40.3 30.8,40 30.2,39.8 29.6,39.5 
			29.6,37.3 30.2,37 30.8,36.7 31.3,36.4 31.8,36 32.2,35.6 32.6,35.1 32.9,34.6 33.1,34 33.3,33.2 33.3,32.4 35.5,32.4 35.5,33.2 
			35.7,34 35.9,34.6 36.2,35.1 36.6,35.6 37,36 37.5,36.4 38,36.7 38.6,37 39.2,37.3 		"/>
		<polygon fill="#EB5650" points="35.4,37.4 35.5,37.4 35.7,37.5 35.8,37.5 35.9,37.6 36.1,37.7 36.2,37.8 36.2,37.9 36.3,38 
			36.3,38.1 36.3,38.3 36.3,38.4 36.3,38.6 36.2,38.7 36.2,38.8 36.1,38.9 35.9,39 35.8,39.1 35.7,39.1 35.5,39.1 35.4,39.2 
			35.4,39.3 35.3,39.4 35.3,39.6 35.2,39.7 35.1,39.8 35,39.9 34.9,39.9 34.7,40 34.6,40 34.4,40.1 34.2,40 34.1,40 34,39.9 
			33.9,39.9 33.7,39.8 33.6,39.7 33.6,39.6 33.5,39.4 33.5,39.3 33.5,39.2 33.3,39.1 33.1,39.1 33,39.1 32.9,39 32.8,38.9 
			32.7,38.8 32.6,38.7 32.5,38.6 32.5,38.4 32.5,38.3 32.5,38.1 32.5,38 32.6,37.9 32.7,37.8 32.8,37.7 32.9,37.6 33,37.5 
			33.1,37.5 33.3,37.4 33.5,37.4 33.5,37.3 33.5,37.1 33.6,37 33.6,36.9 33.7,36.8 33.9,36.7 34,36.6 34.1,36.6 34.2,36.5 
			34.4,36.5 34.6,36.5 34.7,36.6 34.9,36.6 35,36.7 35.1,36.8 35.2,36.9 35.3,37 35.3,37.1 35.4,37.3 		"/>
		<polygon fill="#FCCF3E" points="35.9,31.4 36,31.4 36.1,31.4 36.2,31.4 36.3,31.3 36.3,31.3 36.4,31.2 36.5,31.1 36.5,31 36.5,31 
			36.5,30.9 36.5,30.8 36.5,30.7 36.5,30.6 36.4,30.5 36.3,30.5 36.3,30.4 36.2,30.3 36.1,30.3 36,30.3 35.9,30.3 33,30.3 
			32.9,30.3 32.8,30.3 32.7,30.3 32.6,30.4 32.5,30.5 32.5,30.5 32.4,30.6 32.4,30.7 32.3,30.8 32.3,30.9 32.3,31 32.4,31 
			32.4,31.1 32.5,31.2 32.5,31.3 32.6,31.3 32.7,31.4 32.8,31.4 32.9,31.4 33,31.4 		"/>
		<polygon fill="#FCCF3E" points="28.7,39.2 28.9,39.2 29.1,39.2 29.2,39.1 29.3,39.1 29.4,39 29.5,38.9 29.6,38.8 29.6,38.6 
			29.7,38.5 29.7,38.4 29.7,38.2 29.6,38.1 29.6,38 29.5,37.9 29.4,37.8 29.3,37.7 29.2,37.6 29.1,37.6 28.9,37.5 28.8,37.5 
			28.6,37.5 28.5,37.6 28.3,37.6 28.2,37.7 28.1,37.8 28,37.9 27.9,38 27.9,38.1 27.8,38.2 27.8,38.4 27.8,38.5 27.9,38.6 
			27.9,38.8 28,38.9 28.1,39 28.2,39.1 28.3,39.1 28.5,39.2 28.6,39.2 28.8,39.2 		"/>
		<polygon fill="#FCCF3E" points="40.1,39.2 39.9,39.2 39.8,39.2 39.6,39.1 39.5,39.1 39.4,39 39.3,38.9 39.2,38.8 39.2,38.6 
			39.2,38.5 39.1,38.4 39.2,38.2 39.2,38.1 39.2,38 39.3,37.9 39.4,37.8 39.5,37.7 39.6,37.6 39.8,37.6 39.9,37.5 40.1,37.5 
			40.2,37.5 40.4,37.6 40.5,37.6 40.6,37.7 40.7,37.8 40.8,37.9 40.9,38 40.9,38.1 41,38.2 41,38.4 41,38.5 40.9,38.6 40.9,38.8 
			40.8,38.9 40.7,39 40.6,39.1 40.5,39.1 40.4,39.2 40.2,39.2 40.1,39.2 		"/>
		<polygon fill="#FCCF3E" points="32.9,33.3 32.9,33.3 32.8,33.3 32.7,33.3 32.6,33.2 32.5,33.2 32.4,33.1 32.4,33 32.4,32.9 
			32.3,32.8 32.3,32.7 32.3,32.6 32.4,32.5 32.4,32.5 32.4,32.4 32.5,32.3 32.6,32.3 32.7,32.2 32.8,32.2 32.9,32.1 33,32.1 
			35.9,32.1 36,32.1 36.1,32.2 36.2,32.2 36.3,32.3 36.3,32.3 36.4,32.4 36.4,32.5 36.5,32.5 36.5,32.6 36.5,32.7 36.5,32.8 
			36.5,32.9 36.4,33 36.4,33.1 36.3,33.2 36.3,33.2 36.2,33.3 36.1,33.3 36,33.3 35.9,33.3 33,33.3 		"/>
		<polygon fill="#FCCF3E" points="33.5,44.1 33.5,44 33.5,43.9 33.6,43.7 33.7,43.6 33.8,43.5 33.9,43.4 34,43.4 34.1,43.3 
			34.3,43.3 34.4,43.3 34.6,43.3 34.7,43.3 34.8,43.4 35,43.4 35.1,43.5 35.2,43.6 35.2,43.7 35.3,43.9 35.3,44 35.4,44.1 
			35.3,44.3 35.3,44.4 35.2,44.5 35.2,44.6 35.1,44.7 35,44.8 34.8,44.9 34.7,44.9 34.6,45 34.4,45 34.3,45 34.1,44.9 34,44.9 
			33.9,44.8 33.8,44.7 33.7,44.6 33.6,44.5 33.5,44.4 33.5,44.3 		"/>
		<polygon fill="#FCCF3E" points="32.9,42.9 32.9,43 32.8,43 32.7,43 32.6,43.1 32.5,43.1 32.4,43.2 32.4,43.3 32.4,43.4 32.3,43.4 
			32.3,43.5 32.3,43.6 32.4,43.7 32.4,43.8 32.4,43.9 32.5,43.9 32.6,44 32.7,44.1 32.8,44.1 32.9,44.1 33,44.1 35.9,44.1 36,44.1 
			36.1,44.1 36.2,44.1 36.3,44 36.3,43.9 36.4,43.9 36.4,43.8 36.5,43.7 36.5,43.6 36.5,43.5 36.5,43.4 36.5,43.4 36.4,43.3 
			36.4,43.2 36.3,43.1 36.3,43.1 36.2,43 36.1,43 36,43 35.9,42.9 33,42.9 		"/>
		<polygon fill="#FCCF3E" points="30,37 30,36.9 30,36.9 30,36.8 29.9,36.7 29.9,36.6 29.8,36.6 29.7,36.5 29.6,36.5 29.5,36.5 
			29.4,36.5 29.3,36.5 29.2,36.5 29.1,36.5 29,36.6 28.9,36.6 28.9,36.7 28.8,36.8 28.8,36.9 28.8,36.9 28.8,37.1 28.8,39.7 
			28.8,39.8 28.8,39.9 28.8,40 28.9,40.1 28.9,40.1 29,40.2 29.1,40.2 29.2,40.3 29.3,40.3 29.4,40.3 29.5,40.3 29.6,40.3 
			29.7,40.2 29.8,40.2 29.9,40.1 29.9,40.1 30,40 30,39.9 30,39.8 30,39.7 30,37.1 		"/>
		<polygon fill="#FCCF3E" points="38.8,37 38.8,36.9 38.8,36.9 38.8,36.8 38.9,36.7 39,36.6 39,36.6 39.1,36.5 39.2,36.5 39.3,36.5 
			39.4,36.5 39.5,36.5 39.6,36.5 39.7,36.5 39.8,36.6 39.9,36.6 40,36.7 40,36.8 40,36.9 40.1,36.9 40.1,37.1 40.1,39.7 40.1,39.8 
			40,39.9 40,40 40,40.1 39.9,40.1 39.8,40.2 39.7,40.2 39.6,40.3 39.5,40.3 39.4,40.3 39.3,40.3 39.2,40.3 39.1,40.2 39,40.2 
			39,40.1 38.9,40.1 38.8,40 38.8,39.9 38.8,39.8 38.8,39.7 38.8,37.1 		"/>
		<polygon fill="#EB5650" points="11.2,39.4 11.2,39.5 11.3,39.5 11.3,39.6 11.4,39.7 11.5,39.8 11.5,39.8 11.5,39.9 11.5,40 
			11.4,40 11.3,40.1 11.2,40.1 11.2,40.1 11.1,40.1 11,40 10.9,40 10.8,39.9 10.7,39.8 10.6,39.8 10.6,39.7 10.6,39.7 10.4,39.7 
			10.3,39.7 10.2,39.7 10.1,39.7 10,39.8 9.9,39.9 9.8,39.9 9.8,40 9.7,40.1 9.6,40.1 9.6,40.1 9.6,40.1 9.6,40.1 9.6,40 9.7,40 
			9.7,39.9 9.7,39.9 9.7,39.8 9.7,39.8 9.8,39.7 9.9,39.5 10.1,39.4 10.2,39.3 10.4,39.3 10.6,39.3 10.7,39.3 10.9,39.3 11,39.4 
			11.1,39.4 		"/>
		<polygon fill="#EB5650" points="19,42.2 19,42.3 19,42.4 19,42.5 19,42.6 19,42.7 18.9,42.8 18.9,42.9 18.8,43 18.7,43.1 
			18.6,43.1 18.7,42.9 18.6,42.7 18.6,42.6 18.5,42.4 18.4,42.4 18.3,42.3 18.2,42.2 18,42.1 17.9,42 17.8,41.9 17.8,41.8 
			17.8,41.8 17.8,41.8 17.8,41.7 17.8,41.7 17.8,41.7 17.8,41.6 17.8,41.6 17.8,41.6 17.9,41.5 18,41.6 18.2,41.6 18.3,41.7 
			18.4,41.7 18.6,41.8 18.7,41.9 18.8,42 18.9,42.1 19,42.1 		"/>
		<polygon fill="#EB5650" points="10.6,41.7 10.8,41.7 10.9,41.7 10.9,41.7 10.9,41.7 10.9,41.8 10.8,41.8 10.8,41.9 10.7,41.9 
			10.7,42 10.7,42.1 10.5,42.2 10.3,42.3 10.2,42.4 10.1,42.5 10,42.6 10,42.8 9.9,42.9 9.9,43 9.8,43.2 9.8,43.3 9.8,43.1 9.7,43 
			9.6,42.9 9.6,42.8 9.6,42.7 9.6,42.6 9.6,42.5 9.6,42.4 9.7,42.3 9.8,42.2 9.8,42.1 9.9,42 10,41.9 10.1,41.9 10.1,41.8 
			10.2,41.8 10.3,41.7 10.4,41.7 10.5,41.7 10.6,41.7 		"/>
		<polygon fill="#EB5650" points="12.4,44.8 12.5,44.8 12.5,44.9 12.5,45 12.5,45.1 12.5,45.2 12.5,45.3 12.6,45.5 12.7,45.6 
			12.8,45.7 12.9,45.8 12.8,45.8 12.7,45.8 12.6,45.7 12.5,45.7 12.4,45.7 12.3,45.6 12.1,45.5 12.1,45.5 12,45.4 11.9,45.3 
			11.9,45.3 11.9,45.3 11.9,45.2 11.9,45.1 11.9,45.1 11.9,45 12,44.9 12,44.8 12.1,44.8 12.2,44.8 12.3,44.8 12.3,44.8 12.3,44.8 
			12.3,44.8 12.4,44.8 12.4,44.8 12.4,44.8 12.4,44.8 12.5,44.8 		"/>
		<polygon fill="#EB5650" points="19.1,37.2 18.8,37.6 18.5,38 18.2,38.4 17.8,38.7 17.5,39.1 17.1,39.5 16.8,39.8 16.4,40.2 
			16.1,40.6 15.9,41 15.8,41 15.8,41 15.8,41.1 15.8,41.1 15.8,41.2 15.8,41.2 15.8,41.2 15.8,41.2 15.9,41.3 15.9,41.3 16.2,41.2 
			16.4,41.2 16.6,41.2 16.9,41.2 17.1,41.2 17.3,41.2 17.5,41.2 17.8,41.3 18,41.3 18.2,41.4 18.3,41.5 18.3,41.5 18.3,41.6 
			18.3,41.7 18.3,41.7 18.2,41.8 18.2,41.9 18.2,41.9 18.2,42 18.2,42.1 18,42.3 17.9,42.4 17.7,42.4 17.5,42.4 17.3,42.4 
			17.1,42.3 16.9,42.2 16.8,42.1 16.6,42.1 16.4,42.1 15.4,42 15.4,42 15.3,42 15.3,42 15.2,42 15.2,42 15.1,42 15.1,42.1 15,42.1 
			15,42.1 14.7,42.3 14.4,42.5 14.1,42.7 13.9,43 13.7,43.2 13.5,43.5 13.3,43.8 13.2,44.1 13,44.4 12.9,44.7 12.8,44.8 12.7,44.8 
			12.6,44.9 12.5,44.9 12.4,45 12.3,45 12.1,45 12,45 11.9,45 11.8,44.9 11.7,44.6 11.7,44.4 11.8,44.1 11.9,43.9 12,43.7 
			12.1,43.5 12.3,43.4 12.5,43.2 12.6,43.1 12.7,43 13.4,42.4 13.2,42.3 13.1,42.2 13,42.2 12.9,42.2 12.8,42.2 12.7,42.3 
			12.6,42.3 12.4,42.3 12.3,42.4 12.1,42.4 12.1,42.4 12,42.4 11.9,42.5 11.8,42.5 11.7,42.5 11.6,42.5 11.5,42.6 11.4,42.6 
			11.3,42.6 11.2,42.6 11.2,42.6 11.1,42.6 11.1,42.6 11,42.6 11,42.5 10.9,42.5 10.9,42.5 10.8,42.5 10.8,42.5 10.7,42.5 
			10.7,42.5 10.7,42.4 10.7,42.4 10.7,42.4 10.6,42.4 10.6,42.3 10.6,42.3 10.6,42.3 10.6,42.2 10.5,42.1 10.5,42 10.5,41.9 
			10.4,41.8 10.4,41.7 10.4,41.7 10.4,41.6 10.5,41.5 10.8,41.5 11.1,41.5 11.3,41.5 11.5,41.6 11.8,41.7 11.9,41.7 12.1,41.7 
			12.3,41.7 12.5,41.7 12.7,41.7 12.8,41.6 12.7,41.6 12.7,41.6 12.7,41.5 12.6,41.5 12.6,41.5 12.5,41.5 12.5,41.5 12.5,41.5 
			12.5,41.5 12.3,41.4 12.1,41.3 12,41.2 11.8,41 11.6,40.9 11.5,40.8 11.3,40.7 11.2,40.5 11,40.3 10.9,40.2 11,40.1 11,40 
			11.1,39.9 11.1,39.9 11.2,39.8 11.3,39.7 11.4,39.7 11.5,39.6 11.6,39.6 11.6,39.5 12,39.6 12.2,39.8 12.3,40 12.4,40.1 
			12.5,40.3 12.7,40.5 12.8,40.7 13,40.8 13.2,40.9 13.5,41 13.8,41 13.9,41 14,41 14.1,41 14.2,41 14.3,41 14.4,40.9 14.5,40.8 
			14.5,40.8 14.6,40.8 14.7,40.7 18.4,36.8 18.4,36.8 18.5,36.8 18.6,36.8 18.7,36.9 18.8,36.9 18.9,36.9 19,36.9 19,37 19.1,37.1 
			19.1,37.2 		"/>
		<polygon fill="#EB5650" points="21.1,17.3 20.8,17.1 20.6,17 20.4,16.8 20.3,16.7 20.1,16.6 20,16.5 19.9,16.4 19.8,16.3 
			19.8,16.3 19.7,16.3 19.4,16.2 19,16.1 18.6,16.1 18.2,16.1 17.8,16.1 17.4,16.1 17,16.1 16.6,16.1 16.3,16 16,15.9 15.9,15.8 
			15.8,15.8 15.8,15.6 15.8,15.6 15.8,15.5 15.7,15.4 15.7,15.2 15.8,15.2 15.8,15.1 15.8,15 15.7,15 15.7,15 15.6,15.1 15.5,15.1 
			15.5,15.2 15.4,15.3 15.4,15.3 15.3,15.4 15.3,15.4 15.2,15.5 15.2,15.6 15.2,15.7 15.2,15.8 15.2,15.9 15.2,16 15.2,16.1 
			15.2,16.2 15.3,16.3 15.3,16.4 15.4,16.5 15.6,16.6 15.8,16.7 16,16.7 16.3,16.7 16.5,16.7 16.8,16.7 17,16.7 17.2,16.6 
			17.5,16.6 17.7,16.6 17.9,16.6 18.1,16.6 18.3,16.6 18.5,16.6 18.7,16.6 18.9,16.6 19,16.6 19.2,16.6 19.3,16.6 19.5,16.6 
			19.6,16.7 19.9,16.8 20.1,16.9 20.3,17 20.5,17.1 20.7,17.2 20.9,17.2 21,17.3 		"/>
		<polygon fill="#EB5650" points="22,10 22.2,10 22.3,9.9 22.4,9.9 22.5,9.8 22.7,9.8 22.7,9.7 22.8,9.6 22.9,9.5 22.9,9.4 
			22.9,9.2 22.9,9.1 22.9,9 22.8,8.9 22.7,8.8 22.7,8.7 22.5,8.6 22.4,8.6 22.3,8.6 22.2,8.5 22.1,8.5 21.9,8.5 21.8,8.6 21.7,8.6 
			21.6,8.6 21.4,8.7 21.4,8.8 21.3,8.9 21.3,9 21.2,9.1 21.2,9.2 21.2,9.4 21.3,9.5 21.3,9.6 21.4,9.7 21.4,9.8 21.6,9.8 21.7,9.9 
			21.8,9.9 21.9,10 22.1,10 		"/>
		<polygon fill="#EB5650" points="18.8,12.1 18.9,12.1 19,12.1 19,12.1 19.1,12.1 19.1,12 19.2,12 19.2,12 19.2,11.9 19.2,11.9 
			19.2,11.8 19.2,11.8 19.2,11.7 19.2,11.6 19.2,11.6 19.1,11.6 19.1,11.5 19,11.5 19,11.5 18.9,11.5 18.8,11.5 18.8,11.5 
			18.7,11.5 18.7,11.5 18.6,11.5 18.6,11.6 18.5,11.6 18.5,11.6 18.5,11.7 18.4,11.8 18.4,11.8 18.4,11.9 18.5,11.9 18.5,12 
			18.5,12 18.6,12 18.6,12.1 18.7,12.1 18.7,12.1 18.8,12.1 		"/>
		<polygon fill="#EB5650" points="19.2,11.5 19.3,11.5 19.3,11.5 19.4,11.5 19.4,11.5 19.5,11.5 19.5,11.4 19.6,11.4 19.6,11.3 
			19.6,11.3 19.6,11.2 19.6,11.2 19.6,11.1 19.6,11.1 19.5,11 19.5,11 19.4,10.9 19.4,10.9 19.3,10.9 19.3,10.9 19.2,10.9 
			19.1,10.9 19.1,10.9 19,10.9 19,10.9 18.9,11 18.9,11 18.9,11.1 18.8,11.1 18.8,11.2 18.8,11.2 18.8,11.3 18.8,11.3 18.9,11.4 
			18.9,11.4 18.9,11.5 19,11.5 19,11.5 19.1,11.5 19.1,11.5 19.2,11.6 		"/>
		<polygon fill="#EB5650" points="19.8,11.1 19.8,11.1 19.9,11.1 20,11.1 20,11 20.1,11 20.1,10.9 20.1,10.9 20.2,10.9 20.2,10.8 
			20.2,10.7 20.2,10.7 20.2,10.6 20.1,10.6 20.1,10.6 20.1,10.5 20,10.5 20,10.4 19.9,10.4 19.8,10.4 19.8,10.4 19.7,10.4 
			19.7,10.4 19.6,10.4 19.6,10.5 19.5,10.5 19.5,10.6 19.4,10.6 19.4,10.6 19.4,10.7 19.4,10.7 19.4,10.8 19.4,10.9 19.4,10.9 
			19.5,10.9 19.5,11 19.6,11 19.6,11.1 19.7,11.1 19.7,11.1 		"/>
		<polygon fill="#EB5650" points="20.5,10.7 20.6,10.8 20.6,10.7 20.7,10.7 20.7,10.7 20.8,10.7 20.8,10.6 20.9,10.6 20.9,10.5 
			20.9,10.5 20.9,10.4 20.9,10.4 20.9,10.3 20.9,10.3 20.8,10.2 20.8,10.2 20.7,10.2 20.7,10.1 20.6,10.1 20.6,10.1 20.5,10.1 
			20.4,10.1 20.4,10.1 20.3,10.1 20.3,10.2 20.2,10.2 20.2,10.2 20.2,10.3 20.1,10.3 20.1,10.4 20.1,10.4 20.1,10.5 20.1,10.5 
			20.2,10.6 20.2,10.6 20.2,10.7 20.3,10.7 20.3,10.7 20.4,10.7 20.4,10.8 20.5,10.8 		"/>
		<polygon fill="#EB5650" points="22,10.6 22.1,10.6 22.2,10.6 22.2,10.5 22.3,10.5 22.3,10.5 22.4,10.4 22.4,10.4 22.4,10.3 
			22.5,10.3 22.5,10.2 22.4,10.2 22.4,10.1 22.4,10.1 22.4,10 22.3,10 22.3,10 22.2,9.9 22.2,9.9 22.1,9.9 22.1,9.9 22,9.9 
			21.9,9.9 21.9,9.9 21.8,10 21.8,10 21.7,10 21.7,10.1 21.7,10.1 21.7,10.2 21.7,10.2 21.7,10.3 21.7,10.3 21.7,10.4 21.7,10.4 
			21.8,10.5 21.8,10.5 21.9,10.5 21.9,10.6 22,10.6 22.1,10.6 		"/>
		<polygon fill="#EB5650" points="22.9,10.6 22.9,10.6 23,10.6 23,10.6 23.1,10.6 23.1,10.5 23.2,10.5 23.2,10.4 23.2,10.4 
			23.2,10.3 23.2,10.3 23.2,10.2 23.2,10.2 23.2,10.1 23.2,10.1 23.1,10 23.1,10 23,10 23,10 22.9,10 22.9,9.9 22.8,10 22.7,10 
			22.7,10 22.6,10 22.6,10 22.5,10.1 22.5,10.1 22.5,10.2 22.5,10.2 22.5,10.3 22.5,10.3 22.5,10.4 22.5,10.4 22.5,10.5 22.6,10.5 
			22.6,10.6 22.7,10.6 22.7,10.6 22.8,10.6 		"/>
		<polygon fill="#EB5650" points="21.3,10.6 21.3,10.6 21.4,10.6 21.5,10.6 21.5,10.6 21.6,10.5 21.6,10.5 21.6,10.4 21.6,10.4 
			21.7,10.3 21.7,10.3 21.7,10.2 21.6,10.2 21.6,10.1 21.6,10.1 21.6,10 21.5,10 21.5,10 21.4,10 21.3,9.9 21.3,9.9 21.2,9.9 
			21.2,10 21.1,10 21.1,10 21,10 21,10.1 20.9,10.1 20.9,10.2 20.9,10.2 20.9,10.3 20.9,10.3 20.9,10.4 20.9,10.4 21,10.5 21,10.5 
			21.1,10.6 21.1,10.6 21.2,10.6 21.2,10.6 21.3,10.6 		"/>
		<polygon fill="#EB5650" points="23.6,10.8 23.7,10.8 23.8,10.8 23.8,10.8 23.9,10.7 23.9,10.7 23.9,10.7 24,10.6 24,10.6 24,10.5 
			24,10.5 24,10.4 24,10.4 24,10.3 23.9,10.3 23.9,10.2 23.9,10.2 23.8,10.2 23.8,10.1 23.7,10.1 23.6,10.1 23.6,10.1 23.5,10.1 
			23.4,10.2 23.4,10.2 23.3,10.2 23.3,10.3 23.3,10.3 23.2,10.4 23.2,10.4 23.2,10.5 23.2,10.5 23.2,10.6 23.3,10.6 23.3,10.7 
			23.3,10.7 23.4,10.7 23.4,10.8 23.5,10.8 23.6,10.8 		"/>
		<polygon fill="#EB5650" points="24.3,11.1 24.4,11.1 24.4,11.1 24.5,11.1 24.5,11.1 24.6,11 24.6,11 24.7,10.9 24.7,10.9 
			24.7,10.8 24.7,10.8 24.7,10.7 24.7,10.7 24.7,10.6 24.6,10.6 24.6,10.5 24.5,10.5 24.5,10.5 24.4,10.5 24.4,10.4 24.3,10.4 
			24.3,10.4 24.2,10.5 24.1,10.5 24.1,10.5 24,10.5 24,10.6 24,10.6 23.9,10.7 23.9,10.7 23.9,10.8 23.9,10.8 23.9,10.9 24,10.9 
			24,11 24,11 24.1,11.1 24.1,11.1 24.2,11.1 24.3,11.1 24.3,11.1 		"/>
		<polygon fill="#EB5650" points="24.9,11.6 25,11.6 25,11.6 25.1,11.5 25.1,11.5 25.2,11.5 25.2,11.5 25.2,11.4 25.3,11.3 
			25.3,11.3 25.3,11.3 25.3,11.2 25.3,11.1 25.2,11.1 25.2,11 25.2,11 25.1,11 25.1,10.9 25,10.9 25,10.9 24.9,10.9 24.8,10.9 
			24.8,10.9 24.7,10.9 24.7,11 24.6,11 24.6,11 24.5,11.1 24.5,11.1 24.5,11.2 24.5,11.3 24.5,11.3 24.5,11.3 24.5,11.4 24.6,11.5 
			24.6,11.5 24.7,11.5 24.7,11.5 24.8,11.6 24.8,11.6 24.9,11.6 		"/>
		<polygon fill="#EB5650" points="25.2,12.2 25.3,12.2 25.3,12.2 25.4,12.2 25.4,12.1 25.5,12.1 25.5,12 25.6,12 25.6,12 25.6,11.9 
			25.6,11.8 25.6,11.8 25.6,11.7 25.6,11.7 25.5,11.6 25.5,11.6 25.4,11.6 25.4,11.5 25.3,11.5 25.3,11.5 25.2,11.5 25.1,11.5 
			25.1,11.5 25,11.5 25,11.6 24.9,11.6 24.9,11.6 24.8,11.7 24.8,11.7 24.8,11.8 24.8,11.8 24.8,11.9 24.8,12 24.8,12 24.9,12 
			24.9,12.1 25,12.1 25,12.2 25.1,12.2 25.1,12.2 		"/>
		<polygon fill="#EB5650" points="22,10.6 22.5,10.6 22.9,10.6 23.3,10.7 23.7,10.9 24,11 24.3,11.2 24.6,11.4 24.7,11.6 24.8,11.9 
			24.9,12.1 24.9,12.1 24.9,12.2 24.9,12.2 24.9,12.2 24.8,12.4 24.8,12.4 24.8,12.4 24.8,12.5 24.7,12.5 24.7,12.5 24.7,12.5 
			24.6,12.6 24.6,12.6 24.5,12.6 24.5,12.6 24.5,12.6 24.4,12.6 24.4,12.5 24.3,12.5 24.3,12.5 24.3,12.5 24.2,12.4 24.2,12.4 
			24.2,12.3 24.2,12.3 24.2,12.3 24.2,12.3 24.2,12.2 24.2,12.2 24.2,12.2 24.2,12.2 24.2,12.2 24.2,12.2 24.2,12.2 24.3,12 
			24.2,11.8 24.1,11.7 23.9,11.6 23.8,11.5 23.6,11.3 23.3,11.3 23,11.2 22.7,11.1 22.4,11.1 22,11.1 21.7,11.1 21.3,11.1 21,11.2 
			20.8,11.3 20.5,11.3 20.3,11.5 20.1,11.6 19.9,11.7 19.8,11.8 19.8,12 19.8,12.2 19.8,12.2 19.8,12.2 19.8,12.2 19.8,12.2 
			19.9,12.3 19.9,12.3 19.9,12.3 19.9,12.3 19.8,12.4 19.8,12.4 19.8,12.5 19.8,12.5 19.7,12.5 19.7,12.5 19.6,12.6 19.6,12.6 
			19.5,12.6 19.5,12.6 19.5,12.6 19.4,12.6 19.4,12.5 19.3,12.5 19.3,12.5 19.3,12.5 19.3,12.4 19.3,12.4 19.2,12.4 19.2,12.2 
			19.2,12.2 19.2,12.2 19.2,12.1 19.2,12.1 19.2,11.9 19.3,11.6 19.5,11.4 19.7,11.2 20,11 20.3,10.9 20.7,10.7 21.1,10.6 
			21.6,10.6 22,10.6 22,10.6 22.1,10.6 		"/>
		<polygon fill="#EB5650" points="24.6,13.1 24.6,13.1 24.7,13.1 24.7,13.1 24.8,13.1 24.8,13.1 24.9,13 24.9,13 24.9,12.9 
			24.9,12.9 24.9,12.9 24.9,12.8 24.9,12.8 24.9,12.7 24.9,12.7 24.8,12.7 24.8,12.6 24.7,12.6 24.7,12.6 24.6,12.6 24.6,12.6 
			19.6,12.6 19.6,12.6 19.5,12.6 19.5,12.6 19.4,12.6 19.4,12.7 19.3,12.7 19.3,12.7 19.3,12.8 19.3,12.8 19.3,12.9 19.3,12.9 
			19.3,12.9 19.3,13 19.3,13 19.4,13.1 19.4,13.1 19.5,13.1 19.5,13.1 19.6,13.1 19.6,13.1 		"/>
		<polygon fill="#EB5650" points="24.3,13.7 24.4,13.7 24.4,13.7 24.5,13.7 24.5,13.6 24.6,13.6 24.6,13.6 24.6,13.6 24.7,13.5 
			24.7,13.5 24.7,13.4 24.7,13.4 24.7,13.3 24.6,13.3 24.6,13.2 24.6,13.2 24.5,13.2 24.5,13.2 24.4,13.2 24.4,13.1 24.3,13.1 
			19.8,13.1 19.8,13.1 19.7,13.2 19.7,13.2 19.6,13.2 19.6,13.2 19.6,13.2 19.5,13.3 19.5,13.3 19.5,13.4 19.5,13.4 19.5,13.5 
			19.5,13.5 19.5,13.6 19.6,13.6 19.6,13.6 19.6,13.6 19.7,13.7 19.7,13.7 19.8,13.7 19.8,13.7 24.3,13.7 		"/>
		<polygon fill="#EB5650" points="22,10.6 22,10.6 21.9,10.6 21.9,10.6 21.8,10.6 21.8,10.7 21.7,10.7 21.7,10.7 21.7,10.8 
			21.7,10.8 21.7,10.9 21.7,10.9 21.7,11 21.7,11.1 21.8,11.1 21.8,11.1 21.8,11.2 21.9,11.2 22,11.2 22,11.2 22.1,11.2 22.1,11.2 
			22.2,11.2 22.2,11.2 22.3,11.2 22.3,11.1 22.4,11.1 22.4,11.1 22.4,11 22.5,10.9 22.5,10.9 22.5,10.8 22.4,10.8 22.4,10.7 
			22.4,10.7 22.3,10.7 22.3,10.6 22.2,10.6 22.2,10.6 22.1,10.6 22.1,10.6 22,10.6 		"/>
		<polygon fill="#EB5650" points="22.1,11.9 22.1,11.9 22.2,11.9 22.3,11.9 22.3,11.8 22.3,11.8 22.4,11.8 22.4,11.7 22.5,11.7 
			22.5,11.6 22.5,11.6 22.5,11.5 22.5,11.5 22.4,11.4 22.4,11.4 22.3,11.3 22.3,11.3 22.3,11.3 22.2,11.3 22.1,11.2 22.1,11.2 
			22,11.2 22,11.3 21.9,11.3 21.8,11.3 21.8,11.3 21.8,11.4 21.7,11.4 21.7,11.5 21.7,11.5 21.7,11.6 21.7,11.6 21.7,11.7 
			21.7,11.7 21.8,11.8 21.8,11.8 21.8,11.8 21.9,11.9 22,11.9 22,11.9 22.1,11.9 		"/>
		<polygon fill="#EB5650" points="22,12.6 22.1,12.6 22.2,12.6 22.2,12.5 22.3,12.5 22.3,12.5 22.4,12.4 22.4,12.4 22.4,12.3 
			22.4,12.3 22.4,12.2 22.4,12.2 22.4,12.1 22.4,12.1 22.4,12 22.3,12 22.3,12 22.2,11.9 22.2,11.9 22.1,11.9 22.1,11.9 22,11.9 
			21.9,11.9 21.9,11.9 21.8,12 21.8,12 21.7,12 21.7,12.1 21.7,12.1 21.7,12.2 21.7,12.2 21.7,12.3 21.7,12.3 21.7,12.4 21.7,12.4 
			21.8,12.5 21.8,12.5 21.9,12.5 21.9,12.6 22,12.6 22.1,12.6 		"/>
		<polygon fill="#EB5650" points="20,16.1 19.8,16 19.6,15.9 19.4,15.8 19.1,15.8 18.9,15.7 18.6,15.7 18.3,15.6 18,15.6 17.7,15.6 
			17.4,15.6 17.3,15.6 17.3,15.6 17.2,15.6 17.1,15.7 17.1,15.7 17,15.8 17,15.8 17,15.9 16.9,15.9 16.9,16 16.8,15.9 16.7,15.9 
			16.6,15.8 16.6,15.8 16.5,15.7 16.5,15.6 16.5,15.5 16.5,15.4 16.5,15.3 16.5,15.2 16.5,15.1 16.5,15 16.6,14.9 16.6,14.9 
			16.6,14.8 16.7,14.7 16.8,14.7 16.8,14.6 16.9,14.5 17,14.5 17.2,14.4 17.3,14.4 17.5,14.4 17.7,14.5 17.8,14.5 18,14.5 
			18.2,14.5 18.3,14.5 18.4,14.5 18.6,14.4 18.6,14.2 18.7,14.1 18.8,14.1 18.9,14.1 19.1,14.1 19.2,14.1 19.3,14.1 19.4,14.1 
			19.4,14.2 19.7,14.4 20.6,15.3 20.9,15.5 21.1,15.8 21.4,16 21.6,16.3 21.9,16.5 22.1,16.8 22.3,17 22.5,17.3 22.8,17.6 23,17.9 
			23.3,18.3 23.6,18.7 23.1,18.5 22.6,18.3 22.1,18.1 21.6,17.9 21,17.7 20.5,17.6 19.9,17.5 19.3,17.4 18.8,17.4 18.2,17.4 
			18.2,17.4 18.3,17.3 18.4,17.2 18.4,17.2 18.5,17.1 18.6,17.1 18.7,17.1 18.7,17 18.8,17 18.9,16.9 18.9,16.9 19,16.9 19.1,16.9 
			19.2,16.9 19.3,16.8 19.4,16.8 19.5,16.8 19.5,16.8 19.6,16.8 19.7,16.8 19.7,16.8 19.9,16.8 20,16.9 20.3,17 20.5,17 20.8,17.1 
			21,17.2 21.2,17.2 21.3,17.3 21.4,17.3 		"/>
		<polygon fill="#FFFFFF" points="22,15 22,15 22.1,15 22.2,14.9 22.2,14.9 22.3,14.9 22.3,14.9 22.4,14.8 22.4,14.8 22.4,14.7 
			22.4,14.7 22.4,14.7 22.4,14.6 22.4,14.6 22.3,14.5 22.3,14.5 22.2,14.5 22.2,14.5 22.1,14.4 22,14.4 22,14.4 21.9,14.4 
			21.8,14.4 21.7,14.5 21.7,14.5 21.6,14.5 21.6,14.5 21.5,14.6 21.5,14.6 21.5,14.7 21.5,14.7 21.5,14.7 21.5,14.8 21.5,14.8 
			21.6,14.9 21.6,14.9 21.7,14.9 21.7,14.9 21.8,15 21.9,15 22,15 		"/>
		<polygon fill="#030405" points="21.8,14.8 21.8,14.8 21.8,14.8 21.9,14.8 21.9,14.8 21.9,14.8 22,14.8 22,14.7 22,14.7 22,14.7 
			22,14.6 22,14.6 22,14.6 22,14.5 22,14.5 21.9,14.5 21.9,14.5 21.9,14.5 21.8,14.5 21.8,14.4 21.8,14.4 21.7,14.4 21.7,14.5 
			21.6,14.5 21.6,14.5 21.6,14.5 21.6,14.5 21.5,14.5 21.5,14.6 21.5,14.6 21.5,14.6 21.5,14.7 21.5,14.7 21.5,14.7 21.6,14.8 
			21.6,14.8 21.6,14.8 21.6,14.8 21.7,14.8 21.7,14.8 21.8,14.9 		"/>
		<polygon fill="#FFFFFF" points="21.1,14.1 20.9,14.3 20.9,14.3 21,14.4 21.1,14.4 21.3,14.3 21.5,14.3 21.7,14.3 22,14.2 
			22.3,14.2 22.6,14.2 22.8,14.3 22.5,14.3 22.2,14.3 21.9,14.3 21.7,14.4 21.4,14.4 21.2,14.5 21,14.5 20.9,14.5 20.8,14.5 
			20.7,14.4 20.7,14.3 20.7,14.3 20.7,14.2 20.8,14.2 20.8,14.1 20.9,14.1 20.9,14.1 21,14.1 21,14.1 		"/>
		<path fill="#EB5650" d="M19.1,36.1l-4.5,4.7c0,0-0.3,0.3-1,0.2c-0.8,0-1.3-0.9-1.6-1.4c-0.1,0-0.4-0.1-0.4-0.1l-0.6,0.4
			c0,0-0.2,0.2-0.1,0.3c0.1,0.2,1.2,1.2,1.7,1.3c0.2,0,0,0.2,0,0.2c-0.5,0.2-1.3-0.2-1.3-0.2s-0.1,0-0.5-0.1c-0.5,0-0.4,0.3-0.4,0.3
			s0.2,0.5,0.3,0.7c0.3,0.4,2.2-0.2,2.2-0.2s0.4-0.1,0.5,0.2c-0.7,0.6-1.2,1.1-1.5,1.5c-0.4,0.6-0.2,1-0.1,1
			c0.2,0.1,0.8,0.1,1.1-0.2c0.2-0.2,0.4-0.9,0.9-1.6c0.4-0.5,1-1,1.4-1.1c0.9-0.2,2.1,0.4,2.1,0.4s0.6,0.2,0.9-0.5
			c0.1-0.2,0.1-0.3,0.1-0.3l-0.1-0.2c0,0-1.5-0.4-2.2-0.1c-0.3,0.1-0.3-0.1-0.2-0.2c0.1-0.2,0.5-0.7,1.1-1.3
			c1.1-1.1,2.5-2.7,2.6-3.3C19.2,36.2,19.1,36.1,19.1,36.1"/>
		<path fill="#EB5650" d="M16,15c-0.1,0.8,0.1,0.9,0.4,1.1c0.3,0.2,2.6,0,3.1,0.1c0.4,0,1.7,1.2,1.7,1.2s-1.1-0.6-1.7-0.7
			c-0.9-0.1-2.2,0-3.1,0.1c-0.9,0.1-1.1-0.7-1.1-0.7S15.2,15.3,16,15"/>
		<path fill="#212121" d="M26.2,16.9c0,0-0.5-0.6-0.6-0.6c0.4-0.3,0.7-0.5,0.6-0.7c-0.2,0.2-1.1,0-1.1-0.4c0.2-0.1,0.2,0,0.7-0.6
			c-1.5,0.2-1.3-1.1-1.3-1.1l-4.7,0l-0.5,0.9l4.2,4.1c0,0,0.6,1.1,0.6,1.4c-0.6-0.1-1.1-0.4-2.5,0.6c-1.4-0.5-1.1-0.2-3.6,0.5
			c-0.8,0.2-1.6-0.3-1.6-0.3s-0.8-0.9,0.5-1.4c0.1-0.2-0.9-1.2-2.2-2.6c-2.1-2.3-5-5.4-6-7C7,11.9,8.6,14,10.5,16
			c0.6,0.4,1.1,0.9,1.7,1.2c1.3,0.9,2.5,1.4,2.5,1.8c-0.2,0-0.3,0-0.4,0c-0.3-0.1-5.6-2.7-6.6-3.5c-0.8,2.6,1,2.9,2.2,3.4
			c1.2,0.5,3,1.2,4.4,1.5c0,0.1,0,0.1,0,0.1c-1.2,0.3-5,0.2-6.3-0.1c-0.9,2.8,5.6,1.9,6.6,1.4c0.1,0,0.1,0,0.1,0s0,0.1-0.1,0.2
			c-1.1,1-5.2,3-6.1,3.3c1.2,3.6,6.5-1.9,6.9-2.5c0.1,0,0.1,0,0.2,0c0.4,0.4-5.1,7.1-5.9,8c3.4,2.3,6.2-4.9,7.5-7.4
			c0.2,0,0.2,0,0.2,0s0,0.4,0,0.5c0,0.2-2.9,8.6-4.1,11c5.3,0.1,5-7.7,5.9-11.4c0-0.1,0.1-0.1,0.3-0.1c0.3,0.4-0.1,5.8-0.4,7.7
			c4-1.1,2.3-6.8,2.5-7.5c0.2-0.4,0.6-0.3,0.6-0.3s1.3,3.9,1.2,4.3c-0.2,0.4-6.7,9.3-6.7,9.3l2.5-0.2c0,0,0.4,3.2,0.6,3.2
			c2.3-4.6,4.4-8.4,4.7-8.6c0.3,3.2,1,5.5,0.4,8.4c-0.6,2.9-4.4,5.1-5.8,5c-0.1,0-0.2-0.1-0.3-0.2c-1-1.1-1.3-1-1.8-1
			c-0.5,0-1.3,0.3-1.4,1.2c-0.1,0.5,0.5,0.9,0.5,0.9s-0.1-0.6,0.4-0.8c0.3-0.1,0.7-0.1,1,0.3c0.2,0.3,0.3,0.6,0.5,0.7
			c0.2,0.1,1.2,0.3,1.3,0.2c0.4-0.2,4.3-0.8,6.3-5.3c0.1-0.1,0.2,0,0.1,0.4c0,0.4-0.6,2.5-1.1,3.1c-0.2,0.2-0.4,0.7,0,0.9
			c0.7,0.4,1.7,1.4,1.7,1.4L26.2,16.9z"/>
		<path fill="#EB5650" d="M20,16.1c-1.2-0.6-2.8-0.5-2.8-0.5s-0.3,0.1-0.4,0.4c-0.5-0.2-0.4-0.7-0.4-0.7s0-1.2,1.5-0.8
			c0.2,0.1,0.6,0,0.6-0.2c0-0.1,0.4-0.5,0.9-0.2c0.5,0.3,3.7,3.5,4.2,4.6c-2.4-1.1-4.3-1.3-4.3-1.3s-0.6,0-1.2,0
			c0.4-0.3,1.2-0.8,1.5-0.7c0.4,0.1,1.7,0.5,1.7,0.5L20,16.1z"/>
		<path fill="#EB5650" d="M24.7,12.6L24.7,12.6c0,0-5.1,0-5.1,0c-0.2,0-0.3,0.1-0.3,0.3c0,0.2,0.1,0.3,0.3,0.3c0,0,0,0,0,0h5.1
			c0,0,0,0,0,0c0.2,0,0.3-0.1,0.3-0.3C24.9,12.7,24.8,12.6,24.7,12.6"/>
		<path fill="#EB5650" d="M24.4,13.1L24.4,13.1c0,0-4.7,0-4.7,0c-0.1,0-0.3,0.1-0.3,0.3c0,0.2,0.1,0.3,0.3,0.3h4.7
			c0.1,0,0.3-0.1,0.3-0.3C24.7,13.3,24.6,13.1,24.4,13.1"/>
		<path fill="#FFFFFF" d="M22.4,14.7c0,0.2-0.2,0.3-0.5,0.3c-0.3,0-0.5-0.1-0.5-0.3c0-0.2,0.2-0.3,0.5-0.3
			C22.2,14.4,22.4,14.5,22.4,14.7"/>
		<path fill="#212121" d="M22,14.6c0,0.1-0.1,0.2-0.2,0.2c-0.1,0-0.2-0.1-0.2-0.2c0-0.1,0.1-0.2,0.2-0.2C21.9,14.4,22,14.5,22,14.6"
			/>
		<path fill="#FFFFFF" d="M21.1,14.1c0,0-0.4,0.1-0.4,0.3c0,0.4,1.3-0.3,2.1-0.1c-0.6-0.2-1.8,0.2-1.9,0
			C20.9,14.3,21.1,14.1,21.1,14.1"/>
		<path fill="#EB5650" d="M19.3,11.8c0,0.1,0,0.6,0.2,0.7c0.1,0,0.2,0,0.3-0.1c0.1-0.1,0.1-0.2,0.1-0.2c0,0-0.2-0.3,0-0.5
			c0.2-0.3,0.7-0.6,2.2-0.7c1.4,0,2,0.4,2.2,0.7c0.2,0.3,0,0.5,0,0.5c0,0,0,0.1,0,0.2c0.1,0.1,0.2,0.1,0.3,0.1
			c0.2-0.1,0.2-0.6,0.2-0.7c-0.1-0.6-0.7-1.2-2.7-1.2C20.1,10.6,19.5,11.3,19.3,11.8"/>
		<path fill="#EB5650" d="M22.9,9.2c0,0.4-0.4,0.7-0.9,0.7c-0.5,0-0.9-0.3-0.9-0.7c0-0.4,0.4-0.7,0.9-0.7
			C22.5,8.5,22.9,8.8,22.9,9.2"/>
		<path fill="#EB5650" d="M22.5,10.3c0,0.2,0.2,0.3,0.4,0.3s0.4-0.1,0.4-0.3c0-0.2-0.2-0.3-0.4-0.3S22.5,10.1,22.5,10.3"/>
		<path fill="#EB5650" d="M22.5,11.6c0,0.2-0.2,0.3-0.4,0.3s-0.4-0.1-0.4-0.3c0-0.2,0.2-0.3,0.4-0.3S22.5,11.4,22.5,11.6"/>
		<path fill="#EB5650" d="M22.5,10.9c0,0.2-0.2,0.3-0.4,0.3s-0.4-0.1-0.4-0.3c0-0.2,0.2-0.3,0.4-0.3S22.5,10.7,22.5,10.9"/>
		<path fill="#EB5650" d="M21.7,10.3c0,0.2-0.2,0.3-0.4,0.3c-0.2,0-0.4-0.1-0.4-0.3c0-0.2,0.2-0.3,0.4-0.3S21.7,10.1,21.7,10.3"/>
		<path fill="#EB5650" d="M20.9,10.4c0,0.2-0.2,0.3-0.4,0.3c-0.2,0-0.4-0.2-0.4-0.3c0-0.2,0.2-0.3,0.4-0.3
			C20.7,10.1,20.9,10.3,20.9,10.4"/>
		<path fill="#EB5650" d="M20.2,10.7c0,0.2-0.2,0.3-0.4,0.3c-0.2,0-0.4-0.1-0.4-0.3c0-0.2,0.2-0.3,0.4-0.3
			C20,10.4,20.2,10.5,20.2,10.7"/>
		<path fill="#EB5650" d="M19.6,11.2c0,0.2-0.2,0.3-0.4,0.3s-0.4-0.2-0.4-0.3c0-0.2,0.2-0.3,0.4-0.3S19.6,11,19.6,11.2"/>
		<path fill="#EB5650" d="M19.3,11.8c0,0.2-0.2,0.3-0.4,0.3s-0.4-0.1-0.4-0.3c0-0.2,0.2-0.3,0.4-0.3S19.3,11.6,19.3,11.8"/>
		<path fill="#EB5650" d="M23.2,10.4c0,0.2,0.2,0.3,0.4,0.3c0.2,0,0.4-0.2,0.4-0.3c0-0.2-0.2-0.3-0.4-0.3
			C23.4,10.1,23.2,10.3,23.2,10.4"/>
		<path fill="#EB5650" d="M24,10.7c0,0.2,0.2,0.3,0.4,0.3c0.2,0,0.4-0.1,0.4-0.3c0-0.2-0.2-0.3-0.4-0.3C24.1,10.4,24,10.5,24,10.7"
			/>
		<path fill="#EB5650" d="M24.5,11.2c0,0.2,0.2,0.3,0.4,0.3s0.4-0.2,0.4-0.3c0-0.2-0.2-0.3-0.4-0.3S24.5,11,24.5,11.2"/>
		<path fill="#EB5650" d="M24.8,11.8c0,0.2,0.2,0.3,0.4,0.3c0.2,0,0.4-0.1,0.4-0.3c0-0.2-0.2-0.3-0.4-0.3
			C25,11.5,24.8,11.6,24.8,11.8"/>
		<path fill="#EB5650" d="M22.5,12.2c0,0.2-0.2,0.3-0.4,0.3s-0.4-0.2-0.4-0.3c0-0.2,0.2-0.3,0.4-0.3S22.5,12,22.5,12.2"/>
		<path fill="#EB5650" d="M22.5,10.2c0,0.2-0.2,0.3-0.4,0.3c-0.2,0-0.4-0.1-0.4-0.3c0-0.2,0.2-0.3,0.4-0.3
			C22.3,9.9,22.5,10.1,22.5,10.2"/>
		<path fill="#EB5650" d="M18.6,43.1c0.4-0.2,0.5-0.8,0.4-0.9c-0.5-0.6-1.1-0.7-1.1-0.7s-0.3,0.3,0.3,0.7
			C18.8,42.6,18.6,43,18.6,43.1"/>
		<path fill="#EB5650" d="M9.6,40.1c0-0.3,0.4-1.3,1.6-0.7c0.4,0.2,0.3,0.5,0.3,0.5S11.3,40.2,11,40C10.3,39.6,10.3,39.5,9.6,40.1"
			/>
		<path fill="#EB5650" d="M9.8,43.2c0,0,0.1-1,0.9-1.1c0.5-0.1,0.2-0.4,0.2-0.4s-0.8-0.2-1.3,0.7C9.4,42.7,9.8,43.2,9.8,43.2"/>
		<path fill="#EB5650" d="M12.9,45.7c-0.4-0.3-0.4-0.7-0.4-1c0-0.3-0.6,0.1-0.6,0.3C11.9,45.1,11.7,45.9,12.9,45.7"/>
		<polygon fill="#FCCF3E" points="36.7,20.2 36.7,24 39.5,24 39.5,22.5 41.8,22.5 41.8,24 44.5,24 44.5,21.8 42.8,21.8 42.8,20.2 
			44.5,20.2 44.5,19.4 44.5,13.8 42.8,13.8 42.8,12.2 44.5,12.2 44.5,10 41.8,10 41.8,11.5 39.5,11.5 39.5,10 36.7,10 36.7,13.8 
			35.3,13.8 35.3,20.2 		"/>
		<polygon fill="#EB5650" points="40.6,17.7 40.6,20 39,20 39,17.7 37.3,17.7 37.3,16.3 39,16.3 39,14 40.6,14 40.6,16.3 42.3,16.3 
			42.3,17.7 		"/>
		<path fill="#FCCF3E" d="M29.7,37.2c3.5-1.3,3.7-3.6,3.7-4.8h2.2c0,1.2,0.2,3.5,3.7,4.8v2.3c-3.5,1.3-3.7,3.1-3.7,4.3h-2.2
			c0-1.2-0.2-3-3.7-4.3L29.7,37.2z"/>
		<path fill="#EB5650" d="M36.4,38.3c0-0.5-0.4-0.9-1-0.9c0-0.5-0.4-0.9-1-0.9c-0.5,0-1,0.4-1,0.9c-0.5,0-1,0.4-1,0.9s0.4,0.9,1,0.9
			c0,0.5,0.4,0.9,1,0.9c0.5,0,1-0.4,1-0.9C35.9,39.2,36.4,38.8,36.4,38.3"/>
		<path fill="#FCCF3E" d="M29.7,38.4c0,0.5-0.4,0.8-0.9,0.8c-0.5,0-0.9-0.4-0.9-0.8c0-0.5,0.4-0.8,0.9-0.8
			C29.3,37.5,29.7,37.9,29.7,38.4"/>
		<path fill="#FCCF3E" d="M41,38.4c0,0.5-0.4,0.8-0.9,0.8c-0.5,0-0.9-0.4-0.9-0.8c0-0.5,0.4-0.8,0.9-0.8C40.6,37.5,41,37.9,41,38.4"
			/>
		<path fill="#FCCF3E" d="M35.3,44.1c0,0.5-0.4,0.8-0.9,0.8c-0.5,0-0.9-0.4-0.9-0.8c0-0.5,0.4-0.8,0.9-0.8
			C34.9,43.3,35.3,43.7,35.3,44.1"/>
		<path fill="#FCCF3E" d="M35.7,9.9c0-0.3-0.2-0.6-0.4-0.7c0-0.5-0.4-0.8-0.9-0.8c-0.5,0-0.9,0.4-0.9,0.8c-0.2,0.2-0.4,0.4-0.4,0.8
			c0,0,0,0,0,0.1v23.3h2.6V9.9L35.7,9.9z"/>
		<path fill="#FCCF3E" d="M35.9,30.3h-3c-0.3,0-0.6,0.3-0.6,0.6c0,0.3,0.3,0.6,0.6,0.6h3c0.3,0,0.6-0.3,0.6-0.6
			C36.5,30.5,36.2,30.3,35.9,30.3"/>
		<path fill="#FCCF3E" d="M35.9,32.1h-3c-0.3,0-0.6,0.3-0.6,0.6s0.3,0.6,0.6,0.6h3c0.3,0,0.6-0.3,0.6-0.6
			C36.5,32.4,36.2,32.1,35.9,32.1"/>
		<path fill="#FCCF3E" d="M40.1,37C40.1,37,40.1,37,40.1,37c0-0.4-0.3-0.7-0.6-0.7c-0.4,0-0.6,0.3-0.6,0.6v0h0v2.8h0v0
			c0,0.4,0.3,0.6,0.6,0.6c0.4,0,0.6-0.3,0.6-0.6c0,0,0,0,0,0V37z"/>
		<path fill="#FCCF3E" d="M28.8,39.7C28.8,39.7,28.8,39.8,28.8,39.7c0,0.4,0.3,0.7,0.6,0.7c0.4,0,0.6-0.3,0.6-0.6v0h0V37h0v0
			c0-0.4-0.3-0.6-0.6-0.6c-0.4,0-0.6,0.3-0.6,0.6c0,0,0,0,0,0V39.7z"/>
		<path fill="#FCCF3E" d="M35.8,44.1C35.8,44.1,35.8,44.1,35.8,44.1c0.4,0,0.7-0.3,0.7-0.6c0-0.4-0.3-0.6-0.6-0.6h0H33h0
			c-0.4,0-0.6,0.3-0.6,0.6c0,0.4,0.3,0.6,0.6,0.6c0,0,0,0,0,0H35.8z"/>
	</g>
</g>
</svg>
