<?xml version="1.0" encoding="utf-8"?>
<!-- Generator: Adobe Illustrator 18.1.1, SVG Export Plug-In . SVG Version: 6.00 Build 0)  -->
<svg version="1.1" id="Ebene_1" xmlns="http://www.w3.org/2000/svg" xmlns:xlink="http://www.w3.org/1999/xlink" width="54" height="54">
<g>
	<g>
		<rect x="-1" y="-1.1" fill="#EB5650" width="54.4" height="54.6"/>
		<path fill="#FCCF3E" d="M36.7,10.1c0,2.8-2.5,5.1-5.6,5.1c-3.1,0-5.6-2.3-5.6-5.1C25.5,7.2,28,5,31.1,5C34.2,5,36.7,7.2,36.7,10.1
			"/>
		<path fill="#FCCF3E" d="M12.2,7.3c0,0.1,5.2,42.1,5.2,42.1c0.1,0,0.8-0.1,0.9-0.1c0-0.1-4.8-42.1-4.8-42.2
			C13.4,7.2,12.3,7.3,12.2,7.3"/>
		<path fill="#FCCF3E" d="M12.6,5.7c-0.8,0.1-1.4,0.6-1.4,1.1c0,0,0,0.1,0,0.1c0.1,0.5,0.8,0.9,1.6,0.8C13.4,7.6,13.8,7.3,14,7
			c0.1-0.2,0.2-0.4,0.2-0.5C14.1,6,13.4,5.6,12.6,5.7"/>
		<path fill="#FCCF3E" d="M14,16.6c-0.7,0.1-1.3,0.5-1.3,1c0,0,0,0.1,0,0.1c0.1,0.5,0.8,0.8,1.5,0.7c0.8-0.1,1.4-0.6,1.3-1.1
			C15.5,16.9,14.8,16.5,14,16.6"/>
		<path fill="#212121" d="M18.1,20.4c4.2-0.4,9.3-1.8,11.6-7.3c2.2,0,2.9-0.1,2.9-0.1s0.8,1.1,4.7,3.2c0.7,0.4,3,8.5,3,8.5
			s0.4,1.6-0.8,1.7c-1.2,0.1-3.3,0-3.3,0s2.7,21.5,2.7,21.7c-0.2,0-1.1,0.5-2.1,1.1c-1.1,0.6-2.2,1.2-2.9,1.3c0,0-0.6,0.1-0.8-0.3
			c-0.2-0.5,0.1-0.8,0.1-0.8l2.3-2c0,0,0.1-0.1,0.1-0.2c0-0.1-0.1-0.1-0.1-0.1l-3.8,0l-3.5-18.2l-0.4,0.1L31.1,47l-7.3,0l1.9-23.8
			l-7.4,0C18.3,23.2,18.1,20.6,18.1,20.4"/>
		<polygon fill="#FFFFFF" points="32.5,15.2 32.7,13.1 32.1,14.5 30.1,14.5 29.6,13.2 29.8,15.2 		"/>
		<rect x="29.5" y="19.8" fill="#FCCF3E" width="4.9" height="3.3"/>
		<rect x="28.6" y="19.8" fill="#FCCF3E" width="0.7" height="3.3"/>
		<rect x="27.9" y="19.8" fill="#FCCF3E" width="0.5" height="3.3"/>
		<path fill="#212121" d="M34.7,10.1c0,1.9-1.7,3.5-3.7,3.5c-2.1,0-3.7-1.6-3.7-3.5c0-1.9,1.7-3.5,3.7-3.5
			C33.1,6.6,34.7,8.1,34.7,10.1"/>
		<path fill="#FFFFFF" d="M30.9,8.5c0.9,0,2.4-0.3,2.1,1.5c-0.1,0.4,0,0.9,0,0.9s0.1,0.6,0,1c-0.1,1.2-0.4,1.4-1.7,1.4
			c-1.6,0.1-1.6-0.1-1.8-0.7c-0.6-1.8-0.3-3.1-0.3-3.1S29.2,8.5,30.9,8.5"/>
		<path fill="#212121" d="M26.5,47.4c0,0-1.8,0-2.7,0c-0.7,0.9-2.7,0.7-3.2,0.7c-0.5,0-0.8,0.3-0.8,0.8c0,0.5,0.4,0.8,0.8,0.8h5
			c0.6,0,0.8-0.6,0.8-0.6L26.5,47.4z"/>
		<path fill="#FFFFFF" d="M31.9,25.7l-0.3-2.3l-1.6,0h-1.5c-0.1,0-0.1,0.1-0.1,0.1c0,0.1,0.1,0.1,0.1,0.1h1.2c0,0,0,0.2-0.1,0.2
			c0,0-1.3,0-1.4,0c-0.1,0-0.4-0.3-0.4-0.3c0,0,0,0,0,0c0,0,0-0.1,0-0.1c0-0.1,0-0.1-0.1-0.1c-0.1,0-0.1,0-0.1,0.1
			c0,0.2,0,0.2,0,0.2c0,0,0,0,0.5,0.5c0,0,0.1,0.1,0.1,0.1l1.2,0l0,0.2h-1.2c-0.1,0-0.1,0.1-0.1,0.1c0,0.1,0.1,0.1,0.1,0.1h1.2
			l0,0.2h-1.2c-0.1,0-0.1,0.1-0.1,0.1c0,0.1,0.1,0.1,0.1,0.1h1.2l0,0.2h-1.1c-0.1,0-0.1,0.1-0.1,0.1c0,0.1,0.1,0.1,0.1,0.1h1.5
			c0,0,0,0,0,0L31.9,25.7L31.9,25.7z"/>
		<path fill="#212121" d="M13.1,20.6c0,0.2,0.1,0.5,0.5,0.5H15v2.2l5.9,0l-0.3-2.9l-7.6,0L13.1,20.6z"/>
		<path fill="#FFFFFF" d="M18.1,23l-0.2-2.4l-4.6,0c0,0.1,0.1,0.3,0.3,0.3h1.6V23L18.1,23z"/>
		<path fill="#212121" d="M13.7,20.8c-0.2,0-0.4,0.2-0.4,0.4c0,0.2,0.2,0.4,0.4,0.4h1.4c0.2,0,0.4-0.2,0.4-0.4
			c0-0.2-0.2-0.4-0.4-0.4H13.7z"/>
		<path fill="#FFFFFF" d="M13.7,21.1c-0.1,0-0.2,0.1-0.2,0.2c0,0.1,0.1,0.2,0.2,0.2h1.4c0.1,0,0.2-0.1,0.2-0.2
			c0-0.1-0.1-0.2-0.2-0.2H13.7z"/>
		<path fill="#212121" d="M13.8,21.4c-0.2,0-0.4,0.2-0.4,0.4c0,0.2,0.2,0.4,0.4,0.4h1.4c0.2,0,0.4-0.2,0.4-0.4
			c0-0.2-0.2-0.4-0.4-0.4H13.8z"/>
		<path fill="#FFFFFF" d="M13.8,21.7c-0.1,0-0.1,0.1-0.1,0.2c0,0.1,0.1,0.2,0.1,0.2h1.4c0.1,0,0.1-0.1,0.1-0.2
			c0-0.1-0.1-0.2-0.1-0.2H13.8z"/>
		<path fill="#212121" d="M13.9,22c-0.2,0-0.4,0.2-0.4,0.4c0,0.2,0.2,0.4,0.4,0.4h1.4c0.2,0,0.4-0.2,0.4-0.4c0-0.2-0.2-0.4-0.4-0.4
			H13.9z"/>
		<path fill="#FFFFFF" d="M13.9,22.3c-0.1,0-0.1,0.1-0.1,0.1c0,0.1,0.1,0.1,0.1,0.1h1.4c0.1,0,0.1-0.1,0.1-0.1
			c0-0.1-0.1-0.1-0.1-0.1H13.9z"/>
		<path fill="#212121" d="M14,22.6c-0.2,0-0.4,0.2-0.4,0.3c0,0.2,0.2,0.3,0.4,0.3h1.3c0.2,0,0.4-0.2,0.4-0.3c0-0.2-0.2-0.3-0.4-0.3
			H14z"/>
		<path fill="#FFFFFF" d="M14,22.8c-0.1,0-0.1,0.1-0.1,0.1c0,0.1,0.1,0.1,0.1,0.1h1.3c0.1,0,0.1-0.1,0.1-0.1c0-0.1-0.1-0.1-0.1-0.1
			H14z"/>
		<path fill="#100B0E" d="M30,10.6c0,0.1-0.1,0.2-0.2,0.2c-0.1,0-0.2-0.1-0.2-0.2c0-0.1,0.1-0.2,0.2-0.2C29.9,10.3,30,10.4,30,10.6"
			/>
		<path fill="#100B0E" d="M32.1,10.6c0,0.1-0.1,0.2-0.2,0.2c-0.1,0-0.2-0.1-0.2-0.2c0-0.1,0.1-0.2,0.2-0.2
			C32,10.3,32.1,10.4,32.1,10.6"/>
		<path fill="#100B0E" d="M31.3,9.8c0,0-0.1,0.1,0,0.2c0,0,0.2,0.1,0.2,0.1c0,0,0.4-0.2,0.5-0.2c0.2,0,0.4,0.1,0.6,0.2
			c0.1,0,0.1,0,0.2,0c0-0.1,0-0.1,0-0.2C31.9,9.3,31.3,9.8,31.3,9.8"/>
		<path fill="#100B0E" d="M29.5,9.8c-0.1,0-0.1,0.1-0.1,0.2c0,0.1,0.1,0.1,0.2,0.1c0.1-0.1,0.4-0.2,0.6,0c0.1,0.1,0.2,0.2,0.1,0.5
			c-0.1,1-0.1,1.3-0.1,1.3c0,0.1,0.1,0.1,0.1,0.1l0.9,0c0.1,0,0.1-0.2,0-0.2c0,0-0.6,0-0.8,0c0-0.2,0-0.6,0.1-1.3c0,0,0-0.1,0-0.1
			c0-0.3,0-0.5-0.1-0.6C30.2,9.5,29.5,9.8,29.5,9.8"/>
		<path fill="#100B0E" d="M30.5,12.4c-0.1,0-0.2,0.1-0.2,0.2c0,0.1,0.1,0.2,0.2,0.2h1c0.1,0,0.2-0.1,0.2-0.2c0-0.1-0.1-0.2-0.2-0.2
			H30.5z"/>
	</g>
</g>
</svg>
