<?xml version="1.0" encoding="utf-8"?>
<!-- Generator: Adobe Illustrator 18.1.1, SVG Export Plug-In . SVG Version: 6.00 Build 0)  -->
<svg version="1.1" id="Ebene_1" xmlns="http://www.w3.org/2000/svg" xmlns:xlink="http://www.w3.org/1999/xlink" width="54" height="54">
<g>
	<g>
		<polygon fill="#030405" points="13.3,25.9 13.4,-1 -0.9,-1 -0.9,25.9 13.4,25.9 		"/>
		<polygon fill="#030405" points="9.9,29.1 10.3,29.4 10.8,29.7 11.2,29.9 11.7,30 12.3,30.2 12.8,30.3 13.3,30.4 13.9,30.5 
			14.5,30.5 15,30.6 15.1,30.7 15.2,30.8 15.3,30.9 15.4,31 15.5,31.2 15.6,31.3 15.7,31.5 15.8,31.7 15.8,31.8 15.9,31.9 17,33.5 
			17.1,33.5 17.2,33.6 17.2,33.6 17.2,33.7 17.3,33.7 17.3,33.7 17.4,33.8 17.4,33.8 17.5,33.9 17.6,34 17.5,34.2 17.3,34.4 
			17.2,34.6 17.1,34.9 17,35.1 16.9,35.4 16.8,35.6 16.8,35.8 16.7,36.1 16.6,36.3 16.5,36.3 16.3,36.3 16.1,36.3 15.9,36.3 
			15.8,36.2 15.6,36.2 15.5,36.1 15.4,36 15.3,35.9 15.2,35.7 15.1,35.2 15,34.7 14.9,34.2 14.8,33.7 14.6,33.2 14.4,32.8 
			14.1,32.4 13.8,32 13.3,31.8 12.7,31.6 12.5,31.5 12.3,31.4 12,31.3 11.8,31.1 11.5,31 11.3,31 11,31 10.8,31 10.5,31.1 
			10.3,31.3 10.2,31.3 10.2,31.2 10.2,31.2 10.2,31.1 10.2,31 10.2,30.9 10.2,30.9 10.1,30.8 10.1,30.7 10,30.6 9.8,30.7 9.6,30.8 
			9.4,30.8 9.2,30.9 9,31 8.8,31 8.6,31 8.4,31 8.2,30.9 8,30.8 7.8,30.7 7.7,30.6 7.5,30.5 7.4,30.4 7.3,30.2 7.2,30.1 7,30 
			6.9,29.9 6.7,29.8 6.6,29.7 8.7,29.8 8.7,29.8 8.8,29.8 8.8,29.7 8.8,29.7 8.8,29.6 8.8,29.6 8.8,29.6 8.8,29.5 8.8,29.5 
			8.7,29.5 8.7,29.5 8.6,29.5 8.6,29.5 8.5,29.5 8.5,29.5 8.5,29.5 8.5,29.5 8.4,29.5 8.4,29.5 8.3,29.5 8.2,29.5 8.1,29.5 8,29.5 
			7.9,29.5 7.8,29.5 7.7,29.5 7.6,29.5 7.5,29.5 7.4,29.4 7.3,29.4 7.3,29.4 7.3,29.3 7.2,29.3 7.2,29.2 7.2,29.2 7.1,29.1 7,29 
			7,28.9 7,28.9 7,28.8 7.2,28.9 7.5,29 7.8,29 8.1,29 8.4,29 8.7,29 9,29 9.3,29 9.6,29 		"/>
		<polygon fill="#030405" points="26,31.9 26,32.2 26,32.5 25.9,32.8 25.8,33.1 25.7,33.4 25.6,33.7 25.4,33.9 25.3,34.2 25.1,34.4 
			24.9,34.6 25.1,34.7 25.4,34.7 25.7,34.7 26,34.7 26.4,34.8 26.8,34.8 27.1,34.9 27.4,34.9 27.6,34.9 27.8,35 28.2,35.1 
			28.7,35.2 29.2,35.4 29.7,35.5 30.2,35.6 30.7,35.7 31.2,35.8 31.6,36 32.1,36.2 32.5,36.4 32.8,36.5 33,36.6 33.2,36.7 
			33.4,36.8 33.6,36.9 33.8,37 34,37.2 34.2,37.3 34.4,37.4 34.6,37.6 34.7,37.5 34.9,37.4 35,37.3 35.2,37.2 35.3,37.2 35.5,37.1 
			35.6,37 35.7,37 35.9,36.9 36.1,36.9 36.4,37 36.7,37 37,37.2 37.3,37.3 37.6,37.5 37.9,37.7 38.1,37.8 38.4,37.9 38.7,38 39,38 
			39,38 39.1,37.9 39.1,37.9 39.2,37.9 39.2,37.9 39.2,37.9 39.3,37.9 39.3,37.9 39.3,38 39.3,38.1 39.2,38.1 39.2,38.2 39.2,38.2 
			39.1,38.3 39,38.4 38.9,38.4 38.7,38.5 38.6,38.5 38.4,38.5 38.2,38.5 38,38.5 37.9,38.4 37.8,38.4 37.8,38.3 37.7,38.3 
			37.7,38.3 37.6,38.4 37.6,38.5 37.6,38.6 37.7,38.6 37.7,38.6 37.7,38.7 37.8,38.7 37.8,38.8 37.9,38.8 37.9,38.9 37.9,38.9 
			37.9,39 37.8,39 37.7,39 37.6,39 37.4,39 37.3,38.9 37.1,38.9 37,38.8 36.9,38.7 36.7,38.5 36.6,38.3 36.6,38.2 36.5,38.1 
			36.4,38 36.3,37.9 36.2,37.8 36.1,37.7 36,37.7 36,37.6 35.9,37.6 35.9,37.6 35.9,37.6 35.8,37.6 35.7,37.5 35.6,37.5 35.5,37.5 
			35.3,37.5 35.2,37.5 35.1,37.6 35,37.7 35,37.8 35.3,38.2 35.5,38.7 35.7,39.2 35.9,39.7 36.1,40.2 36.3,40.6 36.6,41 37,41.4 
			37.5,41.6 38.1,41.6 38.2,41.7 38.2,41.8 38.3,41.9 38.3,42 38.3,42 38.3,42.2 38.3,42.3 38.3,42.4 38.3,42.5 38.3,42.6 38.4,43 
			38.4,43.4 38.5,43.9 38.6,44.3 38.7,44.8 38.8,45.2 38.8,45.7 38.9,46.1 39.1,46.5 39.2,47 39.1,47.1 39,47.2 38.9,47.3 
			38.7,47.4 38.6,47.4 38.4,47.4 38.3,47.5 38.2,47.6 38,47.7 37.9,47.9 37.8,48.1 37.7,48.3 37.5,48.4 37.3,48.5 37.1,48.6 
			36.9,48.6 36.6,48.6 36.4,48.6 36.2,48.7 36,48.8 35.9,48.8 35.8,48.8 35.7,48.8 35.6,48.9 35.6,48.9 35.5,48.9 35.5,48.9 
			35.4,48.9 35.4,48.8 35.4,48.8 35.5,48.6 35.6,48.5 35.7,48.3 35.9,48.2 36,48.1 36.1,47.9 36.3,47.7 36.4,47.6 36.5,47.4 
			36.6,47.3 36.5,47.2 36.4,47.2 36.4,47.2 36.3,47.2 36.2,47.3 36.1,47.3 36.1,47.4 36,47.4 35.9,47.5 35.8,47.5 35.7,47.6 
			35.7,47.7 35.6,47.8 35.5,47.9 35.5,48 35.4,48.1 35.3,48.1 35.2,48.1 35.1,48.1 34.9,48.1 34.8,48.1 34.7,48.1 34.7,48.1 
			34.7,48.1 34.7,48.1 34.6,48 34.6,48 34.8,47.8 35,47.6 35.2,47.4 35.5,47.2 35.7,47 36,46.9 36.2,46.8 36.5,46.7 36.8,46.8 
			37,46.9 37.1,46.9 37.3,46.9 37.3,46.9 37.4,46.8 37.4,46.8 37.5,46.7 37.5,46.6 37.5,46.5 37.6,46.4 37.6,46.3 37.5,45.9 
			37.5,45.5 37.4,45 37.3,44.6 37.2,44.1 37,43.7 36.8,43.4 36.5,43.1 36.1,42.9 35.7,42.7 35.4,42.6 35.1,42.6 34.7,42.5 
			34.5,42.4 34.1,42.3 33.8,42.2 33.5,42 33.2,41.9 32.9,41.8 32.7,41.6 32.5,41.5 32.3,41.4 32.2,41.2 32.1,41 32,40.9 31.9,40.7 
			31.9,40.5 31.8,40.4 31.7,40.2 31.6,40 31.5,39.8 31.3,39.5 31.1,39.3 31,39 30.7,38.8 30.5,38.6 30.3,38.4 30,38.2 29.7,38.1 
			29.4,38.1 29.3,38.1 29.2,38 29.2,38 29.1,38 29.1,38 29,38 29,38.1 28.9,38.1 28.8,38.1 28.7,38.1 28.9,38.2 29,38.3 29.2,38.4 
			29.3,38.4 29.4,38.5 29.5,38.6 29.6,38.6 29.8,38.7 29.9,38.8 30,38.8 29.3,38.8 28.6,38.8 27.8,38.8 26.9,38.8 26,38.9 
			25.1,38.9 24.2,39 23.3,39.1 22.6,39.2 21.9,39.2 22,39.1 22,38.9 22.1,38.7 22.2,38.6 22.3,38.4 22.4,38.2 22.4,38.1 22.4,37.9 
			22.4,37.8 22.2,37.7 22.1,37.7 22,37.8 21.9,37.8 21.9,37.9 21.8,38.1 21.8,38.2 21.8,38.3 21.7,38.4 21.7,38.5 21.6,38.6 
			21.6,38.7 21.5,38.9 21.4,39.1 21.3,39.2 21.2,39.3 21.1,39.5 21,39.6 20.9,39.7 20.8,39.8 20.6,39.9 20.2,39.7 19.8,39.5 
			19.4,39.3 19.1,39.2 18.7,39 18.3,38.9 17.9,38.7 17.5,38.6 17.1,38.5 16.7,38.4 16.6,38.4 16.4,38.4 16.3,38.3 16.2,38.3 
			16.1,38.3 16,38.3 15.9,38.3 15.8,38.2 15.7,38.2 15.6,38.1 15.4,38.1 15.1,38.1 14.8,38.1 14.6,38.1 14.3,38.2 14.1,38.3 
			13.8,38.5 13.6,38.6 13.4,38.8 13.2,39 13.1,39.2 12.9,39.4 12.7,39.7 12.6,40 12.4,40.3 12.3,40.5 12.1,40.6 11.8,40.7 
			11.5,40.6 11.2,40.4 11.1,40.5 10.9,40.7 10.8,40.8 10.8,41 10.7,41.1 10.6,41.3 10.6,41.5 10.5,41.6 10.3,41.7 10.1,41.8 
			8.1,42.1 9.3,40.5 9.3,40.5 9.3,40.4 9.3,40.4 9.3,40.4 9.3,40.4 9.2,40.4 9.2,40.4 9.2,40.3 9.2,40.3 9.2,40.3 9.1,40.3 9,40.4 
			8.9,40.5 8.8,40.6 8.7,40.7 8.6,40.8 8.5,41 8.4,41.1 8.3,41.1 8.3,41.2 8.2,41.3 8.1,41.3 8,41.3 7.9,41.3 7.8,41.3 7.7,41.2 
			7.6,41.2 7.5,41.2 7.4,41.1 7.3,41.1 7.5,41 7.7,40.9 7.8,40.8 8,40.7 8.2,40.5 8.4,40.4 8.6,40.3 8.8,40.1 9,40 9.2,39.9 
			9.3,39.9 9.5,39.9 9.6,39.9 9.7,39.8 9.8,39.8 10,39.8 10.1,39.7 10.2,39.6 10.3,39.6 10.4,39.5 11,39.3 11.5,39 11.9,38.5 
			12.3,38 12.8,37.6 13.2,37.1 13.7,36.8 14.2,36.5 14.7,36.4 15.4,36.6 18.3,36.9 18.4,36.8 18.5,36.8 18.6,36.8 18.7,36.8 
			18.8,36.7 18.8,36.7 18.9,36.6 18.9,36.6 18.9,36.5 18.9,36.4 17.2,36.4 17.2,36.1 17.3,35.8 17.3,35.5 17.4,35.2 17.5,34.9 
			17.7,34.6 17.9,34.3 18.1,34.1 18.4,33.9 18.7,33.7 19,33.6 19.2,33.5 19.5,33.5 19.8,33.4 20.1,33.3 20.4,33.2 20.6,33.1 
			20.9,33.1 21.2,33 21.5,32.9 21.6,32.8 21.8,32.7 21.9,32.7 22.1,32.6 22.3,32.5 22.4,32.4 22.5,32.3 22.6,32.1 22.7,32 
			22.7,31.8 22.8,31.8 22.9,31.8 23,31.8 23.1,31.8 23.2,31.8 23.3,31.8 23.3,31.9 23.4,31.9 23.5,31.9 23.6,31.9 23.8,31.9 
			24,31.9 24.2,31.9 24.4,31.8 24.6,31.8 24.7,31.7 24.9,31.6 25,31.5 25.2,31.4 25.3,31.2 25.4,31.3 25.5,31.3 25.6,31.4 
			25.7,31.4 25.7,31.5 25.8,31.6 25.9,31.7 25.9,31.7 26,31.8 26,31.9 		"/>
		<polygon fill="#030405" points="30.8,39.6 30.9,39.8 31,40 31.1,40.2 31.1,40.4 31.3,40.5 31.4,40.7 31.4,40.9 31.5,41 31.6,41.2 
			31.7,41.4 31.8,41.5 31.9,41.6 32,41.7 32.1,41.8 32.3,41.9 32.4,42 32.5,42.1 32.6,42.2 32.7,42.2 32.7,42.2 32.7,42.3 
			32.7,42.3 32.6,42.3 32.6,42.4 32.5,42.4 32.5,42.5 32.4,42.5 32.3,42.6 32.2,42.6 32.1,42.7 32,42.7 31.9,42.7 31.9,42.7 
			31.8,42.7 31.7,42.7 31.7,42.7 31.6,42.6 31.6,42.6 31.5,42.5 31.5,42.5 31.5,42.4 31.4,42.4 31.4,42.4 31.3,42.4 31.3,42.4 
			31.2,42.4 31.1,42.4 31,42.4 31,42.4 30.9,42.4 30.8,42.3 30.7,42.1 30.7,41.9 30.8,41.6 30.9,41.4 30.9,41.2 31,40.9 31,40.7 
			31,40.5 30.9,40.7 30.7,40.9 30.5,41.2 30.4,41.5 30.2,41.8 30.1,42.1 30.1,42.4 30.1,42.7 30.1,43 30.2,43.3 30.3,43.4 
			30.4,43.5 30.5,43.7 30.5,43.8 30.6,44 30.6,44.1 30.7,44.2 30.6,44.3 30.5,44.4 30.3,44.5 29.8,44.7 29.3,44.8 28.7,45 
			28.2,45.2 27.7,45.4 27.2,45.6 26.8,45.9 26.4,46.2 26,46.6 25.6,47.1 25.6,47.1 25.6,47.2 25.5,47.2 25.5,47.2 25.4,47.3 
			25.4,47.3 25.3,47.3 25.2,47.3 25.2,47.3 25.1,47.2 25,47.2 25,47.1 24.9,47 24.8,47 24.8,46.9 24.7,46.9 24.7,46.8 24.6,46.8 
			24.5,46.9 24.5,47 24.3,47.1 24.2,47.2 24.2,47.3 24.1,47.4 24,47.5 24,47.6 23.9,47.7 23.8,47.8 23.7,48 23.6,48.1 23.5,48.2 
			23.3,48.2 23.1,48.2 22.9,48.2 22.8,48.3 22.5,48.3 22.4,48.3 22.2,48.4 22,48.4 21.9,48.4 21.9,48.3 22,48.1 22,47.9 22.1,47.8 
			22.2,47.6 22.3,47.5 22.4,47.3 22.5,47.2 22.5,47 22.6,46.9 22.5,46.8 22.4,46.8 22.3,46.9 22.2,47 22,47.1 22,47.3 21.9,47.4 
			21.8,47.5 21.7,47.7 21.6,47.8 20.7,47.9 20.8,47.7 21,47.6 21.1,47.4 21.3,47.2 21.5,47.1 21.7,46.9 21.8,46.7 22,46.5 
			22.1,46.4 22.3,46.1 22.9,46.1 23.5,46 24.1,45.8 24.7,45.6 25.3,45.4 25.9,45.1 26.4,44.8 26.8,44.4 27.2,44 27.6,43.5 
			27.4,43.3 27.2,43.2 27,43 26.8,42.8 26.6,42.6 26.5,42.4 26.4,42.2 26.3,41.9 26.3,41.7 26.3,41.4 26.6,41 26.9,40.6 27.3,40.3 
			27.7,40 28.1,39.8 28.5,39.6 29,39.5 29.5,39.4 30.1,39.4 30.6,39.3 30.8,39.7 		"/>
		<polygon fill="#EB5650" points="30.4,39.9 30.2,40 30.1,40 30,40 29.9,40 29.8,40.1 29.7,40.1 29.7,40.1 29.7,40.2 29.6,40.2 
			29.6,40.2 29.7,40.2 29.7,40.2 29.8,40.2 29.9,40.2 30,40.2 30.1,40.3 30.2,40.3 30.4,40.3 30.5,40.3 30.6,40.3 30.7,40.3 
			30.8,40.4 30.9,40.4 31,40.4 31.1,40.5 31.1,40.5 31.2,40.5 31.3,40.5 31.3,40.6 31,40.1 31,40 30.9,40 30.9,40 30.8,40 30.7,40 
			30.6,40 30.5,40 30.4,40 		"/>
		<polygon fill="#030405" points="35.8,29.1 35.8,29.1 35.8,29.1 35.8,29.1 35.8,29.1 35.9,29 35.9,29 35.9,29 35.9,29 35.9,28.9 
			35.9,28.9 35.9,28.8 35.8,28.7 35.8,28.6 35.7,28.5 35.6,28.4 35.5,28.3 35.4,28.2 35.3,28.2 35.2,28.2 35,28.1 35,28.2 
			34.8,28.2 34.8,28.2 34.7,28.2 34.6,28.2 34.6,28.3 34.5,28.3 34.4,28.4 34.4,28.5 34.3,28.5 34.6,28.6 34.6,28.5 34.6,28.5 
			34.6,28.5 34.6,28.5 34.6,28.4 34.6,28.4 34.6,28.4 34.6,28.3 34.6,28.2 34.6,28.1 34.6,28 34.5,27.9 34.4,27.8 34.3,27.7 
			34.2,27.7 34.1,27.6 33.9,27.6 33.8,27.6 33.7,27.6 33.6,27.6 33.5,27.6 33.4,27.7 33.3,27.7 33.3,27.8 33.2,27.8 33.2,27.9 
			33.1,28 33,28.1 33.2,28.1 33.2,28.1 33.2,28.1 33.2,28.1 33.2,28.1 33.2,28 33.3,28 33.3,28 33.3,27.9 33.3,27.9 33.2,27.8 
			33.2,27.7 33.2,27.6 33.1,27.5 33,27.4 32.9,27.3 32.8,27.2 32.7,27.2 32.6,27.2 32.4,27.2 32.3,27.2 32.2,27.2 32.1,27.2 
			31.9,27.3 31.8,27.3 31.7,27.4 31.6,27.5 31.6,27.6 31.5,27.7 31.5,27.8 31.6,27.8 31.6,27.8 31.6,27.8 31.6,27.8 31.6,27.8 
			31.6,27.7 31.6,27.6 31.6,27.5 31.5,27.4 31.5,27.3 31.4,27.2 31.3,27.1 31.1,27.1 31,27 30.9,27 30.7,27 30.6,27 30.4,27 
			30.3,27.1 30.2,27.1 30.1,27.2 30,27.3 29.8,27.4 29.8,27.4 29.7,27.6 29.7,27.7 30,27.7 30,27.6 29.9,27.4 29.8,27.4 29.8,27.3 
			29.7,27.2 29.6,27.1 29.4,27.1 29.3,27 29.1,27 29,27 28.8,27 28.7,27 28.6,27.1 28.4,27.2 28.3,27.2 28.2,27.3 28.2,27.4 
			28.1,27.6 28.1,27.7 28.1,27.8 28.1,27.8 28.1,27.8 28.2,27.8 28.2,27.7 28.1,27.6 28.1,27.5 28,27.5 27.9,27.4 27.8,27.3 
			27.7,27.3 27.6,27.3 27.4,27.2 27.3,27.2 27.2,27.3 27,27.3 26.9,27.3 26.8,27.4 26.7,27.5 26.6,27.6 26.5,27.7 26.4,27.8 
			26.4,27.9 26.4,28 26.4,28 26.4,28.1 26.4,28.1 26.4,28.2 26.4,28.3 26.5,28.4 26.5,28.4 26.5,28.5 26.5,28.5 26.5,28.5 
			26.3,28.4 26.1,28.2 26,28.1 25.8,28 25.6,27.9 25.5,27.9 25.2,27.8 25,27.8 24.7,27.8 24.3,27.7 24.2,27.7 24.1,27.7 23.9,27.8 
			23.7,27.8 23.5,27.9 23.3,27.9 23.1,28 22.9,28.1 22.7,28.1 22.5,28.2 22.2,28.4 22,28.6 21.7,28.7 21.4,28.9 21.1,29 20.9,29.1 
			20.6,29.1 20.2,29.1 19.9,29 19.6,28.8 19.5,28.9 19.5,29 19.5,29 19.5,29.1 19.5,29.1 19.6,29.2 19.6,29.2 19.7,29.3 19.7,29.3 
			19.7,29.4 19.6,29.7 19.6,29.9 19.6,30 19.8,30 20,30 20.3,30 20.5,30 20.8,30.1 20.9,30.2 21,30.4 19.7,30.9 19.7,30.9 
			19.7,30.9 19.7,31 19.8,31 19.8,31.1 19.8,31.1 19.9,31.2 20,31.3 20,31.3 20.2,31.3 20.3,31.2 20.4,31.2 20.5,31.2 20.6,31.1 
			20.8,31.1 20.9,31.1 21,31.1 21.1,31.1 21.2,31.2 21.3,31.3 21.3,31.4 21.3,31.5 21.3,31.6 21.3,31.7 21.2,31.8 21.1,31.9 21,32 
			21,32 20.9,32.1 20.8,32.1 20.9,32.2 20.9,32.2 21,32.2 21,32.1 21.1,32.1 21.2,32.1 21.3,32.1 21.3,32.1 21.4,32.1 21.5,32.1 
			21.6,32 21.6,32 21.7,31.9 21.8,31.9 21.9,31.8 21.9,31.7 22,31.7 22,31.6 22.1,31.5 22.1,31.4 22.2,31.4 22.3,31.4 22.4,31.4 
			22.5,31.4 22.7,31.4 22.8,31.4 22.9,31.4 23,31.4 23.2,31.4 23.3,31.5 23.5,31.5 23.8,31.6 24,31.5 24.2,31.5 24.4,31.4 
			24.6,31.3 24.8,31.1 25,31 25.2,30.8 25.4,30.7 25.6,31 25.8,31.1 26.1,31.3 26.3,31.4 26.6,31.4 26.8,31.4 27.1,31.4 27.4,31.3 
			27.7,31.3 28,31.2 28,31.1 27.9,31 27.8,30.9 27.8,30.9 27.7,30.8 27.7,30.7 27.6,30.6 27.5,30.5 27.4,30.5 27.3,30.4 27.2,30.4 
			27.1,30.4 26.9,30.3 26.8,30.3 26.6,30.3 26.5,30.2 26.4,30.2 26.3,30.2 26.1,30.1 26,30.1 26.1,30 26.1,30 26.2,30 26.3,29.9 
			26.3,29.9 26.4,29.9 26.5,29.9 26.5,29.8 26.6,29.8 26.7,29.8 27.3,29.7 27.9,29.6 28.6,29.6 29.2,29.6 29.8,29.7 30.5,29.9 
			31.1,30 31.7,30.2 32.3,30.4 32.8,30.7 33.4,31 33.9,31.3 34.4,31.8 34.9,32.2 35.3,32.8 35.7,33.3 36,33.9 36.2,34.5 36.4,35.1 
			36.4,35.7 36.7,35.2 36.7,35.1 36.8,35 36.8,34.9 36.9,34.8 36.9,34.7 36.9,34.6 36.9,34.5 36.9,34.3 36.9,34.2 36.9,34.1 
			36.9,34.1 36.9,34 36.9,34 36.9,33.9 36.9,33.8 36.8,33.8 36.8,33.7 36.8,33.7 36.7,33.7 36.6,33.6 36.7,33.9 36.8,33.8 
			36.8,33.8 36.8,33.8 36.8,33.7 36.8,33.7 36.8,33.6 36.8,33.6 36.9,33.5 36.9,33.5 36.9,33.5 36.8,33.3 36.8,33.2 36.8,33.1 
			36.7,33.1 36.6,33 36.6,32.9 36.5,32.8 36.4,32.8 36.3,32.7 36.2,32.7 36.3,32.9 36.3,32.8 36.3,32.8 36.3,32.8 36.4,32.7 
			36.4,32.7 36.4,32.7 36.4,32.6 36.4,32.6 36.4,32.5 36.4,32.5 36.4,32.4 36.3,32.3 36.3,32.2 36.2,32 36.1,32 36.1,31.9 36,31.8 
			35.8,31.8 35.7,31.8 35.6,31.7 35.7,32 35.8,31.9 35.8,31.9 35.8,31.9 35.8,31.8 35.8,31.8 35.8,31.8 35.9,31.7 35.9,31.7 
			35.9,31.6 35.9,31.6 35.8,31.5 35.8,31.4 35.7,31.3 35.7,31.1 35.6,31.1 35.5,31 35.4,30.9 35.3,30.9 35.2,30.9 35,30.8 35,31 
			35.1,31 35.1,31 35.1,30.9 35.1,30.9 35.1,30.9 35.1,30.8 35.1,30.8 35.1,30.8 35.1,30.7 35.1,30.7 35.1,30.6 35.1,30.4 35,30.3 
			35,30.2 34.9,30.1 34.8,30.1 34.7,30 34.6,30 34.4,29.9 34.3,29.9 34.3,29.9 34.2,29.9 34.2,29.9 34.1,29.9 34.1,30 34.1,30 
			34,30 34,30 33.9,30 33.9,30 34.1,30 34.1,29.9 34.1,29.7 34,29.6 34,29.5 33.9,29.5 33.8,29.4 33.7,29.3 33.6,29.3 33.4,29.2 
			33.3,29.2 33.3,29.2 33.3,29.2 33.3,29.2 33.3,29.2 33.3,29.1 33.3,29.1 33.3,29.1 33.3,29.1 33.3,29.1 33.3,29.1 33.1,29 
			33.3,28.9 33.5,28.9 33.7,28.9 33.9,28.9 34.1,28.9 34.3,29 34.5,29.1 34.7,29.2 35,29.3 35.4,29.5 35.7,29.6 36,29.9 36.4,30.1 
			36.7,30.4 37,30.6 37.3,30.9 37.6,31.3 37.8,31.6 38.1,31.9 38.3,32.3 38.3,32.2 38.4,32.1 38.4,32 38.4,32 38.4,31.9 38.4,31.8 
			38.4,31.8 38.4,31.7 38.4,31.7 38.4,31.6 38.4,31.5 38.4,31.4 38.4,31.3 38.4,31.3 38.3,31.2 38.3,31.1 38.2,31.1 38.1,31.1 
			38,31 37.9,31 38.1,31.5 38.1,31.5 38.2,31.4 38.2,31.4 38.2,31.3 38.3,31.3 38.3,31.2 38.3,31.2 38.3,31.1 38.3,31 38.3,31 
			38.3,30.9 38.3,30.8 38.2,30.6 38.2,30.5 38.1,30.5 38,30.4 37.9,30.3 37.8,30.3 37.6,30.2 37.5,30.2 37.5,30.2 37.4,30.2 
			37.4,30.2 37.4,30.2 37.4,30.2 37.3,30.2 37.6,30.7 37.7,30.6 37.7,30.6 37.7,30.5 37.7,30.5 37.7,30.5 37.8,30.4 37.8,30.4 
			37.8,30.3 37.8,30.3 37.8,30.2 37.8,30.1 37.7,30 37.7,29.9 37.6,29.8 37.5,29.7 37.4,29.6 37.3,29.5 37.2,29.5 37.1,29.5 
			36.9,29.5 36.9,29.5 36.9,29.5 36.8,29.5 36.8,29.5 36.8,29.5 36.7,29.5 36.7,29.5 36.6,29.5 36.6,29.5 36.6,29.5 36.9,29.9 
			36.9,29.9 36.9,29.8 37,29.8 37,29.7 37,29.7 37,29.7 37,29.6 37,29.6 37,29.5 37,29.5 37,29.4 37,29.3 36.9,29.1 36.9,29.1 
			36.8,29 36.7,28.9 36.6,28.8 36.5,28.8 36.3,28.7 36.2,28.7 36.1,28.7 36.1,28.7 36,28.8 36,28.8 35.9,28.8 35.9,28.8 35.8,28.8 
			35.7,28.9 35.7,28.9 35.6,29 		"/>
		<polyline fill="none" stroke="#FFFFFF" stroke-width="2.128" stroke-linecap="square" stroke-miterlimit="10" points="26.4,28.4 
			26.5,28.4 26.5,28.3 26.6,28.3 26.7,28.2 26.8,28.2 26.9,28.1 27,28.1 27.2,28 27.3,28 27.4,27.9 27.5,27.9 27.7,27.9 27.7,28 
			27.8,28 27.9,28 28,28.1 28.1,28.1 28.2,28.2 28.3,28.2 28.4,28.3 28.4,28.2 28.5,28.2 28.6,28.1 28.7,28.1 28.8,28 28.9,28 
			29,27.9 29.1,27.9 29.2,27.9 29.3,27.9 29.4,27.9 29.5,27.9 29.5,27.9 29.6,27.9 29.7,28 29.8,28 29.8,28.1 29.9,28.2 29.9,28.2 
			30,28.3 30,28.2 30.1,28.2 30.2,28.2 30.2,28.1 30.3,28.1 30.4,28.1 30.5,28.1 30.6,28.1 30.7,28.1 30.8,28.1 30.9,28.1 31,28.1 
			31.1,28.1 31.2,28.2 31.3,28.2 31.3,28.3 31.4,28.3 31.4,28.4 31.5,28.5 31.5,28.6 31.5,28.6 31.6,28.6 31.7,28.5 31.8,28.5 
			31.8,28.5 31.9,28.5 32,28.5 32.1,28.4 32.1,28.4 32.2,28.4 32.4,28.4 32.5,28.5 32.6,28.5 32.7,28.6 32.8,28.6 32.9,28.7 
			33,28.8 33,28.9 33.1,29 33.1,29.1 33.4,29.1 		"/>
		<polygon fill="#FFFFFF" points="24.2,29.2 24.2,29.1 24.2,29.1 24.1,29 24.1,29 24,29 24,29 23.9,28.9 23.8,28.9 23.7,28.9 
			23.6,28.9 23.6,28.9 23.4,28.9 23.4,28.9 23.3,29 23.2,29 23.2,29 23.1,29.1 23.1,29.1 23,29.1 23,29.2 23,29.2 23.1,29.3 
			23.1,29.3 23.2,29.4 23.2,29.4 23.3,29.4 23.4,29.5 23.4,29.5 23.5,29.5 23.6,29.5 23.7,29.5 23.8,29.5 23.9,29.5 24,29.4 
			24,29.4 24.1,29.4 24.1,29.3 24.2,29.3 24.2,29.2 24.3,29.2 		"/>
		<polygon fill="#030405" points="23.5,29.3 23.6,29.3 23.7,29.2 23.7,29.2 23.8,29.2 23.8,29.2 23.8,29.1 23.9,29.1 23.9,29 
			23.9,29 23.9,28.9 23.9,28.9 23.9,28.8 23.9,28.8 23.8,28.7 23.8,28.7 23.7,28.7 23.7,28.6 23.7,28.6 23.6,28.6 23.6,28.6 
			23.5,28.6 23.4,28.6 23.4,28.6 23.3,28.7 23.3,28.7 23.3,28.7 23.2,28.8 23.2,28.8 23.2,28.9 23.2,29 23.2,29 23.2,29.1 
			23.2,29.1 23.3,29.1 23.3,29.2 23.3,29.2 23.4,29.2 23.4,29.2 23.5,29.3 23.6,29.3 		"/>
		<polygon fill="#EB5650" points="20.9,30.7 20.8,30.7 20.6,30.8 20.3,30.8 20,30.9 19.7,30.9 19.4,30.9 19.1,30.9 18.8,30.9 
			18.6,30.8 18.4,30.7 18.2,30.5 18.1,30.4 18,30.2 17.9,30 17.9,29.9 17.9,29.7 18,29.6 18.1,29.5 18.1,29.4 18.2,29.4 18.2,29.4 
			18.3,29.4 18.3,29.5 18.3,29.5 18.4,29.6 18.4,29.6 18.5,29.7 18.5,29.8 18.5,29.9 18.6,30 18.7,30 18.7,30.1 18.7,30.1 
			18.8,30.2 18.8,30.2 18.8,30.2 18.9,30.2 18.9,30.3 18.9,30.3 19,30.3 19,30.3 19,30.3 19.1,30.4 19.2,30.4 19.2,30.4 19.3,30.4 
			19.4,30.4 19.5,30.4 19.5,30.4 19.6,30.4 19.6,30.4 19.8,30.4 19.9,30.4 20.1,30.4 20.3,30.4 20.5,30.4 20.7,30.3 20.9,30.3 
			20.9,30.3 21,30.3 21,30.7 		"/>
		<polyline fill="none" stroke="#030405" stroke-width="2.128" stroke-linecap="square" stroke-miterlimit="10" points="20.9,30.7 
			20.8,30.7 20.6,30.8 20.3,30.8 20,30.9 19.7,30.9 19.4,30.9 19.1,30.9 18.8,30.9 18.6,30.8 18.4,30.7 18.2,30.5 18.1,30.4 
			18,30.2 17.9,30 17.9,29.9 17.9,29.7 18,29.6 18.1,29.5 18.1,29.4 18.2,29.4 18.2,29.4 18.3,29.4 18.3,29.5 18.3,29.5 18.4,29.6 
			18.4,29.6 18.5,29.7 18.5,29.8 18.5,29.9 18.6,30 18.7,30 18.7,30.1 18.7,30.1 18.8,30.2 18.8,30.2 18.8,30.2 18.9,30.2 
			18.9,30.3 18.9,30.3 19,30.3 19,30.3 19,30.3 19.1,30.4 19.2,30.4 19.2,30.4 19.3,30.4 19.4,30.4 19.5,30.4 19.5,30.4 19.6,30.4 
			19.6,30.4 19.8,30.4 19.9,30.4 20.1,30.4 20.3,30.4 20.5,30.4 20.7,30.3 20.9,30.3 20.9,30.3 21,30.3 21,30.7 		"/>
		<rect x="-0.9" y="-1" fill="#FFFFFF" width="54.3" height="54.5"/>
		<path fill="#212121" d="M36.8,33.7c0.1-0.2,0-0.4,0-0.5c-0.1-0.2-0.2-0.3-0.4-0.4c0.1-0.2,0.1-0.4,0-0.6c-0.1-0.2-0.3-0.3-0.5-0.4
			c0.1-0.2,0-0.4,0-0.5c-0.1-0.3-0.4-0.4-0.7-0.4c0-0.2,0-0.3,0-0.5c-0.2-0.3-0.6-0.5-1-0.4c0-0.1,0-0.2-0.1-0.3
			c-0.2-0.4-0.6-0.5-1.1-0.4c0-0.1,0-0.3,0-0.4c-0.2-0.4-0.7-0.5-1.2-0.3c-0.1,0.1-0.2,0.1-0.3,0.2c0-0.1,0-0.2-0.1-0.3
			c-0.2-0.4-0.7-0.5-1.2-0.3c-0.1,0-0.2,0.1-0.2,0.1c0,0,0,0,0,0c-0.2-0.4-0.7-0.5-1.2-0.3c-0.2,0.1-0.3,0.2-0.4,0.3
			c-0.2-0.3-0.7-0.4-1.2-0.3c-0.3,0.1-0.5,0.2-0.7,0.4c0,0,0,0,0,0c-0.9-1-2-0.8-2.4-0.8c-1.6,0.2-2.4,1.3-3.4,1.3
			c-0.5,0-0.9-0.1-1.1-0.2c-0.2,0.4,0.2,0.3,0.2,0.6c0,0.1-0.5,0.6,0.2,0.6c0.3,0,0.8-0.1,1,0.2c-3,0.5-2.2-0.9-2.7-0.9
			c-0.7,0-0.6,2.1,1.4,1.7c0.1,0.2,0.2,0.3,0.3,0.3c0.7-0.5,2.2-0.2,0.8,0.8c1.1,0.1,1.3-0.7,1.3-0.7c0.4-0.2,1.3,0.2,1.9,0.1
			c0.5-0.1,1.2-0.8,1.4-0.8c0.7,0.8,1.2,0.8,2.6,0.5c-0.5-1.2-1.8-0.8-1.9-1.1c0.5-0.3,1.6-0.5,2.8-0.5c0,0,0,0,0,0
			c1.1,0.1,2.3,0.3,3.4,0.8c2.2,1,4.1,3,4.2,5.3C37,35,37.1,34.3,36.8,33.7 M23,29.2c0-0.1,0.1-0.2,0.2-0.2c0,0.2,0.2,0.3,0.3,0.3
			c0.2,0,0.3-0.2,0.3-0.3c0,0,0,0,0,0c0.2,0,0.4,0.1,0.4,0.3C24.3,29.6,23,29.5,23,29.2"/>
		<path fill="#212121" d="M17.2,33.6l0.4,0.4c0,0-0.5,0.6-0.9,2.4c-0.4-0.1-0.8-0.1-0.8-0.1s-0.5,0-0.7-0.8c-0.4-2-0.6-2.3-1-3.1
			c-0.2-0.4-0.8-0.6-1.4-0.8c-0.6-0.2-1.1-0.5-1.1-0.5s-0.7-0.4-1.3,0.1c-0.1,0.1-0.2,0-0.2-0.3c0-0.4-0.4-0.2-0.4-0.2
			S9.2,30.9,8.7,31C8,31.2,7,29.8,6.6,29.8c0.5,0,2.1,0.1,2.1,0.1s0.2-0.2,0.1-0.4c-0.2-0.2-1.4,0.2-1.5-0.1C7.2,29.2,7,28.8,7,28.8
			s0.7,0.3,1.7,0.2c0.8-0.1,1.2,0.1,1.3,0.2c1.5,1.1,4.2,1.4,4.6,1.4c0.6-0.1,0.9,0.6,1,0.8c0.2,0.3,0.2,0.5,0.2,0.5"/>
		<path fill="#212121" d="M38.4,31.4c0-0.1-0.1-0.2-0.1-0.3c0-0.1,0-0.3,0-0.4c-0.1-0.2-0.3-0.4-0.5-0.5c0-0.1,0-0.2,0-0.3
			c-0.1-0.3-0.4-0.5-0.7-0.5c0-0.1,0-0.1,0-0.2c-0.1-0.4-0.6-0.6-1.1-0.5c0,0,0-0.1,0-0.1c-0.1-0.4-0.7-0.6-1.2-0.4c0,0,0,0,0,0
			c0-0.1,0-0.1,0-0.2c-0.1-0.4-0.6-0.6-1.1-0.4c-0.1,0-0.2,0.1-0.2,0.1c0,0,0-0.1,0-0.1c-0.1-0.4-0.6-0.6-1.1-0.4
			c-0.2,0.1-0.3,0.2-0.5,0.3c-0.1-0.4-0.6-0.6-1.1-0.5c-0.3,0.1-0.5,0.2-0.6,0.4c-0.2-0.3-0.6-0.4-1-0.4c-0.4,0.1-0.7,0.3-0.8,0.6
			c-0.2-0.3-0.5-0.4-0.9-0.3c-0.5,0.1-0.8,0.5-0.7,0.9c0,0,0,0.1,0,0.1c0.2-0.2,0.5-0.3,0.7-0.4c0.5-0.1,1,0,1.2,0.2
			c0.1-0.1,0.2-0.1,0.3-0.2c0.5-0.2,1.1-0.2,1.4,0.2c0,0,0.1,0,0.1,0c0.6-0.3,1.3-0.1,1.5,0.4c0,0,0,0,0,0c0,0,0,0,0,0
			c0.6-0.3,1.3-0.1,1.5,0.4c0,0,0,0.1,0,0.1c1.2-0.3,4.1,1.3,5.1,3.4C38.5,32.1,38.5,31.7,38.4,31.4"/>
		<path fill="#212121" d="M7.3,41.1c0,0,0.6,0.1,0.8,0.2c0.1,0.1,1-1,1.1-1c0.1,0,0.2,0,0.2,0.1c0,0.1-1.2,1.6-1.2,1.6
			s1.1-0.2,1.8-0.3c0.7-0.1,0.7-0.6,0.9-1c0.3-0.3,0.4-0.4,0.4-0.4s0.2,0.3,0.7,0.3c0.5,0,0.6-1.1,1.7-2.1c1.2-1.1,3.4-0.1,3.4-0.1
			s3.3,1,3.6,1.4c1.1-0.4,1.2-2.3,1.6-2.2c0.8,0.2-0.3,1.2-0.2,1.5c0.6-0.1,7.6-0.6,8.1-0.4c0,0-1.3-0.7-1.3-0.7s1.7-0.9,3.3,2.7
			c0.5,1.3,2.1,1.3,3.1,1.7c2.8,0.3,2.3,3.4,2.6,3.7c-0.1,0.2-0.1,0.3-0.1,0.3l-0.2,0.2h-0.2c0,0-0.4-0.2-0.6-0.2
			c-0.6,0-1.1,0.6-2,1.3c0.5,0.2,0.8,0,0.8,0s0.9-1.2,1.2-0.8c0,0.1-1.2,1.3-1.3,1.4c0.1,0.3,0.8-0.1,1-0.1c0.2,0,1.5,0.1,1.6-0.8
			c0-0.2,1.1-0.6,1.1-0.6s0.1-0.2,0.2-0.3c-0.4-0.4-0.7-3.9-1-4.4c0.2-0.7-0.2-0.9-0.2-0.9s-0.6,0-1-0.3c-0.8-0.3-1.5-3.3-2.1-3.6
			c0-0.1,0.1-0.2,0.2-0.2c0.8-0.4,1.6,0.6,1.7,1.1c0.1,0.4,1.1,0.4,1.1,0.4s0.1-0.1-0.3-0.5c-0.1-0.1,0.1-0.2,0.1-0.2
			s1.4,0.5,1.6-0.5c-1.5,0.6-2.5-2.1-4.7-0.3c-1-0.7-3.8-2.5-9.7-2.9c1.6-2,1.2-3.1,0.5-3.4c-1.5,1.3-2,0.3-2.6,0.6
			c-0.3,2-5.5,0.4-5.5,4.6c0.1,0,1.5,0,1.7,0c0.1,0.2,0.2,0.2-0.5,0.5c-0.4-0.1-2.5-0.2-3.5-0.4c-1-0.1-2,1.1-2,1.1
			s-1.4,1.5-1.7,1.8c-0.4,0.2-1,0.4-1.2,0.5c-0.2,0.1-0.7,0.1-0.7,0.1L7.3,41.1z"/>
		<path fill="#212121" d="M30.6,39.4c0.6,0.6,0.6,1.9,2.1,2.9c-0.8,0.9-1.1,0.3-1.2,0.2c-1.5,0.2-0.3-1.6-0.4-1.9
			c-1.9,2-0.5,3.3-0.5,3.3s0.4,0.5-0.2,0.7c-1.1,0.3-3.9,1.1-4.7,2.5c-0.4,0.7-0.9-0.2-1.1-0.2c-0.3,0.1-1,1.3-1,1.3
			s-1.7,0.4-1.8,0.3c-0.1-0.1,0.5-1.2,0.7-1.6c-0.4-0.2-0.9,0.9-0.9,0.9l-1,0.1c0,0,1.6-1.5,1.6-1.8c0.1-0.2,3.1,0.3,5.3-2.6
			C23.7,40.5,29.6,39.1,30.6,39.4"/>
		<path fill="#EB5650" d="M29.6,40.2c0,0,0.5-0.4,1.4-0.1c0.1,0.2,0.1,0.2,0.2,0.5C31,40.2,29.9,40.3,29.6,40.2"/>
		<path fill="#EB5650" d="M18.2,29.5c0.2,0,0.1,0.8,1,0.9c0.5,0.1,1,0.1,1.7,0c0,0.1,0,0.1,0,0.2c-1.4,0.3-1.7,0.4-2.3,0.1
			C17.9,30.4,18,29.4,18.2,29.5"/>
		<rect x="-0.9" y="-1" fill="#212121" width="14.2" height="27"/>
		<g>
			<rect x="27.5" y="-1" fill="#3E94C6" width="25.9" height="27"/>
			<rect x="27.5" y="16.1" fill="#FCCF3E" width="8.9" height="9.8"/>
			<polygon fill="#FCCF3E" points="53.3,16.1 53.3,12.4 40.4,12.4 40.4,25.9 44.4,25.9 44.4,16.1 			"/>
			<polygon fill="#FCCF3E" points="27.5,12.5 40.4,12.5 40.4,-1 36.4,-1 36.4,8.8 27.5,8.8 			"/>
			<g>
				<rect x="44.4" y="-1" fill="#FCCF3E" width="8.9" height="9.8"/>
			</g>
		</g>
		<line fill="none" stroke="#212121" stroke-miterlimit="10" x1="-0.9" y1="25.9" x2="53.3" y2="25.9"/>
		<line fill="none" stroke="#212121" stroke-miterlimit="10" x1="27.5" y1="25.9" x2="27.5" y2="-1"/>
	</g>
</g>
</svg>
