<?xml version="1.0" encoding="utf-8"?>
<!-- Generator: Adobe Illustrator 18.1.1, SVG Export Plug-In . SVG Version: 6.00 Build 0)  -->
<svg version="1.1" id="Ebene_1" xmlns="http://www.w3.org/2000/svg" xmlns:xlink="http://www.w3.org/1999/xlink" width="54" height="54">
<g>
	<g>
		<rect x="26.1" y="6.8" fill="#FFFFFF" width="27.2" height="7.8"/>
		<rect x="26.1" y="22.3" fill="#FFFFFF" width="27.2" height="7.8"/>
		<rect x="26.1" y="37.9" fill="#FFFFFF" width="27.2" height="7.8"/>
		<rect x="-0.9" y="-1" fill="#FFFFFF" width="54.2" height="54.4"/>
		<path fill="#EB5650" d="M8.2,13.3c0,1.9,0.9,4.1,3.3,4.2c0.5,0,1.6,0,2.4-0.8c0.5-0.5,0.7-1.1,0.7-2c0-1.4-0.7-2-1.3-2.2
			c-0.6-0.3-1.4-0.3-1.9-0.1c0.2-0.4,0.5-1,1.7-1c0.5,0,1.2,0.1,1.8,0.8c0.7,0.9,1.4,2.8,0.4,7l0,0.2h5l0-0.2
			c0.1-4.4-0.8-7.6-2.6-9.4c-1.5-1.5-3.1-1.7-3.8-1.7C8.3,8.1,8.2,13.3,8.2,13.3"/>
		<rect x="14.5" y="19.8" fill="#EB5650" width="6.8" height="1"/>
		<rect x="14.5" y="22.6" fill="#EB5650" width="6.8" height="1"/>
		<rect x="13.2" y="21.2" fill="#EB5650" width="9.5" height="1"/>
		<polygon fill="#EB5650" points="15.5,39.8 12.6,43.4 14.9,24.1 20.9,24.1 23.2,43.4 20.2,39.9 17.9,47.6 		"/>
		<rect x="26.1" y="-1" fill="#EB5650" width="27.2" height="7.8"/>
		<rect x="26.1" y="14.6" fill="#EB5650" width="27.2" height="7.8"/>
		<rect x="26.1" y="30.1" fill="#EB5650" width="27.2" height="7.8"/>
		<rect x="26.1" y="45.6" fill="#EB5650" width="27.2" height="7.8"/>
	</g>
</g>
</svg>
