<?xml version="1.0" encoding="utf-8"?>
<!-- Generator: Adobe Illustrator 18.1.1, SVG Export Plug-In . SVG Version: 6.00 Build 0)  -->
<svg version="1.1" id="Ebene_1" xmlns="http://www.w3.org/2000/svg" xmlns:xlink="http://www.w3.org/1999/xlink" width="54" height="54">
<g>
	<g>
		<polygon fill="#FFFFFF" points="29.4,21.3 31.9,21.3 31.9,23.4 35.8,23.4 35.8,21.3 37.6,21.3 37.6,23.4 41.9,23.4 41.9,21 
			40.3,21 40.3,20.1 40.3,19.1 41.9,19.1 41.9,16.7 37.6,16.7 37.6,18.8 35.8,18.8 35.8,16.7 33.5,16.7 33.5,15.8 33.5,14.9 
			35.8,14.9 35.8,12.7 37.6,12.7 37.6,14.9 41.9,14.9 41.9,12.5 40.3,12.5 40.3,11.5 40.3,10.6 41.9,10.6 41.9,8.2 37.6,8.2 
			37.6,10.3 35.8,10.3 35.8,8.2 31.9,8.2 31.9,10.3 29.4,10.3 		"/>
		<polyline fill="none" stroke="#030405" stroke-width="2.92" stroke-linecap="square" stroke-miterlimit="10" points="29.4,21.3 
			31.9,21.3 31.9,23.4 35.8,23.4 35.8,21.3 37.6,21.3 37.6,23.4 41.9,23.4 41.9,21 40.3,21 40.3,20.1 40.3,19.1 41.9,19.1 
			41.9,16.7 37.6,16.7 37.6,18.8 35.8,18.8 35.8,16.7 33.5,16.7 33.5,15.8 33.5,14.9 35.8,14.9 35.8,12.7 37.6,12.7 37.6,14.9 
			41.9,14.9 41.9,12.5 40.3,12.5 40.3,11.5 40.3,10.6 41.9,10.6 41.9,8.2 37.6,8.2 37.6,10.3 35.8,10.3 35.8,8.2 31.9,8.2 
			31.9,10.3 29.4,10.3 		"/>
		<polygon fill="#FFFFFF" points="22.7,21.3 20.2,21.3 20.2,23.4 16.2,23.4 16.2,21.3 14.5,21.3 14.5,23.4 10.1,23.4 10.1,21 
			11.7,21 11.7,20.1 11.7,19.1 10.1,19.1 10.1,16.7 14.5,16.7 14.5,18.8 16.2,18.8 16.2,16.7 18.6,16.7 18.6,15.8 18.6,14.9 
			16.2,14.9 16.2,12.7 14.5,12.7 14.5,14.9 10.1,14.9 10.1,12.5 11.7,12.5 11.7,11.5 11.7,10.6 10.1,10.6 10.1,8.2 14.5,8.2 
			14.5,10.3 16.2,10.3 16.2,8.2 20.2,8.2 20.2,10.3 22.7,10.3 		"/>
		<polyline fill="none" stroke="#030405" stroke-width="2.92" stroke-linecap="square" stroke-miterlimit="10" points="22.7,21.3 
			20.2,21.3 20.2,23.4 16.2,23.4 16.2,21.3 14.5,21.3 14.5,23.4 10.1,23.4 10.1,21 11.7,21 11.7,20.1 11.7,19.1 10.1,19.1 
			10.1,16.7 14.5,16.7 14.5,18.8 16.2,18.8 16.2,16.7 18.6,16.7 18.6,15.8 18.6,14.9 16.2,14.9 16.2,12.7 14.5,12.7 14.5,14.9 
			10.1,14.9 10.1,12.5 11.7,12.5 11.7,11.5 11.7,10.6 10.1,10.6 10.1,8.2 14.5,8.2 14.5,10.3 16.2,10.3 16.2,8.2 20.2,8.2 
			20.2,10.3 22.7,10.3 		"/>
		<polygon fill="#FFFFFF" points="29.5,27.1 29.5,6.2 26.6,6.2 26.6,27.1 26.5,29.4 26.5,29.5 26.5,29.7 26.6,30 26.6,30.3 
			26.6,30.6 26.6,30.9 26.7,31.3 26.7,31.6 26.8,31.9 26.8,32.2 26.9,32.5 27,32.8 27.2,33 27.3,33.2 27.5,33.4 27.7,33.5 
			27.9,33.6 28.1,33.6 28.3,33.7 28.5,33.8 28.7,33.8 29,33.8 29.3,33.9 29.7,33.9 30.1,33.8 30.6,33.7 31,33.6 31.4,33.4 
			31.8,33.2 32.1,32.9 32.3,32.8 32.6,32.7 32.9,32.5 33.2,32.4 33.5,32.3 33.9,32.2 34.2,32.1 34.5,32.1 34.8,32 35.1,32 
			35.7,32.1 36.3,32.2 36.9,32.4 37.4,32.7 37.8,33.1 38.2,33.5 38.5,33.9 38.8,34.4 38.9,35 39,35.6 38.9,36.1 38.8,36.7 
			38.5,37.2 38.2,37.7 37.8,38.1 37.4,38.4 36.9,38.7 36.3,38.9 35.7,39.1 35.1,39.1 34.8,39.1 34.5,39.1 34.2,39 33.9,38.9 
			33.5,38.8 33.2,38.7 32.9,38.6 32.6,38.5 32.3,38.3 32.1,38.2 31.8,37.9 31.4,37.7 31,37.6 30.5,37.5 30.1,37.5 29.7,37.5 
			29.3,37.6 29,37.7 28.7,37.8 28.5,37.9 28.2,38.3 27.9,38.6 27.8,39 27.8,39.5 27.8,39.9 27.9,40.3 28,40.7 28.2,41.1 28.4,41.6 
			28.6,41.9 28.6,42 28.7,42.2 28.7,42.4 28.7,42.5 28.7,42.7 28.8,42.9 28.8,43.1 28.8,43.3 28.8,43.4 28.8,43.5 28.7,44 
			28.6,44.4 28.5,44.7 28.2,45.1 28,45.4 27.6,45.7 27.3,45.9 26.9,46 26.4,46.1 26,46.2 25.6,46.1 25.1,46 24.7,45.9 24.4,45.7 
			24.1,45.4 23.8,45.1 23.5,44.7 23.4,44.4 23.3,44 23.2,43.5 23.2,43.4 23.3,43.3 23.3,43.1 23.3,42.9 23.3,42.7 23.3,42.5 
			23.3,42.4 23.3,42.2 23.4,42 23.4,41.9 23.6,41.6 23.8,41.1 24,40.7 24.2,40.3 24.2,39.9 24.3,39.5 24.2,39 24.1,38.6 23.8,38.3 
			23.5,37.9 23.3,37.8 23,37.7 22.7,37.6 22.3,37.5 21.9,37.5 21.5,37.5 21,37.6 20.6,37.7 20.2,37.9 19.9,38.2 19.7,38.3 
			19.4,38.5 19.1,38.6 18.8,38.7 18.5,38.8 18.1,38.9 17.8,39 17.5,39.1 17.2,39.1 16.9,39.1 16.3,39.1 15.7,38.9 15.1,38.7 
			14.6,38.4 14.2,38.1 13.8,37.7 13.5,37.2 13.3,36.7 13.1,36.1 13.1,35.6 13.1,35 13.3,34.4 13.5,33.9 13.8,33.5 14.2,33.1 
			14.6,32.7 15.1,32.4 15.7,32.2 16.3,32.1 16.9,32 17.2,32 17.5,32.1 17.8,32.1 18.1,32.2 18.5,32.3 18.8,32.4 19.1,32.5 
			19.4,32.7 19.7,32.8 19.9,32.9 20.2,33.2 20.6,33.4 21,33.6 21.5,33.7 21.9,33.8 22.3,33.9 22.7,33.9 23,33.8 23.3,33.8 
			23.5,33.8 23.7,33.7 23.9,33.6 24.1,33.5 24.3,33.4 24.5,33.3 24.7,33.2 24.9,33 25.1,32.8 25.2,32.5 25.3,32.3 25.3,32 
			25.3,31.7 25.4,31.4 25.4,31.1 25.4,30.8 25.5,30.5 25.5,30.3 25.5,29.9 25.5,29.7 25.5,29.4 25.5,27.1 25.5,6.2 22.6,6.2 
			22.6,27.1 22.5,29.4 22.5,29.5 22.5,29.6 22.5,29.7 22.5,29.8 22.5,29.9 22.5,30 22.5,30.2 22.5,30.3 22.5,30.4 22.5,30.5 
			22.5,30.9 22.4,31.1 22.2,31.2 22.1,31.3 21.9,31.3 21.7,31.3 21.5,31.2 21.4,31.2 21.3,31.2 21.3,31.1 20.9,30.8 20.5,30.6 
			20.1,30.3 19.7,30 19.2,29.8 18.8,29.6 18.3,29.5 17.8,29.4 17.3,29.3 16.8,29.3 15.7,29.4 14.7,29.6 13.7,30 12.8,30.5 12,31.1 
			11.4,31.8 10.8,32.7 10.4,33.6 10.1,34.5 10,35.6 10.1,36.6 10.4,37.5 10.8,38.5 11.4,39.3 12,40 12.8,40.7 13.7,41.2 14.7,41.6 
			15.7,41.8 16.8,41.9 17.3,41.8 17.8,41.8 18.3,41.7 18.8,41.6 19.2,41.4 19.7,41.2 20.1,41 20.5,40.8 20.9,40.5 21.3,40.2 
			21.4,40.3 21.2,40.6 21,40.9 20.9,41.2 20.7,41.5 20.6,41.8 20.5,42.2 20.5,42.5 20.4,42.8 20.4,43.2 20.4,43.5 20.5,44.4 
			20.7,45.3 21,46 21.4,46.7 22,47.4 22.6,47.9 23.4,48.3 24.2,48.7 25,48.9 25.9,48.9 26.8,48.9 27.6,48.7 28.4,48.3 29.2,47.9 
			29.8,47.4 30.3,46.7 30.8,46 31.1,45.3 31.4,44.4 31.4,43.5 31.4,43.2 31.4,42.8 31.3,42.5 31.3,42.2 31.2,41.8 31.1,41.5 
			30.9,41.2 30.8,40.9 30.6,40.6 30.4,40.3 30.5,40.2 30.9,40.5 31.3,40.8 31.7,41 32.1,41.2 32.6,41.4 33,41.6 33.5,41.7 34,41.8 
			34.5,41.8 35,41.9 36.1,41.8 37.1,41.6 38.1,41.2 39,40.7 39.8,40 40.4,39.3 41,38.5 41.4,37.5 41.7,36.6 41.8,35.6 41.7,34.5 
			41.4,33.6 41,32.7 40.4,31.8 39.8,31.1 39,30.5 38.1,30 37.1,29.6 36.1,29.4 35,29.3 34.5,29.3 34,29.4 33.5,29.5 33.1,29.6 
			32.7,29.8 32.3,30 31.9,30.3 31.5,30.6 31.1,30.8 30.8,31.1 30.7,31.2 30.6,31.2 30.5,31.2 30.3,31.3 30.1,31.3 29.9,31.3 
			29.8,31.2 29.6,31 29.5,30.8 29.5,30.5 29.5,30.4 29.5,30.3 29.5,30.2 29.5,30.1 29.5,29.9 29.5,29.8 29.5,29.7 29.5,29.6 
			29.5,29.5 29.5,29.4 29.5,27.1 		"/>
		<polyline fill="none" stroke="#030405" stroke-width="2.92" stroke-linecap="square" stroke-miterlimit="10" points="29.5,27.1 
			29.5,6.2 26.6,6.2 26.6,27.1 26.5,29.4 26.5,29.5 26.5,29.7 26.6,30 26.6,30.3 26.6,30.6 26.6,30.9 26.7,31.3 26.7,31.6 
			26.8,31.9 26.8,32.2 26.9,32.5 27,32.8 27.2,33 27.3,33.2 27.5,33.4 27.7,33.5 27.9,33.6 28.1,33.6 28.3,33.7 28.5,33.8 
			28.7,33.8 29,33.8 29.3,33.9 29.7,33.9 30.1,33.8 30.6,33.7 31,33.6 31.4,33.4 31.8,33.2 32.1,32.9 32.3,32.8 32.6,32.7 
			32.9,32.5 33.2,32.4 33.5,32.3 33.9,32.2 34.2,32.1 34.5,32.1 34.8,32 35.1,32 35.7,32.1 36.3,32.2 36.9,32.4 37.4,32.7 
			37.8,33.1 38.2,33.5 38.5,33.9 38.8,34.4 38.9,35 39,35.6 38.9,36.1 38.8,36.7 38.5,37.2 38.2,37.7 37.8,38.1 37.4,38.4 
			36.9,38.7 36.3,38.9 35.7,39.1 35.1,39.1 34.8,39.1 34.5,39.1 34.2,39 33.9,38.9 33.5,38.8 33.2,38.7 32.9,38.6 32.6,38.5 
			32.3,38.3 32.1,38.2 31.8,37.9 31.4,37.7 31,37.6 30.5,37.5 30.1,37.5 29.7,37.5 29.3,37.6 29,37.7 28.7,37.8 28.5,37.9 
			28.2,38.3 27.9,38.6 27.8,39 27.8,39.5 27.8,39.9 27.9,40.3 28,40.7 28.2,41.1 28.4,41.6 28.6,41.9 28.6,42 28.7,42.2 28.7,42.4 
			28.7,42.5 28.7,42.7 28.8,42.9 28.8,43.1 28.8,43.3 28.8,43.4 28.8,43.5 28.7,44 28.6,44.4 28.5,44.7 28.2,45.1 28,45.4 
			27.6,45.7 27.3,45.9 26.9,46 26.4,46.1 26,46.2 25.6,46.1 25.1,46 24.7,45.9 24.4,45.7 24.1,45.4 23.8,45.1 23.5,44.7 23.4,44.4 
			23.3,44 23.2,43.5 23.2,43.4 23.3,43.3 23.3,43.1 23.3,42.9 23.3,42.7 23.3,42.5 23.3,42.4 23.3,42.2 23.4,42 23.4,41.9 
			23.6,41.6 23.8,41.1 24,40.7 24.2,40.3 24.2,39.9 24.3,39.5 24.2,39 24.1,38.6 23.8,38.3 23.5,37.9 23.3,37.8 23,37.7 22.7,37.6 
			22.3,37.5 21.9,37.5 21.5,37.5 21,37.6 20.6,37.7 20.2,37.9 19.9,38.2 19.7,38.3 19.4,38.5 19.1,38.6 18.8,38.7 18.5,38.8 
			18.1,38.9 17.8,39 17.5,39.1 17.2,39.1 16.9,39.1 16.3,39.1 15.7,38.9 15.1,38.7 14.6,38.4 14.2,38.1 13.8,37.7 13.5,37.2 
			13.3,36.7 13.1,36.1 13.1,35.6 13.1,35 13.3,34.4 13.5,33.9 13.8,33.5 14.2,33.1 14.6,32.7 15.1,32.4 15.7,32.2 16.3,32.1 
			16.9,32 17.2,32 17.5,32.1 17.8,32.1 18.1,32.2 18.5,32.3 18.8,32.4 19.1,32.5 19.4,32.7 19.7,32.8 19.9,32.9 20.2,33.2 
			20.6,33.4 21,33.6 21.5,33.7 21.9,33.8 22.3,33.9 22.7,33.9 23,33.8 23.3,33.8 23.5,33.8 23.7,33.7 23.9,33.6 24.1,33.5 
			24.3,33.4 24.5,33.3 24.7,33.2 24.9,33 25.1,32.8 25.2,32.5 25.3,32.3 25.3,32 25.3,31.7 25.4,31.4 25.4,31.1 25.4,30.8 
			25.5,30.5 25.5,30.3 25.5,29.9 25.5,29.7 25.5,29.4 25.5,27.1 25.5,6.2 22.6,6.2 22.6,27.1 22.5,29.4 22.5,29.5 22.5,29.6 
			22.5,29.7 22.5,29.8 22.5,29.9 22.5,30 22.5,30.2 22.5,30.3 22.5,30.4 22.5,30.5 22.5,30.9 22.4,31.1 22.2,31.2 22.1,31.3 
			21.9,31.3 21.7,31.3 21.5,31.2 21.4,31.2 21.3,31.2 21.3,31.1 20.9,30.8 20.5,30.6 20.1,30.3 19.7,30 19.2,29.8 18.8,29.6 
			18.3,29.5 17.8,29.4 17.3,29.3 16.8,29.3 15.7,29.4 14.7,29.6 13.7,30 12.8,30.5 12,31.1 11.4,31.8 10.8,32.7 10.4,33.6 
			10.1,34.5 10,35.6 10.1,36.6 10.4,37.5 10.8,38.5 11.4,39.3 12,40 12.8,40.7 13.7,41.2 14.7,41.6 15.7,41.8 16.8,41.9 17.3,41.8 
			17.8,41.8 18.3,41.7 18.8,41.6 19.2,41.4 19.7,41.2 20.1,41 20.5,40.8 20.9,40.5 21.3,40.2 21.4,40.3 21.2,40.6 21,40.9 
			20.9,41.2 20.7,41.5 20.6,41.8 20.5,42.2 20.5,42.5 20.4,42.8 20.4,43.2 20.4,43.5 20.5,44.4 20.7,45.3 21,46 21.4,46.7 22,47.4 
			22.6,47.9 23.4,48.3 24.2,48.7 25,48.9 25.9,48.9 26.8,48.9 27.6,48.7 28.4,48.3 29.2,47.9 29.8,47.4 30.3,46.7 30.8,46 
			31.1,45.3 31.4,44.4 31.4,43.5 31.4,43.2 31.4,42.8 31.3,42.5 31.3,42.2 31.2,41.8 31.1,41.5 30.9,41.2 30.8,40.9 30.6,40.6 
			30.4,40.3 30.5,40.2 30.9,40.5 31.3,40.8 31.7,41 32.1,41.2 32.6,41.4 33,41.6 33.5,41.7 34,41.8 34.5,41.8 35,41.9 36.1,41.8 
			37.1,41.6 38.1,41.2 39,40.7 39.8,40 40.4,39.3 41,38.5 41.4,37.5 41.7,36.6 41.8,35.6 41.7,34.5 41.4,33.6 41,32.7 40.4,31.8 
			39.8,31.1 39,30.5 38.1,30 37.1,29.6 36.1,29.4 35,29.3 34.5,29.3 34,29.4 33.5,29.5 33.1,29.6 32.7,29.8 32.3,30 31.9,30.3 
			31.5,30.6 31.1,30.8 30.8,31.1 30.7,31.2 30.6,31.2 30.5,31.2 30.3,31.3 30.1,31.3 29.9,31.3 29.8,31.2 29.6,31 29.5,30.8 
			29.5,30.5 29.5,30.4 29.5,30.3 29.5,30.2 29.5,30.1 29.5,29.9 29.5,29.8 29.5,29.7 29.5,29.6 29.5,29.5 29.5,29.4 29.5,27.1 		"/>
		<polygon fill="#FFFFFF" points="30.3,27.9 30.5,27.9 30.6,27.8 30.7,27.8 30.8,27.7 30.9,27.6 31,27.5 31.1,27.3 31.2,27.2 
			31.2,27 31.2,26.9 31.2,26.7 31.2,26.5 31.1,26.4 31,26.3 30.9,26.1 30.8,26 30.7,26 30.6,25.9 30.5,25.9 30.3,25.9 21.8,25.9 
			21.6,25.9 21.5,25.9 21.4,26 21.2,26 21.1,26.1 21,26.3 21,26.4 20.9,26.5 20.9,26.7 20.9,26.9 20.9,27 20.9,27.2 21,27.3 
			21,27.5 21.1,27.6 21.2,27.7 21.4,27.8 21.5,27.8 21.6,27.9 21.8,27.9 30.3,27.9 		"/>
		<polyline fill="none" stroke="#030405" stroke-width="2.92" stroke-linecap="square" stroke-miterlimit="10" points="30.3,27.9 
			30.5,27.9 30.6,27.8 30.7,27.8 30.8,27.7 30.9,27.6 31,27.5 31.1,27.3 31.2,27.2 31.2,27 31.2,26.9 31.2,26.7 31.2,26.5 
			31.1,26.4 31,26.3 30.9,26.1 30.8,26 30.7,26 30.6,25.9 30.5,25.9 30.3,25.9 21.8,25.9 21.6,25.9 21.5,25.9 21.4,26 21.2,26 
			21.1,26.1 21,26.3 21,26.4 20.9,26.5 20.9,26.7 20.9,26.9 20.9,27 20.9,27.2 21,27.3 21,27.5 21.1,27.6 21.2,27.7 21.4,27.8 
			21.5,27.8 21.6,27.9 21.8,27.9 30.3,27.9 		"/>
		<rect x="-0.8" y="-0.9" fill="#EB5650" width="54.1" height="54.3"/>
		<polygon fill="#FFFFFF" points="29.4,21.3 31.9,21.3 31.9,23.4 35.8,23.4 35.8,21.3 37.6,21.3 37.6,23.4 41.9,23.4 41.9,21 
			40.3,21 40.3,19.1 41.9,19.1 41.9,16.7 37.6,16.7 37.6,18.8 35.8,18.8 35.8,16.7 33.5,16.7 33.5,14.9 35.8,14.9 35.8,12.7 
			37.6,12.7 37.6,14.9 41.9,14.9 41.9,12.5 40.3,12.5 40.3,10.6 41.9,10.6 41.9,8.2 37.6,8.2 37.6,10.3 35.8,10.3 35.8,8.2 
			31.9,8.2 31.9,10.3 29.4,10.3 		"/>
		<polygon fill="#FFFFFF" points="22.7,21.3 20.1,21.3 20.1,23.4 16.2,23.4 16.2,21.3 14.4,21.3 14.4,23.4 10.1,23.4 10.1,21 
			11.7,21 11.7,19.1 10.1,19.1 10.1,16.7 14.4,16.7 14.4,18.8 16.2,18.8 16.2,16.7 18.6,16.7 18.6,14.9 16.2,14.9 16.2,12.7 
			14.4,12.7 14.4,14.9 10.1,14.9 10.1,12.5 11.7,12.5 11.7,10.6 10.1,10.6 10.1,8.2 14.4,8.2 14.4,10.3 16.2,10.3 16.2,8.2 
			20.1,8.2 20.1,10.3 22.7,10.3 		"/>
		<path fill="#FFFFFF" d="M26.4,6.1l0,25.4c0,0,0,2.6,2.7,2.6c1.4,0,2-0.5,2.7-0.9c0.7-0.5,1.3-1,3-1c0.6,0,2.1,0.1,3,1
			c0.6,0.6,0.9,1.5,0.9,2.6c0,1-0.7,2-1.7,2.6c-1.4,0.8-3.1,0.7-4.6-0.2L32.1,38c-0.8-0.6-1.9-1.3-3.3-0.7c-0.8,0.4-1.3,1.1-1.3,1.8
			c0,0,0,0.1,0,0.1c0,0.5,0.2,0.8,0.4,1.1c0.3,0.5,0.6,1.1,0.6,2.7c0,1-0.3,2.7-2.3,2.8c0,0-0.2,0-0.2,0l-0.2,0
			c-2.1-0.2-2.4-1.9-2.4-2.8c0-1.6,0.4-2.2,0.6-2.7c0.2-0.3,0.4-0.6,0.4-1.1c0,0,0-0.1,0-0.1c0-0.8-0.5-1.5-1.3-1.9
			c-1.3-0.7-2.5,0.1-3.3,0.7l-0.3,0.2c-1.4,0.9-3.1,1-4.6,0.2c-1.1-0.6-1.7-1.6-1.7-2.6c0-1.1,0.3-2,0.9-2.6c1-1,2.4-1,3-1
			c1.8,0,2.4,0.5,3.1,1c0.6,0.5,1.2,0.9,2.7,0.9c2.6,0,2.7-2.6,2.7-2.6l0-25.4h-3.3v24.1c0,0.4-0.1,0.7-0.3,0.8
			c-0.2,0.1-0.6,0-1-0.4c-1.1-1-3-1.5-4.4-1.5c-1.4,0-6.5,1.1-6.5,6.7c0,3,2.2,6.2,7.2,6.2c1.4,0,2.8-0.7,3.6-1.2
			c-0.4,0.7-0.6,1.5-0.6,2.4c0,0.8,0.1,1.6,0.4,2.3c0.8,2,2.5,3.4,4.6,3.6c0.1,0,0.2,0,0.2,0c0.1,0,0.2,0,0.2,0c0.1,0,0.2,0,0.2,0
			c0.1,0,0.3,0,0.3,0l0.1,0l0.1,0c0.1,0,0.2,0,0.2,0c2.2-0.3,3.9-1.6,4.7-3.6c0.3-0.8,0.4-1.5,0.4-2.3c0-0.9-0.3-1.7-0.6-2.4
			c0.8,0.6,2.2,1.2,3.6,1.2c4.9,0,7.2-3.2,7.2-6.2c0-5.6-5.2-6.7-6.5-6.7c-1.4,0-3.2,0.5-4.4,1.5c-0.4,0.4-0.8,0.5-1,0.4
			c-0.2-0.1-0.3-0.4-0.3-0.8V6.1L26.4,6.1L26.4,6.1z"/>
		<path fill="#FFFFFF" d="M31.2,26.9c0,0.6-0.5,1-1,1h-8.3c-0.6,0-1-0.5-1-1c0-0.6,0.5-1,1-1h8.3C30.8,25.8,31.2,26.3,31.2,26.9"/>
	</g>
</g>
</svg>
