<?xml version="1.0" encoding="utf-8"?>
<!-- Generator: Adobe Illustrator 18.1.1, SVG Export Plug-In . SVG Version: 6.00 Build 0)  -->
<svg version="1.1" id="Ebene_1" xmlns="http://www.w3.org/2000/svg" xmlns:xlink="http://www.w3.org/1999/xlink" width="54" height="54">
<g>
	<g>
		<rect x="-1" y="26.1" fill="#FFFFFF" width="54.4" height="27.4"/>
		<rect x="-1" y="-1.1" fill="#EB5650" width="54.4" height="27.2"/>
		<path fill="#EB5650" d="M33.2,43.6c0-1.8-0.7-2.7-1.1-3c-0.9-0.9-3.5-0.4-3.4,1c1.3-0.7,1.7-0.4,1.9-0.4c1,0.2,1.8,5.1-3.8,5.3
			c-5.6-0.1-4.8-5.1-3.8-5.3c0.2-0.1,0.7-0.3,1.9,0.4c0.1-1.4-2.4-1.9-3.4-1c-0.4,0.3-1.1,1.2-1.1,3c0,2.3,1.8,5.2,6.2,5.3
			c0,0,0.1,0,0.1,0c0,0,0.1,0,0.1,0C31.4,48.8,33.2,45.9,33.2,43.6"/>
		<polygon fill="#FFFFFF" points="26,5.7 21.7,5.7 21.7,7.5 20.6,7.5 20.6,5.7 16.1,5.7 16.1,8.8 19.4,8.8 19.4,10.1 16.1,10.1 
			16.1,13.2 20.6,13.2 20.6,11.4 21.7,11.4 21.7,13.2 23.5,13.2 23.5,14.3 21.7,14.3 21.7,16.1 20.6,16.1 20.6,14.3 16.1,14.3 
			16.1,17.4 19.4,17.4 19.4,18.7 16.1,18.7 16.1,21.7 20.6,21.7 20.6,20 21.7,20 21.7,21.7 26,21.7 		"/>
		<polygon fill="#FFFFFF" points="26,5.7 21.7,5.7 21.7,7.5 20.6,7.5 20.6,5.7 16.1,5.7 16.1,8.8 19.4,8.8 19.4,10.1 16.1,10.1 
			16.1,13.2 20.6,13.2 20.6,11.4 21.7,11.4 21.7,13.2 23.5,13.2 23.5,14.3 21.7,14.3 21.7,16.1 20.6,16.1 20.6,14.3 16.1,14.3 
			16.1,17.4 19.4,17.4 19.4,18.7 16.1,18.7 16.1,21.7 20.6,21.7 20.6,20 21.7,20 21.7,21.7 26,21.7 		"/>
		<path fill="#EB5650" d="M24.2,38.9c0,0.7-0.6,1.3-1.3,1.3c-0.7,0-1.3-0.6-1.3-1.3c0-0.7,0.6-1.3,1.3-1.3
			C23.6,37.6,24.2,38.2,24.2,38.9"/>
		<path fill="#EB5650" d="M32.2,38.9c0,0.7-0.6,1.3-1.3,1.3c-0.7,0-1.3-0.6-1.3-1.3s0.6-1.3,1.3-1.3C31.6,37.6,32.2,38.2,32.2,38.9"
			/>
		<rect x="25.4" y="4.1" fill="#FFFFFF" width="3" height="23.1"/>
		<path fill="#EB5650" d="M24.2,38.9c0,0.7-0.6,1.3-1.3,1.3c-0.7,0-1.3-0.6-1.3-1.3c0-0.7,0.6-1.3,1.3-1.3
			C23.6,37.6,24.2,38.2,24.2,38.9"/>
		<path fill="#EB5650" d="M32.2,38.9c0,0.7-0.6,1.3-1.3,1.3c-0.7,0-1.3-0.6-1.3-1.3s0.6-1.3,1.3-1.3C31.6,37.6,32.2,38.2,32.2,38.9"
			/>
		<path fill="#EB5650" d="M35.8,43.1c0,0.7-0.6,1.3-1.3,1.3c-0.7,0-1.3-0.6-1.3-1.3c0-0.7,0.6-1.3,1.3-1.3S35.8,42.4,35.8,43.1"/>
		<path fill="#EB5650" d="M20.6,43.1c0,0.7-0.6,1.3-1.3,1.3c-0.7,0-1.3-0.6-1.3-1.3c0-0.7,0.6-1.3,1.3-1.3
			C20,41.8,20.6,42.4,20.6,43.1"/>
		<path fill="#EB5650" d="M29.7,26.6c0,0.3-0.2,0.5-0.5,0.5h-4.8c-0.3,0-0.5-0.2-0.5-0.5c0-0.3,0.2-0.5,0.5-0.5h4.8
			C29.5,26.1,29.7,26.3,29.7,26.6"/>
		<path fill="#EB5650" d="M29.7,28.1c0,0.3-0.2,0.5-0.5,0.5h-4.8c-0.3,0-0.5-0.2-0.5-0.5c0-0.3,0.2-0.5,0.5-0.5h4.8
			C29.5,27.6,29.7,27.8,29.7,28.1"/>
		<path fill="#EB5650" d="M30.3,27.3c0,0.3-0.2,0.6-0.5,0.6H24c-0.3,0-0.6-0.3-0.6-0.6s0.2-0.6,0.6-0.6h5.7
			C30.1,26.7,30.3,27,30.3,27.3"/>
		<path fill="#EB5650" d="M28.5,28.6c-0.3,0-0.8,0-1.3,0c0,0-0.1,0-0.3,0c-0.2,0-0.3,0-0.3,0c-0.4,0-0.9,0-1.3,0
			c-0.6,0-1.9,0.2-1.6,1.7c0.3,1.5,0.6,1.4,1,3.6h4.4c0.3-2.2,0.6-2.1,1-3.6C30.4,28.7,29.1,28.6,28.5,28.6"/>
		<path fill="#EB5650" d="M28.7,34.6c0,1-0.8,1.7-1.8,1.7c-1,0-1.8-0.8-1.8-1.7c0-1,0.8-1.7,1.8-1.7C27.9,32.8,28.7,33.6,28.7,34.6"
			/>
		<path fill="#EB5650" d="M30.8,30.8c-1.6,0.9-2.1,2-2.2,2.4c-0.3,1.2,1.3,3,2.5,2.2c-1.2-0.7-1.2-1.2-1.2-1.4
			c-0.3-0.9,3.7-4.1,6.4,0.4c2.5,4.6-2.3,6.4-2.9,5.8c-0.2-0.2-0.6-0.4-0.6-1.8c-1.3,0.6-0.6,2.9,0.6,3.2c0.5,0.1,1.6,0.2,3.2-0.7
			c2-1.2,3.8-4.1,1.9-7.7c0,0,0-0.1-0.1-0.1c0,0-0.1-0.1-0.1-0.1C36.2,29.6,32.8,29.7,30.8,30.8"/>
		<path fill="#EB5650" d="M23,30.8c1.6,0.9,2.1,2,2.2,2.4c0.3,1.2-1.3,3-2.5,2.2c1.2-0.7,1.2-1.2,1.2-1.4c0.3-0.9-3.7-4.1-6.4,0.4
			c-2.5,4.6,2.3,6.4,2.9,5.8c0.2-0.2,0.6-0.4,0.6-1.8c1.3,0.6,0.6,2.9-0.6,3.2c-0.5,0.1-1.6,0.2-3.2-0.7c-2-1.2-3.8-4.1-1.9-7.7
			c0,0,0-0.1,0.1-0.1c0,0,0.1-0.1,0.1-0.1C17.5,29.6,21,29.7,23,30.8"/>
		<path fill="#EB5650" d="M28.4,30.6c0,1.1-0.7,2.1-1.5,2.1c-0.8,0-1.5-0.9-1.5-2.1c0-1.1,0.7-2.1,1.5-2.1
			C27.7,28.5,28.4,29.4,28.4,30.6"/>
	</g>
</g>
</svg>
