<?xml version="1.0" encoding="utf-8"?>
<!-- Generator: Adobe Illustrator 18.1.1, SVG Export Plug-In . SVG Version: 6.00 Build 0)  -->
<svg version="1.1" id="Ebene_1" xmlns="http://www.w3.org/2000/svg" xmlns:xlink="http://www.w3.org/1999/xlink" width="54" height="54">
<g>
	<g>
		<rect x="-1" y="-1.1" fill="#33A558" width="54.4" height="54.6"/>
		<line fill="none" x1="27.5" y1="7.1" x2="27.5" y2="9.1"/>
		<line fill="none" x1="24.5" y1="6.4" x2="24.5" y2="9.3"/>
		<path fill="#FFFFFF" d="M27,47.9c0,0.6-0.5,1.1-1,1.1c-0.6,0-1-0.5-1-1.1V4.5c0-0.6,0.5-1.1,1-1.1c0.6,0,1,0.5,1,1.1V47.9z"/>
		<path fill="#FFFFFF" d="M20.3,3.3c0.9,1.7,3.4,3,4.2,3.1c0.7,0.1,3,0.6,3,0.6l1.2,1l-1.2,1.1c0,0-2.6,0.2-3,0.2
			c-0.4,0.1-2.4,0.6-4.1,2.7c-0.3-0.4-1.4-1.4-1.4-4.6C19,5,20.2,3.5,20.3,3.3"/>
		<line fill="none" x1="27.5" y1="7.1" x2="27.5" y2="9.1"/>
		<line fill="none" x1="24.5" y1="6.4" x2="24.5" y2="9.3"/>
		<path fill="#FFFFFF" d="M26.9,43.5c0,0.5-0.4,1-0.9,1s-0.9-0.4-0.9-1V16.1c0-0.5,0.4-1,0.9-1c0.5,0,0.9,0.4,0.9,1V43.5z"/>
		<path fill="#FFFFFF" d="M21.9,43.5c0,0.5-0.3,1-0.7,1c-0.4,0-0.7-0.4-0.7-1V16.1c0-0.5,0.3-1,0.7-1c0.4,0,0.7,0.4,0.7,1V43.5z"/>
		<path fill="#FFFFFF" d="M31.6,43.5c0,0.5-0.3,1-0.7,1s-0.7-0.4-0.7-1V16.1c0-0.5,0.3-1,0.7-1c0.4,0,0.7,0.4,0.7,1V43.5z"/>
		<path fill="#FFFFFF" d="M29.4,43.5c0,0.5-0.4,1-0.9,1c-0.5,0-0.9-0.4-0.9-1V16.1c0-0.5,0.4-1,0.9-1c0.5,0,0.9,0.4,0.9,1V43.5z"/>
		<path fill="#FFFFFF" d="M24.3,43.5c0,0.5-0.4,1-0.9,1c-0.5,0-0.9-0.4-0.9-1V16.1c0-0.5,0.4-1,0.9-1c0.5,0,0.9,0.4,0.9,1V43.5z"/>
		<rect x="19.6" y="17.4" fill="#4AB05F" width="12.9" height="2.1"/>
		<rect x="19.6" y="39.9" fill="#33A558" width="12.9" height="2.1"/>
		<polygon fill="#33A558" points="32.5,21 32.5,25 19.6,39 19.6,35 		"/>
		<rect x="19.6" y="17.4" fill="#33A558" width="12.9" height="2.1"/>
		<polygon fill="#33A558" points="19.6,21 19.6,25 32.5,39 32.5,35 		"/>
	</g>
</g>
</svg>
