<?xml version="1.0" encoding="utf-8"?>
<!-- Generator: Adobe Illustrator 18.1.1, SVG Export Plug-In . SVG Version: 6.00 Build 0)  -->
<svg version="1.1" id="Ebene_1" xmlns="http://www.w3.org/2000/svg" xmlns:xlink="http://www.w3.org/1999/xlink" width="54" height="54">
<g>
	<g>
		<rect x="-1" y="-1.1" fill="#FCCF3E" width="54.4" height="54.6"/>
		<path fill="#212121" d="M30.2,13.3c1.1,1,2.1,2.3,2.5,3.4c0,0.1,0.1,0,0.1,0c0.4,0.1,0.5,0.2,0.9,0.6c0.2,0.2,0.4,0.3,0.5,0.7
			c0.1,0.2,0.1,0.5,0.1,0.7c0,0.8-0.2,1.6-0.5,1.8c-0.5,0.3-0.5-0.3-0.8-0.7c-0.5-0.8-1.9-1.4-2.3-2c-0.1-0.2-0.3-1-0.3-1
			s-1.2,0.8-2,0.9c-0.8,0.1-1.1-0.5-2.6-0.4c-0.5,0.4-1,0.6-1.4,0.8c-0.4,0.2-0.7-0.5-1.3-0.9c0.2-0.2,1.9,0.1,1.9-0.9l-0.3-0.3
			c0,0-0.1,0-0.1-0.1c0,0.1-2.4,0-2.4,0s-0.3-0.6-0.1-0.9c0.1-0.1,0.1-0.1,0.1-0.1l0.2-0.5c0,0,0.1-0.2,0.3-0.1
			c0.2,0.1,0.6,0.1,0.6,0.1s1.9-1.5,2.5-1.3c0.1-0.5,0.9-1.7,2.1-1.1c0.1,0,0,0,0.1,0.1C28.2,11.9,29.2,12.5,30.2,13.3"/>
		<path fill="none" stroke="#212121" stroke-miterlimit="10" d="M8.9,11.3c0,0,1.3,1,2.2,1.1c0.5,0.1,1-0.8,0.9-0.8
			c-0.4-0.1-2.1-1.3-2.6-1.7C9.1,9.8,8.9,11.3,8.9,11.3z"/>
		<path fill="#FCCF3E" d="M12,12.7c0,0-3.3-1.7-3.5-1.9c-0.2-0.2-0.3,1.6,0.4,2.4c0.4,0.4,1.8-0.2,2.9,0.2C12,13.5,12,12.7,12,12.7"
			/>
		<path fill="#212121" d="M11.2,11.4c-0.1,0.1-0.5,0.6-0.5,0.6l0.2,1.3c0,0,0.6,0.2,0.6,0.2c0,0-0.3,0.4-0.4,0.5
			c0.2,0.7,0.9,0.2,1.5,0.4c0.6,0.2,1.7,1.5,1.7,1.5l1.2,1.4c0,0,0.6,0.6,1,1.2c0.6,0.9,0.4,2.9,0.7,3.2c0.2,0.2,0.4,1.1,0.9,1.3
			c0.5,0.2,1-0.6,1-0.6c0-0.2-0.1-0.4-0.1-0.6c0-0.2,0.2-0.6,0.4-0.9c0.3-0.4-0.8-2.9-0.9-3.2c0-0.5-0.2-0.9-0.2-0.9
			s-0.4-0.6-0.5-0.7c-0.1-0.1-0.6-0.3-0.7-0.3c-0.1-0.1-1.3-1.4-1.5-1.6c-0.2-0.2-1.7-1.4-2-1.4C13.1,12.6,12.5,11,11.2,11.4"/>
		<path fill="none" stroke="#212121" stroke-miterlimit="10" d="M28.2,33.9c0,0.1,0.4,3.2,0.5,3.3c0,0.1-0.7,1-1.6,0.9
			c-0.6-0.1-0.9-1.1-0.8-2.2C26.4,34.8,27.9,33.9,28.2,33.9z"/>
		<path fill="#FCCF3E" d="M30.8,37.1c-0.7-1-2-3-2-3s-1.3,0.2-1.2,2.2C27.6,38.3,30.1,38.2,30.8,37.1"/>
		<path fill="none" stroke="#212121" stroke-miterlimit="10" d="M30.8,37.1c-0.7-1-2-3-2-3s-1.3,0.2-1.2,2.2
			C27.6,38.3,30.1,38.2,30.8,37.1z"/>
		<path fill="none" stroke="#212121" stroke-miterlimit="10" d="M5.2,27.2l-0.5,2.3c0,0-2,0.3-1.9,0.1c0.2-0.2,1-1.9,1.2-2
			C4.2,27.6,5.2,27.2,5.2,27.2z M12,12.7c0,0-3.3-1.7-3.5-1.9c-0.2-0.2-0.3,1.6,0.4,2.4c0.4,0.4,1.8-0.2,2.9,0.2
			C12,13.5,12,12.7,12,12.7z"/>
		<path fill="#FCCF3E" d="M5.1,27c0,0,1.4,0,1.3,0c-0.1,0,0.3,1.9,0.3,2c0,0.1-1.6,1.4-2.6,1.2C4,30.2,5.1,27,5.1,27"/>
		<path fill="none" stroke="#212121" stroke-miterlimit="10" d="M5.1,27c0,0,1.4,0,1.3,0c-0.1,0,0.3,1.9,0.3,2
			c0,0.1-1.6,1.4-2.6,1.2C4,30.2,5.1,27,5.1,27z"/>
		<path fill="none" stroke="#212121" stroke-miterlimit="10" d="M14.8,43.5c0,0,1-0.1,1.2,0.1c0.2,0.2-1.5,1.7-1.5,1.7
			s-1.7,0.1-1.8-0.1C12.6,45.1,14.8,43.5,14.8,43.5z"/>
		<path fill="#FCCF3E" d="M16.1,43.2l0.7,0.3c0,0,0.2,1.9-0.1,2.2c-0.3,0.3-1.8,0.9-3,0.4C13.5,45.9,16.1,43.2,16.1,43.2"/>
		<path fill="none" stroke="#212121" stroke-miterlimit="10" d="M40.3,43c0.3-0.2,0.7-0.5,1.3-0.5l-0.1,2.6c0,0-1.8,0.8-1.8,0.7
			C39.6,45.6,40,43.2,40.3,43z M16.1,43.2l0.7,0.3c0,0,0.2,1.9-0.1,2.2c-0.3,0.3-1.8,0.9-3,0.4C13.5,45.9,16.1,43.2,16.1,43.2z"/>
		<path fill="#FCCF3E" d="M41.5,41.8c0,0-0.9,4-0.9,4.1c0.1,0.1,2.4-1,2.5-1.7c0.1-0.8-0.6-2.5-0.6-2.5L41.5,41.8z"/>
		<path fill="none" stroke="#212121" stroke-miterlimit="10" d="M41.5,41.8c0,0-0.9,4-0.9,4.1c0.1,0.1,2.4-1,2.5-1.7
			c0.1-0.8-0.6-2.5-0.6-2.5L41.5,41.8z"/>
		<path fill="#212121" d="M44.3,23.1c0-1.3-1.1-1.4-1.8-0.7c0-0.1-1.2-0.9-1.9,0.8c-1.5-0.2-1.3,1.1-1.3,1.1s-1.3-0.3-1.1,1.4
			c-0.6,0.1-0.5,0.5-0.5,0.5s0.2,2.4-1.9,2.8c-0.8-1.3-3.2-1.9-4.8-2.7c-1.1-0.5-1.8-1.1-1.7-1.4c0.7-1.2,0.4-1.5,0.4-1.5
			s1.2-0.5,1-1.2c1.1-0.3,0.8-1.2,1-1.4c0.2-0.2,1.2-0.1,0.7-1.4c-0.1-0.2-1.3-0.6-1.8-1.2c-0.1,0-0.2,0-0.2,0s0-0.9-0.4-0.9
			c-0.4,0-1,0.6-1.4,0.6c-0.2,0-1,0-1.2-0.1c-0.2,0-0.9,0.5-0.9,0.5s-1.6-0.3-2,0.5c-1.2-0.5-1.7,0.4-1.7,0.4s-1.5-0.4-1.7,1.2
			c-1.7,0.3-1.6,1.1-1.5,1.5c0,0.4,0.2,0.4,0.1,0.7c-0.6,0.1-1.2,0.8-1.2,0.8s-3.6-0.5-4.5-0.7c-1.2-0.2-1.3-0.4-1.6-0.6
			c-0.2-0.2-0.8-0.2-1.6,0.2c-0.3,0.2-1.2,1.1-2.1,1.9c-1,0.9-2.1,1.9-2.9,1.9c-0.5,0-1.4,0.8-1.3,1.4c0.1,0.6,2.5,0.3,2.5,0.1
			c0-0.3,0.2-0.4,0.2-0.4s0.7,1,1.3,0.1c0.6-0.9,1.4-2.3,1.4-2.3s0.7-1.1,1.6-0.9c0.9,0.2,5.5,1,6.3,2c0.1,0.2-0.2,0.7,0.2,1.1
			c0.2,0.3,0.8,0.2,1,0.4c0.3,0.3,0.9,2,2.6,0.7c0.4,0.9,6.3,2.6,5.8,2.5c-2.3-0.5-2.1,0.2-2.6,0c-0.5-0.2-1.6-0.8-2,0.5
			c-0.9-0.2-1.4-0.2-2,1c-0.1,0.1-1.7,0.3-1.3,1.9c-1,0.5-0.7,1.3,0.2,2.2c-0.1,0.9-0.4,1.5,1.2,1.7c0.1,0.1,0.3,0.8,1.6,0.7
			c0.3,0.4,0,0.6,0,0.6s-3.7,2.5-5.3,2.5c-0.7,0-0.6,0.1-0.8,0.2c-0.2,0.1-0.6,1.2-0.6,1.2s-0.2,0.3,0.1,0.4
			c0.3,0.1,0.9,0.4,1.4,0.4c0.1,0,0.3,0,0.4-0.3s0.7-0.5,0.8,0.3c0,0.1,0.5,0,0.6-0.1c0.4-0.6,0.7-1.5,2.4-2.1
			c1.4-0.5,4.1-1.4,4.3-1.5c0.2-0.1,0.3-0.9,0.1-1.1c-0.2-0.2-0.6-0.8-0.6-0.8s1.7-0.5,1.8-0.6c-1.2-1.8,0.5-4.1,2.2-3.7
			c0,0.1-0.5,0.5,0.4,1.1c-0.6,1.2,1,1.5,1,1.5s0.1,0.8,0.2,0.9c0.2,0.1,0.2,0.1,1.5,0.1c0.4,0,1.1,1.3,2.5,0c0.3,0.7,1.9,1,2.2,0
			c1.6,0.8,2.2-0.8,2.1-1.1c0.2,0,0.2,0,0.3-0.2c0.8,0.4,0.9,1.1,1.2,2.1c0.4,1.1,0.8,2.4,0.8,2.4s0.1,0.5,0,0.6
			c-0.2,0.1-0.5,0.7-0.2,1.3c1.5,0.7,2.2,0.1,2.3,0c0-0.1,0.1-0.5,0.2-0.6c0.1-0.1,0.7-0.3,0.7-0.5c0-0.1-0.2-0.3-0.4-0.6
			c-0.3-0.1-0.4-0.5-0.7-0.6c-0.4-0.2-1.7-4-1.8-4.6c-0.1-0.6,0.4-2-0.5-2.2c-0.8-0.1-1.1,0.6-1.6,0.2c-0.1-0.1,0.3-0.2-0.1-0.8
			c-0.1-0.1-0.4-0.4-0.9-0.3c0.2-1.1-1.2-1.2-1.2-1.2s0.2-0.6-0.7-1.9c2.3,0.2,2.1-0.6,2.5-0.7c0.2,0,1.9,0.5,2.1-0.7
			c0.3,0,1.5,0.2,1.7-1c1.3,0.3,1.5-1.1,1.5-1.1s1.7-0.3,0.9-1.5C45.5,24.2,45.5,23.3,44.3,23.1 M29,33.4c-0.3,0.3-0.7,0.5-0.7,0.4
			c0.1-0.9-0.3-2-1-2.8C28.1,31.1,29.3,33.1,29,33.4"/>
		<path fill="none" stroke="#212121" stroke-miterlimit="10" d="M33,8.3c0.2-0.3,0.3-0.7,0.3-1.1c0-1.1-0.8-2-1.9-2c0,0-0.1,0-0.1,0
			c0.4-0.5,0.5-1.1,0.2-1.6c-0.4-0.7-1.3-0.8-2-0.4c0,0-0.1,0.1-0.1,0.1c0-0.2-0.1-0.4-0.2-0.6c-0.4-0.6-1.3-0.7-2-0.2
			c-0.1,0.1-0.1,0.1-0.2,0.2c-0.4-0.6-1.3-0.7-2-0.2c-0.2,0.1-0.4,0.3-0.5,0.5C24,2.6,23.4,2.6,23,2.9c-0.6,0.4-0.7,1.1-0.4,1.7
			c-0.3,0-0.7,0.1-0.9,0.3c-0.5,0.5-0.5,1.4,0.1,1.9c0,0,0.1,0.1,0.1,0.1c0,0,0,0-0.1,0.1c-0.5,0.5-0.5,1.3,0,1.7
			c0.4,0.3,0.9,0.4,1.3,0.3c-0.2,0.4-0.1,0.9,0.2,1.2c0.5,0.5,1.2,0.4,1.7-0.1c0.1-0.1,0.2-0.2,0.2-0.3c0.4,0.5,1.1,0.6,1.6,0.2
			c0.4-0.4,0.5-1,0.2-1.5c1.3-1-0.5-2.6-1.6-1.6c0.5,0.2,0.5,0.8,0.2,1c-0.1,0-0.1,0.1-0.2,0.1c-0.1,0-0.3,0-0.4,0
			C24,8,24.5,6.5,24.5,6.5s1.1-1.7,3.1-0.7c0.4,0.2,3.1,0.9,1.2,6c1.3,1.2,2.9,2.5,2.9,2.5c0.2,0.2,1.7-3,2-3.3
			c0.3-0.3,0.5-0.7,0.5-1.1C34,9.1,33.6,8.5,33,8.3z"/>
		<path fill="#FCCF3E" d="M43.8,17.5c0.6-0.3,0.9-1,0.8-1.6c-0.1-0.6-0.5-1.1-1-1.3c0.1-0.3,0.2-0.6,0.2-0.9c-0.1-0.9-1-1.5-1.9-1.4
			c0.1-0.2,0.1-0.4,0.1-0.6c-0.1-0.7-0.8-1.1-1.6-1c-0.4,0.1-0.8,0.3-1,0.5c-0.3-0.7-1.1-1.2-1.9-1.1c-0.5,0.1-1,0.4-1.3,0.8
			c-0.4-0.3-1-0.4-1.6-0.3c-1.1,0.2-2,1-1.8,1.9c0,0.3,0.2,0.5,0.4,0.7l-1.7,1.1l1.6,2.1c0,0,2.3-1.7,4.2-1.6c2.2,0.1,3.3,1,3.2,2.8
			c-0.1,1.5-1.7,1.5-2,0.8c-0.3-0.7,0.4-1.1,0.4-1.1c-1-0.9-2-0.2-2.1,0.5c-0.3-0.1-0.7,0-0.9,0.2c-0.5,0.4-0.5,1.1-0.1,1.6
			c0.1,0.1,0.2,0.2,0.3,0.2c-0.3,0.4-0.2,1,0.1,1.5c0.4,0.5,1.2,0.6,1.7,0.2c0,0,0,0,0,0c0,0.1,0.1,0.2,0.2,0.3
			c0.4,0.5,1.2,0.6,1.7,0.2c0.2-0.2,0.3-0.4,0.4-0.6c0,0,0.1,0.1,0.1,0.1c0.6,0.5,1.5,0.5,2.1-0.1c0.4-0.4,0.5-1,0.3-1.5
			c0.1,0,0.2,0,0.2,0c0.9-0.1,1.5-0.8,1.4-1.5C44.2,18,44.1,17.7,43.8,17.5"/>
		<path fill="none" stroke="#212121" stroke-miterlimit="10" d="M43.8,17.5c0.6-0.3,0.9-1,0.8-1.6c-0.1-0.6-0.5-1.1-1-1.3
			c0.1-0.3,0.2-0.6,0.2-0.9c-0.1-0.9-1-1.5-1.9-1.4c0.1-0.2,0.1-0.4,0.1-0.6c-0.1-0.7-0.8-1.1-1.6-1c-0.4,0.1-0.8,0.3-1,0.5
			c-0.3-0.7-1.1-1.2-1.9-1.1c-0.5,0.1-1,0.4-1.3,0.8c-0.4-0.3-1-0.4-1.6-0.3c-1.1,0.2-2,1-1.8,1.9c0,0.3,0.2,0.5,0.4,0.7l-1.7,1.1
			l1.6,2.1c0,0,2.3-1.7,4.2-1.6c2.2,0.1,3.3,1,3.2,2.8c-0.1,1.5-1.7,1.5-2,0.8c-0.3-0.7,0.4-1.1,0.4-1.1c-1-0.9-2-0.2-2.1,0.5
			c-0.3-0.1-0.7,0-0.9,0.2c-0.5,0.4-0.5,1.1-0.1,1.6c0.1,0.1,0.2,0.2,0.3,0.2c-0.3,0.4-0.2,1,0.1,1.5c0.4,0.5,1.2,0.6,1.7,0.2
			c0,0,0,0,0,0c0,0.1,0.1,0.2,0.2,0.3c0.4,0.5,1.2,0.6,1.7,0.2c0.2-0.2,0.3-0.4,0.4-0.6c0,0,0.1,0.1,0.1,0.1
			c0.6,0.5,1.5,0.5,2.1-0.1c0.4-0.4,0.5-1,0.3-1.5c0.1,0,0.2,0,0.2,0c0.9-0.1,1.5-0.8,1.4-1.5C44.2,18,44.1,17.7,43.8,17.5z"/>
		<path fill="none" stroke="#212121" stroke-miterlimit="10" d="M28.3,11.6c0.6-1.2,0.3-2.5,0.3-2.5s2,0.9,1.1,3.4
			C29.6,12.5,28.8,11.8,28.3,11.6"/>
		<path fill="none" stroke="#212121" stroke-miterlimit="10" d="M33.2,16.5c1.3-0.8,3.2-0.4,3.2-0.4s-1.4-2-3.8-0.5
			C32.6,15.7,33,16,33.2,16.5"/>
		<path fill="none" stroke="#212121" stroke-miterlimit="10" d="M33.2,16.5c1.3-0.8,3.2-0.4,3.2-0.4s-1.4-2-3.8-0.5
			C32.6,15.7,33,16,33.2,16.5z M28.3,11.6c0.6-1.2,0.3-2.5,0.3-2.5s2,0.9,1.1,3.4C29.6,12.5,28.8,11.8,28.3,11.6z"/>
		<path fill="#FCCF3E" d="M29.3,14.3c0.4,0.5,1.4,0.4,2.1-0.2c0.7-0.6,1-1.6,0.5-2.1c-0.4-0.5-1.4-0.4-2.1,0.2
			C29.1,12.8,28.9,13.8,29.3,14.3"/>
		<path fill="none" stroke="#212121" stroke-miterlimit="10" d="M31.2,15.5c0.4,0.4,1.2,0.3,1.9-0.3c0.7-0.6,0.9-1.4,0.6-1.8
			c-0.4-0.4-1.2-0.3-1.9,0.3C31.1,14.3,30.8,15.1,31.2,15.5"/>
		<path fill="none" stroke="#212121" stroke-miterlimit="10" d="M31.2,15.5c0.4,0.4,1.2,0.3,1.9-0.3c0.7-0.6,0.9-1.4,0.6-1.8
			c-0.4-0.4-1.2-0.3-1.9,0.3C31.1,14.3,30.8,15.1,31.2,15.5z M29.3,14.3c0.4,0.5,1.4,0.4,2.1-0.2c0.7-0.6,1-1.6,0.5-2.1
			c-0.4-0.5-1.4-0.4-2.1,0.2C29.1,12.8,28.9,13.8,29.3,14.3z"/>
		<path fill="none" stroke="#212121" stroke-miterlimit="10" d="M27.8,12.2c2.7,1.4,4.3,3.9,4.7,4.8c0.3-0.2,0.4-0.4,0.8-0.5
			c-1.1-2.1-3.1-4.2-4.9-5C28.2,11.7,28,11.9,27.8,12.2"/>
		<path fill="none" stroke="#212121" stroke-miterlimit="10" d="M27.8,12.2c2.7,1.4,4.3,3.9,4.7,4.8c0.3-0.2,0.4-0.4,0.8-0.5
			c-1.1-2.1-3.1-4.2-4.9-5C28.2,11.7,28,11.9,27.8,12.2z"/>
		<path fill="#EB5650" d="M20.2,15.2c0,0.1,0,0.2,0,0.3c0,0.3,0.1,0.5,0.3,0.8c0.7,0.8,3.4,0.1,4.3-0.2c-0.8,0.2-2.4,0.2-3,0.1
			c-0.7-0.1-1.1-1.1-1.2-1.6v0C20.4,14.7,20.3,14.9,20.2,15.2"/>
		<path fill="#FCCF3E" d="M27.9,14.4c-0.2,0.1-0.5,0-0.6-0.2c-0.1-0.2,0-0.5,0.3-0.6c0.2-0.1,0.5,0,0.6,0.2
			C28.3,14.1,28.2,14.3,27.9,14.4"/>
		<path fill="#FCCF3E" d="M28.1,13.9c0,0-0.5-0.3-0.7-0.3c-0.1-0.1-0.3-0.2-0.2-0.3c0.1,0,0.2-0.1,0.2-0.1c0,0,0.3,0,0.4,0.1
			c0.3,0,0.9,0.5,0.8,1.2C28.7,14.7,28.2,14,28.1,13.9"/>
		<polygon fill="#FCCF3E" points="23.4,14.7 23.6,14.6 23.7,14.7 23.7,14.8 23.7,15 23.5,15.1 23.3,15.2 23.2,15.2 23.1,15.2 
			23.1,15.1 23.1,14.9 		"/>
	</g>
</g>
</svg>
