<?xml version="1.0" encoding="utf-8"?>
<!-- Generator: Adobe Illustrator 18.1.1, SVG Export Plug-In . SVG Version: 6.00 Build 0)  -->
<svg version="1.1" id="Ebene_1" xmlns="http://www.w3.org/2000/svg" xmlns:xlink="http://www.w3.org/1999/xlink" width="54" height="54">
<g>
	<g>
		<g>
			<polygon fill="#33A558" points="53.4,53.5 -1,53.5 -1,-1.1 			"/>
			<path fill="#FCCF3E" d="M22.8,36.4c-2,0.3-5.1,2.3-5.1,2.3s-1.4,1-1.5,2c0,1,0.5,1.3,0.5,1.3s1.4,1.2,1,2c-1,0.6-2.8,1-3.5,0.5
				c-0.7-0.5-0.1-1.1-0.2-1.6c-0.3-0.9-1.2-1.1-1.4-0.9c-0.2,0.1,0.5,0.3,0.4,0.8c-0.2,0.6-0.9,0-1.5-0.1c-0.5-0.1-0.9,0.4-0.9,0.4
				s0.5,0,0.6,0c0.1,0.1,0.3,0.5,0.1,0.7c-0.3,0.3-1.3,0.2-1.6,1.2c0.4-0.3,0.7-0.2,0.7-0.2c0.4,0.1,0.1,0.8,1,1
				c-0.6,0.2-0.8,0.3-0.9,0.4c0.6-0.1,0.7,0.6,1.2,0.6c0.5,0,0.8-0.1,0.9-0.1c4.3,1.8,9.1-2.3,9.3-2.8c0.1-0.1-0.9-0.6-1.1-0.9
				c-0.1-0.1-0.4-1-0.3-1c0.2-0.8,0.1-1,0.1-1.1c0.4-0.5,3.9-1.5,3.9-1.5S23.1,37,22.8,36.4"/>
			<path fill="#FCCF3E" d="M20.1,29.9C20.1,29.9,20.1,29.9,20.1,29.9L20.1,29.9C20.1,29.9,20.1,29.9,20.1,29.9 M20.1,29.9
				C20.1,30,20.1,30,20.1,29.9 M35.1,37.9c-1.2-1.7-3.6-3-4.9-3.5c-1.5-1.2-1.8-1.2-2.3-1.5c0.2-1.5-1-3.3-1-3.3s-0.6-0.7-1.9-0.7
				c0.3,0.3,1.7,1.4,1.4,1.6c-1.6-2.7-3.8-1.8-3.8-1.8s0.9,0.2,1.2,0.7c0.3,0.6,1.2,2.7,2.2,3.7c0.3,0.3,1,0.8,1.9,1.1
				c2.1,0.7,5.1,2.6,5.8,3.4c0.3,0.4,0.5,1,0.5,1.2c0,0.2-0.2,0.4-0.5,0.4c-0.4,0-5.1-3.1-5.1-3.1s-1-0.7-3.1-1.2
				c-1.4-1.8-5.3-3.7-6.2-4.4c0,0,0,0,0,0c0.4-0.5,0.8-1.1,1-1.6c-0.1,0.5-0.1,0.9-0.1,1c0-0.2,2.1-2.3,1.7-3.2
				c1.5-0.6,1.3-0.8,1.2-1.3c-0.1,0-0.2,0-0.3,0c0.1,0,0.2,0,0.3,0c0-0.8-1.9-1.2-1.8-1.3c0.1-0.1,0.6,0.1,0.7,0
				c0,0-2.3-2.9-2.9-2.8c-0.2,0.1-0.3,0.3-0.6,0.1c-0.2-0.1-0.8-0.7-1-0.7c0,0.1-0.3,0.3-0.3,0.3s-0.3,0.1-0.6,0.3
				c-0.3,0.2-0.2,0.8,0,1.1c0,0-0.2,0.7-0.2,0.7s0.4-0.5,0.5-0.5c0.1,0,0.8,0.5,0.8,0.9c0.1,0.8-1.3,2-1.4,2c-0.3,0-0.8-1-0.9-1
				c-0.1,0-0.3-0.2-0.5,0.8c0,0.1,0.1,0.2,0.2,0.5c0,0,0,0,0,0s-1.1-0.8-2.2-0.9c0.2,0,0.4,0,0.5,0.1c-0.4-0.8-1.2-3.9-0.8-5.5
				c2.5-0.9,2.2-1.3,2.2-1.8c0.4-0.5-0.2-1-0.2-1l-0.2,0.6c0,0-0.3,0.2-0.6-0.1c-0.3-0.2-0.1-1.1-0.2-1.5c-0.1-0.5-0.7-1-0.7-1
				S13,14.9,13,15c0,0.1,0,0.3-0.5,0.3c-0.4,0-0.4-0.5-0.7-0.7c-0.2-0.2-0.7-0.3-0.7-0.3s0.3,0.7,0.3,0.8c-0.2,0-0.5,0.7-0.7,0.7
				c-0.2,0.1-0.7-0.8-1.1-0.2c0.5-0.1,0.6,0.2,0.6,0.3c0,0.4-0.8,1.7-0.2,2.1c-0.6,1.5,0,2.4,0,2.4S9.5,23,9.5,25.9
				c0.1,0,0.1,0.1,0.2,0.2l0,0c-1.6-1.3-2.5-5.5-2.4-6c0-0.3,0.1-0.4,0.1-0.4s0.2,0,0.4,0C7.9,19.6,8,19.6,8,19.6s0.6-0.1,0.7-0.1
				c0.2,0,0.7-1.1,0.4-1.9c-0.1,0.2-0.2,0.6-0.4,0.7c-0.2,0.1-0.2-0.2-0.6-0.3c0.1-1.1-1-2.3-1-2.3s0.4,0.8,0.1,0.9
				c-0.2,0.1-0.7,0.3-0.7,0.3l-0.1,1.3c0-0.3,0-0.7,0-1.2c-0.1-0.3-0.5-0.9-0.9-1.4c0.2,0.3,0.4,0.9-0.1,1.6c0,0,0.1,0.2,0.3,0.8
				c-0.3-0.6-1.5-1.3-1.5-1.3s0.3,1.1-0.3,1.8c0.4,0.2,0.1,4,1.2,4.2c0.3,0.6,0.6,7.3,2,9.1c0.2,0,1.6,0,1.6,0l-0.3,0.1
				c0,0,1.8,2,2.5,2.5c0.9,0.7,4.9,1.3,7.6,1.6c2.7,0.3,4,1.3,4.1,1.1c0-0.1-0.6-0.9-0.5-0.9c0.3-0.1,1.6,3.7,2.7,4.7
				c1.1,0.9,3.7,1.2,3.9,2.1c0.1,0.7-0.3,2.5-1.4,2.4c-0.2,0-0.6-1.8-0.9-1.9c-0.3-0.1-1-0.3-1.7,0.1c0.1,0,0.8,0.2,1,0.2
				c0.2,0.2-0.2,0.7-0.3,0.7c-0.3,0.1-0.6,0-0.8,0.1c-0.7,0.1-1.1,1-1.1,1s1.2,0,1.2,0.7c0.6-0.4,0.8-0.6,1.3-0.4
				c-1.5,0.3-1.6,0.7-1.8,1.7c0.5-0.3,0.9-0.5,1-0.4c0.2,0.1,0.4,0.2,0.6,0.1c0,0,0.1,0,0.2-0.1c-0.1,0.1-0.2,0.2-0.2,0.2
				c-0.1,0.2,0,1,0.1,1.1c0-0.1,0.2-0.5,0.4-0.5c0.3,0,1.2,0.2,1.3,0c0.1-0.2-0.1,0,0.2-0.3c0.3-0.3,1.4-0.8,1.7-1
				c0.3-0.7,2.9-3.5,2.8-5.3c-1.7-0.3-1.7-0.7-1.9-1c-1.2-0.3-2.9-2.9-3.2-3.4c0.5,0.5,4.7,3.2,5.8,3.5
				C34.7,40.8,36.1,39.4,35.1,37.9 M22.2,25.3c-0.3,0-0.6,0-0.7,0.1C21.7,25.3,22,25.3,22.2,25.3 M16.8,32.1c0.1,0,0.2-0.1,0.3-0.1
				C16.9,32.1,16.9,32.1,16.8,32.1"/>
			<g>
				<path fill="none" stroke="#33A558" stroke-width="0.5" stroke-linejoin="round" stroke-miterlimit="17" d="M21.9,36.6
					c-1.6,0.5-4.2,2-4.2,2s-1.4,1-1.5,2c0,1,0.5,1.3,0.5,1.3s1.4,1.2,1,2c-1,0.6-2.8,1-3.5,0.5c-0.7-0.5-0.1-1.1-0.2-1.6
					c-0.3-0.9-1.2-1.1-1.4-0.9c-0.2,0.1,0.5,0.3,0.4,0.8c-0.2,0.6-0.9,0-1.5-0.1c-0.5-0.1-0.9,0.4-0.9,0.4s0.5,0,0.6,0
					c0.1,0.1,0.3,0.5,0.1,0.7c-0.3,0.3-1.3,0.2-1.6,1.2c0.4-0.3,0.7-0.2,0.7-0.2c0.4,0.1,0.1,0.8,1,1c-0.6,0.2-0.8,0.3-0.9,0.4
					c0.6-0.1,0.7,0.6,1.2,0.6c0.5,0,0.8-0.1,0.9-0.1c4.3,1.8,9.1-2.3,9.3-2.8c0.1-0.1-0.9-0.6-1.1-0.9c-0.1-0.1-0.4-1-0.3-1
					c0.2-0.8,0.1-1,0.1-1.1c0.4-0.5,3.4-1.3,3.4-1.3l-1.5-2.7C22.8,36.9,21.9,36.7,21.9,36.6z"/>
				<path fill="none" stroke="#33A558" stroke-width="0.5" stroke-linejoin="round" d="M20.1,29.9C20.1,29.9,20.1,29.9,20.1,29.9
					L20.1,29.9C20.1,29.9,20.1,29.9,20.1,29.9z M20.1,29.9 M35.1,37.9c-1.2-1.7-3.6-3-4.9-3.5c-1.5-1.2-1.8-1.2-2.3-1.5
					c0.2-1.5-1-3.3-1-3.3s-0.6-0.7-1.9-0.7c0.3,0.3,1.7,1.4,1.4,1.6c-1.6-2.7-3.8-1.8-3.8-1.8s0.9,0.2,1.2,0.7
					c0.3,0.6,1.2,2.7,2.2,3.7c0.3,0.3,1,0.8,1.9,1.1c2.1,0.7,5.1,2.6,5.8,3.4c0.3,0.4,0.5,1,0.5,1.2c0,0.2-0.2,0.4-0.5,0.4
					c-0.4,0-5.1-3.1-5.1-3.1s-1-0.7-3.1-1.2c-1.4-1.8-5.3-3.7-6.2-4.4c0,0,0,0,0,0c0.4-0.5,0.8-1.1,1-1.6c-0.1,0.5-0.1,0.9-0.1,1
					c0-0.2,2.1-2.3,1.7-3.2c1.5-0.6,1.3-0.8,1.2-1.3c-0.1,0-0.2,0-0.3,0c0.1,0,0.2,0,0.3,0c0-0.8-1.9-1.2-1.8-1.3
					c0.1-0.1,0.6,0.1,0.7,0c0,0-2.3-2.9-2.9-2.8c-0.2,0.1-0.3,0.3-0.6,0.1c-0.2-0.1-0.8-0.7-1-0.7c0,0.1-0.3,0.3-0.3,0.3
					s-0.3,0.1-0.6,0.3c-0.3,0.2-0.2,0.8,0,1.1c0,0-0.2,0.7-0.2,0.7s0.4-0.5,0.5-0.5c0.1,0,0.8,0.5,0.8,0.9c0.1,0.8-1.3,2-1.4,2
					c-0.3,0-0.8-1-0.9-1c-0.1,0-0.3-0.2-0.5,0.8c0,0.1,0.1,0.2,0.2,0.5c0,0,0,0,0,0s-1.1-0.8-2.2-0.9c0.2,0,0.4,0,0.5,0.1
					c-0.4-0.8-1.2-3.9-0.8-5.5c2.5-0.9,2.2-1.3,2.2-1.8c0.4-0.5-0.2-1-0.2-1l-0.2,0.6c0,0-0.3,0.2-0.6-0.1c-0.3-0.2-0.1-1.1-0.2-1.5
					c-0.1-0.5-0.7-1-0.7-1S13,14.9,13,15c0,0.1,0,0.3-0.5,0.3c-0.4,0-0.4-0.5-0.7-0.7c-0.2-0.2-0.7-0.3-0.7-0.3s0.3,0.7,0.3,0.8
					c-0.2,0-0.5,0.7-0.7,0.7c-0.2,0.1-0.7-0.8-1.1-0.2c0.5-0.1,0.6,0.2,0.6,0.3c0,0.4-0.8,1.7-0.2,2.1c-0.6,1.5,0,2.4,0,2.4
					S9.5,23,9.5,25.9c0.1,0,0.1,0.1,0.2,0.2l0,0c-1.6-1.3-2.5-5.5-2.4-6c0-0.3,0.1-0.4,0.1-0.4s0.2,0,0.4,0C7.9,19.6,8,19.6,8,19.6
					s0.6-0.1,0.7-0.1c0.2,0,0.7-1.1,0.4-1.9c-0.1,0.2-0.2,0.6-0.4,0.7c-0.2,0.1-0.2-0.2-0.6-0.3c0.1-1.1-1-2.3-1-2.3
					s0.4,0.8,0.1,0.9c-0.2,0.1-0.7,0.3-0.7,0.3l-0.1,1.3c0-0.3,0-0.7,0-1.2c-0.1-0.3-0.5-0.9-0.9-1.4c0.2,0.3,0.4,0.9-0.1,1.6
					c0,0,0.1,0.2,0.3,0.8c-0.3-0.6-1.5-1.3-1.5-1.3s0.3,1.1-0.3,1.8c0.4,0.2,0.1,4,1.2,4.2c0.3,0.6,0.6,7.3,2,9.1c0.2,0,1.6,0,1.6,0
					l-0.3,0.1c0,0,1.8,2,2.5,2.5c0.9,0.7,4.9,1.3,7.6,1.6c2.7,0.3,4,1.3,4.1,1.1c0-0.1-0.6-0.9-0.5-0.9c0.3-0.1,1.6,3.7,2.7,4.7
					c1.1,0.9,3.7,1.2,3.9,2.1c0.1,0.7-0.3,2.5-1.4,2.4c-0.2,0-0.6-1.8-0.9-1.9c-0.3-0.1-1-0.3-1.7,0.1c0.1,0,0.8,0.2,1,0.2
					c0.2,0.2-0.2,0.7-0.3,0.7c-0.3,0.1-0.6,0-0.8,0.1c-0.7,0.1-1.1,1-1.1,1s1.2,0,1.2,0.7c0.6-0.4,0.8-0.6,1.3-0.4
					c-1.5,0.3-1.6,0.7-1.8,1.7c0.5-0.3,0.9-0.5,1-0.4c0.2,0.1,0.4,0.2,0.6,0.1c0,0,0.1,0,0.2-0.1c-0.1,0.1-0.2,0.2-0.2,0.2
					c-0.1,0.2,0,1,0.1,1.1c0-0.1,0.2-0.5,0.4-0.5c0.3,0,1.2,0.2,1.3,0c0.1-0.2-0.1,0,0.2-0.3c0.3-0.3,1.4-0.8,1.7-1
					c0.3-0.7,2.9-3.5,2.8-5.3c-1.7-0.3-1.7-0.7-1.9-1c-1.2-0.3-2.9-2.9-3.2-3.4c0.5,0.5,4.7,3.2,5.8,3.5
					C34.7,40.8,36.1,39.4,35.1,37.9z M22.2,25.3c-0.3,0-0.6,0-0.7,0.1C21.7,25.3,22,25.3,22.2,25.3z"/>
				<path fill="none" stroke="#33A558" stroke-width="0.5" stroke-linejoin="round" stroke-miterlimit="7" d="M15.1,25.6
					c0.4,0.7,1.4,1.8,1.8,2.2c1.9,1.7,3.6-0.9,3.8-1.1c0.6-0.6,0.4-1.1,0.8-1.3c0.4-0.2,1.3,0,1.5,0c0.1,0.6,0.3,0.7-1.2,1.3
					c0.4,1-1.7,3.1-1.7,3.2c0,0.2,0-0.2,0.1-1c-0.6,1.2-1.6,2.7-3.4,3.2c0-0.1,0.2-0.4,0.4-0.8c-2.4,2.4-4.9,1.5-4.9,1.5
					s0.2-0.1,0.6-0.5c-1.6-0.1-2.3-0.3-3.8-1.5c0.9-0.1,1.3-1,1.5-1.9c0.1-0.9-0.3-1-0.5-1.5c-0.2-0.5-0.2-1-0.2-1s0.1-0.6,1.3-0.5
					c0.1-0.2-0.8-0.4-0.8-0.5c0-0.1,1.3-0.6,2.2-0.4c-0.2-0.1-0.4-0.2-0.7-0.3C13.2,24.3,15.1,25.6,15.1,25.6z"/>
			</g>
			<path fill="#212121" d="M18.9,22.2c1.2,0.3,1.4,1.5,1.4,1.6c-0.1,0-1.2-0.2-1.4-0.6C18.8,22.8,19.5,22.5,18.9,22.2"/>
			<path fill="#EB5650" d="M15.2,20.5c-0.1,0-0.6-0.2-0.7,0.1c-0.7,1.2,0.5,3.9,1.6,4.5c0.6,0.3,0.6,0.1,0.6,0
				C16.6,24.3,14.4,22,15.2,20.5"/>
			<path fill="#EB5650" d="M21.4,37.5c0,0,1.6,0.8,2.1,0.8c-0.1-0.3-0.4-0.9-0.4-0.9S22.5,37.1,21.4,37.5"/>
		</g>
		<g>
			<polygon fill="#FFFFFF" points="53.4,53.5 -1,-1.1 53.4,-1.1 			"/>
			<path fill="#FCCF3E" d="M40,35c0,0-0.1-0.3,0.1-0.5c0.1-0.2,0.1-0.6,0.1-0.7c0-0.1,0.1-0.2-0.7-0.3c0.6-0.3,1.6,0.1,1.9,0.2
				c0.2,0.2,0.4,1.2,0.7,1.4c-0.1,0.3-0.6,0.2-0.6,0.2L40,35z"/>
			<path fill="#FCCF3E" d="M39.2,23.9c-0.2-0.1-2.5-0.5-3.6-0.3c-1.1,0.2-1.3,1.3-1.4,1.8c-0.1,0.5,0.1,1.3-1.5,1
				c-0.7-0.1-1.6-1-1.6-1.4c0-0.6,0.8-0.9,0.8-1.3c0-0.1,0-1.3-0.9-1.3c-0.1,0.3,0.3,0.9-0.2,1c-0.5,0.1-1-0.7-1.5-1
				c-0.4-0.2-0.8-0.1-0.8-0.1l0.6,0.4c0,0,0,0.5-0.2,0.6c-0.4,0.2-1.3-0.5-2.1,0.4c0.5-0.1,0.7,0.1,0.8,0.1c0.2,0.4-0.2,1.1,0.4,1.4
				c-0.1,0-1-0.1-1,0c0.5,0.2,0.4,0.6,0.4,0.6s0.2,0.6,1.1,0.8c1.5,2,5.5,3.6,8.1,3.5c0-2.1,0.6-2.7,1.9-2.9
				C38.6,26.6,39.2,24,39.2,23.9"/>
			<path fill="#FCCF3E" d="M18.5,9.4c0,0.1-0.3,1.1,0.3,2.1c0,0,0-0.2,0-0.2s0.4-0.3,0.5-0.5c0.1-0.1,0.6-0.3,0.8-0.7
				c0.3-0.4,0.1-1.3-0.5-1.8c0,0.4,0.1,0.7,0.1,0.8C19.4,9.3,18.6,9.3,18.5,9.4"/>
			<path fill="#EB5650" d="M30.8,6.8c-0.1,0-0.7,0-0.7,0.3c-0.4,1.5,1.4,4.1,2.7,4.4c0.7,0.2,0.6-0.1,0.6-0.1
				C33.1,10.5,30.4,8.5,30.8,6.8"/>
			<path fill="#EB5650" d="M36.2,24.4c0.8,0,1.9,0,2.1,0.5c0,0.2,0.1,0.6,0.1,0.8C38,25.6,36.2,24.5,36.2,24.4"/>
			<path fill="#FCCF3E" d="M46.7,25.6c-0.1-0.8-1-3.1-3.2-6.4c-1.5-2.3-1.7-3.6-1.4-4.6c1.4-0.2,3.3-2.1,3.2-3.3
				c-0.1-1.2-0.8-1.7-0.8-1.7s-0.4,2.5-0.9,2.4c0.2-0.3,0.7-1.1,0.7-2.2c0-1.1-1.6-2.1-1.8-2.1c0.1,0.2,0.8,0.9,0.6,1.4
				c-0.2,0.5-0.6,1.1-1.2,1.8c-0.6,0.8-1.3,2-1.4,3.2c-0.1,1.2,0.6,2.6,0.9,3.5c0.3,0.9,2.5,4.4,2.5,4.4s2.6,3.9,1.7,4.6
				c-0.3,0.2-1.4,0.2-2-0.7c-0.6-0.8-0.5-0.8-1-1.5c-0.7-1.1-1.2-1-1.2-1.1c-2.3-3.9-5.5-6-6-6.3c0,0,0.7-0.7,1-1.5
				c0,0.3-0.1,1-0.1,1s2.1-2.3,1.8-3.5c2.7-0.2,1.7-1.5,1.5-1.6c0-0.2-1.5-0.8-1.5-1c0,0,0,0,0.1,0c0.5,0.2,0.6,0.1,0.6,0
				c0-0.1-2.1-2.5-3-2.6c-0.3,0.2-0.3,0.1-0.5,0.1c-0.3,0-1-0.9-1.4-0.9c0,0.1-0.4,0.3-0.4,0.3s-0.7,0.2-0.9,0.5
				c-0.1,0.3,0.1,0.9,0.1,0.9L32.8,9c0,0,0.4-0.5,0.4-0.5c0.2,0.3,0.8,0.3,1,1.1c0.2,0.8-0.5,1.1-0.7,1.6c-0.2,0.5-0.5,0.3-0.7,0.3
				c-0.3-0.1-1-0.8-1.1-0.8c-0.3,0-0.5,0.9-0.5,1c0.1,0,0.1,0.3,0.2,0.4c0,0,0.1,0.1,0.2,0.1c-1.1-0.8-3-0.6-3-0.5
				c0,0.1,0.5,0.3,0.5,0.4c0,0.1-0.9-0.1-2,0.3c0,0,0,0,0,0c0,0-2-2.1-1.5-3.6c0.7-0.2,1.2-0.1,1.6-0.3c0.7-0.3,1-1.1,1-1.4
				c-0.7,0.7-0.9,0.5-1,0.5c-0.4-0.2,0-1.2,0-1.6c0-0.4-0.5-0.8-0.5-0.8s0.2,0.6-0.7,0.8c-0.4,0.1-0.7-0.4-1-0.7
				c-0.3-0.2-0.8-0.3-0.8-0.3s0.4,0.6,0.3,0.8c-0.3,0-0.5,0.4-0.9,0.5c-0.4,0.1-0.7-0.7-1.3-0.2c0.5,0,0.5,0.1,0.5,0.2
				c0.2,0.3-0.1,0.4-0.3,1.8c-0.1,0.6,0,1.2,0.1,1.7c0.1,1.2,1,2.5,1.5,5.1c0,0,0,0,0,0c-1.8-0.7-3.8-1.3-4.9-2.3
				c-1.1-1.1-0.9-2.8-0.8-3c0-0.1-0.7-1.2-2.1-1.4c0.7,0.6,0.6,0.4,0.1,1.3c0.4,0.4,0.6,0.8,0.7,1.1c-0.1-0.2-0.3-0.5-0.6-0.9
				c-0.4-0.1-1-0.1-1.7,0.1c1,0.2,0.8,1.4,0.8,1.4s0.3,0.2,0.8,0.5c-0.6-0.2-2.3,0.1-2.3,0.1s1.4,0.1,1.3,1c0.7,0.5,1.5,1.4,1.9,1.6
				c0.1,0.1,0.1,0.2,0.8,0.3c2.6,3.1,6.7,5.6,7.2,5.8c0.5-0.1,1.4-0.1,1.4-0.1s-0.4,0-0.8,0.1c0.7,0.9,3.1,1.1,6.2,1.4
				c4.2,0.5,5.9,2.8,6.1,2.9c0.1-0.2-0.1-0.3-0.2-1.1c0.7,1.2-0.1,4.6,1.1,5.9c1.2,1.2,2.9,2.3,3.3,2.9c0.1,0.2,0.3,0.6,0.2,1.6
				c0,0.5-0.4,0.8-0.7,1.4c-0.2,0.1-0.5,0.1-0.9,0c-2.2-0.8-2.8,0.4-2.8,0.4s1.3-0.1,1.3,0.6c0.1,0,0.2,0,0.4,0
				c-0.3,0.1-0.6,0.4-0.8,0.9c0.6-0.3,1.1,0.3,1.3,0.7c0.2,0.3,0.5,0,0.5,0s0.7-0.8,1.2-0.8c-0.1,0-1.7,0.4-1.3,2.2
				c0.2-1.1,1.5-0.3,1.8-0.7c0-0.1,0-0.3,0.2-0.6c0.2-0.2,1.2-0.6,1.2-0.6s1-1.7,1.1-2.7c0-0.3,0.3-1.6,0.3-4
				c-1.8-0.2-1.9-1.3-2-2.6c-0.1-0.9-0.4-1.5-0.6-1.8c0.3,0.5,1.3,1.8,2.8,1.4C46.8,27.4,46.8,26.4,46.7,25.6 M31.7,12.3
				C31.7,12.2,31.7,12.2,31.7,12.3C31.7,12.2,31.7,12.2,31.7,12.3 M31.6,12.2C31.6,12.1,31.6,12.1,31.6,12.2
				C31.6,12.1,31.6,12.1,31.6,12.2"/>
			<path fill="#212121" d="M35.5,8.2c0.1,0,1.2,0.3,1.4,1.6c0,0.1-1.4-0.2-1.4-0.6C35.5,8.7,36,8.6,35.5,8.2"/>
			<g>
				<g>
					<path fill="none" stroke="#FFFFFF" stroke-width="0.5" stroke-linejoin="round" d="M46.7,25.6c-0.1-0.8-1-3.1-3.2-6.4
						c-1.5-2.3-1.7-3.6-1.4-4.6c1.4-0.2,3.3-2.1,3.2-3.3c-0.1-1.2-0.8-1.7-0.8-1.7s-0.4,2.5-0.9,2.4c0.2-0.3,0.7-1.1,0.7-2.2
						c0-1.1-1.6-2.1-1.8-2.1c0.1,0.2,0.8,0.9,0.6,1.4c-0.2,0.5-0.6,1.1-1.2,1.8c-0.6,0.8-1.3,2-1.4,3.2c-0.1,1.2,0.6,2.6,0.9,3.5
						c0.3,0.9,2.5,4.4,2.5,4.4s2.6,3.9,1.7,4.6c-0.3,0.2-1.4,0.2-2-0.7c-0.6-0.8-0.5-0.8-1-1.5c-0.7-1.1-1.2-1-1.2-1.1
						c-2.3-3.9-5.5-6-6-6.3c0,0,0.7-0.7,1-1.5c0,0.3-0.1,1-0.1,1s2.1-2.3,1.8-3.5c2.7-0.2,1.7-1.5,1.5-1.6c0-0.2-1.5-0.8-1.5-1
						c0,0,0,0,0.1,0c0.5,0.2,0.6,0.1,0.6,0c0-0.1-2.1-2.5-3-2.6c-0.3,0.2-0.3,0.1-0.5,0.1c-0.3,0-1-0.9-1.4-0.9
						c0,0.1-0.4,0.3-0.4,0.3s-0.7,0.2-0.9,0.5c-0.1,0.3,0.1,0.9,0.1,0.9L32.8,9c0,0,0.4-0.5,0.4-0.5c0.2,0.3,0.8,0.3,1,1.1
						c0.2,0.8-0.5,1.1-0.7,1.6c-0.2,0.5-0.5,0.3-0.7,0.3c-0.3-0.1-1-0.8-1.1-0.8c-0.3,0-0.5,0.9-0.5,1c0.1,0,0.1,0.3,0.2,0.4
						c0,0,0.1,0.1,0.2,0.1c-1.1-0.8-3-0.6-3-0.5c0,0.1,0.5,0.3,0.5,0.4c0,0.1-0.9-0.1-2,0.3c0,0,0,0,0,0c0,0-2-2.1-1.5-3.6
						c0.7-0.2,1.2-0.1,1.6-0.3c0.7-0.3,1-1.1,1-1.4c-0.7,0.7-0.9,0.5-1,0.5c-0.4-0.2,0-1.2,0-1.6c0-0.4-0.5-0.8-0.5-0.8
						s0.2,0.6-0.7,0.8c-0.4,0.1-0.7-0.4-1-0.7c-0.3-0.2-0.8-0.3-0.8-0.3s0.4,0.6,0.3,0.8c-0.3,0-0.5,0.4-0.9,0.5
						c-0.4,0.1-0.7-0.7-1.3-0.2c0.5,0,0.5,0.1,0.5,0.2c0.2,0.3-0.1,0.4-0.3,1.8c-0.1,0.6,0,1.2,0.1,1.7c0.1,1.2,1,2.5,1.5,5.1
						c0,0,0,0,0,0c-1.8-0.7-3.8-1.3-4.9-2.3c-1.1-1.1-0.9-2.8-0.8-3c0-0.1-0.7-1.2-2.1-1.4c0.7,0.6,0.6,0.4,0.1,1.3
						c0.4,0.4,0.6,0.8,0.7,1.1c-0.1-0.2-0.3-0.5-0.6-0.9c-0.4-0.1-1-0.1-1.7,0.1c1,0.2,0.8,1.4,0.8,1.4s0.3,0.2,0.8,0.5
						c-0.6-0.2-2.3,0.1-2.3,0.1s1.4,0.1,1.3,1c0.7,0.5,1.5,1.4,1.9,1.6c0.1,0.1,0.1,0.2,0.8,0.3c2.6,3.1,6.7,5.6,7.2,5.8
						c0.5-0.1,1.4-0.1,1.4-0.1s-0.4,0-0.8,0.1c0.7,0.9,3.1,1.1,6.2,1.4c4.2,0.5,5.9,2.8,6.1,2.9c0.1-0.2-0.1-0.3-0.2-1.1
						c0.7,1.2-0.1,4.6,1.1,5.9c1.2,1.2,2.9,2.3,3.3,2.9c0.1,0.2,0.3,0.6,0.2,1.6c0,0.5-0.4,0.8-0.7,1.4c-0.2,0.1-0.5,0.1-0.9,0
						c-2.2-0.8-2.8,0.4-2.8,0.4s1.3-0.1,1.3,0.6c0.1,0,0.2,0,0.4,0c-0.3,0.1-0.6,0.4-0.8,0.9c0.6-0.3,1.1,0.3,1.3,0.7
						c0.2,0.3,0.5,0,0.5,0s0.7-0.8,1.2-0.8c-0.1,0-1.7,0.4-1.3,2.2c0.2-1.1,1.5-0.3,1.8-0.7c0-0.1,0-0.3,0.2-0.6
						c0.2-0.2,1.2-0.6,1.2-0.6s1-1.7,1.1-2.7c0-0.3,0.3-1.6,0.3-4c-1.8-0.2-1.9-1.3-2-2.6c-0.1-0.9-0.4-1.5-0.6-1.8
						c0.3,0.5,1.3,1.8,2.8,1.4C46.8,27.4,46.8,26.4,46.7,25.6z M31.7,12.3C31.7,12.2,31.7,12.2,31.7,12.3
						C31.7,12.2,31.7,12.2,31.7,12.3z M31.6,12.2C31.6,12.1,31.6,12.1,31.6,12.2C31.6,12.1,31.6,12.1,31.6,12.2z"/>
					<path fill="none" stroke="#FFFFFF" stroke-width="0.5" stroke-linejoin="round" stroke-miterlimit="16" d="M35.5,16.8
						c0.5,0.3,3.7,2.4,6,6.3c0,0.1,0.5,0.1,1.2,1.1c0.5,0.8,0.4,0.7,1,1.5c0.6,0.9,1.7,0.9,2,0.7c0.9-0.7-1.7-4.6-1.7-4.6
						s-2.1-3.5-2.5-4.4c-0.3-0.9-1-2.3-0.9-3.5c0.1-1.2,0.8-2.5,1.4-3.2c0.6-0.8,1-1.3,1.2-1.8c0.2-0.5-0.5-1.2-0.6-1.4
						c0.2,0,1.8,1,1.8,2.1c0,1.1-0.5,1.9-0.7,2.2c0.5,0.1,0.9-2.4,0.9-2.4s0.7,0.6,0.8,1.7c0.1,1.2-1.8,3.1-3.2,3.3
						c-0.3,1-0.2,2.2,1.4,4.6c2.2,3.3,3.1,5.5,3.2,6.4s0.1,1.9-0.9,2.1c-1.8,0.4-2.9-1.7-2.9-1.7s0.5,0.8,0.7,2.1
						c0.2,1.3,0.3,2.5,2,2.6c0,2.4-0.3,3.7-0.3,4c-0.1,1-1.1,2.7-1.1,2.7s-1,0.4-1.2,0.6c-0.2,0.2-0.2,0.5-0.2,0.6
						c-0.3,0.4-1.6-0.4-1.8,0.7c-0.4-1.8,1.2-2.2,1.3-2.2c-0.6,0-1.2,0.8-1.2,0.8s-0.3,0.3-0.5,0c-0.2-0.3-0.8-1-1.3-0.7
						c0.5-1.5,1.9-0.8,1.9-0.8s-0.9-0.1-1.5,0c0-0.8-1.3-0.6-1.3-0.6s0.6-1.1,2.8-0.4c0.4,0.1,0.7,0.1,0.9,0
						c0.4-0.6,0.7-0.9,0.7-1.4c0.1-1.1-0.1-1.4-0.2-1.6c-0.4-0.6-2.1-1.7-3.3-2.9c-1.3-1.3-0.4-4.7-1.1-5.9c0,0.7,0.2,0.9,0.2,1.1
						c-0.2,0-1.9-2.4-6.1-2.9c-3.1-0.4-5.5-0.5-6.2-1.4c0.4,0,0.8-0.1,0.8-0.1s-0.9,0-1.4,0.1c-0.5-0.2-4.6-2.7-7.2-5.8
						c-0.7-0.2-0.6-0.2-0.8-0.3c-0.4-0.2-1.2-1.2-1.9-1.6c0.1-0.9-1.3-1-1.3-1s1.9-0.4,2.4-0.1c-0.6-0.3-0.9-0.5-0.9-0.5
						s0.2-1.2-0.8-1.4c0.8-0.2,1.4-0.2,1.7-0.1c0.8,1,0.8,1.3,0.8,1.3s-0.1-0.7-0.8-1.5c0.5-0.9,0.6-0.7-0.1-1.3
						c1.4,0.2,2.1,1.3,2.1,1.4c-0.1,0.3-0.3,1.9,0.8,3c1.5,1.5,4.9,1.9,7,3.4c1.3,1,1.1,2.6-0.2,2.8c0.6,0.5,3,0.4,3,0.4
						s-0.5,0.4-0.6,0.6c0.2,0.2,2.9,0.5,4.5-1.4c-0.2,0.5-0.4,0.8-0.4,0.8S33.3,19.1,35.5,16.8z"/>
				</g>
				<path fill="none" stroke="#FFFFFF" stroke-width="0.5" stroke-linejoin="round" stroke-miterlimit="5" d="M39.7,11.1
					c0,0-0.8,0-1.3,0c-0.6,0-0.8,0.6-0.8,0.6s-0.4,1-1.3,2.1c-1.3,1.7-3.4-0.5-4.5-1.5c-0.1-0.1-0.3-0.2-0.4-0.3
					c-0.1,0-0.1-0.4-0.2-0.4c0-0.1,0.2-1,0.5-1c0,0,0.8,0.7,1.1,0.8c0.2,0,0.5,0.2,0.7-0.3c0.2-0.5,0.9-0.8,0.7-1.6
					c-0.2-0.8-0.8-0.8-1-1.1c0,0-0.4,0.5-0.4,0.5l0.1-0.6c0,0-0.3-0.6-0.1-0.9C32.9,7.2,33.6,7,33.6,7s0.3-0.2,0.4-0.3
					c0.4,0,1.1,1,1.4,0.9c0.2,0,0.2,0.1,0.5-0.1c0.9,0.2,3,2.5,3,2.6c0,0.1-0.1,0.1-0.6,0c-0.1,0-0.1,0-0.1,0
					C38.1,10.2,39.7,10.9,39.7,11.1z"/>
				<path fill="none" stroke="#FFFFFF" stroke-width="0.5" stroke-linejoin="round" d="M38.3,24.5l-1.1-0.9c-0.6-0.1-1.1-0.1-1.6,0
					c-1.1,0.2-1.3,1.3-1.4,1.8c-0.1,0.5,0.1,1.3-1.5,1c-0.7-0.1-1.6-1-1.6-1.4c0-0.6,0.8-0.9,0.8-1.3c0-0.1,0-1.3-0.9-1.3
					c-0.1,0.3,0.3,0.9-0.2,1c-0.5,0.1-1-0.7-1.5-1c-0.4-0.2-0.8-0.1-0.8-0.1l0.6,0.4c0,0,0,0.5-0.2,0.6c-0.4,0.2-1.3-0.5-2.1,0.4
					c0.5-0.1,0.7,0.1,0.8,0.1c0.2,0.4-0.2,1.1,0.4,1.4c-0.1,0-1-0.1-1,0c0.5,0.2,0.4,0.6,0.4,0.6s0.2,0.6,1.1,0.8
					c1.5,2,5.5,3.6,8.1,3.5c0-2.1,0.6-2.7,1.9-2.9C38.6,26.6,38.3,24.5,38.3,24.5z"/>
				<path fill="none" stroke="#FFFFFF" stroke-width="0.5" stroke-linejoin="round" stroke-miterlimit="16" d="M18.5,9.4
					c0,0.1-0.3,1.1,0.3,2.1c0,0,0-0.2,0-0.2s0.4-0.3,0.5-0.5c0.1-0.1,0.6-0.3,0.8-0.7c0.3-0.4,0.1-1.3-0.5-1.8
					c0,0.4,0.1,0.7,0.1,0.8C19.4,9.3,18.6,9.3,18.5,9.4"/>
			</g>
		</g>
	</g>
</g>
</svg>
