<?xml version="1.0" encoding="utf-8"?>
<!-- Generator: Adobe Illustrator 18.1.1, SVG Export Plug-In . SVG Version: 6.00 Build 0)  -->
<svg version="1.1" id="Ebene_1" xmlns="http://www.w3.org/2000/svg" xmlns:xlink="http://www.w3.org/1999/xlink" width="54" height="54">
<g>
	<g>
		<rect x="-1" y="-1.1" fill="#FCCF3E" width="54.4" height="54.6"/>
		<path fill="#FFFFFF" d="M15.5,24.5c-0.6-2.9,0.4-4.9,0.4-4.9l0.2-0.5c-1.4-2.7,0.9-3.3,0.9-3.3h18.5c0,0,2.2,0.6,0.9,3.3l0.2,0.6
			c0,0,1.1,2,0.4,4.9l-2.3,0.8l-2.8,11.4l-0.5,0.8H20.9l-0.4-0.8l-2.7-11.4L15.5,24.5z"/>
		<path fill="#212121" d="M17,15.7c0,0-1.1-0.5-2.8-4.9C12.5,6.5,9.8,7,9.7,7C9.6,7,9.4,7,9.4,7.3c0,0.3,0.2,0.4,0.2,0.4
			c0.1,0,1.7,0.4,2.4,5c0.8,5,3.6,6.3,4.1,6.4C14.8,16.4,17,15.7,17,15.7"/>
		<path fill="#212121" d="M35.5,15.7c0,0,2.2,0.6,0.9,3.3c0.6-0.1,3.3-1.4,4.1-6.4c0.7-4.5,2.4-5,2.4-5c0.1,0,0.3-0.1,0.2-0.4
			C43,7,42.8,7,42.8,7c0,0-2.8-0.5-4.5,3.9C36.6,15.3,35.5,15.7,35.5,15.7"/>
		<path fill="#212121" d="M36.6,19.7c0,0,1.1,2,0.4,4.9c0.1,0.1,1.2,1.2,3.3,0.5c2.1-0.7,2.2-3.1,4-3.7C43.2,19.4,40.6,17,36.6,19.7
			"/>
		<path fill="#212121" d="M15.9,19.6c0,0-1.1,2-0.4,4.9c-0.1,0.1-1.2,1.2-3.3,0.5c-2.1-0.7-2.2-3.1-4-3.7
			C9.3,19.4,11.9,16.9,15.9,19.6"/>
		<path fill="#212121" d="M22.1,42.9h8.1c0,0,0.1,1.5-1,1.5h-6.3C22,44.3,22.1,42.9,22.1,42.9"/>
		<path fill="#212121" d="M16,20.3l6.7,4.6l0,8.6c0,0-0.2,1.1-0.5,2c-0.2,0.4-1.3,1.4-1.8,1.4c-0.2,0-1.1-2.7-1.7-3.6
			c-0.2-0.4-2.2-2.1-1-3.8C14.3,23.9,16,20.3,16,20.3"/>
		<path fill="#212121" d="M36.4,20.3l-6.7,4.6l0,8.6c0,0,0.2,1.1,0.5,2c0.2,0.4,1.3,1.4,1.8,1.4c0.2,0,1.1-2.7,1.7-3.6
			c0.2-0.4,2.2-2.1,1-3.8C38.1,23.9,36.4,20.3,36.4,20.3"/>
		<path fill="#FFFFFF" d="M18.8,23.5c0,1,0.9,1.9,2,1.9c0.5,0,1-0.2,1.4-0.5L19,22.7C18.9,22.9,18.8,23.2,18.8,23.5"/>
		<path fill="#212121" d="M19.4,23.5c0,0.7,0.6,1.3,1.4,1.3c0.4,0,0.7-0.1,1-0.4L19.5,23C19.4,23.1,19.4,23.3,19.4,23.5"/>
		<path fill="#FFFFFF" d="M33.6,23.5c0,1-0.9,1.9-2,1.9c-0.5,0-1-0.2-1.4-0.5l3.1-2.2C33.5,22.9,33.6,23.2,33.6,23.5"/>
		<path fill="#212121" d="M33,23.5c0,0.7-0.6,1.3-1.4,1.3c-0.4,0-0.7-0.1-1-0.4l2.2-1.5C33,23.1,33,23.3,33,23.5"/>
		<path fill="#212121" d="M32.6,37.5c-0.1,0-0.9,0.1-2.1-1.1c-0.3-0.3-0.8-0.9-0.9-1.1c-0.2-0.9-0.3-2-0.3-3.6c0-1.9,0-7,0-7l7-4.9
			c0,0-0.5-1.1-1.3-1.1c-0.4,0-6.7,0-8.8,0c-2,0-8.4,0-8.8,0c-0.8,0-1.3,1.1-1.3,1.1l7,4.9c0,0,0,5.1,0,7c0,1.6-0.1,2.6-0.3,3.6
			c0,0.1-0.6,0.8-0.9,1.1c-1.2,1.2-2,1.1-2.1,1.1c-0.5,0.2-1,0.6-0.5,2.7c0.6,2.2,1.5,2.3,1.5,2.3h10.7c0,0,1-0.2,1.5-2.3
			C33.7,38,33.1,37.7,32.6,37.5"/>
		<path fill="#212121" d="M35,16c0.1-0.2,0.1-0.3,0.1-0.5c0-0.9-0.8-1.7-1.8-1.7c-0.2,0-0.4,0-0.6,0.1c-0.2-0.7-0.9-1.2-1.7-1.2
			c-0.4,0-0.8,0.1-1.1,0.3c-0.3-0.5-0.8-0.8-1.5-0.8c-0.4,0-0.7,0.1-1,0.3c-0.4,0.3-1.3-0.3-1.3-0.3s-1.1,0.5-1.6,0.2
			c-0.3-0.1-0.5-0.2-0.9-0.2c-0.6,0-1.1,0.3-1.4,0.8c-0.3-0.2-0.6-0.3-1-0.3c-0.8,0-1.4,0.5-1.6,1.2c-0.2-0.1-0.4-0.1-0.6-0.1
			c-1,0-1.7,0.8-1.7,1.7c0,0.2,0,0.4,0.1,0.5c-0.7,0.2-2.2,1-0.9,2.9c1.3,1.9,2.8,0.9,2.8,0.9s0.2-0.1,0.4,0.2
			c0.2,0.4,0.3,0.5,0.7,0.7c0.4,0.2,1.3-0.3,1.6-0.2c0.3,0.1,0.7,0.7,1.1,0.8c0.3,0,1-0.4,1.4-0.4c0.5,0,0.1,0.4,1.7,0.4
			c1.7,0,1.2-0.4,1.6-0.4c0.5,0,1.1,0.4,1.4,0.4c0.3,0,0.8-0.7,1.1-0.8c0.3-0.1,1.2,0.4,1.6,0.2c0.4-0.2,0.5-0.4,0.7-0.7
			c0.2-0.4,0.4-0.2,0.4-0.2s1.5,0.9,2.8-0.9C37.2,17,35.8,16.2,35,16"/>
		<path fill="none" stroke="#FFFFFF" stroke-width="0.5" stroke-miterlimit="10" d="M17.4,16c-0.7,0.2-2.2,1-0.9,2.9
			c1.3,1.9,2.8,0.9,2.8,0.9s0.2-0.1,0.4,0.2c0.2,0.4,0.3,0.5,0.7,0.7c0.4,0.2,1.3-0.3,1.6-0.2c0.3,0.1,0.7,0.7,1.1,0.8
			c0.3,0,1-0.4,1.4-0.4c0.5,0,0.1,0.4,1.7,0.4c1.7,0,1.2-0.4,1.6-0.4c0.5,0,1.1,0.4,1.4,0.4c0.3,0,0.8-0.7,1.1-0.8
			c0.3-0.1,1.2,0.4,1.6,0.2c0.4-0.2,0.5-0.4,0.7-0.7c0.2-0.4,0.4-0.2,0.4-0.2s1.5,0.9,2.8-0.9c1.3-1.8-0.1-2.6-0.9-2.8"/>
		<path fill="#212121" d="M23.4,40.2c0.1,0.3,0.1,0.6-0.2,0.7l-0.4,0.2c-0.2,0.1-0.5,0-0.7-0.3l-0.8-1.6c-0.1-0.3-0.1-0.6,0.2-0.7
			l0.4-0.2c0.2-0.1,0.5,0,0.7,0.3L23.4,40.2z"/>
		<path fill="#212121" d="M28.9,40.2c-0.1,0.3-0.1,0.6,0.2,0.7l0.4,0.2c0.2,0.1,0.5,0,0.7-0.3l0.8-1.6c0.1-0.3,0.1-0.6-0.2-0.7
			l-0.4-0.2c-0.2-0.1-0.5,0-0.7,0.3L28.9,40.2z"/>
		<path fill="none" stroke="#FFFFFF" stroke-width="0.5" stroke-miterlimit="10" d="M28.9,40.2c-0.1,0.3-0.1,0.6,0.2,0.7l0.4,0.2
			c0.2,0.1,0.5,0,0.7-0.3l0.8-1.6c0.1-0.3,0.1-0.6-0.2-0.7l-0.4-0.2c-0.2-0.1-0.5,0-0.7,0.3L28.9,40.2z M23.4,40.2
			c0.1,0.3,0.1,0.6-0.2,0.7l-0.4,0.2c-0.2,0.1-0.5,0-0.7-0.3l-0.8-1.6c-0.1-0.3-0.1-0.6,0.2-0.7l0.4-0.2c0.2-0.1,0.5,0,0.7,0.3
			L23.4,40.2z"/>
		<path fill="#EB5650" d="M29.6,39.4c0.4-0.6,0.5-0.6,0.5-0.6c1.5,1.1,2.4,2.8,2.4,4.7c0,3.3-2.8,5.9-6.3,5.9
			c-3.5,0-6.3-2.7-6.3-5.9c0-1.9,0.9-3.6,2.4-4.7c0,0,0.3-0.1,0.5,0.6c0.2,0.7,0.2,0.8,0.2,0.8c-1,0.8-1.6,2-1.6,3.3
			c0,2.4,2.1,4.4,4.8,4.4c2.6,0,4.8-2,4.8-4.4c0-1.3-0.6-2.5-1.6-3.3C29.4,40.2,29.2,40,29.6,39.4"/>
		<path fill="#EB5650" d="M27.9,42.6C28,43,28,43.4,28,43.8c0,1.7-0.9,3-1.9,3c-1,0-1.9-1.3-1.9-3c0-0.4,0.1-0.8,0.2-1.2
			C25.4,42.6,27.5,42.6,27.9,42.6"/>
		<path fill="none" stroke="#FFFFFF" stroke-width="0.5" stroke-miterlimit="10" d="M43.9,21.3c0,0-1.7-0.8-2.6-0.8s-3,1.3-3.4,1.3
			c-0.4,0-0.7,0-0.7,0"/>
		<path fill="none" stroke="#FFFFFF" stroke-width="0.5" stroke-miterlimit="10" d="M8.6,21.2c0,0,1.7-0.8,2.6-0.8
			c0.9,0,3,1.3,3.4,1.3c0.4,0,0.8,0,0.8,0"/>
		<path fill="none" stroke="#FFFFFF" stroke-width="0.5" stroke-miterlimit="10" d="M36.2,20.2l-6.7,4.6l0,8.7c0,0,0.1,1.2,0.4,2
			c0.2,0.4,1.3,1.4,1.7,1.5 M16.2,20.2l6.7,4.6l0,8.7c0,0-0.1,1.2-0.4,2c-0.2,0.4-1.3,1.4-1.7,1.5"/>
	</g>
</g>
</svg>
