<?xml version="1.0" encoding="utf-8"?>
<!-- Generator: Adobe Illustrator 18.1.1, SVG Export Plug-In . SVG Version: 6.00 Build 0)  -->
<svg version="1.1" id="Ebene_1" xmlns="http://www.w3.org/2000/svg" xmlns:xlink="http://www.w3.org/1999/xlink" width="54" height="54">
<g>
	<g>
		<rect x="-1" y="-1.1" fill="#FFFFFF" width="54.4" height="27.3"/>
		<rect x="-1" y="26.3" fill="#33A558" width="54.4" height="27.3"/>
		<g>
			<path fill="none" d="M10.7,6.9v0.5l0.1,0c0.2,0,0.3,0,0.4,0.1c0.1,0,0.1,0.1,0.1,0.3v3.4c0,0.2-0.1,0.3-0.1,0.3
				c0,0-0.1,0.1-0.4,0.1l-0.1,0v0.5h4.4l0.3-1.9h-0.5l0,0.1c-0.2,0.5-0.4,0.9-0.7,1c-0.3,0.2-0.6,0.3-1,0.3c-0.3,0-0.4,0-0.4-0.1
				c0,0-0.1-0.1-0.1-0.2V7.8c0-0.3,0.1-0.4,0.1-0.4c0,0,0.1-0.1,0.5-0.1l0.1,0V6.9L10.7,6.9L10.7,6.9z"/>
			<path fill="#FCCF3E" d="M10.9,7.1L10.9,7.1c0.2,0.1,0.3,0.1,0.4,0.2c0.2,0.1,0.2,0.2,0.2,0.5v3.4c0,0.2-0.1,0.4-0.2,0.5
				c-0.1,0-0.2,0.1-0.4,0.1v0.1h4c0-0.1,0.2-1.4,0.3-1.5h-0.1c-0.2,0.5-0.5,0.9-0.8,1.1c-0.3,0.2-0.7,0.3-1.1,0.3
				c-0.3,0-0.4,0-0.5-0.1c-0.1-0.1-0.2-0.2-0.2-0.4V7.8c0-0.3,0.1-0.5,0.2-0.6c0.1-0.1,0.3-0.1,0.6-0.1V7.1L10.9,7.1L10.9,7.1z"/>
			<path fill="none" d="M15.4,6.9v0.5l0.1,0c0.2,0,0.3,0,0.4,0.1c0.1,0,0.1,0.1,0.1,0.3v3.4c0,0.2-0.1,0.3-0.1,0.3
				c0,0-0.1,0.1-0.4,0.1l-0.1,0v0.5h2.8v-0.5H18c-0.2,0-0.4,0-0.4-0.1c-0.1,0-0.1-0.1-0.1-0.3V7.7c0-0.2,0.1-0.3,0.1-0.3
				c0,0,0.1,0,0.4-0.1l0.1,0V6.9L15.4,6.9L15.4,6.9z"/>
			<path fill="#FCCF3E" d="M15.6,7.1L15.6,7.1C15.8,7.1,16,7.2,16,7.2c0.2,0.1,0.2,0.2,0.2,0.5v3.4c0,0.2-0.1,0.4-0.2,0.5
				c-0.1,0-0.2,0.1-0.4,0.1v0.1H18v-0.1c-0.2,0-0.4,0-0.5-0.1c-0.1-0.1-0.2-0.2-0.2-0.4V7.7c0-0.2,0.1-0.4,0.2-0.5
				c0.1,0,0.2-0.1,0.4-0.1V7.1L15.6,7.1L15.6,7.1z"/>
			<path fill="none" d="M18.2,6.9v0.5l0.1,0c0.2,0,0.3,0,0.4,0.1c0,0,0.1,0.1,0.1,0.3v3.4c0,0.2-0.1,0.3-0.1,0.3c0,0-0.1,0-0.3,0.1
				l-0.1,0v0.5h2.4c0.6,0,1.1-0.1,1.5-0.4c0.4-0.3,0.6-0.6,0.6-1.1c0-0.5-0.2-0.8-0.6-1.1c-0.1-0.1-0.2-0.1-0.4-0.2
				C21.9,9.1,22,9.1,22.1,9c0.2-0.2,0.4-0.5,0.4-0.8c0-0.5-0.3-0.9-0.9-1.1c-0.3-0.1-0.7-0.2-1.1-0.2L18.2,6.9L18.2,6.9z M20.2,7.6
				c0-0.1,0-0.1,0-0.2c0,0,0.1,0,0.2,0c0.2,0,0.4,0.1,0.4,0.2C21,7.7,21,7.9,21,8.2c0,0.3-0.1,0.5-0.2,0.7C20.8,8.9,20.6,9,20.2,9
				L20.2,7.6L20.2,7.6L20.2,7.6z M20.2,11.3L20.2,11.3c0,0,0-0.1,0-0.2V9.5c0.3,0,0.5,0,0.6,0.1c0.3,0.1,0.4,0.4,0.4,0.9
				c0,0.3-0.1,0.5-0.2,0.7c-0.1,0.1-0.3,0.2-0.6,0.2C20.3,11.4,20.3,11.4,20.2,11.3"/>
			<path fill="#FCCF3E" d="M18.4,7.1L18.4,7.1c0.2,0.1,0.3,0.1,0.4,0.2C18.9,7.3,19,7.5,19,7.7v3.4c0,0.2-0.1,0.4-0.2,0.5
				c-0.1,0-0.2,0.1-0.4,0.1v0.1h2.2c0.6,0,1.1-0.1,1.4-0.4c0.3-0.2,0.5-0.5,0.5-0.9c0-0.4-0.2-0.7-0.5-0.9c-0.2-0.1-0.4-0.2-0.7-0.2
				l0,0V9.1l0,0c0.2,0,0.5-0.1,0.7-0.3c0.2-0.2,0.3-0.4,0.3-0.7c0-0.5-0.2-0.8-0.7-0.9c-0.3-0.1-0.6-0.1-1-0.1L18.4,7.1L18.4,7.1z
				 M20,7.6c0-0.1,0-0.3,0.1-0.3c0.1-0.1,0.2-0.1,0.3-0.1c0.3,0,0.5,0.1,0.6,0.3c0.1,0.2,0.2,0.4,0.2,0.7c0,0.4-0.1,0.6-0.2,0.8
				c-0.2,0.2-0.5,0.2-0.9,0.2H20V7.6z M20,11.1V9.3l0.1,0c0.4,0,0.7,0,0.9,0.1c0.3,0.2,0.5,0.5,0.5,1.1c0,0.3-0.1,0.6-0.2,0.8
				c-0.1,0.2-0.4,0.3-0.8,0.3c-0.2,0-0.3-0.1-0.4-0.2C20,11.4,20,11.3,20,11.1"/>
			<path fill="none" d="M22.9,6.9v0.5l0.1,0c0.2,0,0.3,0,0.4,0.1c0.1,0,0.1,0.1,0.1,0.3v3.4c0,0.2-0.1,0.3-0.1,0.3
				c0,0-0.1,0.1-0.4,0.1l-0.1,0v0.5h4.4l0.3-1.8h-0.5l0,0.1c-0.2,0.5-0.4,0.8-0.7,0.9c-0.3,0.2-0.6,0.2-1,0.2c-0.3,0-0.4,0-0.4-0.1
				c0,0-0.1-0.1-0.1-0.2V9.6c0.3,0,0.5,0.1,0.6,0.2c0.1,0.1,0.2,0.4,0.3,0.8l0,0.1h0.5V8h-0.4l0,0.1c-0.1,0.5-0.2,0.7-0.3,0.8
				C25.4,9,25.2,9.1,25,9.1V7.6c0-0.1,0-0.1,0-0.2c0,0,0.1,0,0.3,0c0.5,0,0.9,0.1,1.1,0.2c0.2,0.1,0.3,0.4,0.4,0.8l0,0.1h0.4V6.9
				H22.9z"/>
			<path fill="#FCCF3E" d="M23.1,7.1L23.1,7.1c0.2,0.1,0.3,0.1,0.4,0.2c0.2,0.1,0.2,0.2,0.2,0.5v3.4c0,0.2-0.1,0.4-0.2,0.5
				c-0.1,0-0.2,0.1-0.4,0.1v0.1h4c0-0.1,0.2-1.2,0.3-1.4h-0.1c-0.2,0.5-0.5,0.8-0.8,1c-0.3,0.2-0.7,0.3-1.1,0.3
				c-0.3,0-0.4,0-0.5-0.1c-0.1-0.1-0.1-0.2-0.1-0.4V9.4h0.1c0.4,0,0.7,0.1,0.9,0.3c0.2,0.2,0.3,0.4,0.3,0.8h0.1V8.2H26
				c-0.1,0.4-0.2,0.7-0.3,0.8c-0.2,0.2-0.4,0.2-0.9,0.2l-0.1,0V7.6c0-0.2,0-0.3,0.1-0.3c0.1-0.1,0.2-0.1,0.4-0.1
				c0.6,0,1,0.1,1.2,0.3c0.2,0.2,0.4,0.5,0.5,0.9h0.1V7.1L23.1,7.1L23.1,7.1z"/>
			<path fill="none" d="M27.6,6.9v0.5l0.1,0c0.3,0,0.4,0.1,0.4,0.1c0,0,0.1,0.1,0.1,0.4V11c0,0.3-0.1,0.4-0.1,0.4
				c0,0-0.1,0.1-0.4,0.1l-0.1,0v0.5h2.7v-0.5l-0.1,0c-0.3,0-0.4-0.1-0.4-0.1c0,0-0.1-0.1-0.1-0.4v-1c0.4,0.5,1.4,1.9,1.4,1.9h1.7
				v-0.4l-0.1,0c0,0-0.1,0-0.1,0c0,0,0,0-0.1-0.1c0,0-1-1.4-1.4-1.9c0.2-0.1,0.4-0.1,0.6-0.3c0.3-0.3,0.5-0.6,0.5-1
				c0-0.6-0.3-1-0.9-1.2c-0.3-0.1-0.7-0.2-1.2-0.2L27.6,6.9L27.6,6.9z M29.7,7.6c0,0,0-0.1,0-0.1c0,0,0.1,0,0.3,0
				c0.3,0,0.5,0.1,0.6,0.3c0.1,0.1,0.1,0.3,0.1,0.6c0,0.4-0.1,0.6-0.2,0.7c-0.2,0.1-0.4,0.1-0.8,0.2V7.6z"/>
			<path fill="#FCCF3E" d="M27.8,7.1L27.8,7.1c0.2,0.1,0.4,0.1,0.4,0.2c0.1,0.1,0.2,0.3,0.2,0.6V11c0,0.3,0,0.5-0.1,0.6
				c-0.1,0.1-0.2,0.1-0.5,0.1v0.1h2.3v-0.1c-0.2,0-0.4-0.1-0.5-0.2c-0.1-0.1-0.1-0.3-0.1-0.5V7.6c0-0.1,0-0.2,0.1-0.3
				c0.1-0.1,0.2-0.1,0.4-0.1c0.4,0,0.6,0.1,0.8,0.4c0.1,0.2,0.1,0.4,0.1,0.7c0,0.5-0.1,0.8-0.3,0.9c-0.2,0.1-0.5,0.2-1,0.2
				c0,0,0,0-0.1,0c0,0,0.1,0.1,0.1,0.1s1.6,2.1,1.6,2.2h1.4v-0.1c0,0-0.1,0-0.1,0c-0.1,0-0.1-0.1-0.2-0.1l-1.6-2.1l0.1,0
				c0.2,0,0.5-0.1,0.7-0.3C31.8,8.9,32,8.6,32,8.2c0-0.5-0.3-0.8-0.8-1c-0.3-0.1-0.7-0.1-1.1-0.1L27.8,7.1L27.8,7.1z"/>
			<path fill="none" d="M32.5,6.9l0,1.7H33l0-0.1c0-0.5,0.2-0.8,0.5-0.9c0.1-0.1,0.3-0.1,0.6-0.1V11c0,0.3-0.1,0.4-0.1,0.4
				c0,0-0.1,0.1-0.5,0.1h-0.1v0.5h2.8v-0.5h-0.1c-0.3,0-0.4-0.1-0.5-0.1c0,0-0.1-0.1-0.1-0.4V7.4c0.3,0,0.4,0.1,0.6,0.1
				c0.3,0.2,0.4,0.5,0.5,0.9l0,0.1h0.5l0-1.7L32.5,6.9L32.5,6.9z"/>
			<path fill="#FCCF3E" d="M32.8,7.1c0,0.1,0,1.2,0,1.3h0.1c0.1-0.5,0.3-0.8,0.6-1c0.2-0.1,0.5-0.2,0.8-0.2l0.1,0V11
				c0,0.3-0.1,0.5-0.2,0.6c-0.1,0.1-0.3,0.1-0.5,0.1v0.1H36v-0.1c-0.3,0-0.5-0.1-0.5-0.1c-0.1-0.1-0.2-0.3-0.2-0.6V7.2l0.1,0
				c0.4,0,0.6,0.1,0.8,0.2c0.3,0.2,0.5,0.5,0.6,1h0.1c0-0.1,0-1.2,0-1.3L32.8,7.1L32.8,7.1z"/>
			<path fill="none" d="M40,5.2c-0.1,0-0.1,0.1-0.2,0.1l-1.1,1.4h0.7l1-0.7c0.1-0.1,0.2-0.1,0.2-0.2c0.1-0.1,0.1-0.2,0.1-0.3
				c0-0.1,0-0.2-0.1-0.3c-0.1-0.1-0.2-0.1-0.3-0.1C40.2,5.1,40.1,5.1,40,5.2 M37.2,6.9v0.5l0.1,0c0.2,0,0.3,0,0.4,0.1
				c0.1,0,0.1,0.1,0.1,0.3v3.4c0,0.2-0.1,0.3-0.1,0.3c0,0-0.1,0.1-0.4,0.1l-0.1,0v0.5h4.4l0.3-1.8h-0.5l0,0.1
				c-0.2,0.5-0.4,0.8-0.7,0.9c-0.3,0.2-0.6,0.2-1,0.2c-0.3,0-0.4,0-0.4-0.1c0,0-0.1-0.1-0.1-0.2V9.6c0.3,0,0.5,0.1,0.6,0.2
				c0.1,0.1,0.2,0.4,0.3,0.8l0,0.1h0.5V8h-0.4l0,0.1c-0.1,0.5-0.2,0.7-0.3,0.8c-0.1,0.1-0.3,0.2-0.6,0.2V7.6c0-0.1,0-0.1,0-0.2
				c0,0,0.1,0,0.3,0c0.5,0,0.9,0.1,1.1,0.2C40.9,7.8,41,8,41.1,8.5l0,0.1h0.4V6.9H37.2z"/>
			<path fill="#FCCF3E" d="M40.1,5.3L40.1,5.3c0,0-0.1,0.1-0.1,0.1c0,0-0.6,0.8-0.8,1h0.2c0,0,0.9-0.6,0.9-0.6
				c0.1-0.1,0.1-0.1,0.2-0.2c0,0,0.1-0.1,0.1-0.2c0-0.1,0-0.1-0.1-0.2c0,0-0.1-0.1-0.2-0.1C40.3,5.3,40.2,5.3,40.1,5.3 M37.4,7.1
				L37.4,7.1c0.2,0.1,0.3,0.1,0.4,0.2C37.9,7.3,38,7.5,38,7.7v3.4c0,0.2-0.1,0.4-0.2,0.5c-0.1,0-0.2,0.1-0.4,0.1v0.1h4
				c0-0.1,0.2-1.2,0.3-1.4h-0.1c-0.2,0.5-0.5,0.8-0.8,1c-0.3,0.2-0.7,0.3-1.1,0.3c-0.3,0-0.4,0-0.5-0.1c-0.1-0.1-0.1-0.2-0.1-0.4
				V9.4h0.1c0.4,0,0.7,0.1,0.9,0.3c0.2,0.2,0.3,0.4,0.3,0.8h0.1V8.2h-0.1C40.2,8.6,40.1,8.9,40,9c-0.2,0.2-0.4,0.2-0.9,0.2l-0.1,0
				V7.6c0-0.2,0-0.3,0.1-0.3c0.1-0.1,0.2-0.1,0.4-0.1c0.6,0,1,0.1,1.2,0.3c0.2,0.2,0.4,0.5,0.5,0.9h0.1V7.1L37.4,7.1L37.4,7.1z"/>
			<path fill="none" d="M21.6,13.7l0.1,0c0.2,0,0.3,0,0.4,0.1c0.1,0,0.1,0.1,0.1,0.3v3.4c0,0.2-0.1,0.3-0.1,0.3c0,0-0.1,0.1-0.4,0.1
				l-0.1,0v0.5h4.4l0.3-1.8h-0.5l0,0.1c-0.2,0.5-0.4,0.8-0.7,0.9c-0.3,0.2-0.6,0.2-1,0.2c-0.3,0-0.4,0-0.4-0.1c0,0-0.1-0.1-0.1-0.2
				V16c0.3,0,0.5,0.1,0.6,0.2c0.1,0.1,0.2,0.4,0.3,0.8l0,0.1H25v-2.7h-0.4l0,0.1c-0.1,0.5-0.2,0.7-0.3,0.8c-0.1,0.1-0.3,0.2-0.6,0.2
				V14c0-0.1,0-0.1,0-0.2c0,0,0.1,0,0.3,0c0.5,0,0.9,0.1,1.1,0.2c0.2,0.1,0.3,0.4,0.4,0.8l0,0.1H26v-1.7h-4.4L21.6,13.7z"/>
			<path fill="#FCCF3E" d="M21.9,13.5L21.9,13.5c0.2,0.1,0.3,0.1,0.4,0.2c0.2,0.1,0.2,0.2,0.2,0.5v3.4c0,0.2-0.1,0.4-0.2,0.5
				c-0.1,0-0.2,0.1-0.4,0.1v0.1h4c0-0.1,0.2-1.2,0.3-1.4h-0.1c-0.2,0.5-0.5,0.8-0.8,1C25,17.9,24.6,18,24.2,18c-0.3,0-0.4,0-0.5-0.1
				c-0.1-0.1-0.1-0.2-0.1-0.4v-1.8h0.1c0.4,0,0.7,0.1,0.9,0.3c0.2,0.2,0.3,0.4,0.3,0.8h0.1v-2.3h-0.1c-0.1,0.4-0.2,0.7-0.3,0.8
				c-0.2,0.2-0.4,0.2-0.9,0.2l-0.1,0V14c0-0.2,0-0.3,0.1-0.3c0.1-0.1,0.2-0.1,0.4-0.1c0.6,0,1,0.1,1.2,0.3c0.2,0.2,0.4,0.5,0.5,0.9
				h0.1v-1.3L21.9,13.5L21.9,13.5z"/>
			<path fill="none" d="M26.4,13.3l0,1.7h0.5l0-0.1c0-0.5,0.2-0.8,0.5-0.9c0.1-0.1,0.3-0.1,0.6-0.1v3.6c0,0.3-0.1,0.4-0.1,0.4
				c0,0-0.1,0.1-0.5,0.1h-0.1v0.5h2.8v-0.5H30c-0.3,0-0.4-0.1-0.5-0.1c0,0-0.1-0.1-0.1-0.4v-3.6c0.3,0,0.4,0.1,0.6,0.1
				c0.3,0.2,0.4,0.5,0.5,0.9l0,0.1H31l0-1.7L26.4,13.3L26.4,13.3z"/>
			<path fill="#FCCF3E" d="M26.6,13.5c0,0.1,0,1.2,0,1.3h0.1c0.1-0.5,0.3-0.8,0.6-1c0.2-0.1,0.5-0.2,0.8-0.2l0.1,0v3.8
				c0,0.3-0.1,0.5-0.2,0.6C28,18,27.8,18,27.5,18.1v0.1h2.4v-0.1c-0.3,0-0.5-0.1-0.5-0.1c-0.1-0.1-0.2-0.3-0.2-0.6v-3.8l0.1,0
				c0.4,0,0.6,0.1,0.8,0.2c0.3,0.2,0.5,0.5,0.6,1h0.1c0-0.1,0-1.2,0-1.3L26.6,13.5L26.6,13.5z"/>
			<path fill="none" d="M13.5,19.6v0.5l0.1,0c0.3,0,0.4,0.1,0.4,0.1c0,0,0.1,0.1,0.1,0.4v3.1c0,0.3-0.1,0.4-0.1,0.4
				c0,0-0.1,0.1-0.4,0.1l-0.1,0v0.5h2.6v-0.5l-0.1,0c-0.3,0-0.4-0.1-0.4-0.1c0,0-0.1-0.1-0.1-0.4v-1.2c0.3,0,0.6,0,0.8,0
				c0.2,0,0.5-0.1,0.7-0.2c0.3-0.1,0.5-0.3,0.7-0.6c0.1-0.2,0.2-0.5,0.2-0.7c0-0.5-0.2-0.9-0.5-1.1c-0.3-0.2-0.8-0.3-1.5-0.3H13.5z
				 M15.5,20.3C15.5,20.2,15.5,20.2,15.5,20.3c0-0.1,0.1-0.1,0.2-0.1c0.3,0,0.4,0.1,0.5,0.2c0.1,0.2,0.1,0.4,0.1,0.7
				c0,0.4-0.1,0.7-0.3,0.8C16,22,15.9,22,15.5,22L15.5,20.3L15.5,20.3z"/>
			<path fill="#FCCF3E" d="M13.7,19.8L13.7,19.8c0.2,0.1,0.4,0.1,0.4,0.2c0.1,0.1,0.1,0.3,0.1,0.5v3.1c0,0.3,0,0.4-0.1,0.5
				c-0.1,0.1-0.2,0.1-0.4,0.2v0.1h2.2v-0.1c-0.2,0-0.4-0.1-0.5-0.1c-0.1-0.1-0.1-0.3-0.1-0.6v-1.4h0.1c0.4,0,0.7,0,0.9,0
				c0.2,0,0.4-0.1,0.6-0.2c0.3-0.1,0.5-0.3,0.6-0.5c0.1-0.2,0.2-0.4,0.2-0.6c0-0.5-0.1-0.8-0.4-1c-0.3-0.2-0.8-0.3-1.3-0.3
				L13.7,19.8L13.7,19.8L13.7,19.8z M15.3,20.3c0-0.1,0-0.2,0.1-0.2c0.1,0,0.2-0.1,0.3-0.1c0.3,0,0.6,0.1,0.7,0.3
				c0.1,0.2,0.2,0.5,0.2,0.8c0,0.5-0.1,0.8-0.4,1c-0.2,0.1-0.4,0.1-0.9,0.2l-0.1,0L15.3,20.3L15.3,20.3z"/>
			<path fill="none" d="M19.6,19.5l-1.6,4c-0.1,0.4-0.2,0.5-0.3,0.6c-0.1,0.1-0.2,0.2-0.3,0.2l-0.1,0v0.5H19v-0.5l-0.1,0
				c-0.2,0-0.3,0-0.3,0c-0.1,0-0.1-0.1-0.1-0.1c0,0,0-0.1,0.1-0.4c0,0,0.1-0.3,0.2-0.5h1.4c0,0.1,0.1,0.3,0.1,0.3l0.1,0.2
				c0,0.1,0,0.2,0,0.2c0,0.1,0,0.1,0,0.1c0,0-0.1,0-0.4,0l-0.1,0v0.5h2.6v-0.5l-0.2,0c-0.1,0-0.2,0-0.3-0.1
				c-0.1-0.1-0.2-0.3-0.4-0.8L20,19.5L19.6,19.5L19.6,19.5z M19.4,21.6c0.1,0.3,0.4,0.9,0.5,1.2h-0.9C19,22.5,19.2,21.9,19.4,21.6"
				/>
			<path fill="#FCCF3E" d="M19.7,19.7c0,0.1-1.5,3.8-1.5,3.8c-0.1,0.3-0.2,0.5-0.3,0.6c-0.1,0.1-0.2,0.2-0.4,0.2v0.1h1.3v-0.1
				c-0.1,0-0.2,0-0.3,0c-0.2-0.1-0.2-0.2-0.2-0.3c0-0.1,0-0.2,0.1-0.4c0,0,0.2-0.6,0.2-0.6h0h1.6l0.2,0.5l0.1,0.2
				c0,0.1,0.1,0.2,0.1,0.3c0,0.1,0,0.2-0.1,0.3c-0.1,0-0.2,0.1-0.4,0.1v0.1h2.2v-0.1c-0.2,0-0.3-0.1-0.4-0.2
				c-0.1-0.1-0.2-0.4-0.4-0.8c0,0-1.4-3.3-1.6-3.7L19.7,19.7L19.7,19.7z M19.3,21.2h0.1l0.7,1.8h-1.5L19.3,21.2z"/>
			<path fill="none" d="M21.9,19.6l0,1.7h0.5l0-0.1c0-0.5,0.2-0.8,0.5-0.9c0.1-0.1,0.3-0.1,0.6-0.1v3.6c0,0.3-0.1,0.4-0.1,0.4
				c0,0-0.1,0.1-0.5,0.1h-0.1v0.5h2.8v-0.5h-0.1c-0.3,0-0.4-0.1-0.5-0.1c0,0-0.1-0.1-0.1-0.4v-3.6c0.3,0,0.4,0.1,0.6,0.1
				c0.3,0.2,0.4,0.5,0.5,0.9l0,0.1h0.5l0-1.7L21.9,19.6L21.9,19.6z"/>
			<path fill="#FCCF3E" d="M22.1,19.8c0,0.1,0,1.2,0,1.3h0.1c0.1-0.5,0.3-0.8,0.6-1C23,20,23.3,20,23.6,20l0.1,0v3.8
				c0,0.3-0.1,0.5-0.2,0.6c-0.1,0.1-0.3,0.1-0.5,0.1v0.1h2.4v-0.1c-0.3,0-0.5-0.1-0.5-0.1c-0.1-0.1-0.2-0.3-0.2-0.6V20l0.1,0
				c0.4,0,0.6,0.1,0.8,0.2c0.3,0.2,0.5,0.5,0.6,1h0.1c0-0.1,0-1.2,0-1.3L22.1,19.8L22.1,19.8L22.1,19.8z"/>
			<path fill="none" d="M26.6,19.6v0.5l0.1,0c0.3,0,0.4,0.1,0.4,0.1c0,0,0.1,0.1,0.1,0.4v3.1c0,0.3-0.1,0.4-0.1,0.4
				c0,0-0.1,0.1-0.4,0.1l-0.1,0v0.5h2.7v-0.5l-0.1,0c-0.3,0-0.4-0.1-0.4-0.1c0,0-0.1-0.1-0.1-0.4v-1c0.4,0.5,1.4,1.9,1.4,1.9h1.7
				v-0.4l-0.1,0c0,0-0.1,0-0.1,0c0,0,0,0-0.1-0.1c0,0-1-1.4-1.4-1.9c0.2-0.1,0.4-0.1,0.6-0.3c0.3-0.3,0.5-0.6,0.5-1
				c0-0.6-0.3-1-0.9-1.2c-0.3-0.1-0.7-0.2-1.2-0.2L26.6,19.6L26.6,19.6z M28.6,20.3c0,0,0-0.1,0-0.1c0,0,0.1,0,0.3,0
				c0.3,0,0.5,0.1,0.6,0.3c0.1,0.1,0.1,0.3,0.1,0.6c0,0.4-0.1,0.6-0.2,0.7C29.2,21.9,29,22,28.6,22V20.3z"/>
			<path fill="#FCCF3E" d="M26.8,19.8L26.8,19.8c0.2,0.1,0.4,0.1,0.4,0.2c0.1,0.1,0.2,0.3,0.2,0.6v3.1c0,0.3,0,0.5-0.1,0.6
				c-0.1,0.1-0.2,0.1-0.5,0.1v0.1H29v-0.1c-0.2,0-0.4-0.1-0.5-0.2c-0.1-0.1-0.1-0.3-0.1-0.5v-3.4c0-0.1,0-0.2,0.1-0.3
				c0.1-0.1,0.2-0.1,0.4-0.1c0.4,0,0.6,0.1,0.8,0.4c0.1,0.2,0.1,0.4,0.1,0.7c0,0.5-0.1,0.8-0.3,0.9c-0.2,0.1-0.5,0.2-1,0.2
				c0,0,0,0-0.1,0c0,0,0.1,0.1,0.1,0.1s1.6,2.1,1.6,2.2h1.4v-0.1c0,0-0.1,0-0.1,0c-0.1,0-0.1-0.1-0.1-0.1l-1.6-2.1l0.1,0
				c0.2,0,0.5-0.1,0.7-0.3c0.3-0.2,0.4-0.5,0.4-0.9c0-0.5-0.3-0.8-0.8-1c-0.3-0.1-0.7-0.1-1.1-0.1L26.8,19.8L26.8,19.8z"/>
			<path fill="none" d="M31.7,19.6v0.5l0.1,0c0.2,0,0.3,0,0.4,0.1c0.1,0,0.1,0.1,0.1,0.3v3.4c0,0.2-0.1,0.3-0.1,0.3
				c0,0-0.1,0.1-0.4,0.1l-0.1,0v0.5h2.8v-0.5h-0.1c-0.2,0-0.4,0-0.4-0.1c-0.1,0-0.1-0.1-0.1-0.3v-3.4c0-0.2,0.1-0.3,0.1-0.3
				c0,0,0.1,0,0.4-0.1l0.1,0v-0.5L31.7,19.6L31.7,19.6z"/>
			<path fill="#FCCF3E" d="M31.9,19.8L31.9,19.8c0.2,0.1,0.3,0.1,0.4,0.1c0.2,0.1,0.2,0.2,0.2,0.5v3.4c0,0.2-0.1,0.4-0.2,0.5
				c-0.1,0-0.2,0.1-0.4,0.1v0.1h2.4v-0.1c-0.2,0-0.4,0-0.5-0.1c-0.1-0.1-0.2-0.2-0.2-0.4v-3.4c0-0.2,0.1-0.4,0.2-0.5
				c0.1,0,0.2-0.1,0.4-0.1v-0.1H31.9z"/>
			<path fill="none" d="M34.4,19.6v0.5l0.1,0c0.2,0,0.3,0,0.4,0.1c0.1,0,0.1,0.1,0.1,0.3v3.4c0,0.2-0.1,0.3-0.1,0.3
				c0,0-0.1,0.1-0.4,0.1l-0.1,0v0.5h4.4l0.3-1.8h-0.5l0,0.1c-0.2,0.5-0.4,0.8-0.7,0.9c-0.3,0.2-0.6,0.2-1,0.2c-0.3,0-0.4,0-0.4-0.1
				c0,0-0.1-0.1-0.1-0.2v-1.6c0.3,0,0.5,0.1,0.6,0.2c0.1,0.1,0.2,0.4,0.3,0.8l0,0.1h0.5v-2.7h-0.4l0,0.1c-0.1,0.5-0.2,0.7-0.3,0.8
				c-0.1,0.1-0.3,0.2-0.6,0.2v-1.5c0-0.1,0-0.1,0-0.2c0,0,0.1,0,0.3,0c0.5,0,0.9,0.1,1.1,0.2c0.2,0.1,0.3,0.4,0.4,0.8l0,0.1h0.4
				v-1.7L34.4,19.6L34.4,19.6z"/>
			<path fill="#FCCF3E" d="M34.6,19.8L34.6,19.8c0.2,0.1,0.3,0.1,0.4,0.2c0.2,0.1,0.2,0.2,0.2,0.5v3.4c0,0.2-0.1,0.4-0.2,0.5
				c-0.1,0-0.2,0.1-0.4,0.1v0.1h4c0-0.1,0.2-1.2,0.3-1.4h-0.1c-0.2,0.5-0.5,0.8-0.8,1c-0.3,0.2-0.7,0.3-1.1,0.3
				c-0.3,0-0.4,0-0.5-0.1c-0.1-0.1-0.1-0.2-0.1-0.4v-1.8h0.1c0.4,0,0.7,0.1,0.9,0.3c0.2,0.2,0.3,0.4,0.3,0.8h0.1V21h-0.1
				c-0.1,0.4-0.2,0.7-0.3,0.8c-0.2,0.2-0.4,0.2-0.9,0.2h-0.1v-1.7c0-0.2,0-0.3,0.1-0.3c0.1-0.1,0.2-0.1,0.4-0.1c0.6,0,1,0.1,1.2,0.3
				c0.2,0.2,0.4,0.5,0.5,0.9h0.1v-1.3L34.6,19.8L34.6,19.8L34.6,19.8z"/>
		</g>
	</g>
</g>
</svg>
