<?xml version="1.0" encoding="utf-8"?>
<!-- Generator: Adobe Illustrator 18.1.1, SVG Export Plug-In . SVG Version: 6.00 Build 0)  -->
<svg version="1.1" id="Ebene_1" xmlns="http://www.w3.org/2000/svg" xmlns:xlink="http://www.w3.org/1999/xlink" width="54" height="54">
<g>
	<g>
		<rect x="26.2" y="-1.1" fill="#EB5650" width="27.3" height="54.7"/>
		<rect x="-1" y="-1.1" fill="#FFFFFF" width="27.3" height="54.7"/>
		<polygon fill="#FFFFFF" points="39.2,7.8 40.6,11.5 44.1,11.5 41.3,13.4 42.4,16.9 39.2,14.9 36,16.9 37.1,13.4 34.3,11.5 
			37.8,11.5 		"/>
		<polygon fill="#FFFFFF" points="39.2,16.8 40.6,20.4 44.1,20.4 41.3,22.4 42.4,25.9 39.2,23.8 36,25.9 37.1,22.4 34.3,20.4 
			37.8,20.4 		"/>
		<polygon fill="#FFFFFF" points="39.2,25.7 40.6,29.4 44.1,29.4 41.3,31.3 42.4,34.8 39.2,32.7 36,34.8 37.1,31.3 34.3,29.4 
			37.8,29.4 		"/>
		<polygon fill="#FFFFFF" points="39.2,34.6 40.6,38.3 44.1,38.3 41.3,40.3 42.4,43.7 39.2,41.7 36,43.7 37.1,40.2 34.3,38.3 
			37.8,38.3 		"/>
		<polygon fill="#EB5650" points="13.2,7.8 14.6,11.5 18.2,11.5 15.3,13.4 16.4,16.9 13.2,14.9 10.1,16.9 11.1,13.4 8.3,11.5 
			11.9,11.5 		"/>
		<polygon fill="#EB5650" points="13.2,16.8 14.6,20.4 18.2,20.4 15.3,22.4 16.4,25.9 13.2,23.8 10.1,25.9 11.1,22.4 8.3,20.4 
			11.9,20.4 		"/>
		<polygon fill="#EB5650" points="13.2,25.7 14.6,29.4 18.2,29.4 15.3,31.3 16.4,34.8 13.2,32.7 10.1,34.8 11.1,31.3 8.3,29.4 
			11.9,29.4 		"/>
		<polygon fill="#EB5650" points="13.2,34.6 14.6,38.3 18.2,38.3 15.3,40.3 16.4,43.7 13.2,41.7 10.1,43.7 11.1,40.2 8.3,38.3 
			11.9,38.3 		"/>
		<polygon fill="#EB5650" points="26.2,11.1 23,13.1 24.1,9.6 21.3,7.7 24.9,7.7 26.2,4.1 		"/>
		<polygon fill="#FFFFFF" points="26.2,4.1 27.6,7.7 31.2,7.7 28.3,9.6 29.4,13.2 26.2,11.1 		"/>
		<polygon fill="#EB5650" points="26.2,20 23,22.1 24.1,18.6 21.3,16.6 24.9,16.6 26.2,13 		"/>
		<polygon fill="#FFFFFF" points="26.2,13 27.6,16.7 31.2,16.7 28.3,18.6 29.4,22.1 26.2,20 		"/>
		<polygon fill="#EB5650" points="26.2,29 23,31 24.1,27.5 21.3,25.6 24.9,25.6 26.2,21.9 		"/>
		<polygon fill="#FFFFFF" points="26.2,21.9 27.6,25.6 31.2,25.6 28.3,27.5 29.4,31 26.2,29 		"/>
		<polygon fill="#EB5650" points="26.2,37.9 23,39.9 24.1,36.5 21.3,34.5 24.9,34.5 26.2,30.9 		"/>
		<polygon fill="#FFFFFF" points="26.2,30.9 27.6,34.5 31.2,34.5 28.3,36.5 29.4,40 26.2,37.9 		"/>
		<polygon fill="#EB5650" points="26.2,46.8 23,48.9 24.1,45.4 21.3,43.4 24.9,43.4 26.2,39.8 		"/>
		<polygon fill="#FFFFFF" points="26.2,39.8 27.6,43.5 31.2,43.5 28.3,45.4 29.4,48.9 26.2,46.8 		"/>
	</g>
</g>
</svg>
