<svg id="Ebene_1" data-name="Ebene 1" xmlns="http://www.w3.org/2000/svg" viewBox="0 0 100 100"><defs><style>.cls-1{fill:#007abf;}</style></defs><title>sprint</title><path class="cls-1" d="M78,31.69a5.28,5.28,0,0,1,4.93,5.81c-.23,3.61-3.47,6.8-7.25,5.37a5.3,5.3,0,0,1-3.2-5.44C72.68,33.6,75.7,31.57,78,31.69ZM26.77,76c2.46-1.78,4.64-3.28,5.43-6.83,2.13-9.6-1.36-18,.21-21.43,2.59-5.62,18.06-8.65,28.4-9.38-4.18-6.84-8.62-11.19-14.5-4.57-1.51,1.69-3.72,4.85-5.35,4.73-1.85-.14-1.73-1.92-1-3.59,1.63-3.6,5.1-7,8.31-9.09C57.05,20,65.12,31.69,69.56,38.59,74.33,46,77,52.33,80.89,53c2.81.49,5.89-3,7.57-5,1.83-2.15,3.69-3,5.71-1.35C88.77,22.31,53.51-7.52,33.24,3.53,17.32,12.2,2.37,54,5.56,78.63c3.75.57,8.49,1.17,13.92,1.65A63.72,63.72,0,0,0,26.77,76Z"/><path class="cls-1" d="M47.63,70.47a1.6,1.6,0,0,0,1.85-1.17c1-2.21-1.37-9-8.71-12.22A41.69,41.69,0,0,1,40,70.81,61,61,0,0,1,47.63,70.47Z"/><path class="cls-1" d="M27.83,82.64a167,167,0,0,1-15.38,9,7.05,7.05,0,0,1-1.67.57,12.14,12.14,0,0,0,2.18,2A202.18,202.18,0,0,0,75.78,82.59a67,67,0,0,0,7-6C72.55,79.94,55.29,83.29,27.83,82.64Z"/><path class="cls-1" d="M94.83,51.36c-2,3.71-8.1,7.66-11,8.5-6.14,1.77-11.09-2.1-16.74-10.78-2.71,0-12.83,1.5-16.91,3,4.66,3.54,11.41,13.35,8.73,20.07-1.6,4-3.7,4.78-7.07,4.16-2.83-.51-10.47-1.56-14.62-.42a78.91,78.91,0,0,1-6.82,5c16.84.65,37.34-.56,55.2-7.3,4.65-5.28,7.89-11.12,9-17.23A21.52,21.52,0,0,0,94.83,51.36Z"/><path class="cls-1" d="M6,81.56a31.14,31.14,0,0,0,1.33,4.72c1-.74,5.24-2.58,8.25-4.05Q11,82,6,81.56Z"/><path class="cls-1" d="M71.7,85.42a248,248,0,0,1-55,10.94C30.56,102.42,54.06,96.86,71.7,85.42Z"/></svg>